<?xml version="1.0" encoding="utf-8" standalone="no"?>
<!DOCTYPE svg PUBLIC "-//W3C//DTD SVG 1.1//EN"
  "http://www.w3.org/Graphics/SVG/1.1/DTD/svg11.dtd">
<!-- Created with matplotlib (https://matplotlib.org/) -->
<svg height="288pt" version="1.1" viewBox="0 0 432 288" width="432pt" xmlns="http://www.w3.org/2000/svg" xmlns:xlink="http://www.w3.org/1999/xlink">
 <defs>
  <style type="text/css">
*{stroke-linecap:butt;stroke-linejoin:round;}
  </style>
 </defs>
 <g id="figure_1">
  <g id="patch_1">
   <path d="M 0 288 
L 432 288 
L 432 0 
L 0 0 
z
" style="fill:#ffffff;"/>
  </g>
  <g id="axes_1">
   <g id="patch_2">
    <path d="M 54 252 
L 388.8 252 
L 388.8 34.56 
L 54 34.56 
z
" style="fill:#ffffff;"/>
   </g>
   <g id="PathCollection_1">
    <defs>
     <path d="M 0 1.5 
C 0.397805 1.5 0.77937 1.341951 1.06066 1.06066 
C 1.341951 0.77937 1.5 0.397805 1.5 0 
C 1.5 -0.397805 1.341951 -0.77937 1.06066 -1.06066 
C 0.77937 -1.341951 0.397805 -1.5 0 -1.5 
C -0.397805 -1.5 -0.77937 -1.341951 -1.06066 -1.06066 
C -1.341951 -0.77937 -1.5 -0.397805 -1.5 0 
C -1.5 0.397805 -1.341951 0.77937 -1.06066 1.06066 
C -0.77937 1.341951 -0.397805 1.5 0 1.5 
z
" id="m0cc6c0273e" style="stroke:#008000;"/>
    </defs>
    <g clip-path="url(#paadeb5232b)">
     <use style="fill:#008000;stroke:#008000;" x="70.544999" xlink:href="#m0cc6c0273e" y="195.928151"/>
     <use style="fill:#008000;stroke:#008000;" x="74.560298" xlink:href="#m0cc6c0273e" y="203.110962"/>
     <use style="fill:#008000;stroke:#008000;" x="74.877008" xlink:href="#m0cc6c0273e" y="239.377175"/>
     <use style="fill:#008000;stroke:#008000;" x="75.595406" xlink:href="#m0cc6c0273e" y="225.760583"/>
     <use style="fill:#008000;stroke:#008000;" x="80.240298" xlink:href="#m0cc6c0273e" y="181.717751"/>
     <use style="fill:#008000;stroke:#008000;" x="81.559169" xlink:href="#m0cc6c0273e" y="185.208901"/>
     <use style="fill:#008000;stroke:#008000;" x="82.003799" xlink:href="#m0cc6c0273e" y="203.134611"/>
     <use style="fill:#008000;stroke:#008000;" x="83.916759" xlink:href="#m0cc6c0273e" y="190.0003"/>
     <use style="fill:#008000;stroke:#008000;" x="85.338667" xlink:href="#m0cc6c0273e" y="194.20768"/>
     <use style="fill:#008000;stroke:#008000;" x="91.514911" xlink:href="#m0cc6c0273e" y="192.761305"/>
     <use style="fill:#008000;stroke:#008000;" x="91.782588" xlink:href="#m0cc6c0273e" y="207.634835"/>
     <use style="fill:#008000;stroke:#008000;" x="92.757085" xlink:href="#m0cc6c0273e" y="193.024891"/>
     <use style="fill:#008000;stroke:#008000;" x="93.121599" xlink:href="#m0cc6c0273e" y="175.810757"/>
     <use style="fill:#008000;stroke:#008000;" x="94.2308" xlink:href="#m0cc6c0273e" y="187.291401"/>
     <use style="fill:#008000;stroke:#008000;" x="94.448683" xlink:href="#m0cc6c0273e" y="178.410165"/>
     <use style="fill:#008000;stroke:#008000;" x="96.230399" xlink:href="#m0cc6c0273e" y="193.72506"/>
     <use style="fill:#008000;stroke:#008000;" x="97.084871" xlink:href="#m0cc6c0273e" y="183.276825"/>
     <use style="fill:#008000;stroke:#008000;" x="97.988704" xlink:href="#m0cc6c0273e" y="180.879108"/>
     <use style="fill:#008000;stroke:#008000;" x="99.386906" xlink:href="#m0cc6c0273e" y="193.364666"/>
     <use style="fill:#008000;stroke:#008000;" x="99.954486" xlink:href="#m0cc6c0273e" y="184.708189"/>
     <use style="fill:#008000;stroke:#008000;" x="103.118626" xlink:href="#m0cc6c0273e" y="195.974043"/>
     <use style="fill:#008000;stroke:#008000;" x="104.5304" xlink:href="#m0cc6c0273e" y="179.494063"/>
     <use style="fill:#008000;stroke:#008000;" x="105.839513" xlink:href="#m0cc6c0273e" y="183.751195"/>
     <use style="fill:#008000;stroke:#008000;" x="106.665798" xlink:href="#m0cc6c0273e" y="191.545179"/>
     <use style="fill:#008000;stroke:#008000;" x="110.016796" xlink:href="#m0cc6c0273e" y="161.669463"/>
     <use style="fill:#008000;stroke:#008000;" x="110.336889" xlink:href="#m0cc6c0273e" y="188.018912"/>
     <use style="fill:#008000;stroke:#008000;" x="114.255068" xlink:href="#m0cc6c0273e" y="175.883818"/>
     <use style="fill:#008000;stroke:#008000;" x="114.279935" xlink:href="#m0cc6c0273e" y="182.314304"/>
     <use style="fill:#008000;stroke:#008000;" x="114.884786" xlink:href="#m0cc6c0273e" y="171.696633"/>
     <use style="fill:#008000;stroke:#008000;" x="118.710378" xlink:href="#m0cc6c0273e" y="155.010928"/>
     <use style="fill:#008000;stroke:#008000;" x="118.781013" xlink:href="#m0cc6c0273e" y="169.958514"/>
     <use style="fill:#008000;stroke:#008000;" x="120.525217" xlink:href="#m0cc6c0273e" y="169.039815"/>
     <use style="fill:#008000;stroke:#008000;" x="121.33951" xlink:href="#m0cc6c0273e" y="162.189098"/>
     <use style="fill:#008000;stroke:#008000;" x="122.055526" xlink:href="#m0cc6c0273e" y="163.784592"/>
     <use style="fill:#008000;stroke:#008000;" x="122.183308" xlink:href="#m0cc6c0273e" y="169.46996"/>
     <use style="fill:#008000;stroke:#008000;" x="125.929205" xlink:href="#m0cc6c0273e" y="188.838714"/>
     <use style="fill:#008000;stroke:#008000;" x="127.423283" xlink:href="#m0cc6c0273e" y="150.203889"/>
     <use style="fill:#008000;stroke:#008000;" x="128.589932" xlink:href="#m0cc6c0273e" y="140.637094"/>
     <use style="fill:#008000;stroke:#008000;" x="128.717608" xlink:href="#m0cc6c0273e" y="166.457253"/>
     <use style="fill:#008000;stroke:#008000;" x="129.995956" xlink:href="#m0cc6c0273e" y="166.250335"/>
     <use style="fill:#008000;stroke:#008000;" x="131.159873" xlink:href="#m0cc6c0273e" y="154.898021"/>
     <use style="fill:#008000;stroke:#008000;" x="133.808641" xlink:href="#m0cc6c0273e" y="150.818559"/>
     <use style="fill:#008000;stroke:#008000;" x="136.373775" xlink:href="#m0cc6c0273e" y="141.643117"/>
     <use style="fill:#008000;stroke:#008000;" x="137.529673" xlink:href="#m0cc6c0273e" y="148.088021"/>
     <use style="fill:#008000;stroke:#008000;" x="138.490917" xlink:href="#m0cc6c0273e" y="155.706388"/>
     <use style="fill:#008000;stroke:#008000;" x="138.933449" xlink:href="#m0cc6c0273e" y="169.064197"/>
     <use style="fill:#008000;stroke:#008000;" x="139.726905" xlink:href="#m0cc6c0273e" y="135.785019"/>
     <use style="fill:#008000;stroke:#008000;" x="144.223348" xlink:href="#m0cc6c0273e" y="151.087475"/>
     <use style="fill:#008000;stroke:#008000;" x="144.58839" xlink:href="#m0cc6c0273e" y="164.459901"/>
     <use style="fill:#008000;stroke:#008000;" x="146.768351" xlink:href="#m0cc6c0273e" y="148.809839"/>
     <use style="fill:#008000;stroke:#008000;" x="148.452249" xlink:href="#m0cc6c0273e" y="154.26377"/>
     <use style="fill:#008000;stroke:#008000;" x="149.260996" xlink:href="#m0cc6c0273e" y="139.097172"/>
     <use style="fill:#008000;stroke:#008000;" x="149.997283" xlink:href="#m0cc6c0273e" y="145.251646"/>
     <use style="fill:#008000;stroke:#008000;" x="152.303019" xlink:href="#m0cc6c0273e" y="138.402946"/>
     <use style="fill:#008000;stroke:#008000;" x="153.350592" xlink:href="#m0cc6c0273e" y="144.405762"/>
     <use style="fill:#008000;stroke:#008000;" x="153.456675" xlink:href="#m0cc6c0273e" y="138.905897"/>
     <use style="fill:#008000;stroke:#008000;" x="154.480389" xlink:href="#m0cc6c0273e" y="134.009951"/>
     <use style="fill:#008000;stroke:#008000;" x="154.907947" xlink:href="#m0cc6c0273e" y="136.108701"/>
     <use style="fill:#008000;stroke:#008000;" x="155.876207" xlink:href="#m0cc6c0273e" y="150.152264"/>
     <use style="fill:#008000;stroke:#008000;" x="158.989996" xlink:href="#m0cc6c0273e" y="124.310542"/>
     <use style="fill:#008000;stroke:#008000;" x="160.003137" xlink:href="#m0cc6c0273e" y="135.99551"/>
     <use style="fill:#008000;stroke:#008000;" x="160.688402" xlink:href="#m0cc6c0273e" y="143.771884"/>
     <use style="fill:#008000;stroke:#008000;" x="164.873642" xlink:href="#m0cc6c0273e" y="126.583518"/>
     <use style="fill:#008000;stroke:#008000;" x="167.500298" xlink:href="#m0cc6c0273e" y="159.65651"/>
     <use style="fill:#008000;stroke:#008000;" x="170.718929" xlink:href="#m0cc6c0273e" y="130.658524"/>
     <use style="fill:#008000;stroke:#008000;" x="171.312204" xlink:href="#m0cc6c0273e" y="133.053583"/>
     <use style="fill:#008000;stroke:#008000;" x="172.603282" xlink:href="#m0cc6c0273e" y="119.259988"/>
     <use style="fill:#008000;stroke:#008000;" x="175.187528" xlink:href="#m0cc6c0273e" y="136.29785"/>
     <use style="fill:#008000;stroke:#008000;" x="175.71954" xlink:href="#m0cc6c0273e" y="131.928532"/>
     <use style="fill:#008000;stroke:#008000;" x="176.315418" xlink:href="#m0cc6c0273e" y="143.514732"/>
     <use style="fill:#008000;stroke:#008000;" x="177.259765" xlink:href="#m0cc6c0273e" y="118.760542"/>
     <use style="fill:#008000;stroke:#008000;" x="179.915297" xlink:href="#m0cc6c0273e" y="101.861836"/>
     <use style="fill:#008000;stroke:#008000;" x="184.416766" xlink:href="#m0cc6c0273e" y="128.106695"/>
     <use style="fill:#008000;stroke:#008000;" x="186.574686" xlink:href="#m0cc6c0273e" y="128.911762"/>
     <use style="fill:#008000;stroke:#008000;" x="187.573373" xlink:href="#m0cc6c0273e" y="119.753246"/>
     <use style="fill:#008000;stroke:#008000;" x="188.348986" xlink:href="#m0cc6c0273e" y="117.523828"/>
     <use style="fill:#008000;stroke:#008000;" x="189.139175" xlink:href="#m0cc6c0273e" y="116.493054"/>
     <use style="fill:#008000;stroke:#008000;" x="189.483768" xlink:href="#m0cc6c0273e" y="110.277859"/>
     <use style="fill:#008000;stroke:#008000;" x="189.682586" xlink:href="#m0cc6c0273e" y="120.077378"/>
     <use style="fill:#008000;stroke:#008000;" x="189.966927" xlink:href="#m0cc6c0273e" y="111.737369"/>
     <use style="fill:#008000;stroke:#008000;" x="190.393391" xlink:href="#m0cc6c0273e" y="108.690246"/>
     <use style="fill:#008000;stroke:#008000;" x="191.50248" xlink:href="#m0cc6c0273e" y="123.536375"/>
     <use style="fill:#008000;stroke:#008000;" x="193.097976" xlink:href="#m0cc6c0273e" y="104.451813"/>
     <use style="fill:#008000;stroke:#008000;" x="193.568785" xlink:href="#m0cc6c0273e" y="118.299457"/>
     <use style="fill:#008000;stroke:#008000;" x="194.921993" xlink:href="#m0cc6c0273e" y="92.640478"/>
     <use style="fill:#008000;stroke:#008000;" x="198.916384" xlink:href="#m0cc6c0273e" y="110.056052"/>
     <use style="fill:#008000;stroke:#008000;" x="200.521277" xlink:href="#m0cc6c0273e" y="109.322545"/>
     <use style="fill:#008000;stroke:#008000;" x="201.914998" xlink:href="#m0cc6c0273e" y="106.121212"/>
     <use style="fill:#008000;stroke:#008000;" x="207.362544" xlink:href="#m0cc6c0273e" y="112.555755"/>
     <use style="fill:#008000;stroke:#008000;" x="207.534031" xlink:href="#m0cc6c0273e" y="119.201121"/>
     <use style="fill:#008000;stroke:#008000;" x="211.09111" xlink:href="#m0cc6c0273e" y="95.885426"/>
     <use style="fill:#008000;stroke:#008000;" x="211.27009" xlink:href="#m0cc6c0273e" y="113.179533"/>
     <use style="fill:#008000;stroke:#008000;" x="211.467943" xlink:href="#m0cc6c0273e" y="91.034618"/>
     <use style="fill:#008000;stroke:#008000;" x="212.711078" xlink:href="#m0cc6c0273e" y="114.419249"/>
     <use style="fill:#008000;stroke:#008000;" x="215.597013" xlink:href="#m0cc6c0273e" y="94.36606"/>
     <use style="fill:#008000;stroke:#008000;" x="218.074969" xlink:href="#m0cc6c0273e" y="115.15991"/>
     <use style="fill:#008000;stroke:#008000;" x="219.001428" xlink:href="#m0cc6c0273e" y="80.45607"/>
     <use style="fill:#008000;stroke:#008000;" x="219.025737" xlink:href="#m0cc6c0273e" y="80.389062"/>
     <use style="fill:#008000;stroke:#008000;" x="219.928621" xlink:href="#m0cc6c0273e" y="89.555878"/>
     <use style="fill:#008000;stroke:#008000;" x="221.887114" xlink:href="#m0cc6c0273e" y="112.128849"/>
     <use style="fill:#008000;stroke:#008000;" x="224.969133" xlink:href="#m0cc6c0273e" y="94.633225"/>
     <use style="fill:#008000;stroke:#008000;" x="225.46026" xlink:href="#m0cc6c0273e" y="97.462299"/>
     <use style="fill:#008000;stroke:#008000;" x="226.434331" xlink:href="#m0cc6c0273e" y="96.211317"/>
     <use style="fill:#008000;stroke:#008000;" x="227.820679" xlink:href="#m0cc6c0273e" y="97.84266"/>
     <use style="fill:#008000;stroke:#008000;" x="230.373758" xlink:href="#m0cc6c0273e" y="83.758448"/>
     <use style="fill:#008000;stroke:#008000;" x="230.917409" xlink:href="#m0cc6c0273e" y="116.530364"/>
     <use style="fill:#008000;stroke:#008000;" x="232.579124" xlink:href="#m0cc6c0273e" y="80.361193"/>
     <use style="fill:#008000;stroke:#008000;" x="233.247062" xlink:href="#m0cc6c0273e" y="96.654603"/>
     <use style="fill:#008000;stroke:#008000;" x="234.080522" xlink:href="#m0cc6c0273e" y="100.251762"/>
     <use style="fill:#008000;stroke:#008000;" x="235.834013" xlink:href="#m0cc6c0273e" y="95.837317"/>
     <use style="fill:#008000;stroke:#008000;" x="236.084151" xlink:href="#m0cc6c0273e" y="96.702676"/>
     <use style="fill:#008000;stroke:#008000;" x="242.805463" xlink:href="#m0cc6c0273e" y="92.337179"/>
     <use style="fill:#008000;stroke:#008000;" x="243.169091" xlink:href="#m0cc6c0273e" y="94.017812"/>
     <use style="fill:#008000;stroke:#008000;" x="243.914918" xlink:href="#m0cc6c0273e" y="88.260963"/>
     <use style="fill:#008000;stroke:#008000;" x="244.993376" xlink:href="#m0cc6c0273e" y="89.360005"/>
     <use style="fill:#008000;stroke:#008000;" x="245.439686" xlink:href="#m0cc6c0273e" y="84.974339"/>
     <use style="fill:#008000;stroke:#008000;" x="245.459335" xlink:href="#m0cc6c0273e" y="106.057818"/>
     <use style="fill:#008000;stroke:#008000;" x="247.126564" xlink:href="#m0cc6c0273e" y="95.274754"/>
     <use style="fill:#008000;stroke:#008000;" x="248.448257" xlink:href="#m0cc6c0273e" y="71.890393"/>
     <use style="fill:#008000;stroke:#008000;" x="249.04164" xlink:href="#m0cc6c0273e" y="84.095905"/>
     <use style="fill:#008000;stroke:#008000;" x="249.696464" xlink:href="#m0cc6c0273e" y="77.065517"/>
     <use style="fill:#008000;stroke:#008000;" x="252.042395" xlink:href="#m0cc6c0273e" y="102.277257"/>
     <use style="fill:#008000;stroke:#008000;" x="252.942028" xlink:href="#m0cc6c0273e" y="80.739868"/>
     <use style="fill:#008000;stroke:#008000;" x="257.628581" xlink:href="#m0cc6c0273e" y="80.92723"/>
     <use style="fill:#008000;stroke:#008000;" x="259.88644" xlink:href="#m0cc6c0273e" y="94.31489"/>
     <use style="fill:#008000;stroke:#008000;" x="261.232078" xlink:href="#m0cc6c0273e" y="89.484624"/>
     <use style="fill:#008000;stroke:#008000;" x="261.267192" xlink:href="#m0cc6c0273e" y="89.122422"/>
     <use style="fill:#008000;stroke:#008000;" x="263.013858" xlink:href="#m0cc6c0273e" y="67.769278"/>
     <use style="fill:#008000;stroke:#008000;" x="264.907581" xlink:href="#m0cc6c0273e" y="95.026666"/>
     <use style="fill:#008000;stroke:#008000;" x="265.74341" xlink:href="#m0cc6c0273e" y="98.779327"/>
     <use style="fill:#008000;stroke:#008000;" x="265.749954" xlink:href="#m0cc6c0273e" y="71.535558"/>
     <use style="fill:#008000;stroke:#008000;" x="266.782666" xlink:href="#m0cc6c0273e" y="82.528458"/>
     <use style="fill:#008000;stroke:#008000;" x="266.947449" xlink:href="#m0cc6c0273e" y="51.764992"/>
     <use style="fill:#008000;stroke:#008000;" x="267.979102" xlink:href="#m0cc6c0273e" y="70.058193"/>
     <use style="fill:#008000;stroke:#008000;" x="268.13017" xlink:href="#m0cc6c0273e" y="86.170037"/>
     <use style="fill:#008000;stroke:#008000;" x="268.297934" xlink:href="#m0cc6c0273e" y="87.373362"/>
     <use style="fill:#008000;stroke:#008000;" x="272.424355" xlink:href="#m0cc6c0273e" y="81.981516"/>
     <use style="fill:#008000;stroke:#008000;" x="276.277602" xlink:href="#m0cc6c0273e" y="80.28957"/>
     <use style="fill:#008000;stroke:#008000;" x="277.906892" xlink:href="#m0cc6c0273e" y="67.802319"/>
     <use style="fill:#008000;stroke:#008000;" x="281.407022" xlink:href="#m0cc6c0273e" y="67.179594"/>
     <use style="fill:#008000;stroke:#008000;" x="284.829311" xlink:href="#m0cc6c0273e" y="74.09749"/>
     <use style="fill:#008000;stroke:#008000;" x="286.138471" xlink:href="#m0cc6c0273e" y="47.544877"/>
     <use style="fill:#008000;stroke:#008000;" x="287.436994" xlink:href="#m0cc6c0273e" y="67.622558"/>
     <use style="fill:#008000;stroke:#008000;" x="287.618239" xlink:href="#m0cc6c0273e" y="83.762607"/>
     <use style="fill:#008000;stroke:#008000;" x="291.687596" xlink:href="#m0cc6c0273e" y="81.337503"/>
     <use style="fill:#008000;stroke:#008000;" x="292.283483" xlink:href="#m0cc6c0273e" y="96.203435"/>
     <use style="fill:#008000;stroke:#008000;" x="292.388671" xlink:href="#m0cc6c0273e" y="94.050145"/>
     <use style="fill:#008000;stroke:#008000;" x="292.573197" xlink:href="#m0cc6c0273e" y="68.224288"/>
     <use style="fill:#008000;stroke:#008000;" x="295.590068" xlink:href="#m0cc6c0273e" y="74.646143"/>
     <use style="fill:#008000;stroke:#008000;" x="297.506666" xlink:href="#m0cc6c0273e" y="95.890058"/>
     <use style="fill:#008000;stroke:#008000;" x="297.869488" xlink:href="#m0cc6c0273e" y="67.192444"/>
     <use style="fill:#008000;stroke:#008000;" x="298.292491" xlink:href="#m0cc6c0273e" y="89.209096"/>
     <use style="fill:#008000;stroke:#008000;" x="302.29577" xlink:href="#m0cc6c0273e" y="60.110558"/>
     <use style="fill:#008000;stroke:#008000;" x="302.749607" xlink:href="#m0cc6c0273e" y="72.236943"/>
     <use style="fill:#008000;stroke:#008000;" x="302.96587" xlink:href="#m0cc6c0273e" y="76.870804"/>
     <use style="fill:#008000;stroke:#008000;" x="306.110752" xlink:href="#m0cc6c0273e" y="88.294727"/>
     <use style="fill:#008000;stroke:#008000;" x="308.023818" xlink:href="#m0cc6c0273e" y="48.208357"/>
     <use style="fill:#008000;stroke:#008000;" x="309.244615" xlink:href="#m0cc6c0273e" y="76.22364"/>
     <use style="fill:#008000;stroke:#008000;" x="310.836002" xlink:href="#m0cc6c0273e" y="81.231228"/>
     <use style="fill:#008000;stroke:#008000;" x="311.293797" xlink:href="#m0cc6c0273e" y="74.391199"/>
     <use style="fill:#008000;stroke:#008000;" x="315.591304" xlink:href="#m0cc6c0273e" y="78.045113"/>
     <use style="fill:#008000;stroke:#008000;" x="315.975861" xlink:href="#m0cc6c0273e" y="69.453505"/>
     <use style="fill:#008000;stroke:#008000;" x="317.478366" xlink:href="#m0cc6c0273e" y="72.128981"/>
     <use style="fill:#008000;stroke:#008000;" x="318.637475" xlink:href="#m0cc6c0273e" y="64.376607"/>
     <use style="fill:#008000;stroke:#008000;" x="320.583837" xlink:href="#m0cc6c0273e" y="78.892762"/>
     <use style="fill:#008000;stroke:#008000;" x="321.480292" xlink:href="#m0cc6c0273e" y="63.054006"/>
     <use style="fill:#008000;stroke:#008000;" x="321.746516" xlink:href="#m0cc6c0273e" y="84.179044"/>
     <use style="fill:#008000;stroke:#008000;" x="322.340974" xlink:href="#m0cc6c0273e" y="70.774775"/>
     <use style="fill:#008000;stroke:#008000;" x="323.429646" xlink:href="#m0cc6c0273e" y="78.554639"/>
     <use style="fill:#008000;stroke:#008000;" x="324.679431" xlink:href="#m0cc6c0273e" y="77.688443"/>
     <use style="fill:#008000;stroke:#008000;" x="326.754734" xlink:href="#m0cc6c0273e" y="69.327681"/>
     <use style="fill:#008000;stroke:#008000;" x="328.95993" xlink:href="#m0cc6c0273e" y="84.68432"/>
     <use style="fill:#008000;stroke:#008000;" x="330.564935" xlink:href="#m0cc6c0273e" y="64.629088"/>
     <use style="fill:#008000;stroke:#008000;" x="330.71824" xlink:href="#m0cc6c0273e" y="72.130054"/>
     <use style="fill:#008000;stroke:#008000;" x="333.153914" xlink:href="#m0cc6c0273e" y="47.182825"/>
     <use style="fill:#008000;stroke:#008000;" x="334.931197" xlink:href="#m0cc6c0273e" y="67.480988"/>
     <use style="fill:#008000;stroke:#008000;" x="336.227658" xlink:href="#m0cc6c0273e" y="74.092464"/>
     <use style="fill:#008000;stroke:#008000;" x="336.470187" xlink:href="#m0cc6c0273e" y="86.659608"/>
     <use style="fill:#008000;stroke:#008000;" x="336.82206" xlink:href="#m0cc6c0273e" y="61.998604"/>
     <use style="fill:#008000;stroke:#008000;" x="338.090346" xlink:href="#m0cc6c0273e" y="76.240981"/>
     <use style="fill:#008000;stroke:#008000;" x="339.454893" xlink:href="#m0cc6c0273e" y="83.605876"/>
     <use style="fill:#008000;stroke:#008000;" x="339.893376" xlink:href="#m0cc6c0273e" y="85.338062"/>
     <use style="fill:#008000;stroke:#008000;" x="344.716063" xlink:href="#m0cc6c0273e" y="69.081217"/>
     <use style="fill:#008000;stroke:#008000;" x="346.120168" xlink:href="#m0cc6c0273e" y="85.816878"/>
     <use style="fill:#008000;stroke:#008000;" x="346.715273" xlink:href="#m0cc6c0273e" y="88.8893"/>
     <use style="fill:#008000;stroke:#008000;" x="346.963453" xlink:href="#m0cc6c0273e" y="109.448544"/>
     <use style="fill:#008000;stroke:#008000;" x="352.001679" xlink:href="#m0cc6c0273e" y="80.850639"/>
     <use style="fill:#008000;stroke:#008000;" x="354.972872" xlink:href="#m0cc6c0273e" y="83.195241"/>
     <use style="fill:#008000;stroke:#008000;" x="355.288004" xlink:href="#m0cc6c0273e" y="96.128933"/>
     <use style="fill:#008000;stroke:#008000;" x="356.742588" xlink:href="#m0cc6c0273e" y="80.630746"/>
     <use style="fill:#008000;stroke:#008000;" x="357.087773" xlink:href="#m0cc6c0273e" y="71.908047"/>
     <use style="fill:#008000;stroke:#008000;" x="359.663139" xlink:href="#m0cc6c0273e" y="83.947838"/>
     <use style="fill:#008000;stroke:#008000;" x="361.898891" xlink:href="#m0cc6c0273e" y="68.305863"/>
     <use style="fill:#008000;stroke:#008000;" x="362.519161" xlink:href="#m0cc6c0273e" y="53.044856"/>
     <use style="fill:#008000;stroke:#008000;" x="364.739291" xlink:href="#m0cc6c0273e" y="62.994261"/>
     <use style="fill:#008000;stroke:#008000;" x="367.581742" xlink:href="#m0cc6c0273e" y="74.168543"/>
     <use style="fill:#008000;stroke:#008000;" x="367.662173" xlink:href="#m0cc6c0273e" y="77.541947"/>
     <use style="fill:#008000;stroke:#008000;" x="369.125752" xlink:href="#m0cc6c0273e" y="87.182065"/>
     <use style="fill:#008000;stroke:#008000;" x="369.875538" xlink:href="#m0cc6c0273e" y="67.604362"/>
     <use style="fill:#008000;stroke:#008000;" x="372.255001" xlink:href="#m0cc6c0273e" y="87.101179"/>
    </g>
   </g>
   <g id="matplotlib.axis_1">
    <g id="xtick_1">
     <g id="line2d_1">
      <defs>
       <path d="M 0 0 
L 0 3.5 
" id="mcdace65a12" style="stroke:#000000;stroke-width:0.8;"/>
      </defs>
      <g>
       <use style="stroke:#000000;stroke-width:0.8;" x="103.54634" xlink:href="#mcdace65a12" y="252"/>
      </g>
     </g>
     <g id="text_1">
      <!-- −0.4 -->
      <defs>
       <path d="M 10.59375 35.5 
L 73.1875 35.5 
L 73.1875 27.203125 
L 10.59375 27.203125 
z
" id="DejaVuSans-8722"/>
       <path d="M 31.78125 66.40625 
Q 24.171875 66.40625 20.328125 58.90625 
Q 16.5 51.421875 16.5 36.375 
Q 16.5 21.390625 20.328125 13.890625 
Q 24.171875 6.390625 31.78125 6.390625 
Q 39.453125 6.390625 43.28125 13.890625 
Q 47.125 21.390625 47.125 36.375 
Q 47.125 51.421875 43.28125 58.90625 
Q 39.453125 66.40625 31.78125 66.40625 
z
M 31.78125 74.21875 
Q 44.046875 74.21875 50.515625 64.515625 
Q 56.984375 54.828125 56.984375 36.375 
Q 56.984375 17.96875 50.515625 8.265625 
Q 44.046875 -1.421875 31.78125 -1.421875 
Q 19.53125 -1.421875 13.0625 8.265625 
Q 6.59375 17.96875 6.59375 36.375 
Q 6.59375 54.828125 13.0625 64.515625 
Q 19.53125 74.21875 31.78125 74.21875 
z
" id="DejaVuSans-48"/>
       <path d="M 10.6875 12.40625 
L 21 12.40625 
L 21 0 
L 10.6875 0 
z
" id="DejaVuSans-46"/>
       <path d="M 37.796875 64.3125 
L 12.890625 25.390625 
L 37.796875 25.390625 
z
M 35.203125 72.90625 
L 47.609375 72.90625 
L 47.609375 25.390625 
L 58.015625 25.390625 
L 58.015625 17.1875 
L 47.609375 17.1875 
L 47.609375 0 
L 37.796875 0 
L 37.796875 17.1875 
L 4.890625 17.1875 
L 4.890625 26.703125 
z
" id="DejaVuSans-52"/>
      </defs>
      <g transform="translate(91.404934 266.598437)scale(0.1 -0.1)">
       <use xlink:href="#DejaVuSans-8722"/>
       <use x="83.789062" xlink:href="#DejaVuSans-48"/>
       <use x="147.412109" xlink:href="#DejaVuSans-46"/>
       <use x="179.199219" xlink:href="#DejaVuSans-52"/>
      </g>
     </g>
    </g>
    <g id="xtick_2">
     <g id="line2d_2">
      <g>
       <use style="stroke:#000000;stroke-width:0.8;" x="162.775466" xlink:href="#mcdace65a12" y="252"/>
      </g>
     </g>
     <g id="text_2">
      <!-- −0.2 -->
      <defs>
       <path d="M 19.1875 8.296875 
L 53.609375 8.296875 
L 53.609375 0 
L 7.328125 0 
L 7.328125 8.296875 
Q 12.9375 14.109375 22.625 23.890625 
Q 32.328125 33.6875 34.8125 36.53125 
Q 39.546875 41.84375 41.421875 45.53125 
Q 43.3125 49.21875 43.3125 52.78125 
Q 43.3125 58.59375 39.234375 62.25 
Q 35.15625 65.921875 28.609375 65.921875 
Q 23.96875 65.921875 18.8125 64.3125 
Q 13.671875 62.703125 7.8125 59.421875 
L 7.8125 69.390625 
Q 13.765625 71.78125 18.9375 73 
Q 24.125 74.21875 28.421875 74.21875 
Q 39.75 74.21875 46.484375 68.546875 
Q 53.21875 62.890625 53.21875 53.421875 
Q 53.21875 48.921875 51.53125 44.890625 
Q 49.859375 40.875 45.40625 35.40625 
Q 44.1875 33.984375 37.640625 27.21875 
Q 31.109375 20.453125 19.1875 8.296875 
z
" id="DejaVuSans-50"/>
      </defs>
      <g transform="translate(150.63406 266.598437)scale(0.1 -0.1)">
       <use xlink:href="#DejaVuSans-8722"/>
       <use x="83.789062" xlink:href="#DejaVuSans-48"/>
       <use x="147.412109" xlink:href="#DejaVuSans-46"/>
       <use x="179.199219" xlink:href="#DejaVuSans-50"/>
      </g>
     </g>
    </g>
    <g id="xtick_3">
     <g id="line2d_3">
      <g>
       <use style="stroke:#000000;stroke-width:0.8;" x="222.004593" xlink:href="#mcdace65a12" y="252"/>
      </g>
     </g>
     <g id="text_3">
      <!-- 0.0 -->
      <g transform="translate(214.05303 266.598437)scale(0.1 -0.1)">
       <use xlink:href="#DejaVuSans-48"/>
       <use x="63.623047" xlink:href="#DejaVuSans-46"/>
       <use x="95.410156" xlink:href="#DejaVuSans-48"/>
      </g>
     </g>
    </g>
    <g id="xtick_4">
     <g id="line2d_4">
      <g>
       <use style="stroke:#000000;stroke-width:0.8;" x="281.233719" xlink:href="#mcdace65a12" y="252"/>
      </g>
     </g>
     <g id="text_4">
      <!-- 0.2 -->
      <g transform="translate(273.282157 266.598437)scale(0.1 -0.1)">
       <use xlink:href="#DejaVuSans-48"/>
       <use x="63.623047" xlink:href="#DejaVuSans-46"/>
       <use x="95.410156" xlink:href="#DejaVuSans-50"/>
      </g>
     </g>
    </g>
    <g id="xtick_5">
     <g id="line2d_5">
      <g>
       <use style="stroke:#000000;stroke-width:0.8;" x="340.462846" xlink:href="#mcdace65a12" y="252"/>
      </g>
     </g>
     <g id="text_5">
      <!-- 0.4 -->
      <g transform="translate(332.511283 266.598437)scale(0.1 -0.1)">
       <use xlink:href="#DejaVuSans-48"/>
       <use x="63.623047" xlink:href="#DejaVuSans-46"/>
       <use x="95.410156" xlink:href="#DejaVuSans-52"/>
      </g>
     </g>
    </g>
    <g id="text_6">
     <!-- X(input) -->
     <defs>
      <path d="M 6.296875 72.90625 
L 16.890625 72.90625 
L 35.015625 45.796875 
L 53.21875 72.90625 
L 63.8125 72.90625 
L 40.375 37.890625 
L 65.375 0 
L 54.78125 0 
L 34.28125 31 
L 13.625 0 
L 2.984375 0 
L 29 38.921875 
z
" id="DejaVuSans-88"/>
      <path d="M 31 75.875 
Q 24.46875 64.65625 21.28125 53.65625 
Q 18.109375 42.671875 18.109375 31.390625 
Q 18.109375 20.125 21.3125 9.0625 
Q 24.515625 -2 31 -13.1875 
L 23.1875 -13.1875 
Q 15.875 -1.703125 12.234375 9.375 
Q 8.59375 20.453125 8.59375 31.390625 
Q 8.59375 42.28125 12.203125 53.3125 
Q 15.828125 64.359375 23.1875 75.875 
z
" id="DejaVuSans-40"/>
      <path d="M 9.421875 54.6875 
L 18.40625 54.6875 
L 18.40625 0 
L 9.421875 0 
z
M 9.421875 75.984375 
L 18.40625 75.984375 
L 18.40625 64.59375 
L 9.421875 64.59375 
z
" id="DejaVuSans-105"/>
      <path d="M 54.890625 33.015625 
L 54.890625 0 
L 45.90625 0 
L 45.90625 32.71875 
Q 45.90625 40.484375 42.875 44.328125 
Q 39.84375 48.1875 33.796875 48.1875 
Q 26.515625 48.1875 22.3125 43.546875 
Q 18.109375 38.921875 18.109375 30.90625 
L 18.109375 0 
L 9.078125 0 
L 9.078125 54.6875 
L 18.109375 54.6875 
L 18.109375 46.1875 
Q 21.34375 51.125 25.703125 53.5625 
Q 30.078125 56 35.796875 56 
Q 45.21875 56 50.046875 50.171875 
Q 54.890625 44.34375 54.890625 33.015625 
z
" id="DejaVuSans-110"/>
      <path d="M 18.109375 8.203125 
L 18.109375 -20.796875 
L 9.078125 -20.796875 
L 9.078125 54.6875 
L 18.109375 54.6875 
L 18.109375 46.390625 
Q 20.953125 51.265625 25.265625 53.625 
Q 29.59375 56 35.59375 56 
Q 45.5625 56 51.78125 48.09375 
Q 58.015625 40.1875 58.015625 27.296875 
Q 58.015625 14.40625 51.78125 6.484375 
Q 45.5625 -1.421875 35.59375 -1.421875 
Q 29.59375 -1.421875 25.265625 0.953125 
Q 20.953125 3.328125 18.109375 8.203125 
z
M 48.6875 27.296875 
Q 48.6875 37.203125 44.609375 42.84375 
Q 40.53125 48.484375 33.40625 48.484375 
Q 26.265625 48.484375 22.1875 42.84375 
Q 18.109375 37.203125 18.109375 27.296875 
Q 18.109375 17.390625 22.1875 11.75 
Q 26.265625 6.109375 33.40625 6.109375 
Q 40.53125 6.109375 44.609375 11.75 
Q 48.6875 17.390625 48.6875 27.296875 
z
" id="DejaVuSans-112"/>
      <path d="M 8.5 21.578125 
L 8.5 54.6875 
L 17.484375 54.6875 
L 17.484375 21.921875 
Q 17.484375 14.15625 20.5 10.265625 
Q 23.53125 6.390625 29.59375 6.390625 
Q 36.859375 6.390625 41.078125 11.03125 
Q 45.3125 15.671875 45.3125 23.6875 
L 45.3125 54.6875 
L 54.296875 54.6875 
L 54.296875 0 
L 45.3125 0 
L 45.3125 8.40625 
Q 42.046875 3.421875 37.71875 1 
Q 33.40625 -1.421875 27.6875 -1.421875 
Q 18.265625 -1.421875 13.375 4.4375 
Q 8.5 10.296875 8.5 21.578125 
z
M 31.109375 56 
z
" id="DejaVuSans-117"/>
      <path d="M 18.3125 70.21875 
L 18.3125 54.6875 
L 36.8125 54.6875 
L 36.8125 47.703125 
L 18.3125 47.703125 
L 18.3125 18.015625 
Q 18.3125 11.328125 20.140625 9.421875 
Q 21.96875 7.515625 27.59375 7.515625 
L 36.8125 7.515625 
L 36.8125 0 
L 27.59375 0 
Q 17.1875 0 13.234375 3.875 
Q 9.28125 7.765625 9.28125 18.015625 
L 9.28125 47.703125 
L 2.6875 47.703125 
L 2.6875 54.6875 
L 9.28125 54.6875 
L 9.28125 70.21875 
z
" id="DejaVuSans-116"/>
      <path d="M 8.015625 75.875 
L 15.828125 75.875 
Q 23.140625 64.359375 26.78125 53.3125 
Q 30.421875 42.28125 30.421875 31.390625 
Q 30.421875 20.453125 26.78125 9.375 
Q 23.140625 -1.703125 15.828125 -13.1875 
L 8.015625 -13.1875 
Q 14.5 -2 17.703125 9.0625 
Q 20.90625 20.125 20.90625 31.390625 
Q 20.90625 42.671875 17.703125 53.65625 
Q 14.5 64.65625 8.015625 75.875 
z
" id="DejaVuSans-41"/>
     </defs>
     <g transform="translate(201.2125 280.276563)scale(0.1 -0.1)">
      <use xlink:href="#DejaVuSans-88"/>
      <use x="68.505859" xlink:href="#DejaVuSans-40"/>
      <use x="107.519531" xlink:href="#DejaVuSans-105"/>
      <use x="135.302734" xlink:href="#DejaVuSans-110"/>
      <use x="198.681641" xlink:href="#DejaVuSans-112"/>
      <use x="262.158203" xlink:href="#DejaVuSans-117"/>
      <use x="325.537109" xlink:href="#DejaVuSans-116"/>
      <use x="364.746094" xlink:href="#DejaVuSans-41"/>
     </g>
    </g>
   </g>
   <g id="matplotlib.axis_2">
    <g id="ytick_1">
     <g id="line2d_6">
      <defs>
       <path d="M 0 0 
L -3.5 0 
" id="m9ea0351610" style="stroke:#000000;stroke-width:0.8;"/>
      </defs>
      <g>
       <use style="stroke:#000000;stroke-width:0.8;" x="54" xlink:href="#m9ea0351610" y="249.290467"/>
      </g>
     </g>
     <g id="text_7">
      <!-- 0.4 -->
      <g transform="translate(31.096875 253.089686)scale(0.1 -0.1)">
       <use xlink:href="#DejaVuSans-48"/>
       <use x="63.623047" xlink:href="#DejaVuSans-46"/>
       <use x="95.410156" xlink:href="#DejaVuSans-52"/>
      </g>
     </g>
    </g>
    <g id="ytick_2">
     <g id="line2d_7">
      <g>
       <use style="stroke:#000000;stroke-width:0.8;" x="54" xlink:href="#m9ea0351610" y="209.583191"/>
      </g>
     </g>
     <g id="text_8">
      <!-- 0.5 -->
      <defs>
       <path d="M 10.796875 72.90625 
L 49.515625 72.90625 
L 49.515625 64.59375 
L 19.828125 64.59375 
L 19.828125 46.734375 
Q 21.96875 47.46875 24.109375 47.828125 
Q 26.265625 48.1875 28.421875 48.1875 
Q 40.625 48.1875 47.75 41.5 
Q 54.890625 34.8125 54.890625 23.390625 
Q 54.890625 11.625 47.5625 5.09375 
Q 40.234375 -1.421875 26.90625 -1.421875 
Q 22.3125 -1.421875 17.546875 -0.640625 
Q 12.796875 0.140625 7.71875 1.703125 
L 7.71875 11.625 
Q 12.109375 9.234375 16.796875 8.0625 
Q 21.484375 6.890625 26.703125 6.890625 
Q 35.15625 6.890625 40.078125 11.328125 
Q 45.015625 15.765625 45.015625 23.390625 
Q 45.015625 31 40.078125 35.4375 
Q 35.15625 39.890625 26.703125 39.890625 
Q 22.75 39.890625 18.8125 39.015625 
Q 14.890625 38.140625 10.796875 36.28125 
z
" id="DejaVuSans-53"/>
      </defs>
      <g transform="translate(31.096875 213.38241)scale(0.1 -0.1)">
       <use xlink:href="#DejaVuSans-48"/>
       <use x="63.623047" xlink:href="#DejaVuSans-46"/>
       <use x="95.410156" xlink:href="#DejaVuSans-53"/>
      </g>
     </g>
    </g>
    <g id="ytick_3">
     <g id="line2d_8">
      <g>
       <use style="stroke:#000000;stroke-width:0.8;" x="54" xlink:href="#m9ea0351610" y="169.875915"/>
      </g>
     </g>
     <g id="text_9">
      <!-- 0.6 -->
      <defs>
       <path d="M 33.015625 40.375 
Q 26.375 40.375 22.484375 35.828125 
Q 18.609375 31.296875 18.609375 23.390625 
Q 18.609375 15.53125 22.484375 10.953125 
Q 26.375 6.390625 33.015625 6.390625 
Q 39.65625 6.390625 43.53125 10.953125 
Q 47.40625 15.53125 47.40625 23.390625 
Q 47.40625 31.296875 43.53125 35.828125 
Q 39.65625 40.375 33.015625 40.375 
z
M 52.59375 71.296875 
L 52.59375 62.3125 
Q 48.875 64.0625 45.09375 64.984375 
Q 41.3125 65.921875 37.59375 65.921875 
Q 27.828125 65.921875 22.671875 59.328125 
Q 17.53125 52.734375 16.796875 39.40625 
Q 19.671875 43.65625 24.015625 45.921875 
Q 28.375 48.1875 33.59375 48.1875 
Q 44.578125 48.1875 50.953125 41.515625 
Q 57.328125 34.859375 57.328125 23.390625 
Q 57.328125 12.15625 50.6875 5.359375 
Q 44.046875 -1.421875 33.015625 -1.421875 
Q 20.359375 -1.421875 13.671875 8.265625 
Q 6.984375 17.96875 6.984375 36.375 
Q 6.984375 53.65625 15.1875 63.9375 
Q 23.390625 74.21875 37.203125 74.21875 
Q 40.921875 74.21875 44.703125 73.484375 
Q 48.484375 72.75 52.59375 71.296875 
z
" id="DejaVuSans-54"/>
      </defs>
      <g transform="translate(31.096875 173.675134)scale(0.1 -0.1)">
       <use xlink:href="#DejaVuSans-48"/>
       <use x="63.623047" xlink:href="#DejaVuSans-46"/>
       <use x="95.410156" xlink:href="#DejaVuSans-54"/>
      </g>
     </g>
    </g>
    <g id="ytick_4">
     <g id="line2d_9">
      <g>
       <use style="stroke:#000000;stroke-width:0.8;" x="54" xlink:href="#m9ea0351610" y="130.16864"/>
      </g>
     </g>
     <g id="text_10">
      <!-- 0.7 -->
      <defs>
       <path d="M 8.203125 72.90625 
L 55.078125 72.90625 
L 55.078125 68.703125 
L 28.609375 0 
L 18.3125 0 
L 43.21875 64.59375 
L 8.203125 64.59375 
z
" id="DejaVuSans-55"/>
      </defs>
      <g transform="translate(31.096875 133.967858)scale(0.1 -0.1)">
       <use xlink:href="#DejaVuSans-48"/>
       <use x="63.623047" xlink:href="#DejaVuSans-46"/>
       <use x="95.410156" xlink:href="#DejaVuSans-55"/>
      </g>
     </g>
    </g>
    <g id="ytick_5">
     <g id="line2d_10">
      <g>
       <use style="stroke:#000000;stroke-width:0.8;" x="54" xlink:href="#m9ea0351610" y="90.461364"/>
      </g>
     </g>
     <g id="text_11">
      <!-- 0.8 -->
      <defs>
       <path d="M 31.78125 34.625 
Q 24.75 34.625 20.71875 30.859375 
Q 16.703125 27.09375 16.703125 20.515625 
Q 16.703125 13.921875 20.71875 10.15625 
Q 24.75 6.390625 31.78125 6.390625 
Q 38.8125 6.390625 42.859375 10.171875 
Q 46.921875 13.96875 46.921875 20.515625 
Q 46.921875 27.09375 42.890625 30.859375 
Q 38.875 34.625 31.78125 34.625 
z
M 21.921875 38.8125 
Q 15.578125 40.375 12.03125 44.71875 
Q 8.5 49.078125 8.5 55.328125 
Q 8.5 64.0625 14.71875 69.140625 
Q 20.953125 74.21875 31.78125 74.21875 
Q 42.671875 74.21875 48.875 69.140625 
Q 55.078125 64.0625 55.078125 55.328125 
Q 55.078125 49.078125 51.53125 44.71875 
Q 48 40.375 41.703125 38.8125 
Q 48.828125 37.15625 52.796875 32.3125 
Q 56.78125 27.484375 56.78125 20.515625 
Q 56.78125 9.90625 50.3125 4.234375 
Q 43.84375 -1.421875 31.78125 -1.421875 
Q 19.734375 -1.421875 13.25 4.234375 
Q 6.78125 9.90625 6.78125 20.515625 
Q 6.78125 27.484375 10.78125 32.3125 
Q 14.796875 37.15625 21.921875 38.8125 
z
M 18.3125 54.390625 
Q 18.3125 48.734375 21.84375 45.5625 
Q 25.390625 42.390625 31.78125 42.390625 
Q 38.140625 42.390625 41.71875 45.5625 
Q 45.3125 48.734375 45.3125 54.390625 
Q 45.3125 60.0625 41.71875 63.234375 
Q 38.140625 66.40625 31.78125 66.40625 
Q 25.390625 66.40625 21.84375 63.234375 
Q 18.3125 60.0625 18.3125 54.390625 
z
" id="DejaVuSans-56"/>
      </defs>
      <g transform="translate(31.096875 94.260582)scale(0.1 -0.1)">
       <use xlink:href="#DejaVuSans-48"/>
       <use x="63.623047" xlink:href="#DejaVuSans-46"/>
       <use x="95.410156" xlink:href="#DejaVuSans-56"/>
      </g>
     </g>
    </g>
    <g id="ytick_6">
     <g id="line2d_11">
      <g>
       <use style="stroke:#000000;stroke-width:0.8;" x="54" xlink:href="#m9ea0351610" y="50.754088"/>
      </g>
     </g>
     <g id="text_12">
      <!-- 0.9 -->
      <defs>
       <path d="M 10.984375 1.515625 
L 10.984375 10.5 
Q 14.703125 8.734375 18.5 7.8125 
Q 22.3125 6.890625 25.984375 6.890625 
Q 35.75 6.890625 40.890625 13.453125 
Q 46.046875 20.015625 46.78125 33.40625 
Q 43.953125 29.203125 39.59375 26.953125 
Q 35.25 24.703125 29.984375 24.703125 
Q 19.046875 24.703125 12.671875 31.3125 
Q 6.296875 37.9375 6.296875 49.421875 
Q 6.296875 60.640625 12.9375 67.421875 
Q 19.578125 74.21875 30.609375 74.21875 
Q 43.265625 74.21875 49.921875 64.515625 
Q 56.59375 54.828125 56.59375 36.375 
Q 56.59375 19.140625 48.40625 8.859375 
Q 40.234375 -1.421875 26.421875 -1.421875 
Q 22.703125 -1.421875 18.890625 -0.6875 
Q 15.09375 0.046875 10.984375 1.515625 
z
M 30.609375 32.421875 
Q 37.25 32.421875 41.125 36.953125 
Q 45.015625 41.5 45.015625 49.421875 
Q 45.015625 57.28125 41.125 61.84375 
Q 37.25 66.40625 30.609375 66.40625 
Q 23.96875 66.40625 20.09375 61.84375 
Q 16.21875 57.28125 16.21875 49.421875 
Q 16.21875 41.5 20.09375 36.953125 
Q 23.96875 32.421875 30.609375 32.421875 
z
" id="DejaVuSans-57"/>
      </defs>
      <g transform="translate(31.096875 54.553307)scale(0.1 -0.1)">
       <use xlink:href="#DejaVuSans-48"/>
       <use x="63.623047" xlink:href="#DejaVuSans-46"/>
       <use x="95.410156" xlink:href="#DejaVuSans-57"/>
      </g>
     </g>
    </g>
    <g id="text_13">
     <!-- y(output) -->
     <defs>
      <path d="M 32.171875 -5.078125 
Q 28.375 -14.84375 24.75 -17.8125 
Q 21.140625 -20.796875 15.09375 -20.796875 
L 7.90625 -20.796875 
L 7.90625 -13.28125 
L 13.1875 -13.28125 
Q 16.890625 -13.28125 18.9375 -11.515625 
Q 21 -9.765625 23.484375 -3.21875 
L 25.09375 0.875 
L 2.984375 54.6875 
L 12.5 54.6875 
L 29.59375 11.921875 
L 46.6875 54.6875 
L 56.203125 54.6875 
z
" id="DejaVuSans-121"/>
      <path d="M 30.609375 48.390625 
Q 23.390625 48.390625 19.1875 42.75 
Q 14.984375 37.109375 14.984375 27.296875 
Q 14.984375 17.484375 19.15625 11.84375 
Q 23.34375 6.203125 30.609375 6.203125 
Q 37.796875 6.203125 41.984375 11.859375 
Q 46.1875 17.53125 46.1875 27.296875 
Q 46.1875 37.015625 41.984375 42.703125 
Q 37.796875 48.390625 30.609375 48.390625 
z
M 30.609375 56 
Q 42.328125 56 49.015625 48.375 
Q 55.71875 40.765625 55.71875 27.296875 
Q 55.71875 13.875 49.015625 6.21875 
Q 42.328125 -1.421875 30.609375 -1.421875 
Q 18.84375 -1.421875 12.171875 6.21875 
Q 5.515625 13.875 5.515625 27.296875 
Q 5.515625 40.765625 12.171875 48.375 
Q 18.84375 56 30.609375 56 
z
" id="DejaVuSans-111"/>
     </defs>
     <g transform="translate(25.017187 166.632344)rotate(-90)scale(0.1 -0.1)">
      <use xlink:href="#DejaVuSans-121"/>
      <use x="59.179688" xlink:href="#DejaVuSans-40"/>
      <use x="98.193359" xlink:href="#DejaVuSans-111"/>
      <use x="159.375" xlink:href="#DejaVuSans-117"/>
      <use x="222.753906" xlink:href="#DejaVuSans-116"/>
      <use x="261.962891" xlink:href="#DejaVuSans-112"/>
      <use x="325.439453" xlink:href="#DejaVuSans-117"/>
      <use x="388.818359" xlink:href="#DejaVuSans-116"/>
      <use x="428.027344" xlink:href="#DejaVuSans-41"/>
     </g>
    </g>
   </g>
   <g id="patch_3">
    <path d="M 54 252 
L 54 34.56 
" style="fill:none;stroke:#000000;stroke-linecap:square;stroke-linejoin:miter;stroke-width:0.8;"/>
   </g>
   <g id="patch_4">
    <path d="M 388.8 252 
L 388.8 34.56 
" style="fill:none;stroke:#000000;stroke-linecap:square;stroke-linejoin:miter;stroke-width:0.8;"/>
   </g>
   <g id="patch_5">
    <path d="M 54 252 
L 388.8 252 
" style="fill:none;stroke:#000000;stroke-linecap:square;stroke-linejoin:miter;stroke-width:0.8;"/>
   </g>
   <g id="patch_6">
    <path d="M 54 34.56 
L 388.8 34.56 
" style="fill:none;stroke:#000000;stroke-linecap:square;stroke-linejoin:miter;stroke-width:0.8;"/>
   </g>
  </g>
 </g>
 <defs>
  <clipPath id="paadeb5232b">
   <rect height="217.44" width="334.8" x="54" y="34.56"/>
  </clipPath>
 </defs>
</svg>
