<svg version="1.1" viewBox="0.0 0.0 974.2729658792651 530.9632545931759" fill="none" stroke="none" stroke-linecap="square" stroke-miterlimit="10" xmlns:xlink="http://www.w3.org/1999/xlink" xmlns="http://www.w3.org/2000/svg"><clipPath id="p.0"><path d="m0 0l974.27295 0l0 530.96326l-974.27295 0l0 -530.96326z" clip-rule="nonzero"/></clipPath><g clip-path="url(#p.0)"><path fill="#000000" fill-opacity="0.0" d="m0 0l974.27295 0l0 530.96326l-974.27295 0z" fill-rule="evenodd"/><path fill="#cfe2f3" d="m663.1768 279.42258l0 0c0 -13.02002 10.308044 -23.574814 23.02362 -23.574814l0 0c6.106262 0 11.962402 2.48378 16.280151 6.904892c4.31781 4.4211426 6.743469 10.41748 6.743469 16.669922l0 0c0 13.019989 -10.307983 23.574799 -23.02362 23.574799l0 0c-12.715576 0 -23.02362 -10.55481 -23.02362 -23.574799z" fill-rule="evenodd"/><path stroke="#000000" stroke-width="1.0" stroke-linejoin="round" stroke-linecap="butt" d="m663.1768 279.42258l0 0c0 -13.02002 10.308044 -23.574814 23.02362 -23.574814l0 0c6.106262 0 11.962402 2.48378 16.280151 6.904892c4.31781 4.4211426 6.743469 10.41748 6.743469 16.669922l0 0c0 13.019989 -10.307983 23.574799 -23.02362 23.574799l0 0c-12.715576 0 -23.02362 -10.55481 -23.02362 -23.574799z" fill-rule="evenodd"/><path fill="#cfe2f3" d="m321.80185 194.32883l0 0c0 -13.020004 10.308014 -23.574814 23.02362 -23.574814l0 0c6.1062317 0 11.962372 2.48378 16.280151 6.904907c4.317749 4.4211273 6.743469 10.41748 6.743469 16.669907l0 0c0 13.020004 -10.308044 23.574799 -23.02362 23.574799l0 0c-12.715607 0 -23.02362 -10.554794 -23.02362 -23.574799z" fill-rule="evenodd"/><path stroke="#000000" stroke-width="1.0" stroke-linejoin="round" stroke-linecap="butt" d="m321.80185 194.32883l0 0c0 -13.020004 10.308014 -23.574814 23.02362 -23.574814l0 0c6.1062317 0 11.962372 2.48378 16.280151 6.904907c4.317749 4.4211273 6.743469 10.41748 6.743469 16.669907l0 0c0 13.020004 -10.308044 23.574799 -23.02362 23.574799l0 0c-12.715607 0 -23.02362 -10.554794 -23.02362 -23.574799z" fill-rule="evenodd"/><path fill="#cfe2f3" d="m321.80185 352.82883l0 0c0 -13.02002 10.308014 -23.574799 23.02362 -23.574799l0 0c6.1062317 0 11.962372 2.4837646 16.280151 6.9048767c4.317749 4.4211426 6.743469 10.41748 6.743469 16.669922l0 0c0 13.019989 -10.308044 23.574799 -23.02362 23.574799l0 0c-12.715607 0 -23.02362 -10.55481 -23.02362 -23.574799z" fill-rule="evenodd"/><path stroke="#000000" stroke-width="1.0" stroke-linejoin="round" stroke-linecap="butt" d="m321.80185 352.82883l0 0c0 -13.02002 10.308014 -23.574799 23.02362 -23.574799l0 0c6.1062317 0 11.962372 2.4837646 16.280151 6.9048767c4.317749 4.4211426 6.743469 10.41748 6.743469 16.669922l0 0c0 13.019989 -10.308044 23.574799 -23.02362 23.574799l0 0c-12.715607 0 -23.02362 -10.55481 -23.02362 -23.574799z" fill-rule="evenodd"/><path fill="#b4a7d6" d="m419.0648 147.02917l93.22836 0l0 93.22835l-93.22836 0z" fill-rule="evenodd"/><path stroke="#000000" stroke-width="1.0" stroke-linejoin="round" stroke-linecap="butt" d="m419.0648 147.02917l93.22836 0l0 93.22835l-93.22836 0z" fill-rule="evenodd"/><path fill="#000000" fill-opacity="0.0" d="m419.06317 218.4714l46.04724 0" fill-rule="evenodd"/><path stroke="#000000" stroke-width="3.0" stroke-linejoin="round" stroke-linecap="butt" d="m419.06317 218.4714l46.04724 0" fill-rule="evenodd"/><path fill="#000000" fill-opacity="0.0" d="m466.41028 220.12451l0 -51.65355" fill-rule="evenodd"/><path stroke="#000000" stroke-width="3.0" stroke-linejoin="round" stroke-linecap="butt" d="m466.41028 220.12451l0 -51.65355" fill-rule="evenodd"/><path fill="#000000" fill-opacity="0.0" d="m466.4108 168.96976l44.094482 0" fill-rule="evenodd"/><path stroke="#000000" stroke-width="3.0" stroke-linejoin="round" stroke-linecap="butt" d="m466.4108 168.96976l44.094482 0" fill-rule="evenodd"/><path fill="#000000" fill-opacity="0.0" d="m465.61597 146.68272l0.0630188 93.5748" fill-rule="evenodd"/><path stroke="#000000" stroke-width="2.0" stroke-linejoin="round" stroke-linecap="butt" stroke-dasharray="8.0,6.0" d="m465.61597 146.68272l0.0630188 93.5748" fill-rule="evenodd"/><path fill="#000000" fill-opacity="0.0" d="m420.29474 218.0817l93.22833 1.6378021" fill-rule="evenodd"/><path stroke="#000000" stroke-width="2.0" stroke-linejoin="round" stroke-linecap="butt" stroke-dasharray="8.0,6.0" d="m420.29474 218.0817l93.22833 1.6378021" fill-rule="evenodd"/><path fill="#38761d" d="m78.750656 81.47507l0 0c0 -9.323608 7.558281 -16.88189 16.88189 -16.88189l0 0c4.477356 0 8.771332 1.7786179 11.937302 4.9445877c3.1659622 3.1659698 4.9445877 7.4599457 4.9445877 11.937302l0 0c0 9.323608 -7.558281 16.88189 -16.88189 16.88189l0 0c-9.323608 0 -16.88189 -7.558281 -16.88189 -16.88189z" fill-rule="evenodd"/><path stroke="#000000" stroke-width="1.0" stroke-linejoin="round" stroke-linecap="butt" d="m78.750656 81.47507l0 0c0 -9.323608 7.558281 -16.88189 16.88189 -16.88189l0 0c4.477356 0 8.771332 1.7786179 11.937302 4.9445877c3.1659622 3.1659698 4.9445877 7.4599457 4.9445877 11.937302l0 0c0 9.323608 -7.558281 16.88189 -16.88189 16.88189l0 0c-9.323608 0 -16.88189 -7.558281 -16.88189 -16.88189z" fill-rule="evenodd"/><path fill="#38761d" d="m78.750656 193.47507l0 0c0 -9.323608 7.558281 -16.881897 16.88189 -16.881897l0 0c4.477356 0 8.771332 1.7786255 11.937302 4.9445953c3.1659622 3.1659698 4.9445877 7.4599457 4.9445877 11.937302l0 0c0 9.323608 -7.558281 16.881882 -16.88189 16.881882l0 0c-9.323608 0 -16.88189 -7.5582733 -16.88189 -16.881882z" fill-rule="evenodd"/><path stroke="#000000" stroke-width="1.0" stroke-linejoin="round" stroke-linecap="butt" d="m78.750656 193.47507l0 0c0 -9.323608 7.558281 -16.881897 16.88189 -16.881897l0 0c4.477356 0 8.771332 1.7786255 11.937302 4.9445953c3.1659622 3.1659698 4.9445877 7.4599457 4.9445877 11.937302l0 0c0 9.323608 -7.558281 16.881882 -16.88189 16.881882l0 0c-9.323608 0 -16.88189 -7.5582733 -16.88189 -16.881882z" fill-rule="evenodd"/><path fill="#38761d" d="m78.750656 353.47507l0 0c0 -9.323608 7.558281 -16.881897 16.88189 -16.881897l0 0c4.477356 0 8.771332 1.7786255 11.937302 4.9446106c3.1659622 3.1659546 4.9445877 7.4599304 4.9445877 11.937286l0 0c0 9.323608 -7.558281 16.881897 -16.88189 16.881897l0 0c-9.323608 0 -16.88189 -7.5582886 -16.88189 -16.881897z" fill-rule="evenodd"/><path stroke="#000000" stroke-width="1.0" stroke-linejoin="round" stroke-linecap="butt" d="m78.750656 353.47507l0 0c0 -9.323608 7.558281 -16.881897 16.88189 -16.881897l0 0c4.477356 0 8.771332 1.7786255 11.937302 4.9446106c3.1659622 3.1659546 4.9445877 7.4599304 4.9445877 11.937286l0 0c0 9.323608 -7.558281 16.881897 -16.88189 16.881897l0 0c-9.323608 0 -16.88189 -7.5582886 -16.88189 -16.881897z" fill-rule="evenodd"/><path fill="#000000" fill-opacity="0.0" d="m107.56985 93.41236l214.2362 100.91338" fill-rule="evenodd"/><path stroke="#000000" stroke-width="2.0" stroke-linejoin="round" stroke-linecap="butt" d="m107.56985 93.41236l214.2362 100.91338" fill-rule="evenodd"/><path fill="#000000" fill-opacity="0.0" d="m112.514435 193.47507l209.29135 0.8503876" fill-rule="evenodd"/><path stroke="#000000" stroke-width="2.0" stroke-linejoin="round" stroke-linecap="butt" d="m112.514435 193.47507l209.29135 0.8503876" fill-rule="evenodd"/><path fill="#000000" fill-opacity="0.0" d="m112.514435 353.47507l209.29135 -159.14961" fill-rule="evenodd"/><path stroke="#000000" stroke-width="2.0" stroke-linejoin="round" stroke-linecap="butt" d="m112.514435 353.47507l209.29135 -159.14961" fill-rule="evenodd"/><path fill="#f1c232" d="m295.31372 194.32751l0 0c0 -27.570755 22.350525 -49.921265 49.921265 -49.921265l0 0c13.23996 0 25.937622 5.259552 35.299652 14.621597c9.362061 9.362061 14.621613 22.059723 14.621613 35.299667l0 0c0 27.57074 -22.350494 49.92125 -49.921265 49.92125l0 0c-27.57074 0 -49.921265 -22.35051 -49.921265 -49.92125z" fill-rule="evenodd"/><path stroke="#000000" stroke-width="1.0" stroke-linejoin="round" stroke-linecap="butt" d="m295.31372 194.32751l0 0c0 -27.570755 22.350525 -49.921265 49.921265 -49.921265l0 0c13.23996 0 25.937622 5.259552 35.299652 14.621597c9.362061 9.362061 14.621613 22.059723 14.621613 35.299667l0 0c0 27.57074 -22.350494 49.92125 -49.921265 49.92125l0 0c-27.57074 0 -49.921265 -22.35051 -49.921265 -49.92125z" fill-rule="evenodd"/><path fill="#000000" d="m326.76624 170.67375l38.65625 0l0 5.125l-30.875 0l18.96875 24.21875l-20.28125 25.6875l32.5 0l0 5.03125l-39.5 0l0 -5.84375l19.375 -24.625l-18.84375 -24.125l0 -5.46875z" fill-rule="nonzero"/><path fill="#000000" fill-opacity="0.0" d="m395.15625 194.32751l23.905518 -0.69291687" fill-rule="evenodd"/><path stroke="#000000" stroke-width="3.0" stroke-linejoin="round" stroke-linecap="butt" d="m395.15625 194.32751l23.905518 -0.69291687" fill-rule="evenodd"/><path fill="#000000" fill-opacity="0.0" d="m31.907234 55.187256l46.04724 0l0 52.188972l-46.04724 0z" fill-rule="evenodd"/><path fill="#000000" d="m49.844734 87.22726l-2.109375 0l0 -13.4375q-0.75 0.71875 -2.0 1.453125q-1.234375 0.71875 -2.21875 1.078125l0 -2.03125q1.78125 -0.828125 3.09375 -2.015625q1.328125 -1.1875 1.875 -2.296875l1.359375 0l0 17.25z" fill-rule="nonzero"/><path fill="#000000" fill-opacity="0.0" d="m31.907234 169.56226l46.04724 0l0 52.18898l-46.04724 0z" fill-rule="evenodd"/><path fill="#000000" d="m41.01661 201.60225l6.640625 -8.953125l-5.859375 -8.234375l2.703125 0l3.125 4.40625q0.96875 1.375 1.375 2.109375q0.578125 -0.9375 1.359375 -1.953125l3.46875 -4.5625l2.46875 0l-6.03125 8.109375l6.5 9.078125l-2.8125 0l-4.328125 -6.125q-0.359375 -0.53125 -0.75 -1.15625q-0.578125 0.9375 -0.8125 1.296875l-4.3125 5.984375l-2.734375 0z" fill-rule="nonzero"/><path fill="#000000" d="m62.883797 210.60225l-1.40625 0l0 -8.96875q-0.515625 0.484375 -1.34375 0.96875q-0.8125 0.484375 -1.46875 0.734375l0 -1.359375q1.171875 -0.5625 2.046875 -1.34375q0.890625 -0.796875 1.265625 -1.53125l0.90625 0l0 11.5z" fill-rule="nonzero"/><path fill="#000000" fill-opacity="0.0" d="m31.907234 327.18726l46.04724 0l0 52.188965l-46.04724 0z" fill-rule="evenodd"/><path fill="#000000" d="m41.01661 359.22726l6.640625 -8.953125l-5.859375 -8.234375l2.703125 0l3.125 4.40625q0.96875 1.375 1.375 2.109375q0.578125 -0.9375 1.359375 -1.953125l3.46875 -4.5625l2.46875 0l-6.03125 8.109375l6.5 9.078125l-2.8125 0l-4.328125 -6.125q-0.359375 -0.53125 -0.75 -1.15625q-0.578125 0.9375 -0.8125 1.296875l-4.3125 5.984375l-2.734375 0z" fill-rule="nonzero"/><path fill="#000000" d="m64.97755 366.8679l0 1.359375l-7.578125 0q-0.015625 -0.515625 0.171875 -0.984375q0.28125 -0.765625 0.921875 -1.515625q0.640625 -0.75 1.84375 -1.734375q1.859375 -1.53125 2.515625 -2.421875q0.65625 -0.90625 0.65625 -1.703125q0 -0.828125 -0.59375 -1.40625q-0.59375 -0.578125 -1.5625 -0.578125q-1.015625 0 -1.625 0.609375q-0.609375 0.609375 -0.609375 1.6875l-1.453125 -0.140625q0.15625 -1.625 1.125 -2.46875q0.96875 -0.84375 2.59375 -0.84375q1.65625 0 2.609375 0.921875q0.96875 0.90625 0.96875 2.25q0 0.6875 -0.28125 1.359375q-0.28125 0.65625 -0.9375 1.390625q-0.65625 0.734375 -2.171875 2.015625q-1.265625 1.0625 -1.625 1.453125q-0.359375 0.375 -0.59375 0.75l5.625 0z" fill-rule="nonzero"/><path fill="#000000" fill-opacity="0.0" d="m127.90828 60.81135l54.4252 0l0 52.188976l-54.4252 0z" fill-rule="evenodd"/><path fill="#000000" d="m137.90828 84.3826q0 -3.046875 0.625 -4.90625q0.625 -1.859375 1.859375 -2.859375q1.234375 -1.015625 3.109375 -1.015625q1.390625 0 2.421875 0.5625q1.046875 0.546875 1.71875 1.59375q0.6875 1.046875 1.078125 2.5625q0.390625 1.5 0.390625 4.0625q0 3.015625 -0.625 4.875q-0.625 1.859375 -1.859375 2.875q-1.234375 1.015625 -3.125 1.015625q-2.484375 0 -3.890625 -1.78125q-1.703125 -2.15625 -1.703125 -6.984375zm2.171875 0q0 4.21875 0.984375 5.625q0.984375 1.40625 2.4375 1.40625q1.453125 0 2.4375 -1.40625q1.0 -1.40625 1.0 -5.625q0 -4.25 -1.0 -5.640625q-0.984375 -1.390625 -2.453125 -1.390625q-1.453125 0 -2.328125 1.21875q-1.078125 1.578125 -1.078125 5.8125zm12.363281 8.46875l0 -2.40625l2.390625 0l0 2.40625l-2.390625 0zm5.4804688 -4.5l2.21875 -0.1875q0.234375 1.609375 1.125 2.4375q0.90625 0.8125 2.171875 0.8125q1.53125 0 2.578125 -1.140625q1.0625 -1.15625 1.0625 -3.0625q0 -1.796875 -1.015625 -2.84375q-1.015625 -1.046875 -2.65625 -1.046875q-1.015625 0 -1.84375 0.46875q-0.8125 0.453125 -1.28125 1.203125l-1.984375 -0.265625l1.65625 -8.828125l8.546875 0l0 2.015625l-6.859375 0l-0.921875 4.625q1.546875 -1.078125 3.25 -1.078125q2.25 0 3.796875 1.5625q1.546875 1.546875 1.546875 4.0q0 2.328125 -1.359375 4.03125q-1.65625 2.09375 -4.515625 2.09375q-2.34375 0 -3.828125 -1.3125q-1.484375 -1.3125 -1.6875 -3.484375z" fill-rule="nonzero"/><path fill="#b4a7d6" d="m419.0648 305.52917l93.22836 0l0 93.22833l-93.22836 0z" fill-rule="evenodd"/><path stroke="#000000" stroke-width="1.0" stroke-linejoin="round" stroke-linecap="butt" d="m419.0648 305.52917l93.22836 0l0 93.22833l-93.22836 0z" fill-rule="evenodd"/><path fill="#000000" fill-opacity="0.0" d="m419.06317 376.9714l46.04724 0" fill-rule="evenodd"/><path stroke="#000000" stroke-width="3.0" stroke-linejoin="round" stroke-linecap="butt" d="m419.06317 376.9714l46.04724 0" fill-rule="evenodd"/><path fill="#000000" fill-opacity="0.0" d="m466.41028 378.6245l0 -51.653534" fill-rule="evenodd"/><path stroke="#000000" stroke-width="3.0" stroke-linejoin="round" stroke-linecap="butt" d="m466.41028 378.6245l0 -51.653534" fill-rule="evenodd"/><path fill="#000000" fill-opacity="0.0" d="m466.4108 327.46976l44.094482 0" fill-rule="evenodd"/><path stroke="#000000" stroke-width="3.0" stroke-linejoin="round" stroke-linecap="butt" d="m466.4108 327.46976l44.094482 0" fill-rule="evenodd"/><path fill="#000000" fill-opacity="0.0" d="m465.61597 305.1827l0.0630188 93.5748" fill-rule="evenodd"/><path stroke="#000000" stroke-width="2.0" stroke-linejoin="round" stroke-linecap="butt" stroke-dasharray="8.0,6.0" d="m465.61597 305.1827l0.0630188 93.5748" fill-rule="evenodd"/><path fill="#000000" fill-opacity="0.0" d="m420.29474 376.5817l93.22833 1.6377869" fill-rule="evenodd"/><path stroke="#000000" stroke-width="2.0" stroke-linejoin="round" stroke-linecap="butt" stroke-dasharray="8.0,6.0" d="m420.29474 376.5817l93.22833 1.6377869" fill-rule="evenodd"/><path fill="#000000" fill-opacity="0.0" d="m107.56985 93.41236l214.2362 259.40158" fill-rule="evenodd"/><path stroke="#000000" stroke-width="2.0" stroke-linejoin="round" stroke-linecap="butt" d="m107.56985 93.41236l214.2362 259.40158" fill-rule="evenodd"/><path fill="#000000" fill-opacity="0.0" d="m112.514435 193.47507l209.29135 159.3386" fill-rule="evenodd"/><path stroke="#000000" stroke-width="2.0" stroke-linejoin="round" stroke-linecap="butt" d="m112.514435 193.47507l209.29135 159.3386" fill-rule="evenodd"/><path fill="#000000" fill-opacity="0.0" d="m112.514435 353.47507l209.29135 -0.6614075" fill-rule="evenodd"/><path stroke="#000000" stroke-width="2.0" stroke-linejoin="round" stroke-linecap="butt" d="m112.514435 353.47507l209.29135 -0.6614075" fill-rule="evenodd"/><path fill="#f1c232" d="m295.31372 352.8275l0 0c0 -27.57074 22.350525 -49.921265 49.921265 -49.921265l0 0c13.23996 0 25.937622 5.259552 35.299652 14.621613c9.362061 9.36203 14.621613 22.059692 14.621613 35.299652l0 0c0 27.57074 -22.350494 49.921265 -49.921265 49.921265l0 0c-27.57074 0 -49.921265 -22.350525 -49.921265 -49.921265z" fill-rule="evenodd"/><path stroke="#000000" stroke-width="1.0" stroke-linejoin="round" stroke-linecap="butt" d="m295.31372 352.8275l0 0c0 -27.57074 22.350525 -49.921265 49.921265 -49.921265l0 0c13.23996 0 25.937622 5.259552 35.299652 14.621613c9.362061 9.36203 14.621613 22.059692 14.621613 35.299652l0 0c0 27.57074 -22.350494 49.921265 -49.921265 49.921265l0 0c-27.57074 0 -49.921265 -22.350525 -49.921265 -49.921265z" fill-rule="evenodd"/><path fill="#000000" d="m326.76624 329.17377l38.65625 0l0 5.125l-30.875 0l18.96875 24.21875l-20.28125 25.6875l32.5 0l0 5.03125l-39.5 0l0 -5.84375l19.375 -24.625l-18.84375 -24.125l0 -5.46875z" fill-rule="nonzero"/><path fill="#000000" fill-opacity="0.0" d="m395.15625 352.8275l23.905518 -0.6929321" fill-rule="evenodd"/><path stroke="#000000" stroke-width="3.0" stroke-linejoin="round" stroke-linecap="butt" d="m395.15625 352.8275l23.905518 -0.6929321" fill-rule="evenodd"/><path fill="#b4a7d6" d="m760.4398 232.12292l93.22833 0l0 93.22833l-93.22833 0z" fill-rule="evenodd"/><path stroke="#000000" stroke-width="1.0" stroke-linejoin="round" stroke-linecap="butt" d="m760.4398 232.12292l93.22833 0l0 93.22833l-93.22833 0z" fill-rule="evenodd"/><path fill="#000000" fill-opacity="0.0" d="m760.4382 303.56516l46.04724 0" fill-rule="evenodd"/><path stroke="#000000" stroke-width="3.0" stroke-linejoin="round" stroke-linecap="butt" d="m760.4382 303.56516l46.04724 0" fill-rule="evenodd"/><path fill="#000000" fill-opacity="0.0" d="m807.7853 305.21826l0 -51.65355" fill-rule="evenodd"/><path stroke="#000000" stroke-width="3.0" stroke-linejoin="round" stroke-linecap="butt" d="m807.7853 305.21826l0 -51.65355" fill-rule="evenodd"/><path fill="#000000" fill-opacity="0.0" d="m807.78577 254.0635l44.094543 0" fill-rule="evenodd"/><path stroke="#000000" stroke-width="3.0" stroke-linejoin="round" stroke-linecap="butt" d="m807.78577 254.0635l44.094543 0" fill-rule="evenodd"/><path fill="#000000" fill-opacity="0.0" d="m806.99097 231.77647l0.06298828 93.57478" fill-rule="evenodd"/><path stroke="#000000" stroke-width="2.0" stroke-linejoin="round" stroke-linecap="butt" stroke-dasharray="8.0,6.0" d="m806.99097 231.77647l0.06298828 93.57478" fill-rule="evenodd"/><path fill="#000000" fill-opacity="0.0" d="m761.66974 303.17545l93.22833 1.6377869" fill-rule="evenodd"/><path stroke="#000000" stroke-width="2.0" stroke-linejoin="round" stroke-linecap="butt" stroke-dasharray="8.0,6.0" d="m761.66974 303.17545l93.22833 1.6377869" fill-rule="evenodd"/><path fill="#000000" fill-opacity="0.0" d="m507.56985 93.41236l155.62204 186.01575" fill-rule="evenodd"/><path stroke="#000000" stroke-width="2.0" stroke-linejoin="round" stroke-linecap="butt" d="m507.56985 93.41236l155.62204 186.01575" fill-rule="evenodd"/><path fill="#000000" fill-opacity="0.0" d="m512.29315 193.64334l150.89764 85.763794" fill-rule="evenodd"/><path stroke="#000000" stroke-width="2.0" stroke-linejoin="round" stroke-linecap="butt" d="m512.29315 193.64334l150.89764 85.763794" fill-rule="evenodd"/><path fill="#000000" fill-opacity="0.0" d="m512.29315 352.14334l150.89764 -72.724396" fill-rule="evenodd"/><path stroke="#000000" stroke-width="2.0" stroke-linejoin="round" stroke-linecap="butt" d="m512.29315 352.14334l150.89764 -72.724396" fill-rule="evenodd"/><path fill="#f1c232" d="m636.6887 279.42126l0 0c0 -27.570755 22.350525 -49.921265 49.921265 -49.921265l0 0c13.239929 0 25.937622 5.259552 35.299683 14.621597c9.362061 9.362061 14.621582 22.059708 14.621582 35.299667l0 0c0 27.57074 -22.350525 49.921265 -49.921265 49.921265l0 0c-27.57074 0 -49.921265 -22.350525 -49.921265 -49.921265z" fill-rule="evenodd"/><path stroke="#000000" stroke-width="1.0" stroke-linejoin="round" stroke-linecap="butt" d="m636.6887 279.42126l0 0c0 -27.570755 22.350525 -49.921265 49.921265 -49.921265l0 0c13.239929 0 25.937622 5.259552 35.299683 14.621597c9.362061 9.362061 14.621582 22.059708 14.621582 35.299667l0 0c0 27.57074 -22.350525 49.921265 -49.921265 49.921265l0 0c-27.57074 0 -49.921265 -22.350525 -49.921265 -49.921265z" fill-rule="evenodd"/><path fill="#000000" d="m668.14124 255.7675l38.65625 0l0 5.1250153l-30.875 0l18.96875 24.21875l-20.28125 25.6875l32.5 0l0 5.03125l-39.5 0l0 -5.84375l19.375 -24.625l-18.84375 -24.125l0 -5.4687653z" fill-rule="nonzero"/><path fill="#000000" fill-opacity="0.0" d="m736.53125 279.42126l23.905518 -0.6929321" fill-rule="evenodd"/><path stroke="#000000" stroke-width="3.0" stroke-linejoin="round" stroke-linecap="butt" d="m736.53125 279.42126l23.905518 -0.6929321" fill-rule="evenodd"/><path fill="#000000" fill-opacity="0.0" d="m853.66815 278.7371l73.322815 0" fill-rule="evenodd"/><path stroke="#000000" stroke-width="3.0" stroke-linejoin="round" stroke-linecap="butt" d="m853.66815 278.7371l55.322815 0" fill-rule="evenodd"/><path fill="#000000" stroke="#000000" stroke-width="3.0" stroke-linecap="butt" d="m908.99097 283.6923l13.614319 -4.9552l-13.614319 -4.9552z" fill-rule="evenodd"/><path fill="#000000" fill-opacity="0.0" d="m918.51263 251.50919l54.42517 0l0 52.188965l-54.42517 0z" fill-rule="evenodd"/><path fill="#000000" d="m934.20013 283.5492l0 -7.28125l-6.609375 -9.90625l2.765625 0l3.375 5.1875q0.9375 1.453125 1.75 2.90625q0.78125 -1.34375 1.875 -3.03125l3.328125 -5.0625l2.65625 0l-6.859375 9.90625l0 7.28125l-2.28125 0z" fill-rule="nonzero"/><path fill="#38761d" d="m478.75067 81.47507l0 0c0 -9.323608 7.558258 -16.88189 16.881866 -16.88189l0 0c4.477356 0 8.771332 1.7786179 11.937317 4.9445877c3.1659546 3.1659698 4.9446106 7.4599457 4.9446106 11.937302l0 0c0 9.323608 -7.558319 16.88189 -16.881927 16.88189l0 0c-9.323608 0 -16.881866 -7.558281 -16.881866 -16.88189z" fill-rule="evenodd"/><path stroke="#000000" stroke-width="1.0" stroke-linejoin="round" stroke-linecap="butt" d="m478.75067 81.47507l0 0c0 -9.323608 7.558258 -16.88189 16.881866 -16.88189l0 0c4.477356 0 8.771332 1.7786179 11.937317 4.9445877c3.1659546 3.1659698 4.9446106 7.4599457 4.9446106 11.937302l0 0c0 9.323608 -7.558319 16.88189 -16.881927 16.88189l0 0c-9.323608 0 -16.881866 -7.558281 -16.881866 -16.88189z" fill-rule="evenodd"/><path fill="#000000" fill-opacity="0.0" d="m431.90723 55.187256l46.04724 0l0 52.188972l-46.04724 0z" fill-rule="evenodd"/><path fill="#000000" d="m449.84473 87.22726l-2.109375 0l0 -13.4375q-0.75 0.71875 -2.0 1.453125q-1.234375 0.71875 -2.21875 1.078125l0 -2.03125q1.78125 -0.828125 3.09375 -2.015625q1.328125 -1.1875 1.875 -2.296875l1.359375 0l0 17.25z" fill-rule="nonzero"/><path fill="#000000" fill-opacity="0.0" d="m135.90828 159.18636l54.4252 0l0 52.18898l-54.4252 0z" fill-rule="evenodd"/><path fill="#000000" d="m153.84578 191.22635l-2.109375 0l0 -13.4375q-0.75 0.71875 -2.0 1.453125q-1.234375 0.71875 -2.21875 1.078125l0 -2.03125q1.78125 -0.828125 3.09375 -2.015625q1.328125 -1.1875 1.875 -2.296875l1.359375 0l0 17.25z" fill-rule="nonzero"/><path fill="#000000" fill-opacity="0.0" d="m135.90828 215.18636l54.4252 0l0 52.18898l-54.4252 0z" fill-rule="evenodd"/><path fill="#000000" d="m153.84578 247.22635l-2.109375 0l0 -13.4375q-0.75 0.71875 -2.0 1.453125q-1.234375 0.71875 -2.21875 1.078125l0 -2.03125q1.78125 -0.828125 3.09375 -2.015625q1.328125 -1.1875 1.875 -2.296875l1.359375 0l0 17.25z" fill-rule="nonzero"/><path fill="#000000" fill-opacity="0.0" d="m127.90828 287.18634l54.4252 0l0 52.188995l-54.4252 0z" fill-rule="evenodd"/><path fill="#000000" d="m137.6739 314.0701l0 -2.125l6.484375 0l0 2.125l-6.484375 0zm16.164062 5.15625l-2.109375 0l0 -13.4375q-0.75 0.71875 -2.0 1.453125q-1.234375 0.71875 -2.21875 1.078125l0 -2.03125q1.78125 -0.828125 3.09375 -2.015625q1.328125 -1.1875 1.875 -2.296875l1.359375 0l0 17.25z" fill-rule="nonzero"/><path fill="#000000" fill-opacity="0.0" d="m127.90828 343.18634l54.4252 0l0 52.188995l-54.4252 0z" fill-rule="evenodd"/><path fill="#000000" d="m137.6739 370.0701l0 -2.125l6.484375 0l0 2.125l-6.484375 0zm16.164062 5.15625l-2.109375 0l0 -13.4375q-0.75 0.71875 -2.0 1.453125q-1.234375 0.71875 -2.21875 1.078125l0 -2.03125q1.78125 -0.828125 3.09375 -2.015625q1.328125 -1.1875 1.875 -2.296875l1.359375 0l0 17.25z" fill-rule="nonzero"/><path fill="#000000" fill-opacity="0.0" d="m113.63844 116.030106l73.322845 0l0 52.18898l-73.322845 0z" fill-rule="evenodd"/><path fill="#000000" d="m123.40407 142.91385l0 -2.125l6.484375 0l0 2.125l-6.484375 0zm16.164062 5.15625l-2.109375 0l0 -13.4375q-0.75 0.71875 -2.0 1.453125q-1.234375 0.71875 -2.21875 1.078125l0 -2.03125q1.78125 -0.828125 3.09375 -2.015625q1.328125 -1.1875 1.875 -2.296875l1.359375 0l0 17.25zm6.5976562 0l0 -2.40625l2.390625 0l0 2.40625l-2.390625 0zm5.4804688 -4.5l2.21875 -0.1875q0.234375 1.609375 1.125 2.4375q0.90625 0.8125 2.171875 0.8125q1.53125 0 2.578125 -1.140625q1.0625 -1.15625 1.0625 -3.0625q0 -1.796875 -1.015625 -2.84375q-1.015625 -1.046875 -2.65625 -1.046875q-1.015625 0 -1.84375 0.46875q-0.8125 0.453125 -1.28125 1.203125l-1.984375 -0.265625l1.65625 -8.828125l8.546875 0l0 2.015625l-6.859375 0l-0.921875 4.625q1.546875 -1.078125 3.25 -1.078125q2.25 0 3.796875 1.5625q1.546875 1.546875 1.546875 4.0q0 2.328125 -1.359375 4.03125q-1.65625 2.09375 -4.515625 2.09375q-2.34375 0 -3.828125 -1.3125q-1.484375 -1.3125 -1.6875 -3.484375z" fill-rule="nonzero"/><path fill="#000000" fill-opacity="0.0" d="m550.50183 116.030106l73.322876 0l0 52.18898l-73.322876 0z" fill-rule="evenodd"/><path fill="#000000" d="m568.43933 148.0701l-2.109375 0l0 -13.4375q-0.75 0.71875 -2.0 1.453125q-1.234375 0.71875 -2.21875 1.078125l0 -2.03125q1.78125 -0.828125 3.09375 -2.015625q1.328125 -1.1875 1.875 -2.296875l1.359375 0l0 17.25zm6.5976562 0l0 -2.40625l2.390625 0l0 2.40625l-2.390625 0zm5.4804688 -4.5l2.21875 -0.1875q0.234375 1.609375 1.125 2.4375q0.90625 0.8125 2.171875 0.8125q1.53125 0 2.578125 -1.140625q1.0625 -1.15625 1.0625 -3.0625q0 -1.796875 -1.015625 -2.84375q-1.015625 -1.046875 -2.65625 -1.046875q-1.015625 0 -1.84375 0.46875q-0.8125 0.453125 -1.28125 1.203125l-1.984375 -0.265625l1.65625 -8.828125l8.546875 0l0 2.015625l-6.859375 0l-0.921875 4.625q1.546875 -1.078125 3.25 -1.078125q2.25 0 3.796875 1.5625q1.546875 1.546875 1.546875 4.0q0 2.328125 -1.359375 4.03125q-1.65625 2.09375 -4.515625 2.09375q-2.34375 0 -3.828125 -1.3125q-1.484375 -1.3125 -1.6875 -3.484375z" fill-rule="nonzero"/><path fill="#000000" fill-opacity="0.0" d="m550.50183 188.0301l73.322876 0l0 52.18898l-73.322876 0z" fill-rule="evenodd"/><path fill="#000000" d="m568.43933 220.0701l-2.109375 0l0 -13.4375q-0.75 0.71875 -2.0 1.453125q-1.234375 0.71875 -2.21875 1.078125l0 -2.03125q1.78125 -0.828125 3.09375 -2.015625q1.328125 -1.1875 1.875 -2.296875l1.359375 0l0 17.25z" fill-rule="nonzero"/><path fill="#000000" fill-opacity="0.0" d="m550.50183 284.0301l73.322876 0l0 52.188995l-73.322876 0z" fill-rule="evenodd"/><path fill="#000000" d="m568.43933 316.0701l-2.109375 0l0 -13.4375q-0.75 0.71875 -2.0 1.453125q-1.234375 0.71875 -2.21875 1.078125l0 -2.03125q1.78125 -0.828125 3.09375 -2.015625q1.328125 -1.1875 1.875 -2.296875l1.359375 0l0 17.25z" fill-rule="nonzero"/><path fill="#000000" fill-opacity="0.0" d="m599.9081 36.811024l117.322815 0l0 52.188976l-117.322815 0z" fill-rule="evenodd"/><path stroke="#38761d" stroke-width="1.0" stroke-linejoin="round" stroke-linecap="butt" d="m599.9081 36.811024l117.322815 0l0 52.188976l-117.322815 0z" fill-rule="evenodd"/><path fill="#000000" d="m609.95496 60.36665q0 -2.625 0.78125 -4.40625q0.59375 -1.3125 1.59375 -2.359375q1.015625 -1.046875 2.234375 -1.546875q1.59375 -0.671875 3.703125 -0.671875q3.796875 0 6.0625 2.359375q2.28125 2.34375 2.28125 6.546875q0 4.156246 -2.265625 6.515621q-2.25 2.34375 -6.03125 2.34375q-3.84375 0 -6.109375 -2.34375q-2.25 -2.34375 -2.25 -6.437496zm3.578125 -0.125q0 2.921875 1.34375 4.437496q1.34375 1.5 3.421875 1.5q2.078125 0 3.40625 -1.484375q1.328125 -1.4999962 1.328125 -4.499996q0 -2.953125 -1.296875 -4.40625q-1.296875 -1.453125 -3.4375 -1.453125q-2.140625 0 -3.453125 1.484375q-1.3125 1.46875 -1.3125 4.421875zm15.808594 8.609371l0 -17.187496l7.296875 0q2.75 0 4.0 0.46875q1.25 0.46875 2.0 1.65625q0.75 1.171875 0.75 2.703125q0 1.921875 -1.140625 3.1875q-1.140625 1.265625 -3.390625 1.59375q1.125 0.65625 1.84375 1.4375q0.734375 0.78125 1.984375 2.7812462l2.09375 3.359375l-4.140625 0l-2.515625 -3.734375q-1.328125 -2.0156212 -1.828125 -2.5312462q-0.484375 -0.515625 -1.046875 -0.703125q-0.546875 -0.203125 -1.734375 -0.203125l-0.703125 0l0 7.171871l-3.46875 0zm3.46875 -9.921871l2.5625 0q2.5 0 3.109375 -0.203125q0.625 -0.21875 0.96875 -0.734375q0.359375 -0.515625 0.359375 -1.28125q0 -0.875 -0.46875 -1.40625q-0.453125 -0.53125 -1.296875 -0.671875q-0.421875 -0.0625 -2.53125 -0.0625l-2.703125 0l0 4.359375zm28.5 3.609375l0 -2.90625l7.484375 0l0 6.843746q-1.09375 1.0625 -3.171875 1.875q-2.0625 0.796875 -4.171875 0.796875q-2.703125 0 -4.703125 -1.125q-2.0 -1.140625 -3.015625 -3.234375q-1.0 -2.1093712 -1.0 -4.593746q0 -2.671875 1.125 -4.75q1.125 -2.09375 3.28125 -3.21875q1.65625 -0.84375 4.125 -0.84375q3.1875 0 4.984375 1.34375q1.8125 1.328125 2.328125 3.703125l-3.453125 0.640625q-0.359375 -1.265625 -1.359375 -2.0q-1.0 -0.734375 -2.5 -0.734375q-2.28125 0 -3.625 1.453125q-1.34375 1.4375 -1.34375 4.265625q0 3.0625 1.359375 4.593746q1.359375 1.53125 3.5625 1.53125q1.09375 0 2.1875 -0.421875q1.09375 -0.4375 1.890625 -1.046875l0 -2.1718712l-3.984375 0zm13.121094 -2.34375l-2.984375 -0.53125q0.5 -1.8125 1.71875 -2.671875q1.234375 -0.875 3.671875 -0.875q2.203125 0 3.28125 0.53125q1.078125 0.515625 1.515625 1.328125q0.4375 0.796875 0.4375 2.9375l-0.03125 3.8437462q0 1.640625 0.15625 2.421875q0.15625 0.78125 0.59375 1.671875l-3.265625 0q-0.125 -0.328125 -0.3125 -0.96875q-0.078125 -0.296875 -0.125 -0.390625q-0.84375 0.8125 -1.8125 1.234375q-0.953125 0.40625 -2.03125 0.40625q-1.921875 0 -3.03125 -1.046875q-1.109375 -1.046875 -1.109375 -2.640625q0 -1.046875 0.5 -1.8749962q0.5 -0.828125 1.40625 -1.265625q0.921875 -0.4375 2.625 -0.765625q2.3125 -0.4375 3.203125 -0.8125l0 -0.328125q0 -0.953125 -0.46875 -1.34375q-0.46875 -0.40625 -1.765625 -0.40625q-0.890625 0 -1.390625 0.34375q-0.484375 0.34375 -0.78125 1.203125zm4.40625 2.671875q-0.640625 0.21875 -2.015625 0.515625q-1.359375 0.28125 -1.78125 0.5625q-0.640625 0.4687462 -0.640625 1.1718712q0 0.6875 0.515625 1.1875q0.515625 0.5 1.3125 0.5q0.890625 0 1.6875 -0.578125q0.609375 -0.453125 0.796875 -1.09375q0.125 -0.421875 0.125 -1.6093712l0 -0.65625zm12.191406 -6.46875l0 2.625l-2.25 0l0 5.015621q0 1.53125 0.0625 1.78125q0.0625 0.25 0.28125 0.421875q0.234375 0.15625 0.5625 0.15625q0.453125 0 1.328125 -0.3125l0.28125 2.546875q-1.15625 0.5 -2.609375 0.5q-0.890625 0 -1.609375 -0.296875q-0.703125 -0.296875 -1.046875 -0.765625q-0.328125 -0.484375 -0.453125 -1.296875q-0.109375 -0.578125 -0.109375 -2.3125l0 -5.437496l-1.515625 0l0 -2.625l1.515625 0l0 -2.46875l3.3125 -1.921875l0 4.390625l2.25 0zm9.4921875 8.484371l3.28125 0.5625q-0.640625 1.796875 -2.015625 2.75q-1.359375 0.9375 -3.40625 0.9375q-3.25 0 -4.796875 -2.125q-1.234375 -1.703125 -1.234375 -4.281246q0 -3.09375 1.609375 -4.84375q1.625 -1.765625 4.09375 -1.765625q2.78125 0 4.375 1.84375q1.609375 1.828125 1.546875 5.609375l-8.25 0q0.03125 1.4687462 0.796875 2.2812462q0.765625 0.8125 1.890625 0.8125q0.78125 0 1.296875 -0.421875q0.53125 -0.421875 0.8125 -1.359375zm0.1875 -3.3281212q-0.046875 -1.421875 -0.75 -2.15625q-0.703125 -0.75 -1.703125 -0.75q-1.078125 0 -1.78125 0.78125q-0.703125 0.78125 -0.6875 2.125l4.921875 0z" fill-rule="nonzero"/><path fill="#000000" fill-opacity="0.0" d="m512.29315 193.64334c21.903748 0 32.854736 -32.685028 43.807495 -65.37007c10.952759 -32.685043 21.907288 -65.37008 43.814575 -65.37008" fill-rule="evenodd"/><path stroke="#000000" stroke-width="2.0" stroke-linejoin="round" stroke-linecap="butt" stroke-dasharray="8.0,6.0" d="m512.29315 193.64336c21.903748 0 32.854797 -32.685043 43.807556 -65.37009c5.4763794 -16.342514 10.953186 -32.685036 17.799255 -44.941925c3.4230957 -6.1284485 7.1884766 -11.235489 11.467346 -14.810417c0.53479004 -0.44686127 1.0776978 -0.8697891 1.6289062 -1.2677765c0.27563477 -0.1989975 0.5533447 -0.39175415 0.8331909 -0.5781555c0.13989258 -0.09320831 0.28033447 -0.18481445 0.42132568 -0.27481842l0.1560669 -0.097465515" fill-rule="evenodd"/><path fill="#000000" stroke="#000000" stroke-width="2.0" stroke-linecap="butt" d="m589.34265 69.47085l7.7684937 -5.7393646l-9.640198 -0.59690094z" fill-rule="evenodd"/><path fill="#000000" fill-opacity="0.0" d="m575.90814 396.81104l155.62207 0l0 52.188965l-155.62207 0z" fill-rule="evenodd"/><path stroke="#38761d" stroke-width="1.0" stroke-linejoin="round" stroke-linecap="butt" d="m575.90814 396.81104l155.62207 0l0 52.188965l-155.62207 0z" fill-rule="evenodd"/><path fill="#000000" d="m586.6894 428.851l0 -17.1875l3.375 0l7.03125 11.484375l0 -11.484375l3.21875 0l0 17.1875l-3.46875 0l-6.9375 -11.203125l0 11.203125l-3.21875 0zm32.785156 0l-3.765625 0l-1.5 -3.90625l-6.875 0l-1.40625 3.90625l-3.6875 0l6.6875 -17.1875l3.671875 0l6.875 17.1875zm-6.375 -6.796875l-2.375 -6.375l-2.3125 6.375l4.6875 0zm8.253906 6.796875l0 -17.1875l3.375 0l7.03125 11.484375l0 -11.484375l3.21875 0l0 17.1875l-3.46875 0l-6.9375 -11.203125l0 11.203125l-3.21875 0zm17.285156 -17.1875l6.34375 0q2.140625 0 3.265625 0.328125q1.515625 0.453125 2.59375 1.59375q1.078125 1.125 1.640625 2.78125q0.5625 1.640625 0.5625 4.0625q0 2.109375 -0.53125 3.65625q-0.640625 1.875 -1.84375 3.03125q-0.890625 0.875 -2.4375 1.375q-1.140625 0.359375 -3.0625 0.359375l-6.53125 0l0 -17.1875zm3.46875 2.90625l0 11.390625l2.59375 0q1.453125 0 2.09375 -0.171875q0.84375 -0.203125 1.390625 -0.703125q0.5625 -0.515625 0.90625 -1.671875q0.359375 -1.15625 0.359375 -3.140625q0 -2.0 -0.359375 -3.0625q-0.34375 -1.0625 -0.984375 -1.65625q-0.625 -0.609375 -1.59375 -0.8125q-0.71875 -0.171875 -2.84375 -0.171875l-1.5625 0zm28.53125 7.96875l0 -2.90625l7.484375 0l0 6.84375q-1.09375 1.0625 -3.171875 1.875q-2.0625 0.796875 -4.171875 0.796875q-2.703125 0 -4.703125 -1.125q-2.0 -1.140625 -3.015625 -3.234375q-1.0 -2.109375 -1.0 -4.59375q0 -2.671875 1.125 -4.75q1.125 -2.09375 3.28125 -3.21875q1.65625 -0.84375 4.125 -0.84375q3.1875 0 4.984375 1.34375q1.8125 1.328125 2.328125 3.703125l-3.453125 0.640625q-0.359375 -1.265625 -1.359375 -2.0q-1.0 -0.734375 -2.5 -0.734375q-2.28125 0 -3.625 1.453125q-1.34375 1.4375 -1.34375 4.265625q0 3.0625 1.359375 4.59375q1.359375 1.53125 3.5625 1.53125q1.09375 0 2.1875 -0.421875q1.09375 -0.4375 1.890625 -1.046875l0 -2.171875l-3.984375 0zm13.121094 -2.34375l-2.984375 -0.53125q0.5 -1.8125 1.71875 -2.671875q1.234375 -0.875 3.671875 -0.875q2.203125 0 3.28125 0.53125q1.078125 0.515625 1.515625 1.328125q0.4375 0.796875 0.4375 2.9375l-0.03125 3.84375q0 1.640625 0.15625 2.421875q0.15625 0.78125 0.59375 1.671875l-3.265625 0q-0.125 -0.328125 -0.3125 -0.96875q-0.078125 -0.296875 -0.125 -0.390625q-0.84375 0.8125 -1.8125 1.234375q-0.953125 0.40625 -2.03125 0.40625q-1.921875 0 -3.03125 -1.046875q-1.109375 -1.046875 -1.109375 -2.640625q0 -1.046875 0.5 -1.875q0.5 -0.828125 1.40625 -1.265625q0.921875 -0.4375 2.625 -0.765625q2.3125 -0.4375 3.203125 -0.8125l0 -0.328125q0 -0.953125 -0.46875 -1.34375q-0.46875 -0.40625 -1.765625 -0.40625q-0.890625 0 -1.390625 0.34375q-0.484375 0.34375 -0.78125 1.203125zm4.40625 2.671875q-0.640625 0.21875 -2.015625 0.515625q-1.359375 0.28125 -1.78125 0.5625q-0.640625 0.46875 -0.640625 1.171875q0 0.6875 0.515625 1.1875q0.515625 0.5 1.3125 0.5q0.890625 0 1.6875 -0.578125q0.609375 -0.453125 0.796875 -1.09375q0.125 -0.421875 0.125 -1.609375l0 -0.65625zm12.191406 -6.46875l0 2.625l-2.25 0l0 5.015625q0 1.53125 0.0625 1.78125q0.0625 0.25 0.28125 0.421875q0.234375 0.15625 0.5625 0.15625q0.453125 0 1.328125 -0.3125l0.28125 2.546875q-1.15625 0.5 -2.609375 0.5q-0.890625 0 -1.609375 -0.296875q-0.703125 -0.296875 -1.046875 -0.765625q-0.328125 -0.484375 -0.453125 -1.296875q-0.109375 -0.578125 -0.109375 -2.3125l0 -5.4375l-1.515625 0l0 -2.625l1.515625 0l0 -2.46875l3.3125 -1.921875l0 4.390625l2.25 0zm9.4921875 8.484375l3.28125 0.5625q-0.640625 1.796875 -2.015625 2.75q-1.359375 0.9375 -3.40625 0.9375q-3.25 0 -4.796875 -2.125q-1.234375 -1.703125 -1.234375 -4.28125q0 -3.09375 1.609375 -4.84375q1.625 -1.765625 4.09375 -1.765625q2.78125 0 4.375 1.84375q1.609375 1.828125 1.546875 5.609375l-8.25 0q0.03125 1.46875 0.796875 2.28125q0.765625 0.8125 1.890625 0.8125q0.78125 0 1.296875 -0.421875q0.53125 -0.421875 0.8125 -1.359375zm0.1875 -3.328125q-0.046875 -1.421875 -0.75 -2.15625q-0.703125 -0.75 -1.703125 -0.75q-1.078125 0 -1.78125 0.78125q-0.703125 0.78125 -0.6875 2.125l4.921875 0z" fill-rule="nonzero"/><path fill="#000000" fill-opacity="0.0" d="m512.29315 352.14334c15.9036255 0 23.854431 17.692932 31.80719 35.385834c7.952759 17.692902 15.90741 35.385834 31.81488 35.385834" fill-rule="evenodd"/><path stroke="#000000" stroke-width="2.0" stroke-linejoin="round" stroke-linecap="butt" stroke-dasharray="8.0,6.0" d="m512.29315 352.14334c15.9036255 0 23.854431 17.692902 31.80719 35.385803c3.9763794 8.846466 7.953247 17.692932 12.924438 24.327759c1.2427979 1.6587219 2.5477295 3.1791992 3.930359 4.5269165c0.6912842 0.6738281 1.4020386 1.3045044 2.1341553 1.8876343c0.36602783 0.29156494 0.7373657 0.57125854 1.1143799 0.8385315l0.26953125 0.1882019" fill-rule="evenodd"/><path fill="#000000" stroke="#000000" stroke-width="2.0" stroke-linecap="butt" d="m563.47754 422.44803l9.64978 -0.41427612l-7.6584473 -5.8854065z" fill-rule="evenodd"/><path fill="#000000" fill-opacity="0.0" d="m798.3333 108.81102l139.52759 0l0 52.18898l-139.52759 0z" fill-rule="evenodd"/><path stroke="#38761d" stroke-width="1.0" stroke-linejoin="round" stroke-linecap="butt" d="m798.3333 108.81102l139.52759 0l0 52.18898l-139.52759 0z" fill-rule="evenodd"/><path fill="#000000" d="m824.5677 140.85103l-3.765625 0l-1.5 -3.90625l-6.875 0l-1.40625 3.90625l-3.6875 0l6.6875 -17.187508l3.671875 0l6.875 17.187508zm-6.375 -6.796875l-2.375 -6.3750076l-2.3125 6.3750076l4.6875 0zm8.253906 6.796875l0 -17.187508l3.375 0l7.03125 11.484383l0 -11.484383l3.21875 0l0 17.187508l-3.46875 0l-6.9375 -11.203125l0 11.203125l-3.21875 0zm17.285156 -17.187508l6.34375 0q2.140625 0 3.265625 0.328125q1.515625 0.453125 2.59375 1.59375q1.078125 1.125 1.640625 2.7812576q0.5625 1.640625 0.5625 4.0625q0 2.109375 -0.53125 3.65625q-0.640625 1.875 -1.84375 3.03125q-0.890625 0.875 -2.4375 1.375q-1.140625 0.359375 -3.0625 0.359375l-6.53125 0l0 -17.187508zm3.46875 2.90625l0 11.390633l2.59375 0q1.453125 0 2.09375 -0.171875q0.84375 -0.203125 1.390625 -0.703125q0.5625 -0.515625 0.90625 -1.671875q0.359375 -1.15625 0.359375 -3.140625q0 -2.0 -0.359375 -3.0625q-0.34375 -1.0625 -0.984375 -1.6562576q-0.625 -0.609375 -1.59375 -0.8125q-0.71875 -0.171875 -2.84375 -0.171875l-1.5625 0zm28.53125 7.9687576l0 -2.90625l7.484375 0l0 6.84375q-1.09375 1.0625 -3.171875 1.875q-2.0625 0.796875 -4.171875 0.796875q-2.703125 0 -4.703125 -1.125q-2.0 -1.140625 -3.015625 -3.234375q-1.0 -2.109375 -1.0 -4.59375q0 -2.671875 1.125 -4.7500076q1.125 -2.09375 3.28125 -3.21875q1.65625 -0.84375 4.125 -0.84375q3.1875 0 4.984375 1.34375q1.8125 1.328125 2.328125 3.7031326l-3.453125 0.640625q-0.359375 -1.2656326 -1.359375 -2.0000076q-1.0 -0.734375 -2.5 -0.734375q-2.28125 0 -3.625 1.453125q-1.34375 1.4375076 -1.34375 4.2656326q0 3.0625 1.359375 4.59375q1.359375 1.53125 3.5625 1.53125q1.09375 0 2.1875 -0.421875q1.09375 -0.4375 1.890625 -1.046875l0 -2.171875l-3.984375 0zm13.121094 -2.34375l-2.984375 -0.53125q0.5 -1.8125 1.71875 -2.671875q1.234375 -0.875 3.671875 -0.875q2.203125 0 3.28125 0.53125q1.078125 0.515625 1.515625 1.328125q0.4375 0.796875 0.4375 2.9375l-0.03125 3.84375q0 1.640625 0.15625 2.421875q0.15625 0.78125 0.59375 1.671875l-3.265625 0q-0.125 -0.328125 -0.3125 -0.96875q-0.078125 -0.296875 -0.125 -0.390625q-0.84375 0.8125 -1.8125 1.234375q-0.953125 0.40625 -2.03125 0.40625q-1.921875 0 -3.03125 -1.046875q-1.109375 -1.046875 -1.109375 -2.640625q0 -1.046875 0.5 -1.875q0.5 -0.828125 1.40625 -1.265625q0.921875 -0.4375 2.625 -0.765625q2.3125 -0.4375 3.203125 -0.8125l0 -0.328125q0 -0.953125 -0.46875 -1.34375q-0.46875 -0.40625 -1.765625 -0.40625q-0.890625 0 -1.390625 0.34375q-0.484375 0.34375 -0.78125 1.203125zm4.40625 2.671875q-0.640625 0.21875 -2.015625 0.515625q-1.359375 0.28125 -1.78125 0.5625q-0.640625 0.46875 -0.640625 1.171875q0 0.6875 0.515625 1.1875q0.515625 0.5 1.3125 0.5q0.890625 0 1.6875 -0.578125q0.609375 -0.453125 0.796875 -1.09375q0.125 -0.421875 0.125 -1.609375l0 -0.65625zm12.191406 -6.46875l0 2.625l-2.25 0l0 5.015625q0 1.53125 0.0625 1.78125q0.0625 0.25 0.28125 0.421875q0.234375 0.15625 0.5625 0.15625q0.453125 0 1.328125 -0.3125l0.28125 2.546875q-1.15625 0.5 -2.609375 0.5q-0.890625 0 -1.609375 -0.296875q-0.703125 -0.296875 -1.046875 -0.765625q-0.328125 -0.484375 -0.453125 -1.296875q-0.109375 -0.578125 -0.109375 -2.3125l0 -5.4375l-1.515625 0l0 -2.625l1.515625 0l0 -2.4687576l3.3125 -1.921875l0 4.3906326l2.25 0zm9.4921875 8.484375l3.28125 0.5625q-0.640625 1.796875 -2.015625 2.75q-1.359375 0.9375 -3.40625 0.9375q-3.25 0 -4.796875 -2.125q-1.234375 -1.703125 -1.234375 -4.28125q0 -3.09375 1.609375 -4.84375q1.625 -1.765625 4.09375 -1.765625q2.78125 0 4.375 1.84375q1.609375 1.828125 1.546875 5.609375l-8.25 0q0.03125 1.46875 0.796875 2.28125q0.765625 0.8125 1.890625 0.8125q0.78125 0 1.296875 -0.421875q0.53125 -0.421875 0.8125 -1.359375zm0.1875 -3.328125q-0.046875 -1.421875 -0.75 -2.15625q-0.703125 -0.75 -1.703125 -0.75q-1.078125 0 -1.78125 0.78125q-0.703125 0.78125 -0.6875 2.125l4.921875 0z" fill-rule="nonzero"/><path fill="#000000" fill-opacity="0.0" d="m853.66815 278.7371c12.499878 0 28.952332 -23.112564 24.999756 -41.08789c-3.9525757 -17.975327 -28.310059 -30.81343 -52.66742 -41.08789c-24.3573 -10.274475 -48.714417 -17.985306 -52.66736 -30.833374c-3.952942 -12.848053 12.49823 -30.833359 24.99646 -30.833359" fill-rule="evenodd"/><path stroke="#000000" stroke-width="2.0" stroke-linejoin="round" stroke-linecap="butt" stroke-dasharray="8.0,6.0" d="m853.66815 278.7371c12.499939 0 28.952332 -23.112564 24.999756 -41.08789c-3.9525146 -17.975342 -28.310059 -30.81343 -52.66742 -41.08789c-24.3573 -10.27446 -48.714417 -17.98529 -52.66742 -30.833374c-1.9764404 -6.4240265 1.1481323 -14.132355 6.3291016 -20.234695c1.2952881 -1.525589 2.7189941 -2.9507904 4.223755 -4.2304688c0.7522583 -0.63983154 1.5249023 -1.2432861 2.3118286 -1.8047028c0.19665527 -0.1403656 0.3942871 -0.27809143 0.5927124 -0.4131012l0.22503662 -0.1512909" fill-rule="evenodd"/><path fill="#000000" stroke="#000000" stroke-width="2.0" stroke-linecap="butt" d="m788.11646 142.0083l7.456421 -6.1393433l-9.658264 -0.089904785z" fill-rule="evenodd"/></g></svg>