<?xml version="1.0" encoding="utf-8" standalone="no"?>
<!DOCTYPE svg PUBLIC "-//W3C//DTD SVG 1.1//EN"
  "http://www.w3.org/Graphics/SVG/1.1/DTD/svg11.dtd">
<!-- Created with matplotlib (https://matplotlib.org/) -->
<svg height="288pt" version="1.1" viewBox="0 0 432 288" width="432pt" xmlns="http://www.w3.org/2000/svg" xmlns:xlink="http://www.w3.org/1999/xlink">
 <defs>
  <style type="text/css">
*{stroke-linecap:butt;stroke-linejoin:round;}
  </style>
 </defs>
 <g id="figure_1">
  <g id="patch_1">
   <path d="M 0 288 
L 432 288 
L 432 0 
L 0 0 
z
" style="fill:#ffffff;"/>
  </g>
  <g id="axes_1">
   <g id="patch_2">
    <path d="M 54 252 
L 388.8 252 
L 388.8 34.56 
L 54 34.56 
z
" style="fill:#ffffff;"/>
   </g>
   <g id="PathCollection_1">
    <defs>
     <path d="M 0 3.535534 
C 0.937635 3.535534 1.836992 3.163008 2.5 2.5 
C 3.163008 1.836992 3.535534 0.937635 3.535534 0 
C 3.535534 -0.937635 3.163008 -1.836992 2.5 -2.5 
C 1.836992 -3.163008 0.937635 -3.535534 0 -3.535534 
C -0.937635 -3.535534 -1.836992 -3.163008 -2.5 -2.5 
C -3.163008 -1.836992 -3.535534 -0.937635 -3.535534 0 
C -3.535534 0.937635 -3.163008 1.836992 -2.5 2.5 
C -1.836992 3.163008 -0.937635 3.535534 0 3.535534 
z
" id="C0_0_54a571e3b9"/>
    </defs>
    <g clip-path="url(#pdedff76fed)">
     <use style="fill:#440154;stroke:#000000;" x="220.974834" xlink:href="#C0_0_54a571e3b9" y="190.9146"/>
    </g>
    <g clip-path="url(#pdedff76fed)">
     <use style="fill:#440154;stroke:#000000;" x="101.828571" xlink:href="#C0_0_54a571e3b9" y="187.262948"/>
    </g>
    <g clip-path="url(#pdedff76fed)">
     <use style="fill:#440154;stroke:#000000;" x="194.524315" xlink:href="#C0_0_54a571e3b9" y="151.622412"/>
    </g>
    <g clip-path="url(#pdedff76fed)">
     <use style="fill:#fde725;stroke:#000000;" x="201.593186" xlink:href="#C0_0_54a571e3b9" y="113.001457"/>
    </g>
    <g clip-path="url(#pdedff76fed)">
     <use style="fill:#fde725;stroke:#000000;" x="232.725202" xlink:href="#C0_0_54a571e3b9" y="94.974781"/>
    </g>
    <g clip-path="url(#pdedff76fed)">
     <use style="fill:#440154;stroke:#000000;" x="189.298742" xlink:href="#C0_0_54a571e3b9" y="165.566277"/>
    </g>
    <g clip-path="url(#pdedff76fed)">
     <use style="fill:#440154;stroke:#000000;" x="193.122069" xlink:href="#C0_0_54a571e3b9" y="204.515116"/>
    </g>
    <g clip-path="url(#pdedff76fed)">
     <use style="fill:#fde725;stroke:#000000;" x="179.559988" xlink:href="#C0_0_54a571e3b9" y="91.624161"/>
    </g>
    <g clip-path="url(#pdedff76fed)">
     <use style="fill:#440154;stroke:#000000;" x="159.745642" xlink:href="#C0_0_54a571e3b9" y="173.299125"/>
    </g>
    <g clip-path="url(#pdedff76fed)">
     <use style="fill:#440154;stroke:#000000;" x="218.075151" xlink:href="#C0_0_54a571e3b9" y="167.685699"/>
    </g>
    <g clip-path="url(#pdedff76fed)">
     <use style="fill:#fde725;stroke:#000000;" x="239.971645" xlink:href="#C0_0_54a571e3b9" y="97.946099"/>
    </g>
    <g clip-path="url(#pdedff76fed)">
     <use style="fill:#fde725;stroke:#000000;" x="260.913894" xlink:href="#C0_0_54a571e3b9" y="99.753312"/>
    </g>
    <g clip-path="url(#pdedff76fed)">
     <use style="fill:#440154;stroke:#000000;" x="169.553674" xlink:href="#C0_0_54a571e3b9" y="174.367365"/>
    </g>
    <g clip-path="url(#pdedff76fed)">
     <use style="fill:#fde725;stroke:#000000;" x="227.565623" xlink:href="#C0_0_54a571e3b9" y="96.00731"/>
    </g>
    <g clip-path="url(#pdedff76fed)">
     <use style="fill:#440154;stroke:#000000;" x="146.884806" xlink:href="#C0_0_54a571e3b9" y="162.204268"/>
    </g>
    <g clip-path="url(#pdedff76fed)">
     <use style="fill:#fde725;stroke:#000000;" x="180.40011" xlink:href="#C0_0_54a571e3b9" y="109.332279"/>
    </g>
    <g clip-path="url(#pdedff76fed)">
     <use style="fill:#440154;stroke:#000000;" x="189.628476" xlink:href="#C0_0_54a571e3b9" y="177.428586"/>
    </g>
    <g clip-path="url(#pdedff76fed)">
     <use style="fill:#fde725;stroke:#000000;" x="191.733099" xlink:href="#C0_0_54a571e3b9" y="95.431623"/>
    </g>
    <g clip-path="url(#pdedff76fed)">
     <use style="fill:#440154;stroke:#000000;" x="128.431114" xlink:href="#C0_0_54a571e3b9" y="170.333128"/>
    </g>
    <g clip-path="url(#pdedff76fed)">
     <use style="fill:#440154;stroke:#000000;" x="193.740301" xlink:href="#C0_0_54a571e3b9" y="174.901633"/>
    </g>
    <g clip-path="url(#pdedff76fed)">
     <use style="fill:#440154;stroke:#000000;" x="184.49965" xlink:href="#C0_0_54a571e3b9" y="164.8626"/>
    </g>
    <g clip-path="url(#pdedff76fed)">
     <use style="fill:#fde725;stroke:#000000;" x="217.066919" xlink:href="#C0_0_54a571e3b9" y="89.029346"/>
    </g>
    <g clip-path="url(#pdedff76fed)">
     <use style="fill:#fde725;stroke:#000000;" x="229.327496" xlink:href="#C0_0_54a571e3b9" y="96.840715"/>
    </g>
    <g clip-path="url(#pdedff76fed)">
     <use style="fill:#440154;stroke:#000000;" x="194.166462" xlink:href="#C0_0_54a571e3b9" y="194.809337"/>
    </g>
    <g clip-path="url(#pdedff76fed)">
     <use style="fill:#440154;stroke:#000000;" x="184.843424" xlink:href="#C0_0_54a571e3b9" y="213.685552"/>
    </g>
    <g clip-path="url(#pdedff76fed)">
     <use style="fill:#440154;stroke:#000000;" x="153.254216" xlink:href="#C0_0_54a571e3b9" y="188.234553"/>
    </g>
    <g clip-path="url(#pdedff76fed)">
     <use style="fill:#fde725;stroke:#000000;" x="211.835197" xlink:href="#C0_0_54a571e3b9" y="117.375892"/>
    </g>
    <g clip-path="url(#pdedff76fed)">
     <use style="fill:#440154;stroke:#000000;" x="108.314925" xlink:href="#C0_0_54a571e3b9" y="184.210058"/>
    </g>
    <g clip-path="url(#pdedff76fed)">
     <use style="fill:#440154;stroke:#000000;" x="202.412754" xlink:href="#C0_0_54a571e3b9" y="167.232245"/>
    </g>
    <g clip-path="url(#pdedff76fed)">
     <use style="fill:#fde725;stroke:#000000;" x="215.768072" xlink:href="#C0_0_54a571e3b9" y="135.223111"/>
    </g>
    <g clip-path="url(#pdedff76fed)">
     <use style="fill:#fde725;stroke:#000000;" x="209.244235" xlink:href="#C0_0_54a571e3b9" y="96.587352"/>
    </g>
    <g clip-path="url(#pdedff76fed)">
     <use style="fill:#fde725;stroke:#000000;" x="186.114368" xlink:href="#C0_0_54a571e3b9" y="90.250792"/>
    </g>
    <g clip-path="url(#pdedff76fed)">
     <use style="fill:#fde725;stroke:#000000;" x="245.428933" xlink:href="#C0_0_54a571e3b9" y="85.39961"/>
    </g>
    <g clip-path="url(#pdedff76fed)">
     <use style="fill:#440154;stroke:#000000;" x="179.803562" xlink:href="#C0_0_54a571e3b9" y="202.610788"/>
    </g>
    <g clip-path="url(#pdedff76fed)">
     <use style="fill:#440154;stroke:#000000;" x="159.040507" xlink:href="#C0_0_54a571e3b9" y="207.418064"/>
    </g>
    <g clip-path="url(#pdedff76fed)">
     <use style="fill:#440154;stroke:#000000;" x="137.575163" xlink:href="#C0_0_54a571e3b9" y="188.190609"/>
    </g>
    <g clip-path="url(#pdedff76fed)">
     <use style="fill:#440154;stroke:#000000;" x="124.674351" xlink:href="#C0_0_54a571e3b9" y="160.010843"/>
    </g>
    <g clip-path="url(#pdedff76fed)">
     <use style="fill:#fde725;stroke:#000000;" x="187.095859" xlink:href="#C0_0_54a571e3b9" y="77.297665"/>
    </g>
    <g clip-path="url(#pdedff76fed)">
     <use style="fill:#440154;stroke:#000000;" x="186.011305" xlink:href="#C0_0_54a571e3b9" y="200.679788"/>
    </g>
    <g clip-path="url(#pdedff76fed)">
     <use style="fill:#fde725;stroke:#000000;" x="232.896112" xlink:href="#C0_0_54a571e3b9" y="92.704143"/>
    </g>
    <g clip-path="url(#pdedff76fed)">
     <use style="fill:#fde725;stroke:#000000;" x="246.303042" xlink:href="#C0_0_54a571e3b9" y="94.849161"/>
    </g>
    <g clip-path="url(#pdedff76fed)">
     <use style="fill:#440154;stroke:#000000;" x="148.06228" xlink:href="#C0_0_54a571e3b9" y="199.487044"/>
    </g>
    <g clip-path="url(#pdedff76fed)">
     <use style="fill:#440154;stroke:#000000;" x="191.118988" xlink:href="#C0_0_54a571e3b9" y="166.781198"/>
    </g>
    <g clip-path="url(#pdedff76fed)">
     <use style="fill:#fde725;stroke:#000000;" x="236.732423" xlink:href="#C0_0_54a571e3b9" y="102.386739"/>
    </g>
    <g clip-path="url(#pdedff76fed)">
     <use style="fill:#fde725;stroke:#000000;" x="177.706331" xlink:href="#C0_0_54a571e3b9" y="135.41808"/>
    </g>
    <g clip-path="url(#pdedff76fed)">
     <use style="fill:#440154;stroke:#000000;" x="173.134561" xlink:href="#C0_0_54a571e3b9" y="187.050121"/>
    </g>
    <g clip-path="url(#pdedff76fed)">
     <use style="fill:#fde725;stroke:#000000;" x="192.870087" xlink:href="#C0_0_54a571e3b9" y="97.813043"/>
    </g>
    <g clip-path="url(#pdedff76fed)">
     <use style="fill:#fde725;stroke:#000000;" x="242.455939" xlink:href="#C0_0_54a571e3b9" y="93.850451"/>
    </g>
    <g clip-path="url(#pdedff76fed)">
     <use style="fill:#440154;stroke:#000000;" x="160.195863" xlink:href="#C0_0_54a571e3b9" y="203.652746"/>
    </g>
    <g clip-path="url(#pdedff76fed)">
     <use style="fill:#fde725;stroke:#000000;" x="189.610662" xlink:href="#C0_0_54a571e3b9" y="114.855601"/>
    </g>
    <g clip-path="url(#pdedff76fed)">
     <use style="fill:#440154;stroke:#000000;" x="167.759139" xlink:href="#C0_0_54a571e3b9" y="187.009035"/>
    </g>
    <g clip-path="url(#pdedff76fed)">
     <use style="fill:#fde725;stroke:#000000;" x="218.080494" xlink:href="#C0_0_54a571e3b9" y="81.82872"/>
    </g>
    <g clip-path="url(#pdedff76fed)">
     <use style="fill:#fde725;stroke:#000000;" x="252.179934" xlink:href="#C0_0_54a571e3b9" y="109.197482"/>
    </g>
    <g clip-path="url(#pdedff76fed)">
     <use style="fill:#fde725;stroke:#000000;" x="214.384322" xlink:href="#C0_0_54a571e3b9" y="112.006689"/>
    </g>
    <g clip-path="url(#pdedff76fed)">
     <use style="fill:#440154;stroke:#000000;" x="157.014033" xlink:href="#C0_0_54a571e3b9" y="185.760601"/>
    </g>
    <g clip-path="url(#pdedff76fed)">
     <use style="fill:#fde725;stroke:#000000;" x="244.065876" xlink:href="#C0_0_54a571e3b9" y="119.136963"/>
    </g>
    <g clip-path="url(#pdedff76fed)">
     <use style="fill:#440154;stroke:#000000;" x="212.136385" xlink:href="#C0_0_54a571e3b9" y="180.122901"/>
    </g>
    <g clip-path="url(#pdedff76fed)">
     <use style="fill:#fde725;stroke:#000000;" x="213.015913" xlink:href="#C0_0_54a571e3b9" y="97.941197"/>
    </g>
    <g clip-path="url(#pdedff76fed)">
     <use style="fill:#440154;stroke:#000000;" x="193.092501" xlink:href="#C0_0_54a571e3b9" y="198.518245"/>
    </g>
    <g clip-path="url(#pdedff76fed)">
     <use style="fill:#fde725;stroke:#000000;" x="196.310373" xlink:href="#C0_0_54a571e3b9" y="113.11446"/>
    </g>
    <g clip-path="url(#pdedff76fed)">
     <use style="fill:#fde725;stroke:#000000;" x="212.973488" xlink:href="#C0_0_54a571e3b9" y="112.654868"/>
    </g>
    <g clip-path="url(#pdedff76fed)">
     <use style="fill:#fde725;stroke:#000000;" x="266.577833" xlink:href="#C0_0_54a571e3b9" y="133.970633"/>
    </g>
    <g clip-path="url(#pdedff76fed)">
     <use style="fill:#440154;stroke:#000000;" x="165.266702" xlink:href="#C0_0_54a571e3b9" y="180.649056"/>
    </g>
    <g clip-path="url(#pdedff76fed)">
     <use style="fill:#fde725;stroke:#000000;" x="213.578675" xlink:href="#C0_0_54a571e3b9" y="65.622857"/>
    </g>
    <g clip-path="url(#pdedff76fed)">
     <use style="fill:#fde725;stroke:#000000;" x="254.377279" xlink:href="#C0_0_54a571e3b9" y="130.667313"/>
    </g>
    <g clip-path="url(#pdedff76fed)">
     <use style="fill:#440154;stroke:#000000;" x="189.588225" xlink:href="#C0_0_54a571e3b9" y="189.142157"/>
    </g>
    <g clip-path="url(#pdedff76fed)">
     <use style="fill:#440154;stroke:#000000;" x="166.499089" xlink:href="#C0_0_54a571e3b9" y="187.874131"/>
    </g>
    <g clip-path="url(#pdedff76fed)">
     <use style="fill:#fde725;stroke:#000000;" x="219.054128" xlink:href="#C0_0_54a571e3b9" y="111.726941"/>
    </g>
    <g clip-path="url(#pdedff76fed)">
     <use style="fill:#fde725;stroke:#000000;" x="233.804524" xlink:href="#C0_0_54a571e3b9" y="108.982397"/>
    </g>
    <g clip-path="url(#pdedff76fed)">
     <use style="fill:#440154;stroke:#000000;" x="207.483975" xlink:href="#C0_0_54a571e3b9" y="191.593649"/>
    </g>
    <g clip-path="url(#pdedff76fed)">
     <use style="fill:#fde725;stroke:#000000;" x="274.107821" xlink:href="#C0_0_54a571e3b9" y="110.692846"/>
    </g>
    <g clip-path="url(#pdedff76fed)">
     <use style="fill:#fde725;stroke:#000000;" x="275.341681" xlink:href="#C0_0_54a571e3b9" y="97.689029"/>
    </g>
    <g clip-path="url(#pdedff76fed)">
     <use style="fill:#fde725;stroke:#000000;" x="250.094228" xlink:href="#C0_0_54a571e3b9" y="92.939065"/>
    </g>
    <g clip-path="url(#pdedff76fed)">
     <use style="fill:#fde725;stroke:#000000;" x="254.629694" xlink:href="#C0_0_54a571e3b9" y="108.378704"/>
    </g>
    <g clip-path="url(#pdedff76fed)">
     <use style="fill:#440154;stroke:#000000;" x="160.281769" xlink:href="#C0_0_54a571e3b9" y="178.293997"/>
    </g>
    <g clip-path="url(#pdedff76fed)">
     <use style="fill:#fde725;stroke:#000000;" x="272.641832" xlink:href="#C0_0_54a571e3b9" y="110.969273"/>
    </g>
    <g clip-path="url(#pdedff76fed)">
     <use style="fill:#440154;stroke:#000000;" x="126.829572" xlink:href="#C0_0_54a571e3b9" y="198.481368"/>
    </g>
    <g clip-path="url(#pdedff76fed)">
     <use style="fill:#440154;stroke:#000000;" x="154.668008" xlink:href="#C0_0_54a571e3b9" y="184.584102"/>
    </g>
    <g clip-path="url(#pdedff76fed)">
     <use style="fill:#440154;stroke:#000000;" x="167.59034" xlink:href="#C0_0_54a571e3b9" y="184.901402"/>
    </g>
    <g clip-path="url(#pdedff76fed)">
     <use style="fill:#fde725;stroke:#000000;" x="202.189733" xlink:href="#C0_0_54a571e3b9" y="118.16704"/>
    </g>
    <g clip-path="url(#pdedff76fed)">
     <use style="fill:#440154;stroke:#000000;" x="212.483102" xlink:href="#C0_0_54a571e3b9" y="220.937143"/>
    </g>
    <g clip-path="url(#pdedff76fed)">
     <use style="fill:#440154;stroke:#000000;" x="177.462004" xlink:href="#C0_0_54a571e3b9" y="181.021137"/>
    </g>
    <g clip-path="url(#pdedff76fed)">
     <use style="fill:#fde725;stroke:#000000;" x="295.9861" xlink:href="#C0_0_54a571e3b9" y="126.305144"/>
    </g>
    <g clip-path="url(#pdedff76fed)">
     <use style="fill:#fde725;stroke:#000000;" x="317.040507" xlink:href="#C0_0_54a571e3b9" y="89.761896"/>
    </g>
    <g clip-path="url(#pdedff76fed)">
     <use style="fill:#440154;stroke:#000000;" x="198.671804" xlink:href="#C0_0_54a571e3b9" y="216.299974"/>
    </g>
    <g clip-path="url(#pdedff76fed)">
     <use style="fill:#fde725;stroke:#000000;" x="189.128998" xlink:href="#C0_0_54a571e3b9" y="110.655603"/>
    </g>
    <g clip-path="url(#pdedff76fed)">
     <use style="fill:#fde725;stroke:#000000;" x="225.960903" xlink:href="#C0_0_54a571e3b9" y="92.966998"/>
    </g>
    <g clip-path="url(#pdedff76fed)">
     <use style="fill:#440154;stroke:#000000;" x="196.253189" xlink:href="#C0_0_54a571e3b9" y="185.178289"/>
    </g>
    <g clip-path="url(#pdedff76fed)">
     <use style="fill:#fde725;stroke:#000000;" x="205.216201" xlink:href="#C0_0_54a571e3b9" y="87.090879"/>
    </g>
    <g clip-path="url(#pdedff76fed)">
     <use style="fill:#440154;stroke:#000000;" x="178.05208" xlink:href="#C0_0_54a571e3b9" y="168.326908"/>
    </g>
    <g clip-path="url(#pdedff76fed)">
     <use style="fill:#fde725;stroke:#000000;" x="340.971429" xlink:href="#C0_0_54a571e3b9" y="92.000818"/>
    </g>
    <g clip-path="url(#pdedff76fed)">
     <use style="fill:#440154;stroke:#000000;" x="119.702165" xlink:href="#C0_0_54a571e3b9" y="185.203933"/>
    </g>
    <g clip-path="url(#pdedff76fed)">
     <use style="fill:#440154;stroke:#000000;" x="170.836939" xlink:href="#C0_0_54a571e3b9" y="152.532111"/>
    </g>
    <g clip-path="url(#pdedff76fed)">
     <use style="fill:#fde725;stroke:#000000;" x="181.397646" xlink:href="#C0_0_54a571e3b9" y="108.042763"/>
    </g>
    <g clip-path="url(#pdedff76fed)">
     <use style="fill:#440154;stroke:#000000;" x="145.891874" xlink:href="#C0_0_54a571e3b9" y="179.419939"/>
    </g>
    <g clip-path="url(#pdedff76fed)">
     <use style="fill:#440154;stroke:#000000;" x="168.82289" xlink:href="#C0_0_54a571e3b9" y="189.426974"/>
    </g>
    <g clip-path="url(#pdedff76fed)">
     <use style="fill:#fde725;stroke:#000000;" x="208.83665" xlink:href="#C0_0_54a571e3b9" y="123.038832"/>
    </g>
    <g clip-path="url(#pdedff76fed)">
     <use style="fill:#440154;stroke:#000000;" x="166.944372" xlink:href="#C0_0_54a571e3b9" y="206.596894"/>
    </g>
    <g clip-path="url(#pdedff76fed)">
     <use style="fill:#440154;stroke:#000000;" x="178.604641" xlink:href="#C0_0_54a571e3b9" y="177.786281"/>
    </g>
    <g clip-path="url(#pdedff76fed)">
     <use style="fill:#fde725;stroke:#000000;" x="239.722555" xlink:href="#C0_0_54a571e3b9" y="104.223515"/>
    </g>
   </g>
   <g id="matplotlib.axis_1">
    <g id="xtick_1">
     <g id="line2d_1">
      <path clip-path="url(#pdedff76fed)" d="M 54 252 
L 54 34.56 
" style="fill:none;stroke:#b0b0b0;stroke-linecap:square;stroke-width:0.8;"/>
     </g>
     <g id="line2d_2">
      <defs>
       <path d="M 0 0 
L 0 3.5 
" id="mfa482c7d7b" style="stroke:#000000;stroke-width:0.8;"/>
      </defs>
      <g>
       <use style="stroke:#000000;stroke-width:0.8;" x="54" xlink:href="#mfa482c7d7b" y="252"/>
      </g>
     </g>
     <g id="text_1">
      <!-- −0.2 -->
      <defs>
       <path d="M 10.59375 35.5 
L 73.1875 35.5 
L 73.1875 27.203125 
L 10.59375 27.203125 
z
" id="DejaVuSans-8722"/>
       <path d="M 31.78125 66.40625 
Q 24.171875 66.40625 20.328125 58.90625 
Q 16.5 51.421875 16.5 36.375 
Q 16.5 21.390625 20.328125 13.890625 
Q 24.171875 6.390625 31.78125 6.390625 
Q 39.453125 6.390625 43.28125 13.890625 
Q 47.125 21.390625 47.125 36.375 
Q 47.125 51.421875 43.28125 58.90625 
Q 39.453125 66.40625 31.78125 66.40625 
z
M 31.78125 74.21875 
Q 44.046875 74.21875 50.515625 64.515625 
Q 56.984375 54.828125 56.984375 36.375 
Q 56.984375 17.96875 50.515625 8.265625 
Q 44.046875 -1.421875 31.78125 -1.421875 
Q 19.53125 -1.421875 13.0625 8.265625 
Q 6.59375 17.96875 6.59375 36.375 
Q 6.59375 54.828125 13.0625 64.515625 
Q 19.53125 74.21875 31.78125 74.21875 
z
" id="DejaVuSans-48"/>
       <path d="M 10.6875 12.40625 
L 21 12.40625 
L 21 0 
L 10.6875 0 
z
" id="DejaVuSans-46"/>
       <path d="M 19.1875 8.296875 
L 53.609375 8.296875 
L 53.609375 0 
L 7.328125 0 
L 7.328125 8.296875 
Q 12.9375 14.109375 22.625 23.890625 
Q 32.328125 33.6875 34.8125 36.53125 
Q 39.546875 41.84375 41.421875 45.53125 
Q 43.3125 49.21875 43.3125 52.78125 
Q 43.3125 58.59375 39.234375 62.25 
Q 35.15625 65.921875 28.609375 65.921875 
Q 23.96875 65.921875 18.8125 64.3125 
Q 13.671875 62.703125 7.8125 59.421875 
L 7.8125 69.390625 
Q 13.765625 71.78125 18.9375 73 
Q 24.125 74.21875 28.421875 74.21875 
Q 39.75 74.21875 46.484375 68.546875 
Q 53.21875 62.890625 53.21875 53.421875 
Q 53.21875 48.921875 51.53125 44.890625 
Q 49.859375 40.875 45.40625 35.40625 
Q 44.1875 33.984375 37.640625 27.21875 
Q 31.109375 20.453125 19.1875 8.296875 
z
" id="DejaVuSans-50"/>
      </defs>
      <g transform="translate(41.858594 266.598437)scale(0.1 -0.1)">
       <use xlink:href="#DejaVuSans-8722"/>
       <use x="83.789062" xlink:href="#DejaVuSans-48"/>
       <use x="147.412109" xlink:href="#DejaVuSans-46"/>
       <use x="179.199219" xlink:href="#DejaVuSans-50"/>
      </g>
     </g>
    </g>
    <g id="xtick_2">
     <g id="line2d_3">
      <path clip-path="url(#pdedff76fed)" d="M 101.828571 252 
L 101.828571 34.56 
" style="fill:none;stroke:#b0b0b0;stroke-linecap:square;stroke-width:0.8;"/>
     </g>
     <g id="line2d_4">
      <g>
       <use style="stroke:#000000;stroke-width:0.8;" x="101.828571" xlink:href="#mfa482c7d7b" y="252"/>
      </g>
     </g>
     <g id="text_2">
      <!-- 0.0 -->
      <g transform="translate(93.877009 266.598437)scale(0.1 -0.1)">
       <use xlink:href="#DejaVuSans-48"/>
       <use x="63.623047" xlink:href="#DejaVuSans-46"/>
       <use x="95.410156" xlink:href="#DejaVuSans-48"/>
      </g>
     </g>
    </g>
    <g id="xtick_3">
     <g id="line2d_5">
      <path clip-path="url(#pdedff76fed)" d="M 149.657143 252 
L 149.657143 34.56 
" style="fill:none;stroke:#b0b0b0;stroke-linecap:square;stroke-width:0.8;"/>
     </g>
     <g id="line2d_6">
      <g>
       <use style="stroke:#000000;stroke-width:0.8;" x="149.657143" xlink:href="#mfa482c7d7b" y="252"/>
      </g>
     </g>
     <g id="text_3">
      <!-- 0.2 -->
      <g transform="translate(141.70558 266.598437)scale(0.1 -0.1)">
       <use xlink:href="#DejaVuSans-48"/>
       <use x="63.623047" xlink:href="#DejaVuSans-46"/>
       <use x="95.410156" xlink:href="#DejaVuSans-50"/>
      </g>
     </g>
    </g>
    <g id="xtick_4">
     <g id="line2d_7">
      <path clip-path="url(#pdedff76fed)" d="M 197.485714 252 
L 197.485714 34.56 
" style="fill:none;stroke:#b0b0b0;stroke-linecap:square;stroke-width:0.8;"/>
     </g>
     <g id="line2d_8">
      <g>
       <use style="stroke:#000000;stroke-width:0.8;" x="197.485714" xlink:href="#mfa482c7d7b" y="252"/>
      </g>
     </g>
     <g id="text_4">
      <!-- 0.4 -->
      <defs>
       <path d="M 37.796875 64.3125 
L 12.890625 25.390625 
L 37.796875 25.390625 
z
M 35.203125 72.90625 
L 47.609375 72.90625 
L 47.609375 25.390625 
L 58.015625 25.390625 
L 58.015625 17.1875 
L 47.609375 17.1875 
L 47.609375 0 
L 37.796875 0 
L 37.796875 17.1875 
L 4.890625 17.1875 
L 4.890625 26.703125 
z
" id="DejaVuSans-52"/>
      </defs>
      <g transform="translate(189.534152 266.598437)scale(0.1 -0.1)">
       <use xlink:href="#DejaVuSans-48"/>
       <use x="63.623047" xlink:href="#DejaVuSans-46"/>
       <use x="95.410156" xlink:href="#DejaVuSans-52"/>
      </g>
     </g>
    </g>
    <g id="xtick_5">
     <g id="line2d_9">
      <path clip-path="url(#pdedff76fed)" d="M 245.314286 252 
L 245.314286 34.56 
" style="fill:none;stroke:#b0b0b0;stroke-linecap:square;stroke-width:0.8;"/>
     </g>
     <g id="line2d_10">
      <g>
       <use style="stroke:#000000;stroke-width:0.8;" x="245.314286" xlink:href="#mfa482c7d7b" y="252"/>
      </g>
     </g>
     <g id="text_5">
      <!-- 0.6 -->
      <defs>
       <path d="M 33.015625 40.375 
Q 26.375 40.375 22.484375 35.828125 
Q 18.609375 31.296875 18.609375 23.390625 
Q 18.609375 15.53125 22.484375 10.953125 
Q 26.375 6.390625 33.015625 6.390625 
Q 39.65625 6.390625 43.53125 10.953125 
Q 47.40625 15.53125 47.40625 23.390625 
Q 47.40625 31.296875 43.53125 35.828125 
Q 39.65625 40.375 33.015625 40.375 
z
M 52.59375 71.296875 
L 52.59375 62.3125 
Q 48.875 64.0625 45.09375 64.984375 
Q 41.3125 65.921875 37.59375 65.921875 
Q 27.828125 65.921875 22.671875 59.328125 
Q 17.53125 52.734375 16.796875 39.40625 
Q 19.671875 43.65625 24.015625 45.921875 
Q 28.375 48.1875 33.59375 48.1875 
Q 44.578125 48.1875 50.953125 41.515625 
Q 57.328125 34.859375 57.328125 23.390625 
Q 57.328125 12.15625 50.6875 5.359375 
Q 44.046875 -1.421875 33.015625 -1.421875 
Q 20.359375 -1.421875 13.671875 8.265625 
Q 6.984375 17.96875 6.984375 36.375 
Q 6.984375 53.65625 15.1875 63.9375 
Q 23.390625 74.21875 37.203125 74.21875 
Q 40.921875 74.21875 44.703125 73.484375 
Q 48.484375 72.75 52.59375 71.296875 
z
" id="DejaVuSans-54"/>
      </defs>
      <g transform="translate(237.362723 266.598437)scale(0.1 -0.1)">
       <use xlink:href="#DejaVuSans-48"/>
       <use x="63.623047" xlink:href="#DejaVuSans-46"/>
       <use x="95.410156" xlink:href="#DejaVuSans-54"/>
      </g>
     </g>
    </g>
    <g id="xtick_6">
     <g id="line2d_11">
      <path clip-path="url(#pdedff76fed)" d="M 293.142857 252 
L 293.142857 34.56 
" style="fill:none;stroke:#b0b0b0;stroke-linecap:square;stroke-width:0.8;"/>
     </g>
     <g id="line2d_12">
      <g>
       <use style="stroke:#000000;stroke-width:0.8;" x="293.142857" xlink:href="#mfa482c7d7b" y="252"/>
      </g>
     </g>
     <g id="text_6">
      <!-- 0.8 -->
      <defs>
       <path d="M 31.78125 34.625 
Q 24.75 34.625 20.71875 30.859375 
Q 16.703125 27.09375 16.703125 20.515625 
Q 16.703125 13.921875 20.71875 10.15625 
Q 24.75 6.390625 31.78125 6.390625 
Q 38.8125 6.390625 42.859375 10.171875 
Q 46.921875 13.96875 46.921875 20.515625 
Q 46.921875 27.09375 42.890625 30.859375 
Q 38.875 34.625 31.78125 34.625 
z
M 21.921875 38.8125 
Q 15.578125 40.375 12.03125 44.71875 
Q 8.5 49.078125 8.5 55.328125 
Q 8.5 64.0625 14.71875 69.140625 
Q 20.953125 74.21875 31.78125 74.21875 
Q 42.671875 74.21875 48.875 69.140625 
Q 55.078125 64.0625 55.078125 55.328125 
Q 55.078125 49.078125 51.53125 44.71875 
Q 48 40.375 41.703125 38.8125 
Q 48.828125 37.15625 52.796875 32.3125 
Q 56.78125 27.484375 56.78125 20.515625 
Q 56.78125 9.90625 50.3125 4.234375 
Q 43.84375 -1.421875 31.78125 -1.421875 
Q 19.734375 -1.421875 13.25 4.234375 
Q 6.78125 9.90625 6.78125 20.515625 
Q 6.78125 27.484375 10.78125 32.3125 
Q 14.796875 37.15625 21.921875 38.8125 
z
M 18.3125 54.390625 
Q 18.3125 48.734375 21.84375 45.5625 
Q 25.390625 42.390625 31.78125 42.390625 
Q 38.140625 42.390625 41.71875 45.5625 
Q 45.3125 48.734375 45.3125 54.390625 
Q 45.3125 60.0625 41.71875 63.234375 
Q 38.140625 66.40625 31.78125 66.40625 
Q 25.390625 66.40625 21.84375 63.234375 
Q 18.3125 60.0625 18.3125 54.390625 
z
" id="DejaVuSans-56"/>
      </defs>
      <g transform="translate(285.191295 266.598437)scale(0.1 -0.1)">
       <use xlink:href="#DejaVuSans-48"/>
       <use x="63.623047" xlink:href="#DejaVuSans-46"/>
       <use x="95.410156" xlink:href="#DejaVuSans-56"/>
      </g>
     </g>
    </g>
    <g id="xtick_7">
     <g id="line2d_13">
      <path clip-path="url(#pdedff76fed)" d="M 340.971429 252 
L 340.971429 34.56 
" style="fill:none;stroke:#b0b0b0;stroke-linecap:square;stroke-width:0.8;"/>
     </g>
     <g id="line2d_14">
      <g>
       <use style="stroke:#000000;stroke-width:0.8;" x="340.971429" xlink:href="#mfa482c7d7b" y="252"/>
      </g>
     </g>
     <g id="text_7">
      <!-- 1.0 -->
      <defs>
       <path d="M 12.40625 8.296875 
L 28.515625 8.296875 
L 28.515625 63.921875 
L 10.984375 60.40625 
L 10.984375 69.390625 
L 28.421875 72.90625 
L 38.28125 72.90625 
L 38.28125 8.296875 
L 54.390625 8.296875 
L 54.390625 0 
L 12.40625 0 
z
" id="DejaVuSans-49"/>
      </defs>
      <g transform="translate(333.019866 266.598437)scale(0.1 -0.1)">
       <use xlink:href="#DejaVuSans-49"/>
       <use x="63.623047" xlink:href="#DejaVuSans-46"/>
       <use x="95.410156" xlink:href="#DejaVuSans-48"/>
      </g>
     </g>
    </g>
    <g id="xtick_8">
     <g id="line2d_15">
      <path clip-path="url(#pdedff76fed)" d="M 388.8 252 
L 388.8 34.56 
" style="fill:none;stroke:#b0b0b0;stroke-linecap:square;stroke-width:0.8;"/>
     </g>
     <g id="line2d_16">
      <g>
       <use style="stroke:#000000;stroke-width:0.8;" x="388.8" xlink:href="#mfa482c7d7b" y="252"/>
      </g>
     </g>
     <g id="text_8">
      <!-- 1.2 -->
      <g transform="translate(380.848438 266.598437)scale(0.1 -0.1)">
       <use xlink:href="#DejaVuSans-49"/>
       <use x="63.623047" xlink:href="#DejaVuSans-46"/>
       <use x="95.410156" xlink:href="#DejaVuSans-50"/>
      </g>
     </g>
    </g>
    <g id="text_9">
     <!-- X1 -->
     <defs>
      <path d="M 6.296875 72.90625 
L 16.890625 72.90625 
L 35.015625 45.796875 
L 53.21875 72.90625 
L 63.8125 72.90625 
L 40.375 37.890625 
L 65.375 0 
L 54.78125 0 
L 34.28125 31 
L 13.625 0 
L 2.984375 0 
L 29 38.921875 
z
" id="DejaVuSans-88"/>
     </defs>
     <g transform="translate(214.79375 280.276563)scale(0.1 -0.1)">
      <use xlink:href="#DejaVuSans-88"/>
      <use x="68.505859" xlink:href="#DejaVuSans-49"/>
     </g>
    </g>
   </g>
   <g id="matplotlib.axis_2">
    <g id="ytick_1">
     <g id="line2d_17">
      <path clip-path="url(#pdedff76fed)" d="M 54 252 
L 388.8 252 
" style="fill:none;stroke:#b0b0b0;stroke-linecap:square;stroke-width:0.8;"/>
     </g>
     <g id="line2d_18">
      <defs>
       <path d="M 0 0 
L -3.5 0 
" id="m6c988e86b8" style="stroke:#000000;stroke-width:0.8;"/>
      </defs>
      <g>
       <use style="stroke:#000000;stroke-width:0.8;" x="54" xlink:href="#m6c988e86b8" y="252"/>
      </g>
     </g>
     <g id="text_10">
      <!-- −0.2 -->
      <g transform="translate(22.717187 255.799219)scale(0.1 -0.1)">
       <use xlink:href="#DejaVuSans-8722"/>
       <use x="83.789062" xlink:href="#DejaVuSans-48"/>
       <use x="147.412109" xlink:href="#DejaVuSans-46"/>
       <use x="179.199219" xlink:href="#DejaVuSans-50"/>
      </g>
     </g>
    </g>
    <g id="ytick_2">
     <g id="line2d_19">
      <path clip-path="url(#pdedff76fed)" d="M 54 220.937143 
L 388.8 220.937143 
" style="fill:none;stroke:#b0b0b0;stroke-linecap:square;stroke-width:0.8;"/>
     </g>
     <g id="line2d_20">
      <g>
       <use style="stroke:#000000;stroke-width:0.8;" x="54" xlink:href="#m6c988e86b8" y="220.937143"/>
      </g>
     </g>
     <g id="text_11">
      <!-- 0.0 -->
      <g transform="translate(31.096875 224.736362)scale(0.1 -0.1)">
       <use xlink:href="#DejaVuSans-48"/>
       <use x="63.623047" xlink:href="#DejaVuSans-46"/>
       <use x="95.410156" xlink:href="#DejaVuSans-48"/>
      </g>
     </g>
    </g>
    <g id="ytick_3">
     <g id="line2d_21">
      <path clip-path="url(#pdedff76fed)" d="M 54 189.874286 
L 388.8 189.874286 
" style="fill:none;stroke:#b0b0b0;stroke-linecap:square;stroke-width:0.8;"/>
     </g>
     <g id="line2d_22">
      <g>
       <use style="stroke:#000000;stroke-width:0.8;" x="54" xlink:href="#m6c988e86b8" y="189.874286"/>
      </g>
     </g>
     <g id="text_12">
      <!-- 0.2 -->
      <g transform="translate(31.096875 193.673504)scale(0.1 -0.1)">
       <use xlink:href="#DejaVuSans-48"/>
       <use x="63.623047" xlink:href="#DejaVuSans-46"/>
       <use x="95.410156" xlink:href="#DejaVuSans-50"/>
      </g>
     </g>
    </g>
    <g id="ytick_4">
     <g id="line2d_23">
      <path clip-path="url(#pdedff76fed)" d="M 54 158.811429 
L 388.8 158.811429 
" style="fill:none;stroke:#b0b0b0;stroke-linecap:square;stroke-width:0.8;"/>
     </g>
     <g id="line2d_24">
      <g>
       <use style="stroke:#000000;stroke-width:0.8;" x="54" xlink:href="#m6c988e86b8" y="158.811429"/>
      </g>
     </g>
     <g id="text_13">
      <!-- 0.4 -->
      <g transform="translate(31.096875 162.610647)scale(0.1 -0.1)">
       <use xlink:href="#DejaVuSans-48"/>
       <use x="63.623047" xlink:href="#DejaVuSans-46"/>
       <use x="95.410156" xlink:href="#DejaVuSans-52"/>
      </g>
     </g>
    </g>
    <g id="ytick_5">
     <g id="line2d_25">
      <path clip-path="url(#pdedff76fed)" d="M 54 127.748571 
L 388.8 127.748571 
" style="fill:none;stroke:#b0b0b0;stroke-linecap:square;stroke-width:0.8;"/>
     </g>
     <g id="line2d_26">
      <g>
       <use style="stroke:#000000;stroke-width:0.8;" x="54" xlink:href="#m6c988e86b8" y="127.748571"/>
      </g>
     </g>
     <g id="text_14">
      <!-- 0.6 -->
      <g transform="translate(31.096875 131.54779)scale(0.1 -0.1)">
       <use xlink:href="#DejaVuSans-48"/>
       <use x="63.623047" xlink:href="#DejaVuSans-46"/>
       <use x="95.410156" xlink:href="#DejaVuSans-54"/>
      </g>
     </g>
    </g>
    <g id="ytick_6">
     <g id="line2d_27">
      <path clip-path="url(#pdedff76fed)" d="M 54 96.685714 
L 388.8 96.685714 
" style="fill:none;stroke:#b0b0b0;stroke-linecap:square;stroke-width:0.8;"/>
     </g>
     <g id="line2d_28">
      <g>
       <use style="stroke:#000000;stroke-width:0.8;" x="54" xlink:href="#m6c988e86b8" y="96.685714"/>
      </g>
     </g>
     <g id="text_15">
      <!-- 0.8 -->
      <g transform="translate(31.096875 100.484933)scale(0.1 -0.1)">
       <use xlink:href="#DejaVuSans-48"/>
       <use x="63.623047" xlink:href="#DejaVuSans-46"/>
       <use x="95.410156" xlink:href="#DejaVuSans-56"/>
      </g>
     </g>
    </g>
    <g id="ytick_7">
     <g id="line2d_29">
      <path clip-path="url(#pdedff76fed)" d="M 54 65.622857 
L 388.8 65.622857 
" style="fill:none;stroke:#b0b0b0;stroke-linecap:square;stroke-width:0.8;"/>
     </g>
     <g id="line2d_30">
      <g>
       <use style="stroke:#000000;stroke-width:0.8;" x="54" xlink:href="#m6c988e86b8" y="65.622857"/>
      </g>
     </g>
     <g id="text_16">
      <!-- 1.0 -->
      <g transform="translate(31.096875 69.422076)scale(0.1 -0.1)">
       <use xlink:href="#DejaVuSans-49"/>
       <use x="63.623047" xlink:href="#DejaVuSans-46"/>
       <use x="95.410156" xlink:href="#DejaVuSans-48"/>
      </g>
     </g>
    </g>
    <g id="ytick_8">
     <g id="line2d_31">
      <path clip-path="url(#pdedff76fed)" d="M 54 34.56 
L 388.8 34.56 
" style="fill:none;stroke:#b0b0b0;stroke-linecap:square;stroke-width:0.8;"/>
     </g>
     <g id="line2d_32">
      <g>
       <use style="stroke:#000000;stroke-width:0.8;" x="54" xlink:href="#m6c988e86b8" y="34.56"/>
      </g>
     </g>
     <g id="text_17">
      <!-- 1.2 -->
      <g transform="translate(31.096875 38.359219)scale(0.1 -0.1)">
       <use xlink:href="#DejaVuSans-49"/>
       <use x="63.623047" xlink:href="#DejaVuSans-46"/>
       <use x="95.410156" xlink:href="#DejaVuSans-50"/>
      </g>
     </g>
    </g>
    <g id="text_18">
     <!-- X2 -->
     <g transform="translate(16.6375 149.88625)rotate(-90)scale(0.1 -0.1)">
      <use xlink:href="#DejaVuSans-88"/>
      <use x="68.505859" xlink:href="#DejaVuSans-50"/>
     </g>
    </g>
   </g>
   <g id="patch_3">
    <path d="M 54 252 
L 54 34.56 
" style="fill:none;stroke:#000000;stroke-linecap:square;stroke-linejoin:miter;stroke-width:0.8;"/>
   </g>
   <g id="patch_4">
    <path d="M 388.8 252 
L 388.8 34.56 
" style="fill:none;stroke:#000000;stroke-linecap:square;stroke-linejoin:miter;stroke-width:0.8;"/>
   </g>
   <g id="patch_5">
    <path d="M 54 252 
L 388.8 252 
" style="fill:none;stroke:#000000;stroke-linecap:square;stroke-linejoin:miter;stroke-width:0.8;"/>
   </g>
   <g id="patch_6">
    <path d="M 54 34.56 
L 388.8 34.56 
" style="fill:none;stroke:#000000;stroke-linecap:square;stroke-linejoin:miter;stroke-width:0.8;"/>
   </g>
  </g>
 </g>
 <defs>
  <clipPath id="pdedff76fed">
   <rect height="217.44" width="334.8" x="54" y="34.56"/>
  </clipPath>
 </defs>
</svg>
