<svg version="1.1" viewBox="0.0 0.0 655.3123359580053 476.7191601049869" fill="none" stroke="none" stroke-linecap="square" stroke-miterlimit="10" xmlns:xlink="http://www.w3.org/1999/xlink" xmlns="http://www.w3.org/2000/svg"><clipPath id="p.0"><path d="m0 0l655.3123 0l0 476.71915l-655.3123 0l0 -476.71915z" clip-rule="nonzero"/></clipPath><g clip-path="url(#p.0)"><path fill="#000000" fill-opacity="0.0" d="m0 0l655.3123 0l0 476.71915l-655.3123 0z" fill-rule="evenodd"/><path fill="#1155cc" d="m78.750656 81.47507l0 0c0 -9.323608 7.558281 -16.88189 16.88189 -16.88189l0 0c4.477356 0 8.771332 1.7786179 11.937302 4.9445877c3.1659622 3.1659698 4.9445877 7.4599457 4.9445877 11.937302l0 0c0 9.323608 -7.558281 16.88189 -16.88189 16.88189l0 0c-9.323608 0 -16.88189 -7.558281 -16.88189 -16.88189z" fill-rule="evenodd"/><path stroke="#000000" stroke-width="1.0" stroke-linejoin="round" stroke-linecap="butt" d="m78.750656 81.47507l0 0c0 -9.323608 7.558281 -16.88189 16.88189 -16.88189l0 0c4.477356 0 8.771332 1.7786179 11.937302 4.9445877c3.1659622 3.1659698 4.9445877 7.4599457 4.9445877 11.937302l0 0c0 9.323608 -7.558281 16.88189 -16.88189 16.88189l0 0c-9.323608 0 -16.88189 -7.558281 -16.88189 -16.88189z" fill-rule="evenodd"/><path fill="#38761d" d="m78.750656 193.47507l0 0c0 -9.323608 7.558281 -16.881897 16.88189 -16.881897l0 0c4.477356 0 8.771332 1.7786255 11.937302 4.9445953c3.1659622 3.1659698 4.9445877 7.4599457 4.9445877 11.937302l0 0c0 9.323608 -7.558281 16.881882 -16.88189 16.881882l0 0c-9.323608 0 -16.88189 -7.5582733 -16.88189 -16.881882z" fill-rule="evenodd"/><path stroke="#000000" stroke-width="1.0" stroke-linejoin="round" stroke-linecap="butt" d="m78.750656 193.47507l0 0c0 -9.323608 7.558281 -16.881897 16.88189 -16.881897l0 0c4.477356 0 8.771332 1.7786255 11.937302 4.9445953c3.1659622 3.1659698 4.9445877 7.4599457 4.9445877 11.937302l0 0c0 9.323608 -7.558281 16.881882 -16.88189 16.881882l0 0c-9.323608 0 -16.88189 -7.5582733 -16.88189 -16.881882z" fill-rule="evenodd"/><path fill="#38761d" d="m78.750656 353.47507l0 0c0 -9.323608 7.558281 -16.881897 16.88189 -16.881897l0 0c4.477356 0 8.771332 1.7786255 11.937302 4.9446106c3.1659622 3.1659546 4.9445877 7.4599304 4.9445877 11.937286l0 0c0 9.323608 -7.558281 16.881897 -16.88189 16.881897l0 0c-9.323608 0 -16.88189 -7.5582886 -16.88189 -16.881897z" fill-rule="evenodd"/><path stroke="#000000" stroke-width="1.0" stroke-linejoin="round" stroke-linecap="butt" d="m78.750656 353.47507l0 0c0 -9.323608 7.558281 -16.881897 16.88189 -16.881897l0 0c4.477356 0 8.771332 1.7786255 11.937302 4.9446106c3.1659622 3.1659546 4.9445877 7.4599304 4.9445877 11.937286l0 0c0 9.323608 -7.558281 16.881897 -16.88189 16.881897l0 0c-9.323608 0 -16.88189 -7.5582886 -16.88189 -16.881897z" fill-rule="evenodd"/><path fill="#000000" fill-opacity="0.0" d="m107.56985 93.41236l227.18109 100.062996" fill-rule="evenodd"/><path stroke="#000000" stroke-width="2.0" stroke-linejoin="round" stroke-linecap="butt" d="m107.56985 93.41236l227.18109 100.062996" fill-rule="evenodd"/><path fill="#000000" fill-opacity="0.0" d="m112.514435 193.47507l222.23624 0" fill-rule="evenodd"/><path stroke="#000000" stroke-width="2.0" stroke-linejoin="round" stroke-linecap="butt" d="m112.514435 193.47507l222.23624 0" fill-rule="evenodd"/><path fill="#000000" fill-opacity="0.0" d="m112.514435 353.47507l222.23624 -160.0" fill-rule="evenodd"/><path stroke="#000000" stroke-width="2.0" stroke-linejoin="round" stroke-linecap="butt" d="m112.514435 353.47507l222.23624 -160.0" fill-rule="evenodd"/><path fill="#000000" fill-opacity="0.0" d="m46.500984 55.187256l46.04724 0l0 52.188972l-46.04724 0z" fill-rule="evenodd"/><path fill="#000000" d="m64.438484 87.22726l-2.109375 0l0 -13.4375q-0.75 0.71875 -2.0 1.453125q-1.234375 0.71875 -2.21875 1.078125l0 -2.03125q1.78125 -0.828125 3.09375 -2.015625q1.328125 -1.1875 1.875 -2.296875l1.359375 0l0 17.25z" fill-rule="nonzero"/><path fill="#000000" fill-opacity="0.0" d="m31.907234 169.56226l46.04724 0l0 52.18898l-46.04724 0z" fill-rule="evenodd"/><path fill="#000000" d="m41.01661 201.60225l6.640625 -8.953125l-5.859375 -8.234375l2.703125 0l3.125 4.40625q0.96875 1.375 1.375 2.109375q0.578125 -0.9375 1.359375 -1.953125l3.46875 -4.5625l2.46875 0l-6.03125 8.109375l6.5 9.078125l-2.8125 0l-4.328125 -6.125q-0.359375 -0.53125 -0.75 -1.15625q-0.578125 0.9375 -0.8125 1.296875l-4.3125 5.984375l-2.734375 0z" fill-rule="nonzero"/><path fill="#000000" d="m62.883797 210.60225l-1.40625 0l0 -8.96875q-0.515625 0.484375 -1.34375 0.96875q-0.8125 0.484375 -1.46875 0.734375l0 -1.359375q1.171875 -0.5625 2.046875 -1.34375q0.890625 -0.796875 1.265625 -1.53125l0.90625 0l0 11.5z" fill-rule="nonzero"/><path fill="#000000" fill-opacity="0.0" d="m31.907234 327.18726l46.04724 0l0 52.188965l-46.04724 0z" fill-rule="evenodd"/><path fill="#000000" d="m41.01661 359.22726l6.640625 -8.953125l-5.859375 -8.234375l2.703125 0l3.125 4.40625q0.96875 1.375 1.375 2.109375q0.578125 -0.9375 1.359375 -1.953125l3.46875 -4.5625l2.46875 0l-6.03125 8.109375l6.5 9.078125l-2.8125 0l-4.328125 -6.125q-0.359375 -0.53125 -0.75 -1.15625q-0.578125 0.9375 -0.8125 1.296875l-4.3125 5.984375l-2.734375 0z" fill-rule="nonzero"/><path fill="#000000" d="m64.97755 366.8679l0 1.359375l-7.578125 0q-0.015625 -0.515625 0.171875 -0.984375q0.28125 -0.765625 0.921875 -1.515625q0.640625 -0.75 1.84375 -1.734375q1.859375 -1.53125 2.515625 -2.421875q0.65625 -0.90625 0.65625 -1.703125q0 -0.828125 -0.59375 -1.40625q-0.59375 -0.578125 -1.5625 -0.578125q-1.015625 0 -1.625 0.609375q-0.609375 0.609375 -0.609375 1.6875l-1.453125 -0.140625q0.15625 -1.625 1.125 -2.46875q0.96875 -0.84375 2.59375 -0.84375q1.65625 0 2.609375 0.921875q0.96875 0.90625 0.96875 2.25q0 0.6875 -0.28125 1.359375q-0.28125 0.65625 -0.9375 1.390625q-0.65625 0.734375 -2.171875 2.015625q-1.265625 1.0625 -1.625 1.453125q-0.359375 0.375 -0.59375 0.75l5.625 0z" fill-rule="nonzero"/><path fill="#000000" fill-opacity="0.0" d="m127.90828 60.81135l54.4252 0l0 52.188976l-54.4252 0z" fill-rule="evenodd"/><path fill="#000000" d="m137.90828 84.3826q0 -3.046875 0.625 -4.90625q0.625 -1.859375 1.859375 -2.859375q1.234375 -1.015625 3.109375 -1.015625q1.390625 0 2.421875 0.5625q1.046875 0.546875 1.71875 1.59375q0.6875 1.046875 1.078125 2.5625q0.390625 1.5 0.390625 4.0625q0 3.015625 -0.625 4.875q-0.625 1.859375 -1.859375 2.875q-1.234375 1.015625 -3.125 1.015625q-2.484375 0 -3.890625 -1.78125q-1.703125 -2.15625 -1.703125 -6.984375zm2.171875 0q0 4.21875 0.984375 5.625q0.984375 1.40625 2.4375 1.40625q1.453125 0 2.4375 -1.40625q1.0 -1.40625 1.0 -5.625q0 -4.25 -1.0 -5.640625q-0.984375 -1.390625 -2.453125 -1.390625q-1.453125 0 -2.328125 1.21875q-1.078125 1.578125 -1.078125 5.8125zm12.363281 8.46875l0 -2.40625l2.390625 0l0 2.40625l-2.390625 0zm5.4804688 -4.5l2.21875 -0.1875q0.234375 1.609375 1.125 2.4375q0.90625 0.8125 2.171875 0.8125q1.53125 0 2.578125 -1.140625q1.0625 -1.15625 1.0625 -3.0625q0 -1.796875 -1.015625 -2.84375q-1.015625 -1.046875 -2.65625 -1.046875q-1.015625 0 -1.84375 0.46875q-0.8125 0.453125 -1.28125 1.203125l-1.984375 -0.265625l1.65625 -8.828125l8.546875 0l0 2.015625l-6.859375 0l-0.921875 4.625q1.546875 -1.078125 3.25 -1.078125q2.25 0 3.796875 1.5625q1.546875 1.546875 1.546875 4.0q0 2.328125 -1.359375 4.03125q-1.65625 2.09375 -4.515625 2.09375q-2.34375 0 -3.828125 -1.3125q-1.484375 -1.3125 -1.6875 -3.484375z" fill-rule="nonzero"/><path fill="#000000" fill-opacity="0.0" d="m107.56985 93.41236l227.18109 260.063" fill-rule="evenodd"/><path stroke="#000000" stroke-width="2.0" stroke-linejoin="round" stroke-linecap="butt" d="m107.56985 93.41236l227.18109 260.063" fill-rule="evenodd"/><path fill="#000000" fill-opacity="0.0" d="m112.514435 193.47507l222.23624 160.0" fill-rule="evenodd"/><path stroke="#000000" stroke-width="2.0" stroke-linejoin="round" stroke-linecap="butt" d="m112.514435 193.47507l222.23624 160.0" fill-rule="evenodd"/><path fill="#000000" fill-opacity="0.0" d="m112.514435 353.47507l222.23624 0" fill-rule="evenodd"/><path stroke="#000000" stroke-width="2.0" stroke-linejoin="round" stroke-linecap="butt" d="m112.514435 353.47507l222.23624 0" fill-rule="evenodd"/><path fill="#000000" fill-opacity="0.0" d="m135.90828 159.18636l54.4252 0l0 52.18898l-54.4252 0z" fill-rule="evenodd"/><path fill="#000000" d="m153.84578 191.22635l-2.109375 0l0 -13.4375q-0.75 0.71875 -2.0 1.453125q-1.234375 0.71875 -2.21875 1.078125l0 -2.03125q1.78125 -0.828125 3.09375 -2.015625q1.328125 -1.1875 1.875 -2.296875l1.359375 0l0 17.25z" fill-rule="nonzero"/><path fill="#000000" fill-opacity="0.0" d="m135.90828 215.18636l54.4252 0l0 52.18898l-54.4252 0z" fill-rule="evenodd"/><path fill="#000000" d="m153.84578 247.22635l-2.109375 0l0 -13.4375q-0.75 0.71875 -2.0 1.453125q-1.234375 0.71875 -2.21875 1.078125l0 -2.03125q1.78125 -0.828125 3.09375 -2.015625q1.328125 -1.1875 1.875 -2.296875l1.359375 0l0 17.25z" fill-rule="nonzero"/><path fill="#000000" fill-opacity="0.0" d="m127.90828 287.18634l54.4252 0l0 52.188995l-54.4252 0z" fill-rule="evenodd"/><path fill="#000000" d="m137.6739 314.0701l0 -2.125l6.484375 0l0 2.125l-6.484375 0zm16.164062 5.15625l-2.109375 0l0 -13.4375q-0.75 0.71875 -2.0 1.453125q-1.234375 0.71875 -2.21875 1.078125l0 -2.03125q1.78125 -0.828125 3.09375 -2.015625q1.328125 -1.1875 1.875 -2.296875l1.359375 0l0 17.25z" fill-rule="nonzero"/><path fill="#000000" fill-opacity="0.0" d="m127.90828 343.18634l54.4252 0l0 52.188995l-54.4252 0z" fill-rule="evenodd"/><path fill="#000000" d="m137.6739 370.0701l0 -2.125l6.484375 0l0 2.125l-6.484375 0zm16.164062 5.15625l-2.109375 0l0 -13.4375q-0.75 0.71875 -2.0 1.453125q-1.234375 0.71875 -2.21875 1.078125l0 -2.03125q1.78125 -0.828125 3.09375 -2.015625q1.328125 -1.1875 1.875 -2.296875l1.359375 0l0 17.25z" fill-rule="nonzero"/><path fill="#000000" fill-opacity="0.0" d="m113.63844 116.030106l73.322845 0l0 52.18898l-73.322845 0z" fill-rule="evenodd"/><path fill="#000000" d="m123.40407 142.91385l0 -2.125l6.484375 0l0 2.125l-6.484375 0zm16.164062 5.15625l-2.109375 0l0 -13.4375q-0.75 0.71875 -2.0 1.453125q-1.234375 0.71875 -2.21875 1.078125l0 -2.03125q1.78125 -0.828125 3.09375 -2.015625q1.328125 -1.1875 1.875 -2.296875l1.359375 0l0 17.25zm6.5976562 0l0 -2.40625l2.390625 0l0 2.40625l-2.390625 0zm5.4804688 -4.5l2.21875 -0.1875q0.234375 1.609375 1.125 2.4375q0.90625 0.8125 2.171875 0.8125q1.53125 0 2.578125 -1.140625q1.0625 -1.15625 1.0625 -3.0625q0 -1.796875 -1.015625 -2.84375q-1.015625 -1.046875 -2.65625 -1.046875q-1.015625 0 -1.84375 0.46875q-0.8125 0.453125 -1.28125 1.203125l-1.984375 -0.265625l1.65625 -8.828125l8.546875 0l0 2.015625l-6.859375 0l-0.921875 4.625q1.546875 -1.078125 3.25 -1.078125q2.25 0 3.796875 1.5625q1.546875 1.546875 1.546875 4.0q0 2.328125 -1.359375 4.03125q-1.65625 2.09375 -4.515625 2.09375q-2.34375 0 -3.828125 -1.3125q-1.484375 -1.3125 -1.6875 -3.484375z" fill-rule="nonzero"/><path fill="#1155cc" d="m334.75067 193.47507l0 0c0 -9.323608 7.558258 -16.881897 16.881866 -16.881897l0 0c4.477356 0 8.771332 1.7786255 11.937317 4.9445953c3.1659546 3.1659698 4.94458 7.4599457 4.94458 11.937302l0 0c0 9.323608 -7.5582886 16.881882 -16.881897 16.881882l0 0c-9.323608 0 -16.881866 -7.5582733 -16.881866 -16.881882z" fill-rule="evenodd"/><path stroke="#000000" stroke-width="1.0" stroke-linejoin="round" stroke-linecap="butt" d="m334.75067 193.47507l0 0c0 -9.323608 7.558258 -16.881897 16.881866 -16.881897l0 0c4.477356 0 8.771332 1.7786255 11.937317 4.9445953c3.1659546 3.1659698 4.94458 7.4599457 4.94458 11.937302l0 0c0 9.323608 -7.5582886 16.881882 -16.881897 16.881882l0 0c-9.323608 0 -16.881866 -7.5582733 -16.881866 -16.881882z" fill-rule="evenodd"/><path fill="#1155cc" d="m334.75067 353.47507l0 0c0 -9.323608 7.558258 -16.881897 16.881866 -16.881897l0 0c4.477356 0 8.771332 1.7786255 11.937317 4.9446106c3.1659546 3.1659546 4.94458 7.4599304 4.94458 11.937286l0 0c0 9.323608 -7.5582886 16.881897 -16.881897 16.881897l0 0c-9.323608 0 -16.881866 -7.5582886 -16.881866 -16.881897z" fill-rule="evenodd"/><path stroke="#000000" stroke-width="1.0" stroke-linejoin="round" stroke-linecap="butt" d="m334.75067 353.47507l0 0c0 -9.323608 7.558258 -16.881897 16.881866 -16.881897l0 0c4.477356 0 8.771332 1.7786255 11.937317 4.9446106c3.1659546 3.1659546 4.94458 7.4599304 4.94458 11.937286l0 0c0 9.323608 -7.5582886 16.881897 -16.881897 16.881897l0 0c-9.323608 0 -16.881866 -7.5582886 -16.881866 -16.881897z" fill-rule="evenodd"/><path fill="#990000" d="m551.17584 284.0656l0 0c0 -10.454254 8.277466 -18.929138 18.48816 -18.929138l0 0c4.9033813 0 9.605957 1.9943237 13.073181 5.54422c3.467163 3.5498962 5.415039 8.3645935 5.415039 13.384918l0 0c0 10.454285 -8.277466 18.929138 -18.48822 18.929138l0 0c-10.210693 0 -18.48816 -8.4748535 -18.48816 -18.929138z" fill-rule="evenodd"/><path stroke="#000000" stroke-width="1.0" stroke-linejoin="round" stroke-linecap="butt" d="m551.17584 284.0656l0 0c0 -10.454254 8.277466 -18.929138 18.48816 -18.929138l0 0c4.9033813 0 9.605957 1.9943237 13.073181 5.54422c3.467163 3.5498962 5.415039 8.3645935 5.415039 13.384918l0 0c0 10.454285 -8.277466 18.929138 -18.48822 18.929138l0 0c-10.210693 0 -18.48816 -8.4748535 -18.48816 -18.929138z" fill-rule="evenodd"/><path fill="#000000" fill-opacity="0.0" d="m363.56985 93.41236l187.59055 190.64569" fill-rule="evenodd"/><path stroke="#000000" stroke-width="2.0" stroke-linejoin="round" stroke-linecap="butt" d="m363.56985 93.41236l187.59055 190.64569" fill-rule="evenodd"/><path fill="#000000" fill-opacity="0.0" d="m368.51443 193.47507l182.64566 90.58267" fill-rule="evenodd"/><path stroke="#000000" stroke-width="2.0" stroke-linejoin="round" stroke-linecap="butt" d="m368.51443 193.47507l182.64566 90.58267" fill-rule="evenodd"/><path fill="#000000" fill-opacity="0.0" d="m368.51443 353.47507l182.64566 -69.41733" fill-rule="evenodd"/><path stroke="#000000" stroke-width="2.0" stroke-linejoin="round" stroke-linecap="butt" d="m368.51443 353.47507l182.64566 -69.41733" fill-rule="evenodd"/><path fill="#1155cc" d="m334.75067 81.47507l0 0c0 -9.323608 7.558258 -16.88189 16.881866 -16.88189l0 0c4.477356 0 8.771332 1.7786179 11.937317 4.9445877c3.1659546 3.1659698 4.94458 7.4599457 4.94458 11.937302l0 0c0 9.323608 -7.5582886 16.88189 -16.881897 16.88189l0 0c-9.323608 0 -16.881866 -7.558281 -16.881866 -16.88189z" fill-rule="evenodd"/><path stroke="#000000" stroke-width="1.0" stroke-linejoin="round" stroke-linecap="butt" d="m334.75067 81.47507l0 0c0 -9.323608 7.558258 -16.88189 16.881866 -16.88189l0 0c4.477356 0 8.771332 1.7786179 11.937317 4.9445877c3.1659546 3.1659698 4.94458 7.4599457 4.94458 11.937302l0 0c0 9.323608 -7.5582886 16.88189 -16.881897 16.88189l0 0c-9.323608 0 -16.881866 -7.558281 -16.881866 -16.88189z" fill-rule="evenodd"/><path fill="#000000" fill-opacity="0.0" d="m303.90723 55.187256l46.04724 0l0 52.188972l-46.04724 0z" fill-rule="evenodd"/><path fill="#000000" d="m321.84473 87.22726l-2.109375 0l0 -13.4375q-0.75 0.71875 -2.0 1.453125q-1.234375 0.71875 -2.21875 1.078125l0 -2.03125q1.78125 -0.828125 3.09375 -2.015625q1.328125 -1.1875 1.875 -2.296875l1.359375 0l0 17.25z" fill-rule="nonzero"/><path fill="#000000" fill-opacity="0.0" d="m422.50186 116.030106l73.322815 0l0 52.18898l-73.322815 0z" fill-rule="evenodd"/><path fill="#000000" d="m440.43936 148.0701l-2.109375 0l0 -13.4375q-0.75 0.71875 -2.0 1.453125q-1.234375 0.71875 -2.21875 1.078125l0 -2.03125q1.78125 -0.828125 3.09375 -2.015625q1.328125 -1.1875 1.875 -2.296875l1.359375 0l0 17.25zm6.5976562 0l0 -2.40625l2.390625 0l0 2.40625l-2.390625 0zm5.4804688 -4.5l2.21875 -0.1875q0.234375 1.609375 1.125 2.4375q0.90625 0.8125 2.171875 0.8125q1.53125 0 2.578125 -1.140625q1.0625 -1.15625 1.0625 -3.0625q0 -1.796875 -1.015625 -2.84375q-1.015625 -1.046875 -2.65625 -1.046875q-1.015625 0 -1.84375 0.46875q-0.8125 0.453125 -1.28125 1.203125l-1.984375 -0.265625l1.65625 -8.828125l8.546875 0l0 2.015625l-6.859375 0l-0.921875 4.625q1.546875 -1.078125 3.25 -1.078125q2.25 0 3.796875 1.5625q1.546875 1.546875 1.546875 4.0q0 2.328125 -1.359375 4.03125q-1.65625 2.09375 -4.515625 2.09375q-2.34375 0 -3.828125 -1.3125q-1.484375 -1.3125 -1.6875 -3.484375z" fill-rule="nonzero"/><path fill="#000000" fill-opacity="0.0" d="m422.50186 188.0301l73.322815 0l0 52.18898l-73.322815 0z" fill-rule="evenodd"/><path fill="#000000" d="m440.43936 220.0701l-2.109375 0l0 -13.4375q-0.75 0.71875 -2.0 1.453125q-1.234375 0.71875 -2.21875 1.078125l0 -2.03125q1.78125 -0.828125 3.09375 -2.015625q1.328125 -1.1875 1.875 -2.296875l1.359375 0l0 17.25z" fill-rule="nonzero"/><path fill="#000000" fill-opacity="0.0" d="m422.50186 284.0301l73.322815 0l0 52.188995l-73.322815 0z" fill-rule="evenodd"/><path fill="#000000" d="m440.43936 316.0701l-2.109375 0l0 -13.4375q-0.75 0.71875 -2.0 1.453125q-1.234375 0.71875 -2.21875 1.078125l0 -2.03125q1.78125 -0.828125 3.09375 -2.015625q1.328125 -1.1875 1.875 -2.296875l1.359375 0l0 17.25z" fill-rule="nonzero"/><path fill="#000000" fill-opacity="0.0" d="m586.7197 258.9685l46.04724 0l0 52.188965l-46.04724 0z" fill-rule="evenodd"/><path fill="#000000" d="m602.4072 291.0085l0 -7.28125l-6.609375 -9.90625l2.765625 0l3.375 5.1875q0.9375 1.453125 1.75 2.90625q0.78125 -1.34375 1.875 -3.03125l3.328125 -5.0625l2.65625 0l-6.859375 9.90625l0 7.28125l-2.28125 0z" fill-rule="nonzero"/></g></svg>