<?xml version="1.0" encoding="utf-8" standalone="no"?>
<!DOCTYPE svg PUBLIC "-//W3C//DTD SVG 1.1//EN"
  "http://www.w3.org/Graphics/SVG/1.1/DTD/svg11.dtd">
<svg xmlns:xlink="http://www.w3.org/1999/xlink" width="468pt" height="324pt" viewBox="0 0 468 324" xmlns="http://www.w3.org/2000/svg" version="1.1">
 <metadata>
  <rdf:RDF xmlns:dc="http://purl.org/dc/elements/1.1/" xmlns:cc="http://creativecommons.org/ns#" xmlns:rdf="http://www.w3.org/1999/02/22-rdf-syntax-ns#">
   <cc:Work>
    <dc:type rdf:resource="http://purl.org/dc/dcmitype/StillImage"/>
    <dc:date>2024-05-03T12:12:23.607128</dc:date>
    <dc:format>image/svg+xml</dc:format>
    <dc:creator>
     <cc:Agent>
      <dc:title>Matplotlib v3.5.3, https://matplotlib.org/</dc:title>
     </cc:Agent>
    </dc:creator>
   </cc:Work>
  </rdf:RDF>
 </metadata>
 <defs>
  <style type="text/css">*{stroke-linejoin: round; stroke-linecap: butt}</style>
 </defs>
 <g id="figure_1">
  <g id="patch_1">
   <path d="M 0 324 
L 468 324 
L 468 0 
L 0 0 
z
" style="fill: #ffffff"/>
  </g>
  <g id="axes_1">
   <g id="patch_2">
    <path d="M 58.5 288.36 
L 421.2 288.36 
L 421.2 38.88 
L 58.5 38.88 
z
" style="fill: #ffffff"/>
   </g>
   <g id="PathCollection_1">
    <defs>
     <path id="mc2f41b219c" d="M 0 3 
C 0.795609 3 1.55874 2.683901 2.12132 2.12132 
C 2.683901 1.55874 3 0.795609 3 0 
C 3 -0.795609 2.683901 -1.55874 2.12132 -2.12132 
C 1.55874 -2.683901 0.795609 -3 0 -3 
C -0.795609 -3 -1.55874 -2.683901 -2.12132 -2.12132 
C -2.683901 -1.55874 -3 -0.795609 -3 0 
C -3 0.795609 -2.683901 1.55874 -2.12132 2.12132 
C -1.55874 2.683901 -0.795609 3 0 3 
z
" style="stroke: #1f77b4"/>
    </defs>
    <g clip-path="url(#p6ecb566062)">
     <use xlink:href="#mc2f41b219c" x="74.986364" y="277.02" style="fill: #1f77b4; stroke: #1f77b4"/>
     <use xlink:href="#mc2f41b219c" x="169.194156" y="125.36607" style="fill: #1f77b4; stroke: #1f77b4"/>
     <use xlink:href="#mc2f41b219c" x="247.700649" y="196.137904" style="fill: #1f77b4; stroke: #1f77b4"/>
     <use xlink:href="#mc2f41b219c" x="294.804545" y="165.807118" style="fill: #1f77b4; stroke: #1f77b4"/>
     <use xlink:href="#mc2f41b219c" x="357.60974" y="186.027642" style="fill: #1f77b4; stroke: #1f77b4"/>
     <use xlink:href="#mc2f41b219c" x="404.713636" y="246.689214" style="fill: #1f77b4; stroke: #1f77b4"/>
    </g>
   </g>
   <g id="matplotlib.axis_1">
    <g id="xtick_1">
     <g id="line2d_1">
      <defs>
       <path id="m749d358418" d="M 0 0 
L 0 3.5 
" style="stroke: #000000; stroke-width: 0.8"/>
      </defs>
      <g>
       <use xlink:href="#m749d358418" x="74.986364" y="288.36" style="stroke: #000000; stroke-width: 0.8"/>
      </g>
     </g>
     <g id="text_1">
      <!-- −1.0 -->
      <g transform="translate(62.844957 302.958438)scale(0.1 -0.1)">
       <defs>
        <path id="DejaVuSans-2212" d="M 678 2272 
L 4684 2272 
L 4684 1741 
L 678 1741 
L 678 2272 
z
" transform="scale(0.015625)"/>
        <path id="DejaVuSans-31" d="M 794 531 
L 1825 531 
L 1825 4091 
L 703 3866 
L 703 4441 
L 1819 4666 
L 2450 4666 
L 2450 531 
L 3481 531 
L 3481 0 
L 794 0 
L 794 531 
z
" transform="scale(0.015625)"/>
        <path id="DejaVuSans-2e" d="M 684 794 
L 1344 794 
L 1344 0 
L 684 0 
L 684 794 
z
" transform="scale(0.015625)"/>
        <path id="DejaVuSans-30" d="M 2034 4250 
Q 1547 4250 1301 3770 
Q 1056 3291 1056 2328 
Q 1056 1369 1301 889 
Q 1547 409 2034 409 
Q 2525 409 2770 889 
Q 3016 1369 3016 2328 
Q 3016 3291 2770 3770 
Q 2525 4250 2034 4250 
z
M 2034 4750 
Q 2819 4750 3233 4129 
Q 3647 3509 3647 2328 
Q 3647 1150 3233 529 
Q 2819 -91 2034 -91 
Q 1250 -91 836 529 
Q 422 1150 422 2328 
Q 422 3509 836 4129 
Q 1250 4750 2034 4750 
z
" transform="scale(0.015625)"/>
       </defs>
       <use xlink:href="#DejaVuSans-2212"/>
       <use xlink:href="#DejaVuSans-31" x="83.789062"/>
       <use xlink:href="#DejaVuSans-2e" x="147.412109"/>
       <use xlink:href="#DejaVuSans-30" x="179.199219"/>
      </g>
     </g>
    </g>
    <g id="xtick_2">
     <g id="line2d_2">
      <g>
       <use xlink:href="#m749d358418" x="153.492857" y="288.36" style="stroke: #000000; stroke-width: 0.8"/>
      </g>
     </g>
     <g id="text_2">
      <!-- −0.5 -->
      <g transform="translate(141.351451 302.958438)scale(0.1 -0.1)">
       <defs>
        <path id="DejaVuSans-35" d="M 691 4666 
L 3169 4666 
L 3169 4134 
L 1269 4134 
L 1269 2991 
Q 1406 3038 1543 3061 
Q 1681 3084 1819 3084 
Q 2600 3084 3056 2656 
Q 3513 2228 3513 1497 
Q 3513 744 3044 326 
Q 2575 -91 1722 -91 
Q 1428 -91 1123 -41 
Q 819 9 494 109 
L 494 744 
Q 775 591 1075 516 
Q 1375 441 1709 441 
Q 2250 441 2565 725 
Q 2881 1009 2881 1497 
Q 2881 1984 2565 2268 
Q 2250 2553 1709 2553 
Q 1456 2553 1204 2497 
Q 953 2441 691 2322 
L 691 4666 
z
" transform="scale(0.015625)"/>
       </defs>
       <use xlink:href="#DejaVuSans-2212"/>
       <use xlink:href="#DejaVuSans-30" x="83.789062"/>
       <use xlink:href="#DejaVuSans-2e" x="147.412109"/>
       <use xlink:href="#DejaVuSans-35" x="179.199219"/>
      </g>
     </g>
    </g>
    <g id="xtick_3">
     <g id="line2d_3">
      <g>
       <use xlink:href="#m749d358418" x="231.999351" y="288.36" style="stroke: #000000; stroke-width: 0.8"/>
      </g>
     </g>
     <g id="text_3">
      <!-- 0.0 -->
      <g transform="translate(224.047788 302.958438)scale(0.1 -0.1)">
       <use xlink:href="#DejaVuSans-30"/>
       <use xlink:href="#DejaVuSans-2e" x="63.623047"/>
       <use xlink:href="#DejaVuSans-30" x="95.410156"/>
      </g>
     </g>
    </g>
    <g id="xtick_4">
     <g id="line2d_4">
      <g>
       <use xlink:href="#m749d358418" x="310.505844" y="288.36" style="stroke: #000000; stroke-width: 0.8"/>
      </g>
     </g>
     <g id="text_4">
      <!-- 0.5 -->
      <g transform="translate(302.554282 302.958438)scale(0.1 -0.1)">
       <use xlink:href="#DejaVuSans-30"/>
       <use xlink:href="#DejaVuSans-2e" x="63.623047"/>
       <use xlink:href="#DejaVuSans-35" x="95.410156"/>
      </g>
     </g>
    </g>
    <g id="xtick_5">
     <g id="line2d_5">
      <g>
       <use xlink:href="#m749d358418" x="389.012338" y="288.36" style="stroke: #000000; stroke-width: 0.8"/>
      </g>
     </g>
     <g id="text_5">
      <!-- 1.0 -->
      <g transform="translate(381.060775 302.958438)scale(0.1 -0.1)">
       <use xlink:href="#DejaVuSans-31"/>
       <use xlink:href="#DejaVuSans-2e" x="63.623047"/>
       <use xlink:href="#DejaVuSans-30" x="95.410156"/>
      </g>
     </g>
    </g>
   </g>
   <g id="matplotlib.axis_2">
    <g id="ytick_1">
     <g id="line2d_6">
      <defs>
       <path id="me7b13f05d3" d="M 0 0 
L -3.5 0 
" style="stroke: #000000; stroke-width: 0.8"/>
      </defs>
      <g>
       <use xlink:href="#me7b13f05d3" x="58.5" y="277.02" style="stroke: #000000; stroke-width: 0.8"/>
      </g>
     </g>
     <g id="text_6">
      <!-- −1.0 -->
      <g transform="translate(27.217187 280.819219)scale(0.1 -0.1)">
       <use xlink:href="#DejaVuSans-2212"/>
       <use xlink:href="#DejaVuSans-31" x="83.789062"/>
       <use xlink:href="#DejaVuSans-2e" x="147.412109"/>
       <use xlink:href="#DejaVuSans-30" x="179.199219"/>
      </g>
     </g>
    </g>
    <g id="ytick_2">
     <g id="line2d_7">
      <g>
       <use xlink:href="#me7b13f05d3" x="58.5" y="226.46869" style="stroke: #000000; stroke-width: 0.8"/>
      </g>
     </g>
     <g id="text_7">
      <!-- −0.5 -->
      <g transform="translate(27.217187 230.267909)scale(0.1 -0.1)">
       <use xlink:href="#DejaVuSans-2212"/>
       <use xlink:href="#DejaVuSans-30" x="83.789062"/>
       <use xlink:href="#DejaVuSans-2e" x="147.412109"/>
       <use xlink:href="#DejaVuSans-35" x="179.199219"/>
      </g>
     </g>
    </g>
    <g id="ytick_3">
     <g id="line2d_8">
      <g>
       <use xlink:href="#me7b13f05d3" x="58.5" y="175.91738" style="stroke: #000000; stroke-width: 0.8"/>
      </g>
     </g>
     <g id="text_8">
      <!-- 0.0 -->
      <g transform="translate(35.596875 179.716599)scale(0.1 -0.1)">
       <use xlink:href="#DejaVuSans-30"/>
       <use xlink:href="#DejaVuSans-2e" x="63.623047"/>
       <use xlink:href="#DejaVuSans-30" x="95.410156"/>
      </g>
     </g>
    </g>
    <g id="ytick_4">
     <g id="line2d_9">
      <g>
       <use xlink:href="#me7b13f05d3" x="58.5" y="125.36607" style="stroke: #000000; stroke-width: 0.8"/>
      </g>
     </g>
     <g id="text_9">
      <!-- 0.5 -->
      <g transform="translate(35.596875 129.165289)scale(0.1 -0.1)">
       <use xlink:href="#DejaVuSans-30"/>
       <use xlink:href="#DejaVuSans-2e" x="63.623047"/>
       <use xlink:href="#DejaVuSans-35" x="95.410156"/>
      </g>
     </g>
    </g>
    <g id="ytick_5">
     <g id="line2d_10">
      <g>
       <use xlink:href="#me7b13f05d3" x="58.5" y="74.81476" style="stroke: #000000; stroke-width: 0.8"/>
      </g>
     </g>
     <g id="text_10">
      <!-- 1.0 -->
      <g transform="translate(35.596875 78.613979)scale(0.1 -0.1)">
       <use xlink:href="#DejaVuSans-31"/>
       <use xlink:href="#DejaVuSans-2e" x="63.623047"/>
       <use xlink:href="#DejaVuSans-30" x="95.410156"/>
      </g>
     </g>
    </g>
   </g>
   <g id="line2d_11">
    <path d="M 74.986364 277.02 
L 77.465516 248.709574 
L 79.944668 222.821752 
L 82.423821 199.236921 
L 84.902973 177.83889 
L 87.382126 158.51484 
L 89.861278 141.155285 
L 92.340431 125.654024 
L 94.819583 111.908098 
L 97.298735 99.817743 
L 99.777888 89.286352 
L 101.430656 83.085214 
L 103.083424 77.508384 
L 104.736193 72.529515 
L 106.388961 68.122854 
L 108.041729 64.263237 
L 109.694498 60.926078 
L 111.347266 58.087372 
L 113.000034 55.723681 
L 114.652802 53.812132 
L 116.305571 52.33041 
L 117.958339 51.256754 
L 119.611107 50.569946 
L 121.263876 50.249315 
L 122.916644 50.274718 
L 124.569412 50.626548 
L 126.22218 51.285715 
L 127.874949 52.233652 
L 129.527717 53.452299 
L 131.180485 54.924104 
L 132.833254 56.632016 
L 135.312406 59.600496 
L 137.791558 63.009242 
L 140.270711 66.806851 
L 143.576247 72.390839 
L 146.881784 78.469508 
L 151.013705 86.607936 
L 155.97201 96.924296 
L 165.888619 118.29002 
L 173.326077 134.027667 
L 178.284381 144.019268 
L 182.416302 151.907634 
L 186.548223 159.318853 
L 189.853759 164.862754 
L 193.159296 170.035936 
L 196.464833 174.817033 
L 199.770369 179.189076 
L 203.075906 183.1393 
L 206.381442 186.658965 
L 208.860595 189.013066 
L 211.339747 191.121424 
L 213.8189 192.984431 
L 216.298052 194.603545 
L 218.777204 195.981243 
L 221.256357 197.120979 
L 223.735509 198.027137 
L 226.214662 198.70499 
L 228.693814 199.160652 
L 231.172967 199.401036 
L 233.652119 199.433809 
L 236.131271 199.267346 
L 238.610424 198.910689 
L 241.089576 198.373498 
L 244.395113 197.394186 
L 247.700649 196.137904 
L 251.006186 194.63186 
L 254.311722 192.90457 
L 258.443643 190.479567 
L 263.401948 187.258881 
L 269.186637 183.208055 
L 286.540704 170.839302 
L 291.499009 167.702234 
L 295.63093 165.361959 
L 298.936466 163.708609 
L 302.242003 162.278521 
L 305.547539 161.096512 
L 308.853076 160.185616 
L 312.158612 159.566896 
L 314.637765 159.306055 
L 317.116917 159.227365 
L 319.59607 159.337158 
L 322.075222 159.640937 
L 324.554375 160.143327 
L 327.033527 160.848037 
L 329.512679 161.75781 
L 331.991832 162.874379 
L 334.470984 164.198429 
L 336.950137 165.729542 
L 339.429289 167.466162 
L 342.734826 170.096415 
L 346.040362 173.07707 
L 349.345899 176.394125 
L 352.651435 180.029314 
L 355.956972 183.959919 
L 360.088893 189.246478 
L 364.220813 194.887451 
L 369.179118 202.015927 
L 378.269344 215.583016 
L 384.880417 225.269126 
L 389.012338 230.959222 
L 392.317874 235.179817 
L 395.623411 239.007928 
L 398.102563 241.562987 
L 400.581716 243.798731 
L 403.060868 245.669094 
L 404.713636 246.689214 
L 404.713636 246.689214 
" clip-path="url(#p6ecb566062)" style="fill: none; stroke: #1f77b4; stroke-width: 1.5; stroke-linecap: square"/>
   </g>
   <g id="line2d_12">
    <path d="M 74.986364 277.02 
L 78.2919 259.262567 
L 81.597437 242.71296 
L 84.902973 227.336836 
L 88.20851 213.099849 
L 91.514046 199.967657 
L 94.819583 187.905914 
L 98.12512 176.880277 
L 100.604272 169.270335 
L 103.083424 162.209394 
L 105.562577 155.682967 
L 108.041729 149.676564 
L 110.520882 144.175697 
L 113.000034 139.165876 
L 115.479187 134.632614 
L 117.958339 130.56142 
L 120.437491 126.937807 
L 122.916644 123.747284 
L 125.395796 120.975364 
L 127.874949 118.607558 
L 130.354101 116.629376 
L 132.833254 115.02633 
L 135.312406 113.783931 
L 137.791558 112.887689 
L 140.270711 112.323117 
L 142.749863 112.075725 
L 145.229016 112.131024 
L 147.708168 112.474525 
L 150.187321 113.09174 
L 152.666473 113.96818 
L 155.145625 115.089356 
L 157.624778 116.440778 
L 160.10393 118.007959 
L 163.409467 120.408114 
L 166.715003 123.131737 
L 170.02054 126.144484 
L 174.152461 130.264677 
L 178.284381 134.715885 
L 183.242686 140.399829 
L 189.853759 148.3693 
L 206.381442 168.544483 
L 211.339747 174.192723 
L 215.471668 178.604553 
L 219.603589 182.676616 
L 222.909125 185.644558 
L 226.214662 188.317776 
L 229.520198 190.661926 
L 231.999351 192.183427 
L 234.478503 193.48602 
L 236.957656 194.555215 
L 239.436808 195.376524 
L 241.91596 195.935459 
L 244.395113 196.217529 
L 246.874265 196.208247 
L 249.353418 195.895167 
L 251.83257 195.289593 
L 254.311722 194.418156 
L 256.790875 193.307741 
L 259.270027 191.985231 
L 262.575564 189.938427 
L 265.8811 187.626089 
L 270.013021 184.459341 
L 276.624094 179.047335 
L 284.061552 173.009575 
L 288.193472 169.934052 
L 291.499009 167.724549 
L 294.804545 165.807118 
L 297.283698 164.593911 
L 299.76285 163.576875 
L 302.242003 162.752043 
L 304.721155 162.115449 
L 307.200308 161.663125 
L 309.67946 161.391105 
L 312.158612 161.295423 
L 314.637765 161.372112 
L 317.943301 161.735641 
L 321.248838 162.389153 
L 324.554375 163.323247 
L 327.859911 164.528519 
L 331.165448 165.995568 
L 334.470984 167.714991 
L 337.776521 169.677387 
L 341.082057 171.873352 
L 344.387594 174.293484 
L 348.519515 177.619561 
L 352.651435 181.262845 
L 356.783356 185.204971 
L 360.915277 189.427577 
L 365.873582 194.83908 
L 370.831887 200.596296 
L 375.790191 206.667493 
L 381.57488 214.105057 
L 388.185954 223.010903 
L 395.623411 233.45743 
L 403.887252 245.469895 
L 404.713636 246.689214 
L 404.713636 246.689214 
" clip-path="url(#p6ecb566062)" style="fill: none; stroke: #ff7f0e; stroke-width: 1.5; stroke-linecap: square"/>
   </g>
   <g id="line2d_13">
    <path d="M 74.986364 277.02 
L 79.944668 260.526355 
L 84.076589 247.504108 
L 88.20851 235.138641 
L 92.340431 223.429952 
L 96.472351 212.378043 
L 100.604272 201.982913 
L 104.736193 192.244563 
L 108.868113 183.162991 
L 112.17365 176.370615 
L 115.479187 169.998578 
L 118.784723 164.046879 
L 122.09026 158.515519 
L 125.395796 153.404498 
L 128.701333 148.713816 
L 132.006869 144.443472 
L 135.312406 140.593467 
L 138.617943 137.163801 
L 141.097095 134.867398 
L 143.576247 132.807436 
L 146.0554 130.983915 
L 148.534552 129.396834 
L 151.013705 128.046194 
L 153.492857 126.931994 
L 155.97201 126.054235 
L 158.451162 125.412916 
L 160.930314 125.008038 
L 163.409467 124.8396 
L 165.888619 124.907603 
L 168.367772 125.212046 
L 170.846924 125.75293 
L 173.326077 126.530255 
L 175.805229 127.54402 
L 178.284381 128.794225 
L 180.763534 130.280871 
L 183.242686 132.003958 
L 185.721839 133.963485 
L 188.200991 136.159453 
L 190.680144 138.591861 
L 193.98568 142.202868 
L 197.291217 146.234214 
L 200.596753 150.685899 
L 203.90229 155.557922 
L 207.207826 160.850284 
L 212.166131 169.005637 
L 215.471668 173.881739 
L 218.777204 178.275344 
L 221.256357 181.25391 
L 223.735509 183.961072 
L 226.214662 186.396829 
L 228.693814 188.561182 
L 231.172967 190.454131 
L 233.652119 192.075676 
L 236.131271 193.425816 
L 238.610424 194.504552 
L 241.089576 195.311884 
L 243.568729 195.847812 
L 246.047881 196.112335 
L 248.527033 196.105454 
L 251.006186 195.827169 
L 253.485338 195.27748 
L 255.964491 194.456387 
L 258.443643 193.363889 
L 260.922796 191.999987 
L 263.401948 190.364681 
L 265.8811 188.45797 
L 268.360253 186.279856 
L 270.839405 183.830337 
L 274.971326 179.63452 
L 278.276863 176.60104 
L 281.582399 173.859126 
L 284.887936 171.408776 
L 288.193472 169.249991 
L 291.499009 167.382772 
L 294.804545 165.807118 
L 298.110082 164.523029 
L 301.415619 163.530505 
L 304.721155 162.829546 
L 308.026692 162.420153 
L 311.332228 162.302325 
L 314.637765 162.476062 
L 317.943301 162.941364 
L 321.248838 163.698231 
L 324.554375 164.746663 
L 327.859911 166.072147 
L 331.991832 167.993879 
L 336.123753 170.189761 
L 340.255673 172.659792 
L 344.387594 175.403974 
L 348.519515 178.422305 
L 352.651435 181.714786 
L 356.783356 185.281418 
L 360.915277 189.122199 
L 365.047198 193.23713 
L 369.179118 197.626211 
L 374.137423 203.254986 
L 379.095728 209.278536 
L 384.054033 215.696863 
L 389.012338 222.509965 
L 393.970643 229.717844 
L 398.928947 237.320498 
L 403.887252 245.317928 
L 404.713636 246.689214 
L 404.713636 246.689214 
" clip-path="url(#p6ecb566062)" style="fill: none; stroke: #800080; stroke-width: 1.5; stroke-linecap: square"/>
   </g>
   <g id="line2d_14">
    <path d="M 74.986364 277.02 
L 169.194156 125.36607 
L 247.700649 196.137904 
L 294.804545 165.807118 
L 357.60974 186.027642 
L 404.713636 246.689214 
L 404.713636 246.689214 
" clip-path="url(#p6ecb566062)" style="fill: none; stroke: #32cd32; stroke-width: 3; stroke-linecap: square"/>
   </g>
   <g id="line2d_15">
    <path d="M 74.986364 277.017954 
L 169.194156 125.418962 
L 247.700649 195.989702 
L 326.207143 145.980903 
L 327.033527 146.776012 
L 404.713636 246.638322 
L 404.713636 246.638322 
" clip-path="url(#p6ecb566062)" style="fill: none; stroke: #000000; stroke-opacity: 0.9; stroke-linecap: square"/>
   </g>
   <g id="patch_3">
    <path d="M 58.5 288.36 
L 58.5 38.88 
" style="fill: none; stroke: #000000; stroke-width: 0.8; stroke-linejoin: miter; stroke-linecap: square"/>
   </g>
   <g id="patch_4">
    <path d="M 421.2 288.36 
L 421.2 38.88 
" style="fill: none; stroke: #000000; stroke-width: 0.8; stroke-linejoin: miter; stroke-linecap: square"/>
   </g>
   <g id="patch_5">
    <path d="M 58.5 288.36 
L 421.2 288.36 
" style="fill: none; stroke: #000000; stroke-width: 0.8; stroke-linejoin: miter; stroke-linecap: square"/>
   </g>
   <g id="patch_6">
    <path d="M 58.5 38.88 
L 421.2 38.88 
" style="fill: none; stroke: #000000; stroke-width: 0.8; stroke-linejoin: miter; stroke-linecap: square"/>
   </g>
   <g id="legend_1">
    <g id="patch_7">
     <path d="M 301.389062 134.94875 
L 414.2 134.94875 
Q 416.2 134.94875 416.2 132.94875 
L 416.2 45.88 
Q 416.2 43.88 414.2 43.88 
L 301.389062 43.88 
Q 299.389062 43.88 299.389062 45.88 
L 299.389062 132.94875 
Q 299.389062 134.94875 301.389062 134.94875 
z
" style="fill: #ffffff; opacity: 0.8; stroke: #cccccc; stroke-linejoin: miter"/>
    </g>
    <g id="PathCollection_2">
     <g>
      <use xlink:href="#mc2f41b219c" x="313.389062" y="52.853437" style="fill: #1f77b4; stroke: #1f77b4"/>
     </g>
    </g>
    <g id="text_11">
     <!-- points -->
     <g transform="translate(331.389062 55.478437)scale(0.1 -0.1)">
      <defs>
       <path id="DejaVuSans-70" d="M 1159 525 
L 1159 -1331 
L 581 -1331 
L 581 3500 
L 1159 3500 
L 1159 2969 
Q 1341 3281 1617 3432 
Q 1894 3584 2278 3584 
Q 2916 3584 3314 3078 
Q 3713 2572 3713 1747 
Q 3713 922 3314 415 
Q 2916 -91 2278 -91 
Q 1894 -91 1617 61 
Q 1341 213 1159 525 
z
M 3116 1747 
Q 3116 2381 2855 2742 
Q 2594 3103 2138 3103 
Q 1681 3103 1420 2742 
Q 1159 2381 1159 1747 
Q 1159 1113 1420 752 
Q 1681 391 2138 391 
Q 2594 391 2855 752 
Q 3116 1113 3116 1747 
z
" transform="scale(0.015625)"/>
       <path id="DejaVuSans-6f" d="M 1959 3097 
Q 1497 3097 1228 2736 
Q 959 2375 959 1747 
Q 959 1119 1226 758 
Q 1494 397 1959 397 
Q 2419 397 2687 759 
Q 2956 1122 2956 1747 
Q 2956 2369 2687 2733 
Q 2419 3097 1959 3097 
z
M 1959 3584 
Q 2709 3584 3137 3096 
Q 3566 2609 3566 1747 
Q 3566 888 3137 398 
Q 2709 -91 1959 -91 
Q 1206 -91 779 398 
Q 353 888 353 1747 
Q 353 2609 779 3096 
Q 1206 3584 1959 3584 
z
" transform="scale(0.015625)"/>
       <path id="DejaVuSans-69" d="M 603 3500 
L 1178 3500 
L 1178 0 
L 603 0 
L 603 3500 
z
M 603 4863 
L 1178 4863 
L 1178 4134 
L 603 4134 
L 603 4863 
z
" transform="scale(0.015625)"/>
       <path id="DejaVuSans-6e" d="M 3513 2113 
L 3513 0 
L 2938 0 
L 2938 2094 
Q 2938 2591 2744 2837 
Q 2550 3084 2163 3084 
Q 1697 3084 1428 2787 
Q 1159 2491 1159 1978 
L 1159 0 
L 581 0 
L 581 3500 
L 1159 3500 
L 1159 2956 
Q 1366 3272 1645 3428 
Q 1925 3584 2291 3584 
Q 2894 3584 3203 3211 
Q 3513 2838 3513 2113 
z
" transform="scale(0.015625)"/>
       <path id="DejaVuSans-74" d="M 1172 4494 
L 1172 3500 
L 2356 3500 
L 2356 3053 
L 1172 3053 
L 1172 1153 
Q 1172 725 1289 603 
Q 1406 481 1766 481 
L 2356 481 
L 2356 0 
L 1766 0 
Q 1100 0 847 248 
Q 594 497 594 1153 
L 594 3053 
L 172 3053 
L 172 3500 
L 594 3500 
L 594 4494 
L 1172 4494 
z
" transform="scale(0.015625)"/>
       <path id="DejaVuSans-73" d="M 2834 3397 
L 2834 2853 
Q 2591 2978 2328 3040 
Q 2066 3103 1784 3103 
Q 1356 3103 1142 2972 
Q 928 2841 928 2578 
Q 928 2378 1081 2264 
Q 1234 2150 1697 2047 
L 1894 2003 
Q 2506 1872 2764 1633 
Q 3022 1394 3022 966 
Q 3022 478 2636 193 
Q 2250 -91 1575 -91 
Q 1294 -91 989 -36 
Q 684 19 347 128 
L 347 722 
Q 666 556 975 473 
Q 1284 391 1588 391 
Q 1994 391 2212 530 
Q 2431 669 2431 922 
Q 2431 1156 2273 1281 
Q 2116 1406 1581 1522 
L 1381 1569 
Q 847 1681 609 1914 
Q 372 2147 372 2553 
Q 372 3047 722 3315 
Q 1072 3584 1716 3584 
Q 2034 3584 2315 3537 
Q 2597 3491 2834 3397 
z
" transform="scale(0.015625)"/>
      </defs>
      <use xlink:href="#DejaVuSans-70"/>
      <use xlink:href="#DejaVuSans-6f" x="63.476562"/>
      <use xlink:href="#DejaVuSans-69" x="124.658203"/>
      <use xlink:href="#DejaVuSans-6e" x="152.441406"/>
      <use xlink:href="#DejaVuSans-74" x="215.820312"/>
      <use xlink:href="#DejaVuSans-73" x="255.029297"/>
     </g>
    </g>
    <g id="line2d_16">
     <path d="M 303.389062 66.656562 
L 313.389062 66.656562 
L 323.389062 66.656562 
" style="fill: none; stroke: #1f77b4; stroke-width: 1.5; stroke-linecap: square"/>
    </g>
    <g id="text_12">
     <!-- polynomial-reg -->
     <g transform="translate(331.389062 70.156562)scale(0.1 -0.1)">
      <defs>
       <path id="DejaVuSans-6c" d="M 603 4863 
L 1178 4863 
L 1178 0 
L 603 0 
L 603 4863 
z
" transform="scale(0.015625)"/>
       <path id="DejaVuSans-79" d="M 2059 -325 
Q 1816 -950 1584 -1140 
Q 1353 -1331 966 -1331 
L 506 -1331 
L 506 -850 
L 844 -850 
Q 1081 -850 1212 -737 
Q 1344 -625 1503 -206 
L 1606 56 
L 191 3500 
L 800 3500 
L 1894 763 
L 2988 3500 
L 3597 3500 
L 2059 -325 
z
" transform="scale(0.015625)"/>
       <path id="DejaVuSans-6d" d="M 3328 2828 
Q 3544 3216 3844 3400 
Q 4144 3584 4550 3584 
Q 5097 3584 5394 3201 
Q 5691 2819 5691 2113 
L 5691 0 
L 5113 0 
L 5113 2094 
Q 5113 2597 4934 2840 
Q 4756 3084 4391 3084 
Q 3944 3084 3684 2787 
Q 3425 2491 3425 1978 
L 3425 0 
L 2847 0 
L 2847 2094 
Q 2847 2600 2669 2842 
Q 2491 3084 2119 3084 
Q 1678 3084 1418 2786 
Q 1159 2488 1159 1978 
L 1159 0 
L 581 0 
L 581 3500 
L 1159 3500 
L 1159 2956 
Q 1356 3278 1631 3431 
Q 1906 3584 2284 3584 
Q 2666 3584 2933 3390 
Q 3200 3197 3328 2828 
z
" transform="scale(0.015625)"/>
       <path id="DejaVuSans-61" d="M 2194 1759 
Q 1497 1759 1228 1600 
Q 959 1441 959 1056 
Q 959 750 1161 570 
Q 1363 391 1709 391 
Q 2188 391 2477 730 
Q 2766 1069 2766 1631 
L 2766 1759 
L 2194 1759 
z
M 3341 1997 
L 3341 0 
L 2766 0 
L 2766 531 
Q 2569 213 2275 61 
Q 1981 -91 1556 -91 
Q 1019 -91 701 211 
Q 384 513 384 1019 
Q 384 1609 779 1909 
Q 1175 2209 1959 2209 
L 2766 2209 
L 2766 2266 
Q 2766 2663 2505 2880 
Q 2244 3097 1772 3097 
Q 1472 3097 1187 3025 
Q 903 2953 641 2809 
L 641 3341 
Q 956 3463 1253 3523 
Q 1550 3584 1831 3584 
Q 2591 3584 2966 3190 
Q 3341 2797 3341 1997 
z
" transform="scale(0.015625)"/>
       <path id="DejaVuSans-2d" d="M 313 2009 
L 1997 2009 
L 1997 1497 
L 313 1497 
L 313 2009 
z
" transform="scale(0.015625)"/>
       <path id="DejaVuSans-72" d="M 2631 2963 
Q 2534 3019 2420 3045 
Q 2306 3072 2169 3072 
Q 1681 3072 1420 2755 
Q 1159 2438 1159 1844 
L 1159 0 
L 581 0 
L 581 3500 
L 1159 3500 
L 1159 2956 
Q 1341 3275 1631 3429 
Q 1922 3584 2338 3584 
Q 2397 3584 2469 3576 
Q 2541 3569 2628 3553 
L 2631 2963 
z
" transform="scale(0.015625)"/>
       <path id="DejaVuSans-65" d="M 3597 1894 
L 3597 1613 
L 953 1613 
Q 991 1019 1311 708 
Q 1631 397 2203 397 
Q 2534 397 2845 478 
Q 3156 559 3463 722 
L 3463 178 
Q 3153 47 2828 -22 
Q 2503 -91 2169 -91 
Q 1331 -91 842 396 
Q 353 884 353 1716 
Q 353 2575 817 3079 
Q 1281 3584 2069 3584 
Q 2775 3584 3186 3129 
Q 3597 2675 3597 1894 
z
M 3022 2063 
Q 3016 2534 2758 2815 
Q 2500 3097 2075 3097 
Q 1594 3097 1305 2825 
Q 1016 2553 972 2059 
L 3022 2063 
z
" transform="scale(0.015625)"/>
       <path id="DejaVuSans-67" d="M 2906 1791 
Q 2906 2416 2648 2759 
Q 2391 3103 1925 3103 
Q 1463 3103 1205 2759 
Q 947 2416 947 1791 
Q 947 1169 1205 825 
Q 1463 481 1925 481 
Q 2391 481 2648 825 
Q 2906 1169 2906 1791 
z
M 3481 434 
Q 3481 -459 3084 -895 
Q 2688 -1331 1869 -1331 
Q 1566 -1331 1297 -1286 
Q 1028 -1241 775 -1147 
L 775 -588 
Q 1028 -725 1275 -790 
Q 1522 -856 1778 -856 
Q 2344 -856 2625 -561 
Q 2906 -266 2906 331 
L 2906 616 
Q 2728 306 2450 153 
Q 2172 0 1784 0 
Q 1141 0 747 490 
Q 353 981 353 1791 
Q 353 2603 747 3093 
Q 1141 3584 1784 3584 
Q 2172 3584 2450 3431 
Q 2728 3278 2906 2969 
L 2906 3500 
L 3481 3500 
L 3481 434 
z
" transform="scale(0.015625)"/>
      </defs>
      <use xlink:href="#DejaVuSans-70"/>
      <use xlink:href="#DejaVuSans-6f" x="63.476562"/>
      <use xlink:href="#DejaVuSans-6c" x="124.658203"/>
      <use xlink:href="#DejaVuSans-79" x="152.441406"/>
      <use xlink:href="#DejaVuSans-6e" x="211.621094"/>
      <use xlink:href="#DejaVuSans-6f" x="275"/>
      <use xlink:href="#DejaVuSans-6d" x="336.181641"/>
      <use xlink:href="#DejaVuSans-69" x="433.59375"/>
      <use xlink:href="#DejaVuSans-61" x="461.376953"/>
      <use xlink:href="#DejaVuSans-6c" x="522.65625"/>
      <use xlink:href="#DejaVuSans-2d" x="550.439453"/>
      <use xlink:href="#DejaVuSans-72" x="586.523438"/>
      <use xlink:href="#DejaVuSans-65" x="625.386719"/>
      <use xlink:href="#DejaVuSans-67" x="686.910156"/>
     </g>
    </g>
    <g id="line2d_17">
     <path d="M 303.389062 81.334687 
L 313.389062 81.334687 
L 323.389062 81.334687 
" style="fill: none; stroke: #ff7f0e; stroke-width: 1.5; stroke-linecap: square"/>
    </g>
    <g id="text_13">
     <!-- cubic-spline -->
     <g transform="translate(331.389062 84.834687)scale(0.1 -0.1)">
      <defs>
       <path id="DejaVuSans-63" d="M 3122 3366 
L 3122 2828 
Q 2878 2963 2633 3030 
Q 2388 3097 2138 3097 
Q 1578 3097 1268 2742 
Q 959 2388 959 1747 
Q 959 1106 1268 751 
Q 1578 397 2138 397 
Q 2388 397 2633 464 
Q 2878 531 3122 666 
L 3122 134 
Q 2881 22 2623 -34 
Q 2366 -91 2075 -91 
Q 1284 -91 818 406 
Q 353 903 353 1747 
Q 353 2603 823 3093 
Q 1294 3584 2113 3584 
Q 2378 3584 2631 3529 
Q 2884 3475 3122 3366 
z
" transform="scale(0.015625)"/>
       <path id="DejaVuSans-75" d="M 544 1381 
L 544 3500 
L 1119 3500 
L 1119 1403 
Q 1119 906 1312 657 
Q 1506 409 1894 409 
Q 2359 409 2629 706 
Q 2900 1003 2900 1516 
L 2900 3500 
L 3475 3500 
L 3475 0 
L 2900 0 
L 2900 538 
Q 2691 219 2414 64 
Q 2138 -91 1772 -91 
Q 1169 -91 856 284 
Q 544 659 544 1381 
z
M 1991 3584 
L 1991 3584 
z
" transform="scale(0.015625)"/>
       <path id="DejaVuSans-62" d="M 3116 1747 
Q 3116 2381 2855 2742 
Q 2594 3103 2138 3103 
Q 1681 3103 1420 2742 
Q 1159 2381 1159 1747 
Q 1159 1113 1420 752 
Q 1681 391 2138 391 
Q 2594 391 2855 752 
Q 3116 1113 3116 1747 
z
M 1159 2969 
Q 1341 3281 1617 3432 
Q 1894 3584 2278 3584 
Q 2916 3584 3314 3078 
Q 3713 2572 3713 1747 
Q 3713 922 3314 415 
Q 2916 -91 2278 -91 
Q 1894 -91 1617 61 
Q 1341 213 1159 525 
L 1159 0 
L 581 0 
L 581 4863 
L 1159 4863 
L 1159 2969 
z
" transform="scale(0.015625)"/>
      </defs>
      <use xlink:href="#DejaVuSans-63"/>
      <use xlink:href="#DejaVuSans-75" x="54.980469"/>
      <use xlink:href="#DejaVuSans-62" x="118.359375"/>
      <use xlink:href="#DejaVuSans-69" x="181.835938"/>
      <use xlink:href="#DejaVuSans-63" x="209.619141"/>
      <use xlink:href="#DejaVuSans-2d" x="264.599609"/>
      <use xlink:href="#DejaVuSans-73" x="300.683594"/>
      <use xlink:href="#DejaVuSans-70" x="352.783203"/>
      <use xlink:href="#DejaVuSans-6c" x="416.259766"/>
      <use xlink:href="#DejaVuSans-69" x="444.042969"/>
      <use xlink:href="#DejaVuSans-6e" x="471.826172"/>
      <use xlink:href="#DejaVuSans-65" x="535.205078"/>
     </g>
    </g>
    <g id="line2d_18">
     <path d="M 303.389062 96.012812 
L 313.389062 96.012812 
L 323.389062 96.012812 
" style="fill: none; stroke: #800080; stroke-width: 1.5; stroke-linecap: square"/>
    </g>
    <g id="text_14">
     <!-- quadratic-spline -->
     <g transform="translate(331.389062 99.512812)scale(0.1 -0.1)">
      <defs>
       <path id="DejaVuSans-71" d="M 947 1747 
Q 947 1113 1208 752 
Q 1469 391 1925 391 
Q 2381 391 2643 752 
Q 2906 1113 2906 1747 
Q 2906 2381 2643 2742 
Q 2381 3103 1925 3103 
Q 1469 3103 1208 2742 
Q 947 2381 947 1747 
z
M 2906 525 
Q 2725 213 2448 61 
Q 2172 -91 1784 -91 
Q 1150 -91 751 415 
Q 353 922 353 1747 
Q 353 2572 751 3078 
Q 1150 3584 1784 3584 
Q 2172 3584 2448 3432 
Q 2725 3281 2906 2969 
L 2906 3500 
L 3481 3500 
L 3481 -1331 
L 2906 -1331 
L 2906 525 
z
" transform="scale(0.015625)"/>
       <path id="DejaVuSans-64" d="M 2906 2969 
L 2906 4863 
L 3481 4863 
L 3481 0 
L 2906 0 
L 2906 525 
Q 2725 213 2448 61 
Q 2172 -91 1784 -91 
Q 1150 -91 751 415 
Q 353 922 353 1747 
Q 353 2572 751 3078 
Q 1150 3584 1784 3584 
Q 2172 3584 2448 3432 
Q 2725 3281 2906 2969 
z
M 947 1747 
Q 947 1113 1208 752 
Q 1469 391 1925 391 
Q 2381 391 2643 752 
Q 2906 1113 2906 1747 
Q 2906 2381 2643 2742 
Q 2381 3103 1925 3103 
Q 1469 3103 1208 2742 
Q 947 2381 947 1747 
z
" transform="scale(0.015625)"/>
      </defs>
      <use xlink:href="#DejaVuSans-71"/>
      <use xlink:href="#DejaVuSans-75" x="63.476562"/>
      <use xlink:href="#DejaVuSans-61" x="126.855469"/>
      <use xlink:href="#DejaVuSans-64" x="188.134766"/>
      <use xlink:href="#DejaVuSans-72" x="251.611328"/>
      <use xlink:href="#DejaVuSans-61" x="292.724609"/>
      <use xlink:href="#DejaVuSans-74" x="354.003906"/>
      <use xlink:href="#DejaVuSans-69" x="393.212891"/>
      <use xlink:href="#DejaVuSans-63" x="420.996094"/>
      <use xlink:href="#DejaVuSans-2d" x="475.976562"/>
      <use xlink:href="#DejaVuSans-73" x="512.060547"/>
      <use xlink:href="#DejaVuSans-70" x="564.160156"/>
      <use xlink:href="#DejaVuSans-6c" x="627.636719"/>
      <use xlink:href="#DejaVuSans-69" x="655.419922"/>
      <use xlink:href="#DejaVuSans-6e" x="683.203125"/>
      <use xlink:href="#DejaVuSans-65" x="746.582031"/>
     </g>
    </g>
    <g id="line2d_19">
     <path d="M 303.389062 110.690937 
L 313.389062 110.690937 
L 323.389062 110.690937 
" style="fill: none; stroke: #32cd32; stroke-width: 3; stroke-linecap: square"/>
    </g>
    <g id="text_15">
     <!-- linear-spline -->
     <g transform="translate(331.389062 114.190937)scale(0.1 -0.1)">
      <use xlink:href="#DejaVuSans-6c"/>
      <use xlink:href="#DejaVuSans-69" x="27.783203"/>
      <use xlink:href="#DejaVuSans-6e" x="55.566406"/>
      <use xlink:href="#DejaVuSans-65" x="118.945312"/>
      <use xlink:href="#DejaVuSans-61" x="180.46875"/>
      <use xlink:href="#DejaVuSans-72" x="241.748047"/>
      <use xlink:href="#DejaVuSans-2d" x="276.486328"/>
      <use xlink:href="#DejaVuSans-73" x="312.570312"/>
      <use xlink:href="#DejaVuSans-70" x="364.669922"/>
      <use xlink:href="#DejaVuSans-6c" x="428.146484"/>
      <use xlink:href="#DejaVuSans-69" x="455.929688"/>
      <use xlink:href="#DejaVuSans-6e" x="483.712891"/>
      <use xlink:href="#DejaVuSans-65" x="547.091797"/>
     </g>
    </g>
    <g id="line2d_20">
     <path d="M 303.389062 125.369062 
L 313.389062 125.369062 
L 323.389062 125.369062 
" style="fill: none; stroke: #000000; stroke-opacity: 0.9; stroke-linecap: square"/>
    </g>
    <g id="text_16">
     <!-- ReLU-MLP -->
     <g transform="translate(331.389062 128.869062)scale(0.1 -0.1)">
      <defs>
       <path id="DejaVuSans-52" d="M 2841 2188 
Q 3044 2119 3236 1894 
Q 3428 1669 3622 1275 
L 4263 0 
L 3584 0 
L 2988 1197 
Q 2756 1666 2539 1819 
Q 2322 1972 1947 1972 
L 1259 1972 
L 1259 0 
L 628 0 
L 628 4666 
L 2053 4666 
Q 2853 4666 3247 4331 
Q 3641 3997 3641 3322 
Q 3641 2881 3436 2590 
Q 3231 2300 2841 2188 
z
M 1259 4147 
L 1259 2491 
L 2053 2491 
Q 2509 2491 2742 2702 
Q 2975 2913 2975 3322 
Q 2975 3731 2742 3939 
Q 2509 4147 2053 4147 
L 1259 4147 
z
" transform="scale(0.015625)"/>
       <path id="DejaVuSans-4c" d="M 628 4666 
L 1259 4666 
L 1259 531 
L 3531 531 
L 3531 0 
L 628 0 
L 628 4666 
z
" transform="scale(0.015625)"/>
       <path id="DejaVuSans-55" d="M 556 4666 
L 1191 4666 
L 1191 1831 
Q 1191 1081 1462 751 
Q 1734 422 2344 422 
Q 2950 422 3222 751 
Q 3494 1081 3494 1831 
L 3494 4666 
L 4128 4666 
L 4128 1753 
Q 4128 841 3676 375 
Q 3225 -91 2344 -91 
Q 1459 -91 1007 375 
Q 556 841 556 1753 
L 556 4666 
z
" transform="scale(0.015625)"/>
       <path id="DejaVuSans-4d" d="M 628 4666 
L 1569 4666 
L 2759 1491 
L 3956 4666 
L 4897 4666 
L 4897 0 
L 4281 0 
L 4281 4097 
L 3078 897 
L 2444 897 
L 1241 4097 
L 1241 0 
L 628 0 
L 628 4666 
z
" transform="scale(0.015625)"/>
       <path id="DejaVuSans-50" d="M 1259 4147 
L 1259 2394 
L 2053 2394 
Q 2494 2394 2734 2622 
Q 2975 2850 2975 3272 
Q 2975 3691 2734 3919 
Q 2494 4147 2053 4147 
L 1259 4147 
z
M 628 4666 
L 2053 4666 
Q 2838 4666 3239 4311 
Q 3641 3956 3641 3272 
Q 3641 2581 3239 2228 
Q 2838 1875 2053 1875 
L 1259 1875 
L 1259 0 
L 628 0 
L 628 4666 
z
" transform="scale(0.015625)"/>
      </defs>
      <use xlink:href="#DejaVuSans-52"/>
      <use xlink:href="#DejaVuSans-65" x="64.982422"/>
      <use xlink:href="#DejaVuSans-4c" x="126.505859"/>
      <use xlink:href="#DejaVuSans-55" x="177.21875"/>
      <use xlink:href="#DejaVuSans-2d" x="250.412109"/>
      <use xlink:href="#DejaVuSans-4d" x="286.496094"/>
      <use xlink:href="#DejaVuSans-4c" x="372.775391"/>
      <use xlink:href="#DejaVuSans-50" x="428.488281"/>
     </g>
    </g>
   </g>
  </g>
 </g>
 <defs>
  <clipPath id="p6ecb566062">
   <rect x="58.5" y="38.88" width="362.7" height="249.48"/>
  </clipPath>
 </defs>
</svg>
