<?xml version="1.0" encoding="utf-8" standalone="no"?>
<!DOCTYPE svg PUBLIC "-//W3C//DTD SVG 1.1//EN"
  "http://www.w3.org/Graphics/SVG/1.1/DTD/svg11.dtd">
<svg xmlns:xlink="http://www.w3.org/1999/xlink" width="468pt" height="324pt" viewBox="0 0 468 324" xmlns="http://www.w3.org/2000/svg" version="1.1">
 <metadata>
  <rdf:RDF xmlns:dc="http://purl.org/dc/elements/1.1/" xmlns:cc="http://creativecommons.org/ns#" xmlns:rdf="http://www.w3.org/1999/02/22-rdf-syntax-ns#">
   <cc:Work>
    <dc:type rdf:resource="http://purl.org/dc/dcmitype/StillImage"/>
    <dc:date>2024-05-03T12:12:26.635825</dc:date>
    <dc:format>image/svg+xml</dc:format>
    <dc:creator>
     <cc:Agent>
      <dc:title>Matplotlib v3.5.3, https://matplotlib.org/</dc:title>
     </cc:Agent>
    </dc:creator>
   </cc:Work>
  </rdf:RDF>
 </metadata>
 <defs>
  <style type="text/css">*{stroke-linejoin: round; stroke-linecap: butt}</style>
 </defs>
 <g id="figure_1">
  <g id="patch_1">
   <path d="M 0 324 
L 468 324 
L 468 0 
L 0 0 
z
" style="fill: #ffffff"/>
  </g>
  <g id="axes_1">
   <g id="patch_2">
    <path d="M 58.5 288.36 
L 421.2 288.36 
L 421.2 38.88 
L 58.5 38.88 
z
" style="fill: #ffffff"/>
   </g>
   <g id="PathCollection_1">
    <defs>
     <path id="maabe83de7e" d="M 0 1.5 
C 0.397805 1.5 0.77937 1.341951 1.06066 1.06066 
C 1.341951 0.77937 1.5 0.397805 1.5 0 
C 1.5 -0.397805 1.341951 -0.77937 1.06066 -1.06066 
C 0.77937 -1.341951 0.397805 -1.5 0 -1.5 
C -0.397805 -1.5 -0.77937 -1.341951 -1.06066 -1.06066 
C -1.341951 -0.77937 -1.5 -0.397805 -1.5 0 
C -1.5 0.397805 -1.341951 0.77937 -1.06066 1.06066 
C -0.77937 1.341951 -0.397805 1.5 0 1.5 
z
" style="stroke: #008000"/>
    </defs>
    <g clip-path="url(#p55c3ebf4c3)">
     <use xlink:href="#maabe83de7e" x="150.20406" y="277.02" style="fill: #008000; stroke: #008000"/>
     <use xlink:href="#maabe83de7e" x="157.847659" y="250.711136" style="fill: #008000; stroke: #008000"/>
     <use xlink:href="#maabe83de7e" x="156.710666" y="254.063404" style="fill: #008000; stroke: #008000"/>
     <use xlink:href="#maabe83de7e" x="160.593586" y="242.149432" style="fill: #008000; stroke: #008000"/>
     <use xlink:href="#maabe83de7e" x="166.01582" y="229.263619" style="fill: #008000; stroke: #008000"/>
     <use xlink:href="#maabe83de7e" x="164.822624" y="230.18371" style="fill: #008000; stroke: #008000"/>
     <use xlink:href="#maabe83de7e" x="169.952333" y="225.196319" style="fill: #008000; stroke: #008000"/>
     <use xlink:href="#maabe83de7e" x="170.014662" y="219.013572" style="fill: #008000; stroke: #008000"/>
     <use xlink:href="#maabe83de7e" x="174.36739" y="219.636943" style="fill: #008000; stroke: #008000"/>
     <use xlink:href="#maabe83de7e" x="166.538422" y="226.831576" style="fill: #008000; stroke: #008000"/>
     <use xlink:href="#maabe83de7e" x="169.490993" y="220.91222" style="fill: #008000; stroke: #008000"/>
     <use xlink:href="#maabe83de7e" x="169.616758" y="229.984059" style="fill: #008000; stroke: #008000"/>
     <use xlink:href="#maabe83de7e" x="178.649693" y="207.134011" style="fill: #008000; stroke: #008000"/>
     <use xlink:href="#maabe83de7e" x="177.482053" y="203.366403" style="fill: #008000; stroke: #008000"/>
     <use xlink:href="#maabe83de7e" x="183.927118" y="196.550494" style="fill: #008000; stroke: #008000"/>
     <use xlink:href="#maabe83de7e" x="183.572939" y="200.693225" style="fill: #008000; stroke: #008000"/>
     <use xlink:href="#maabe83de7e" x="184.794401" y="199.25796" style="fill: #008000; stroke: #008000"/>
     <use xlink:href="#maabe83de7e" x="194.597536" y="184.121773" style="fill: #008000; stroke: #008000"/>
     <use xlink:href="#maabe83de7e" x="190.568516" y="189.291573" style="fill: #008000; stroke: #008000"/>
     <use xlink:href="#maabe83de7e" x="190.072142" y="187.313941" style="fill: #008000; stroke: #008000"/>
     <use xlink:href="#maabe83de7e" x="188.318144" y="192.065954" style="fill: #008000; stroke: #008000"/>
     <use xlink:href="#maabe83de7e" x="198.709849" y="177.318508" style="fill: #008000; stroke: #008000"/>
     <use xlink:href="#maabe83de7e" x="199.745856" y="178.203873" style="fill: #008000; stroke: #008000"/>
     <use xlink:href="#maabe83de7e" x="193.793854" y="189.118647" style="fill: #008000; stroke: #008000"/>
     <use xlink:href="#maabe83de7e" x="199.404854" y="184.051705" style="fill: #008000; stroke: #008000"/>
     <use xlink:href="#maabe83de7e" x="202.848647" y="178.691274" style="fill: #008000; stroke: #008000"/>
     <use xlink:href="#maabe83de7e" x="197.528934" y="180.485445" style="fill: #008000; stroke: #008000"/>
     <use xlink:href="#maabe83de7e" x="204.764614" y="178.161383" style="fill: #008000; stroke: #008000"/>
     <use xlink:href="#maabe83de7e" x="213.227229" y="163.71594" style="fill: #008000; stroke: #008000"/>
     <use xlink:href="#maabe83de7e" x="203.497126" y="181.983413" style="fill: #008000; stroke: #008000"/>
     <use xlink:href="#maabe83de7e" x="213.621717" y="167.863371" style="fill: #008000; stroke: #008000"/>
     <use xlink:href="#maabe83de7e" x="221.016037" y="164.458239" style="fill: #008000; stroke: #008000"/>
     <use xlink:href="#maabe83de7e" x="213.227167" y="165.960809" style="fill: #008000; stroke: #008000"/>
     <use xlink:href="#maabe83de7e" x="215.834006" y="164.458236" style="fill: #008000; stroke: #008000"/>
     <use xlink:href="#maabe83de7e" x="220.395078" y="161.914769" style="fill: #008000; stroke: #008000"/>
     <use xlink:href="#maabe83de7e" x="223.504651" y="163.734509" style="fill: #008000; stroke: #008000"/>
     <use xlink:href="#maabe83de7e" x="225.009025" y="161.234674" style="fill: #008000; stroke: #008000"/>
     <use xlink:href="#maabe83de7e" x="219.560826" y="164.543444" style="fill: #008000; stroke: #008000"/>
     <use xlink:href="#maabe83de7e" x="224.422828" y="154.398894" style="fill: #008000; stroke: #008000"/>
     <use xlink:href="#maabe83de7e" x="229.736545" y="156.888122" style="fill: #008000; stroke: #008000"/>
     <use xlink:href="#maabe83de7e" x="230.072016" y="152.212052" style="fill: #008000; stroke: #008000"/>
     <use xlink:href="#maabe83de7e" x="237.674676" y="145.441703" style="fill: #008000; stroke: #008000"/>
     <use xlink:href="#maabe83de7e" x="233.969971" y="154.742667" style="fill: #008000; stroke: #008000"/>
     <use xlink:href="#maabe83de7e" x="235.74227" y="152.283166" style="fill: #008000; stroke: #008000"/>
     <use xlink:href="#maabe83de7e" x="246.307935" y="152.159825" style="fill: #008000; stroke: #008000"/>
     <use xlink:href="#maabe83de7e" x="240.777617" y="148.579055" style="fill: #008000; stroke: #008000"/>
     <use xlink:href="#maabe83de7e" x="239.251492" y="145.222863" style="fill: #008000; stroke: #008000"/>
     <use xlink:href="#maabe83de7e" x="245.001758" y="148.063979" style="fill: #008000; stroke: #008000"/>
     <use xlink:href="#maabe83de7e" x="246.068157" y="142.384469" style="fill: #008000; stroke: #008000"/>
     <use xlink:href="#maabe83de7e" x="251.684704" y="137.38288" style="fill: #008000; stroke: #008000"/>
     <use xlink:href="#maabe83de7e" x="252.643385" y="138.496001" style="fill: #008000; stroke: #008000"/>
     <use xlink:href="#maabe83de7e" x="251.554611" y="142.214625" style="fill: #008000; stroke: #008000"/>
     <use xlink:href="#maabe83de7e" x="253.312216" y="138.626553" style="fill: #008000; stroke: #008000"/>
     <use xlink:href="#maabe83de7e" x="254.704984" y="141.346014" style="fill: #008000; stroke: #008000"/>
     <use xlink:href="#maabe83de7e" x="263.955766" y="135.358732" style="fill: #008000; stroke: #008000"/>
     <use xlink:href="#maabe83de7e" x="268.49245" y="122.157014" style="fill: #008000; stroke: #008000"/>
     <use xlink:href="#maabe83de7e" x="262.41349" y="136.511666" style="fill: #008000; stroke: #008000"/>
     <use xlink:href="#maabe83de7e" x="266.784491" y="134.937424" style="fill: #008000; stroke: #008000"/>
     <use xlink:href="#maabe83de7e" x="267.9475" y="131.085907" style="fill: #008000; stroke: #008000"/>
     <use xlink:href="#maabe83de7e" x="266.526558" y="131.330639" style="fill: #008000; stroke: #008000"/>
     <use xlink:href="#maabe83de7e" x="268.441527" y="128.51107" style="fill: #008000; stroke: #008000"/>
     <use xlink:href="#maabe83de7e" x="270.561979" y="133.325442" style="fill: #008000; stroke: #008000"/>
     <use xlink:href="#maabe83de7e" x="266.925787" y="136.294079" style="fill: #008000; stroke: #008000"/>
     <use xlink:href="#maabe83de7e" x="273.408228" y="132.774528" style="fill: #008000; stroke: #008000"/>
     <use xlink:href="#maabe83de7e" x="280.06217" y="122.930724" style="fill: #008000; stroke: #008000"/>
     <use xlink:href="#maabe83de7e" x="283.838639" y="119.93039" style="fill: #008000; stroke: #008000"/>
     <use xlink:href="#maabe83de7e" x="281.416508" y="128.141447" style="fill: #008000; stroke: #008000"/>
     <use xlink:href="#maabe83de7e" x="282.721252" y="126.588773" style="fill: #008000; stroke: #008000"/>
     <use xlink:href="#maabe83de7e" x="288.618551" y="122.075909" style="fill: #008000; stroke: #008000"/>
     <use xlink:href="#maabe83de7e" x="296.059166" y="122.514364" style="fill: #008000; stroke: #008000"/>
     <use xlink:href="#maabe83de7e" x="286.45438" y="124.861303" style="fill: #008000; stroke: #008000"/>
     <use xlink:href="#maabe83de7e" x="289.008669" y="118.166936" style="fill: #008000; stroke: #008000"/>
     <use xlink:href="#maabe83de7e" x="292.275818" y="125.137097" style="fill: #008000; stroke: #008000"/>
     <use xlink:href="#maabe83de7e" x="298.05392" y="116.538281" style="fill: #008000; stroke: #008000"/>
     <use xlink:href="#maabe83de7e" x="294.57565" y="114.846138" style="fill: #008000; stroke: #008000"/>
     <use xlink:href="#maabe83de7e" x="301.651736" y="120.671866" style="fill: #008000; stroke: #008000"/>
     <use xlink:href="#maabe83de7e" x="299.008721" y="113.331581" style="fill: #008000; stroke: #008000"/>
     <use xlink:href="#maabe83de7e" x="305.943119" y="114.770434" style="fill: #008000; stroke: #008000"/>
     <use xlink:href="#maabe83de7e" x="304.500375" y="117.43395" style="fill: #008000; stroke: #008000"/>
     <use xlink:href="#maabe83de7e" x="306.012692" y="111.3937" style="fill: #008000; stroke: #008000"/>
     <use xlink:href="#maabe83de7e" x="312.798311" y="111.858755" style="fill: #008000; stroke: #008000"/>
     <use xlink:href="#maabe83de7e" x="306.999855" y="115.304433" style="fill: #008000; stroke: #008000"/>
     <use xlink:href="#maabe83de7e" x="310.574411" y="115.229746" style="fill: #008000; stroke: #008000"/>
     <use xlink:href="#maabe83de7e" x="318.340681" y="113.338748" style="fill: #008000; stroke: #008000"/>
     <use xlink:href="#maabe83de7e" x="320.441562" y="111.453705" style="fill: #008000; stroke: #008000"/>
     <use xlink:href="#maabe83de7e" x="320.235813" y="110.319043" style="fill: #008000; stroke: #008000"/>
     <use xlink:href="#maabe83de7e" x="312.90763" y="109.144764" style="fill: #008000; stroke: #008000"/>
     <use xlink:href="#maabe83de7e" x="326.146342" y="108.246319" style="fill: #008000; stroke: #008000"/>
     <use xlink:href="#maabe83de7e" x="326.657552" y="105.956375" style="fill: #008000; stroke: #008000"/>
     <use xlink:href="#maabe83de7e" x="325.95059" y="108.847104" style="fill: #008000; stroke: #008000"/>
     <use xlink:href="#maabe83de7e" x="321.678528" y="107.017502" style="fill: #008000; stroke: #008000"/>
     <use xlink:href="#maabe83de7e" x="334.402353" y="104.699079" style="fill: #008000; stroke: #008000"/>
     <use xlink:href="#maabe83de7e" x="339.92171" y="97.657732" style="fill: #008000; stroke: #008000"/>
     <use xlink:href="#maabe83de7e" x="337.040427" y="102.535367" style="fill: #008000; stroke: #008000"/>
     <use xlink:href="#maabe83de7e" x="342.214068" y="108.282307" style="fill: #008000; stroke: #008000"/>
     <use xlink:href="#maabe83de7e" x="336.464392" y="104.197359" style="fill: #008000; stroke: #008000"/>
     <use xlink:href="#maabe83de7e" x="341.689542" y="103.711783" style="fill: #008000; stroke: #008000"/>
     <use xlink:href="#maabe83de7e" x="340.406235" y="98.715419" style="fill: #008000; stroke: #008000"/>
     <use xlink:href="#maabe83de7e" x="340.544279" y="102.29679" style="fill: #008000; stroke: #008000"/>
     <use xlink:href="#maabe83de7e" x="345.503567" y="97.421714" style="fill: #008000; stroke: #008000"/>
    </g>
   </g>
   <g id="patch_3">
    <path d="M 136.613157 217.025621 
L 130.796723 219.933838 
L 130.796723 217.122562 
L 122.531691 217.122562 
L 122.531691 216.92868 
L 130.796723 216.92868 
L 130.796723 214.117404 
z
" clip-path="url(#p55c3ebf4c3)" style="fill: #ff7f0e; stroke: #ff7f0e; stroke-linejoin: miter"/>
   </g>
   <g id="patch_4">
    <path d="M 122.531691 239.970519 
L 119.623474 234.154085 
L 122.43475 234.154085 
L 122.43475 217.025621 
L 122.628631 217.025621 
L 122.628631 234.154085 
L 125.439908 234.154085 
z
" clip-path="url(#p55c3ebf4c3)" style="fill: #d62728; stroke: #d62728; stroke-linejoin: miter"/>
   </g>
   <g id="patch_5">
    <path d="M 328.301562 103.805932 
L 334.117996 100.897715 
L 334.117996 103.708991 
L 357.168309 103.708991 
L 357.168309 103.902872 
L 334.117996 103.902872 
L 334.117996 106.714149 
z
" clip-path="url(#p55c3ebf4c3)" style="fill: #9467bd; stroke: #9467bd; stroke-linejoin: miter"/>
   </g>
   <g id="patch_6">
    <path d="M 357.168309 50.22 
L 360.076526 56.036434 
L 357.26525 56.036434 
L 357.26525 103.805932 
L 357.071369 103.805932 
L 357.071369 56.036434 
L 354.260092 56.036434 
z
" clip-path="url(#p55c3ebf4c3)" style="fill: #8c564b; stroke: #8c564b; stroke-linejoin: miter"/>
   </g>
   <g id="matplotlib.axis_1">
    <g id="xtick_1">
     <g id="line2d_1">
      <path d="M 85.108044 288.36 
L 85.108044 38.88 
" clip-path="url(#p55c3ebf4c3)" style="fill: none; stroke: #b0b0b0; stroke-width: 0.8; stroke-linecap: square"/>
     </g>
     <g id="line2d_2">
      <defs>
       <path id="m240cf2951c" d="M 0 0 
L 0 3.5 
" style="stroke: #000000; stroke-width: 0.8"/>
      </defs>
      <g>
       <use xlink:href="#m240cf2951c" x="85.108044" y="288.36" style="stroke: #000000; stroke-width: 0.8"/>
      </g>
     </g>
     <g id="text_1">
      <!-- −0.75 -->
      <g transform="translate(69.785388 302.958438)scale(0.1 -0.1)">
       <defs>
        <path id="DejaVuSans-2212" d="M 678 2272 
L 4684 2272 
L 4684 1741 
L 678 1741 
L 678 2272 
z
" transform="scale(0.015625)"/>
        <path id="DejaVuSans-30" d="M 2034 4250 
Q 1547 4250 1301 3770 
Q 1056 3291 1056 2328 
Q 1056 1369 1301 889 
Q 1547 409 2034 409 
Q 2525 409 2770 889 
Q 3016 1369 3016 2328 
Q 3016 3291 2770 3770 
Q 2525 4250 2034 4250 
z
M 2034 4750 
Q 2819 4750 3233 4129 
Q 3647 3509 3647 2328 
Q 3647 1150 3233 529 
Q 2819 -91 2034 -91 
Q 1250 -91 836 529 
Q 422 1150 422 2328 
Q 422 3509 836 4129 
Q 1250 4750 2034 4750 
z
" transform="scale(0.015625)"/>
        <path id="DejaVuSans-2e" d="M 684 794 
L 1344 794 
L 1344 0 
L 684 0 
L 684 794 
z
" transform="scale(0.015625)"/>
        <path id="DejaVuSans-37" d="M 525 4666 
L 3525 4666 
L 3525 4397 
L 1831 0 
L 1172 0 
L 2766 4134 
L 525 4134 
L 525 4666 
z
" transform="scale(0.015625)"/>
        <path id="DejaVuSans-35" d="M 691 4666 
L 3169 4666 
L 3169 4134 
L 1269 4134 
L 1269 2991 
Q 1406 3038 1543 3061 
Q 1681 3084 1819 3084 
Q 2600 3084 3056 2656 
Q 3513 2228 3513 1497 
Q 3513 744 3044 326 
Q 2575 -91 1722 -91 
Q 1428 -91 1123 -41 
Q 819 9 494 109 
L 494 744 
Q 775 591 1075 516 
Q 1375 441 1709 441 
Q 2250 441 2565 725 
Q 2881 1009 2881 1497 
Q 2881 1984 2565 2268 
Q 2250 2553 1709 2553 
Q 1456 2553 1204 2497 
Q 953 2441 691 2322 
L 691 4666 
z
" transform="scale(0.015625)"/>
       </defs>
       <use xlink:href="#DejaVuSans-2212"/>
       <use xlink:href="#DejaVuSans-30" x="83.789062"/>
       <use xlink:href="#DejaVuSans-2e" x="147.412109"/>
       <use xlink:href="#DejaVuSans-37" x="179.199219"/>
       <use xlink:href="#DejaVuSans-35" x="242.822266"/>
      </g>
     </g>
    </g>
    <g id="xtick_2">
     <g id="line2d_3">
      <path d="M 133.578328 288.36 
L 133.578328 38.88 
" clip-path="url(#p55c3ebf4c3)" style="fill: none; stroke: #b0b0b0; stroke-width: 0.8; stroke-linecap: square"/>
     </g>
     <g id="line2d_4">
      <g>
       <use xlink:href="#m240cf2951c" x="133.578328" y="288.36" style="stroke: #000000; stroke-width: 0.8"/>
      </g>
     </g>
     <g id="text_2">
      <!-- −0.50 -->
      <g transform="translate(118.255672 302.958438)scale(0.1 -0.1)">
       <use xlink:href="#DejaVuSans-2212"/>
       <use xlink:href="#DejaVuSans-30" x="83.789062"/>
       <use xlink:href="#DejaVuSans-2e" x="147.412109"/>
       <use xlink:href="#DejaVuSans-35" x="179.199219"/>
       <use xlink:href="#DejaVuSans-30" x="242.822266"/>
      </g>
     </g>
    </g>
    <g id="xtick_3">
     <g id="line2d_5">
      <path d="M 182.048612 288.36 
L 182.048612 38.88 
" clip-path="url(#p55c3ebf4c3)" style="fill: none; stroke: #b0b0b0; stroke-width: 0.8; stroke-linecap: square"/>
     </g>
     <g id="line2d_6">
      <g>
       <use xlink:href="#m240cf2951c" x="182.048612" y="288.36" style="stroke: #000000; stroke-width: 0.8"/>
      </g>
     </g>
     <g id="text_3">
      <!-- −0.25 -->
      <g transform="translate(166.725956 302.958438)scale(0.1 -0.1)">
       <defs>
        <path id="DejaVuSans-32" d="M 1228 531 
L 3431 531 
L 3431 0 
L 469 0 
L 469 531 
Q 828 903 1448 1529 
Q 2069 2156 2228 2338 
Q 2531 2678 2651 2914 
Q 2772 3150 2772 3378 
Q 2772 3750 2511 3984 
Q 2250 4219 1831 4219 
Q 1534 4219 1204 4116 
Q 875 4013 500 3803 
L 500 4441 
Q 881 4594 1212 4672 
Q 1544 4750 1819 4750 
Q 2544 4750 2975 4387 
Q 3406 4025 3406 3419 
Q 3406 3131 3298 2873 
Q 3191 2616 2906 2266 
Q 2828 2175 2409 1742 
Q 1991 1309 1228 531 
z
" transform="scale(0.015625)"/>
       </defs>
       <use xlink:href="#DejaVuSans-2212"/>
       <use xlink:href="#DejaVuSans-30" x="83.789062"/>
       <use xlink:href="#DejaVuSans-2e" x="147.412109"/>
       <use xlink:href="#DejaVuSans-32" x="179.199219"/>
       <use xlink:href="#DejaVuSans-35" x="242.822266"/>
      </g>
     </g>
    </g>
    <g id="xtick_4">
     <g id="line2d_7">
      <path d="M 230.518896 288.36 
L 230.518896 38.88 
" clip-path="url(#p55c3ebf4c3)" style="fill: none; stroke: #b0b0b0; stroke-width: 0.8; stroke-linecap: square"/>
     </g>
     <g id="line2d_8">
      <g>
       <use xlink:href="#m240cf2951c" x="230.518896" y="288.36" style="stroke: #000000; stroke-width: 0.8"/>
      </g>
     </g>
     <g id="text_4">
      <!-- 0.00 -->
      <g transform="translate(219.386084 302.958438)scale(0.1 -0.1)">
       <use xlink:href="#DejaVuSans-30"/>
       <use xlink:href="#DejaVuSans-2e" x="63.623047"/>
       <use xlink:href="#DejaVuSans-30" x="95.410156"/>
       <use xlink:href="#DejaVuSans-30" x="159.033203"/>
      </g>
     </g>
    </g>
    <g id="xtick_5">
     <g id="line2d_9">
      <path d="M 278.98918 288.36 
L 278.98918 38.88 
" clip-path="url(#p55c3ebf4c3)" style="fill: none; stroke: #b0b0b0; stroke-width: 0.8; stroke-linecap: square"/>
     </g>
     <g id="line2d_10">
      <g>
       <use xlink:href="#m240cf2951c" x="278.98918" y="288.36" style="stroke: #000000; stroke-width: 0.8"/>
      </g>
     </g>
     <g id="text_5">
      <!-- 0.25 -->
      <g transform="translate(267.856367 302.958438)scale(0.1 -0.1)">
       <use xlink:href="#DejaVuSans-30"/>
       <use xlink:href="#DejaVuSans-2e" x="63.623047"/>
       <use xlink:href="#DejaVuSans-32" x="95.410156"/>
       <use xlink:href="#DejaVuSans-35" x="159.033203"/>
      </g>
     </g>
    </g>
    <g id="xtick_6">
     <g id="line2d_11">
      <path d="M 327.459464 288.36 
L 327.459464 38.88 
" clip-path="url(#p55c3ebf4c3)" style="fill: none; stroke: #b0b0b0; stroke-width: 0.8; stroke-linecap: square"/>
     </g>
     <g id="line2d_12">
      <g>
       <use xlink:href="#m240cf2951c" x="327.459464" y="288.36" style="stroke: #000000; stroke-width: 0.8"/>
      </g>
     </g>
     <g id="text_6">
      <!-- 0.50 -->
      <g transform="translate(316.326651 302.958438)scale(0.1 -0.1)">
       <use xlink:href="#DejaVuSans-30"/>
       <use xlink:href="#DejaVuSans-2e" x="63.623047"/>
       <use xlink:href="#DejaVuSans-35" x="95.410156"/>
       <use xlink:href="#DejaVuSans-30" x="159.033203"/>
      </g>
     </g>
    </g>
    <g id="xtick_7">
     <g id="line2d_13">
      <path d="M 375.929748 288.36 
L 375.929748 38.88 
" clip-path="url(#p55c3ebf4c3)" style="fill: none; stroke: #b0b0b0; stroke-width: 0.8; stroke-linecap: square"/>
     </g>
     <g id="line2d_14">
      <g>
       <use xlink:href="#m240cf2951c" x="375.929748" y="288.36" style="stroke: #000000; stroke-width: 0.8"/>
      </g>
     </g>
     <g id="text_7">
      <!-- 0.75 -->
      <g transform="translate(364.796935 302.958438)scale(0.1 -0.1)">
       <use xlink:href="#DejaVuSans-30"/>
       <use xlink:href="#DejaVuSans-2e" x="63.623047"/>
       <use xlink:href="#DejaVuSans-37" x="95.410156"/>
       <use xlink:href="#DejaVuSans-35" x="159.033203"/>
      </g>
     </g>
    </g>
   </g>
   <g id="matplotlib.axis_2">
    <g id="ytick_1">
     <g id="line2d_15">
      <path d="M 58.5 263.05573 
L 421.2 263.05573 
" clip-path="url(#p55c3ebf4c3)" style="fill: none; stroke: #b0b0b0; stroke-width: 0.8; stroke-linecap: square"/>
     </g>
     <g id="line2d_16">
      <defs>
       <path id="ma15581fa1b" d="M 0 0 
L -3.5 0 
" style="stroke: #000000; stroke-width: 0.8"/>
      </defs>
      <g>
       <use xlink:href="#ma15581fa1b" x="58.5" y="263.05573" style="stroke: #000000; stroke-width: 0.8"/>
      </g>
     </g>
     <g id="text_8">
      <!-- 0.0 -->
      <g transform="translate(35.596875 266.854948)scale(0.1 -0.1)">
       <use xlink:href="#DejaVuSans-30"/>
       <use xlink:href="#DejaVuSans-2e" x="63.623047"/>
       <use xlink:href="#DejaVuSans-30" x="95.410156"/>
      </g>
     </g>
    </g>
    <g id="ytick_2">
     <g id="line2d_17">
      <path d="M 58.5 224.279503 
L 421.2 224.279503 
" clip-path="url(#p55c3ebf4c3)" style="fill: none; stroke: #b0b0b0; stroke-width: 0.8; stroke-linecap: square"/>
     </g>
     <g id="line2d_18">
      <g>
       <use xlink:href="#ma15581fa1b" x="58.5" y="224.279503" style="stroke: #000000; stroke-width: 0.8"/>
      </g>
     </g>
     <g id="text_9">
      <!-- 0.2 -->
      <g transform="translate(35.596875 228.078721)scale(0.1 -0.1)">
       <use xlink:href="#DejaVuSans-30"/>
       <use xlink:href="#DejaVuSans-2e" x="63.623047"/>
       <use xlink:href="#DejaVuSans-32" x="95.410156"/>
      </g>
     </g>
    </g>
    <g id="ytick_3">
     <g id="line2d_19">
      <path d="M 58.5 185.503275 
L 421.2 185.503275 
" clip-path="url(#p55c3ebf4c3)" style="fill: none; stroke: #b0b0b0; stroke-width: 0.8; stroke-linecap: square"/>
     </g>
     <g id="line2d_20">
      <g>
       <use xlink:href="#ma15581fa1b" x="58.5" y="185.503275" style="stroke: #000000; stroke-width: 0.8"/>
      </g>
     </g>
     <g id="text_10">
      <!-- 0.4 -->
      <g transform="translate(35.596875 189.302494)scale(0.1 -0.1)">
       <defs>
        <path id="DejaVuSans-34" d="M 2419 4116 
L 825 1625 
L 2419 1625 
L 2419 4116 
z
M 2253 4666 
L 3047 4666 
L 3047 1625 
L 3713 1625 
L 3713 1100 
L 3047 1100 
L 3047 0 
L 2419 0 
L 2419 1100 
L 313 1100 
L 313 1709 
L 2253 4666 
z
" transform="scale(0.015625)"/>
       </defs>
       <use xlink:href="#DejaVuSans-30"/>
       <use xlink:href="#DejaVuSans-2e" x="63.623047"/>
       <use xlink:href="#DejaVuSans-34" x="95.410156"/>
      </g>
     </g>
    </g>
    <g id="ytick_4">
     <g id="line2d_21">
      <path d="M 58.5 146.727048 
L 421.2 146.727048 
" clip-path="url(#p55c3ebf4c3)" style="fill: none; stroke: #b0b0b0; stroke-width: 0.8; stroke-linecap: square"/>
     </g>
     <g id="line2d_22">
      <g>
       <use xlink:href="#ma15581fa1b" x="58.5" y="146.727048" style="stroke: #000000; stroke-width: 0.8"/>
      </g>
     </g>
     <g id="text_11">
      <!-- 0.6 -->
      <g transform="translate(35.596875 150.526267)scale(0.1 -0.1)">
       <defs>
        <path id="DejaVuSans-36" d="M 2113 2584 
Q 1688 2584 1439 2293 
Q 1191 2003 1191 1497 
Q 1191 994 1439 701 
Q 1688 409 2113 409 
Q 2538 409 2786 701 
Q 3034 994 3034 1497 
Q 3034 2003 2786 2293 
Q 2538 2584 2113 2584 
z
M 3366 4563 
L 3366 3988 
Q 3128 4100 2886 4159 
Q 2644 4219 2406 4219 
Q 1781 4219 1451 3797 
Q 1122 3375 1075 2522 
Q 1259 2794 1537 2939 
Q 1816 3084 2150 3084 
Q 2853 3084 3261 2657 
Q 3669 2231 3669 1497 
Q 3669 778 3244 343 
Q 2819 -91 2113 -91 
Q 1303 -91 875 529 
Q 447 1150 447 2328 
Q 447 3434 972 4092 
Q 1497 4750 2381 4750 
Q 2619 4750 2861 4703 
Q 3103 4656 3366 4563 
z
" transform="scale(0.015625)"/>
       </defs>
       <use xlink:href="#DejaVuSans-30"/>
       <use xlink:href="#DejaVuSans-2e" x="63.623047"/>
       <use xlink:href="#DejaVuSans-36" x="95.410156"/>
      </g>
     </g>
    </g>
    <g id="ytick_5">
     <g id="line2d_23">
      <path d="M 58.5 107.950821 
L 421.2 107.950821 
" clip-path="url(#p55c3ebf4c3)" style="fill: none; stroke: #b0b0b0; stroke-width: 0.8; stroke-linecap: square"/>
     </g>
     <g id="line2d_24">
      <g>
       <use xlink:href="#ma15581fa1b" x="58.5" y="107.950821" style="stroke: #000000; stroke-width: 0.8"/>
      </g>
     </g>
     <g id="text_12">
      <!-- 0.8 -->
      <g transform="translate(35.596875 111.75004)scale(0.1 -0.1)">
       <defs>
        <path id="DejaVuSans-38" d="M 2034 2216 
Q 1584 2216 1326 1975 
Q 1069 1734 1069 1313 
Q 1069 891 1326 650 
Q 1584 409 2034 409 
Q 2484 409 2743 651 
Q 3003 894 3003 1313 
Q 3003 1734 2745 1975 
Q 2488 2216 2034 2216 
z
M 1403 2484 
Q 997 2584 770 2862 
Q 544 3141 544 3541 
Q 544 4100 942 4425 
Q 1341 4750 2034 4750 
Q 2731 4750 3128 4425 
Q 3525 4100 3525 3541 
Q 3525 3141 3298 2862 
Q 3072 2584 2669 2484 
Q 3125 2378 3379 2068 
Q 3634 1759 3634 1313 
Q 3634 634 3220 271 
Q 2806 -91 2034 -91 
Q 1263 -91 848 271 
Q 434 634 434 1313 
Q 434 1759 690 2068 
Q 947 2378 1403 2484 
z
M 1172 3481 
Q 1172 3119 1398 2916 
Q 1625 2713 2034 2713 
Q 2441 2713 2670 2916 
Q 2900 3119 2900 3481 
Q 2900 3844 2670 4047 
Q 2441 4250 2034 4250 
Q 1625 4250 1398 4047 
Q 1172 3844 1172 3481 
z
" transform="scale(0.015625)"/>
       </defs>
       <use xlink:href="#DejaVuSans-30"/>
       <use xlink:href="#DejaVuSans-2e" x="63.623047"/>
       <use xlink:href="#DejaVuSans-38" x="95.410156"/>
      </g>
     </g>
    </g>
    <g id="ytick_6">
     <g id="line2d_25">
      <path d="M 58.5 69.174594 
L 421.2 69.174594 
" clip-path="url(#p55c3ebf4c3)" style="fill: none; stroke: #b0b0b0; stroke-width: 0.8; stroke-linecap: square"/>
     </g>
     <g id="line2d_26">
      <g>
       <use xlink:href="#ma15581fa1b" x="58.5" y="69.174594" style="stroke: #000000; stroke-width: 0.8"/>
      </g>
     </g>
     <g id="text_13">
      <!-- 1.0 -->
      <g transform="translate(35.596875 72.973813)scale(0.1 -0.1)">
       <defs>
        <path id="DejaVuSans-31" d="M 794 531 
L 1825 531 
L 1825 4091 
L 703 3866 
L 703 4441 
L 1819 4666 
L 2450 4666 
L 2450 531 
L 3481 531 
L 3481 0 
L 794 0 
L 794 531 
z
" transform="scale(0.015625)"/>
       </defs>
       <use xlink:href="#DejaVuSans-31"/>
       <use xlink:href="#DejaVuSans-2e" x="63.623047"/>
       <use xlink:href="#DejaVuSans-30" x="95.410156"/>
      </g>
     </g>
    </g>
   </g>
   <g id="patch_7">
    <path d="M 58.5 288.36 
L 58.5 38.88 
" style="fill: none; stroke: #000000; stroke-width: 0.8; stroke-linejoin: miter; stroke-linecap: square"/>
   </g>
   <g id="patch_8">
    <path d="M 421.2 288.36 
L 421.2 38.88 
" style="fill: none; stroke: #000000; stroke-width: 0.8; stroke-linejoin: miter; stroke-linecap: square"/>
   </g>
   <g id="patch_9">
    <path d="M 58.5 288.36 
L 421.2 288.36 
" style="fill: none; stroke: #000000; stroke-width: 0.8; stroke-linejoin: miter; stroke-linecap: square"/>
   </g>
   <g id="patch_10">
    <path d="M 58.5 38.88 
L 421.2 38.88 
" style="fill: none; stroke: #000000; stroke-width: 0.8; stroke-linejoin: miter; stroke-linecap: square"/>
   </g>
   <g id="legend_1">
    <g id="patch_11">
     <path d="M 65.5 134.989375 
L 127.104688 134.989375 
Q 129.104688 134.989375 129.104688 132.989375 
L 129.104688 45.88 
Q 129.104688 43.88 127.104688 43.88 
L 65.5 43.88 
Q 63.5 43.88 63.5 45.88 
L 63.5 132.989375 
Q 63.5 134.989375 65.5 134.989375 
z
" style="fill: #ffffff; opacity: 0.8; stroke: #cccccc; stroke-linejoin: miter"/>
    </g>
    <g id="PathCollection_2">
     <g>
      <use xlink:href="#maabe83de7e" x="77.5" y="52.853437" style="fill: #008000; stroke: #008000"/>
     </g>
    </g>
    <g id="text_14">
     <!-- data -->
     <g transform="translate(95.5 55.478437)scale(0.1 -0.1)">
      <defs>
       <path id="DejaVuSans-64" d="M 2906 2969 
L 2906 4863 
L 3481 4863 
L 3481 0 
L 2906 0 
L 2906 525 
Q 2725 213 2448 61 
Q 2172 -91 1784 -91 
Q 1150 -91 751 415 
Q 353 922 353 1747 
Q 353 2572 751 3078 
Q 1150 3584 1784 3584 
Q 2172 3584 2448 3432 
Q 2725 3281 2906 2969 
z
M 947 1747 
Q 947 1113 1208 752 
Q 1469 391 1925 391 
Q 2381 391 2643 752 
Q 2906 1113 2906 1747 
Q 2906 2381 2643 2742 
Q 2381 3103 1925 3103 
Q 1469 3103 1208 2742 
Q 947 2381 947 1747 
z
" transform="scale(0.015625)"/>
       <path id="DejaVuSans-61" d="M 2194 1759 
Q 1497 1759 1228 1600 
Q 959 1441 959 1056 
Q 959 750 1161 570 
Q 1363 391 1709 391 
Q 2188 391 2477 730 
Q 2766 1069 2766 1631 
L 2766 1759 
L 2194 1759 
z
M 3341 1997 
L 3341 0 
L 2766 0 
L 2766 531 
Q 2569 213 2275 61 
Q 1981 -91 1556 -91 
Q 1019 -91 701 211 
Q 384 513 384 1019 
Q 384 1609 779 1909 
Q 1175 2209 1959 2209 
L 2766 2209 
L 2766 2266 
Q 2766 2663 2505 2880 
Q 2244 3097 1772 3097 
Q 1472 3097 1187 3025 
Q 903 2953 641 2809 
L 641 3341 
Q 956 3463 1253 3523 
Q 1550 3584 1831 3584 
Q 2591 3584 2966 3190 
Q 3341 2797 3341 1997 
z
" transform="scale(0.015625)"/>
       <path id="DejaVuSans-74" d="M 1172 4494 
L 1172 3500 
L 2356 3500 
L 2356 3053 
L 1172 3053 
L 1172 1153 
Q 1172 725 1289 603 
Q 1406 481 1766 481 
L 2356 481 
L 2356 0 
L 1766 0 
Q 1100 0 847 248 
Q 594 497 594 1153 
L 594 3053 
L 172 3053 
L 172 3500 
L 594 3500 
L 594 4494 
L 1172 4494 
z
" transform="scale(0.015625)"/>
      </defs>
      <use xlink:href="#DejaVuSans-64"/>
      <use xlink:href="#DejaVuSans-61" x="63.476562"/>
      <use xlink:href="#DejaVuSans-74" x="124.755859"/>
      <use xlink:href="#DejaVuSans-61" x="163.964844"/>
     </g>
    </g>
    <g id="line2d_27">
     <path d="M 67.5 66.656562 
L 77.5 66.656562 
L 87.5 66.656562 
" style="fill: none; stroke: #1f77b4; stroke-width: 1.5; stroke-linecap: square"/>
     <defs>
      <path id="mdc4743b1fb" d="M 0 3 
C 0.795609 3 1.55874 2.683901 2.12132 2.12132 
C 2.683901 1.55874 3 0.795609 3 0 
C 3 -0.795609 2.683901 -1.55874 2.12132 -2.12132 
C 1.55874 -2.683901 0.795609 -3 0 -3 
C -0.795609 -3 -1.55874 -2.683901 -2.12132 -2.12132 
C -2.683901 -1.55874 -3 -0.795609 -3 0 
C -3 0.795609 -2.683901 1.55874 -2.12132 2.12132 
C -1.55874 2.683901 -0.795609 3 0 3 
z
" style="stroke: #1f77b4"/>
     </defs>
     <g>
      <use xlink:href="#mdc4743b1fb" x="77.5" y="66.656562" style="fill: #1f77b4; stroke: #1f77b4"/>
     </g>
    </g>
    <g id="text_15">
     <!-- spline -->
     <g transform="translate(95.5 70.156562)scale(0.1 -0.1)">
      <defs>
       <path id="DejaVuSans-73" d="M 2834 3397 
L 2834 2853 
Q 2591 2978 2328 3040 
Q 2066 3103 1784 3103 
Q 1356 3103 1142 2972 
Q 928 2841 928 2578 
Q 928 2378 1081 2264 
Q 1234 2150 1697 2047 
L 1894 2003 
Q 2506 1872 2764 1633 
Q 3022 1394 3022 966 
Q 3022 478 2636 193 
Q 2250 -91 1575 -91 
Q 1294 -91 989 -36 
Q 684 19 347 128 
L 347 722 
Q 666 556 975 473 
Q 1284 391 1588 391 
Q 1994 391 2212 530 
Q 2431 669 2431 922 
Q 2431 1156 2273 1281 
Q 2116 1406 1581 1522 
L 1381 1569 
Q 847 1681 609 1914 
Q 372 2147 372 2553 
Q 372 3047 722 3315 
Q 1072 3584 1716 3584 
Q 2034 3584 2315 3537 
Q 2597 3491 2834 3397 
z
" transform="scale(0.015625)"/>
       <path id="DejaVuSans-70" d="M 1159 525 
L 1159 -1331 
L 581 -1331 
L 581 3500 
L 1159 3500 
L 1159 2969 
Q 1341 3281 1617 3432 
Q 1894 3584 2278 3584 
Q 2916 3584 3314 3078 
Q 3713 2572 3713 1747 
Q 3713 922 3314 415 
Q 2916 -91 2278 -91 
Q 1894 -91 1617 61 
Q 1341 213 1159 525 
z
M 3116 1747 
Q 3116 2381 2855 2742 
Q 2594 3103 2138 3103 
Q 1681 3103 1420 2742 
Q 1159 2381 1159 1747 
Q 1159 1113 1420 752 
Q 1681 391 2138 391 
Q 2594 391 2855 752 
Q 3116 1113 3116 1747 
z
" transform="scale(0.015625)"/>
       <path id="DejaVuSans-6c" d="M 603 4863 
L 1178 4863 
L 1178 0 
L 603 0 
L 603 4863 
z
" transform="scale(0.015625)"/>
       <path id="DejaVuSans-69" d="M 603 3500 
L 1178 3500 
L 1178 0 
L 603 0 
L 603 3500 
z
M 603 4863 
L 1178 4863 
L 1178 4134 
L 603 4134 
L 603 4863 
z
" transform="scale(0.015625)"/>
       <path id="DejaVuSans-6e" d="M 3513 2113 
L 3513 0 
L 2938 0 
L 2938 2094 
Q 2938 2591 2744 2837 
Q 2550 3084 2163 3084 
Q 1697 3084 1428 2787 
Q 1159 2491 1159 1978 
L 1159 0 
L 581 0 
L 581 3500 
L 1159 3500 
L 1159 2956 
Q 1366 3272 1645 3428 
Q 1925 3584 2291 3584 
Q 2894 3584 3203 3211 
Q 3513 2838 3513 2113 
z
" transform="scale(0.015625)"/>
       <path id="DejaVuSans-65" d="M 3597 1894 
L 3597 1613 
L 953 1613 
Q 991 1019 1311 708 
Q 1631 397 2203 397 
Q 2534 397 2845 478 
Q 3156 559 3463 722 
L 3463 178 
Q 3153 47 2828 -22 
Q 2503 -91 2169 -91 
Q 1331 -91 842 396 
Q 353 884 353 1716 
Q 353 2575 817 3079 
Q 1281 3584 2069 3584 
Q 2775 3584 3186 3129 
Q 3597 2675 3597 1894 
z
M 3022 2063 
Q 3016 2534 2758 2815 
Q 2500 3097 2075 3097 
Q 1594 3097 1305 2825 
Q 1016 2553 972 2059 
L 3022 2063 
z
" transform="scale(0.015625)"/>
      </defs>
      <use xlink:href="#DejaVuSans-73"/>
      <use xlink:href="#DejaVuSans-70" x="52.099609"/>
      <use xlink:href="#DejaVuSans-6c" x="115.576172"/>
      <use xlink:href="#DejaVuSans-69" x="143.359375"/>
      <use xlink:href="#DejaVuSans-6e" x="171.142578"/>
      <use xlink:href="#DejaVuSans-65" x="234.521484"/>
     </g>
    </g>
    <g id="patch_12">
     <path d="M 87.5 81.334687 
L 79.625 83.959687 
L 79.625 81.335187 
L 67.5 81.335187 
L 67.5 81.334187 
L 79.625 81.334187 
L 79.625 78.709687 
z
" style="fill: #ff7f0e; stroke: #ff7f0e; stroke-linejoin: miter"/>
    </g>
    <g id="text_16">
     <!-- $-\Delta x_0$ -->
     <g transform="translate(95.5 84.834687)scale(0.1 -0.1)">
      <defs>
       <path id="DejaVuSans-394" d="M 2188 4044 
L 906 525 
L 3472 525 
L 2188 4044 
z
M 50 0 
L 1831 4666 
L 2547 4666 
L 4325 0 
L 50 0 
z
" transform="scale(0.015625)"/>
       <path id="DejaVuSans-Oblique-78" d="M 3841 3500 
L 2234 1784 
L 3219 0 
L 2559 0 
L 1819 1388 
L 531 0 
L -166 0 
L 1556 1844 
L 641 3500 
L 1300 3500 
L 1972 2234 
L 3144 3500 
L 3841 3500 
z
" transform="scale(0.015625)"/>
      </defs>
      <use xlink:href="#DejaVuSans-2212" transform="translate(0 0.09375)"/>
      <use xlink:href="#DejaVuSans-394" transform="translate(83.789062 0.09375)"/>
      <use xlink:href="#DejaVuSans-Oblique-78" transform="translate(152.197266 0.09375)"/>
      <use xlink:href="#DejaVuSans-30" transform="translate(211.376953 -16.3125)scale(0.7)"/>
     </g>
    </g>
    <g id="patch_13">
     <path d="M 87.5 96.012812 
L 79.625 98.637812 
L 79.625 96.013312 
L 67.5 96.013312 
L 67.5 96.012312 
L 79.625 96.012312 
L 79.625 93.387812 
z
" style="fill: #d62728; stroke: #d62728; stroke-linejoin: miter"/>
    </g>
    <g id="text_17">
     <!-- $-\Delta y_0$ -->
     <g transform="translate(95.5 99.512812)scale(0.1 -0.1)">
      <defs>
       <path id="DejaVuSans-Oblique-79" d="M 1588 -325 
Q 1188 -997 936 -1164 
Q 684 -1331 294 -1331 
L -159 -1331 
L -63 -850 
L 269 -850 
Q 509 -850 678 -719 
Q 847 -588 1056 -206 
L 1234 128 
L 459 3500 
L 1069 3500 
L 1650 819 
L 3256 3500 
L 3859 3500 
L 1588 -325 
z
" transform="scale(0.015625)"/>
      </defs>
      <use xlink:href="#DejaVuSans-2212" transform="translate(0 0.09375)"/>
      <use xlink:href="#DejaVuSans-394" transform="translate(83.789062 0.09375)"/>
      <use xlink:href="#DejaVuSans-Oblique-79" transform="translate(152.197266 0.09375)"/>
      <use xlink:href="#DejaVuSans-30" transform="translate(211.376953 -16.3125)scale(0.7)"/>
     </g>
    </g>
    <g id="patch_14">
     <path d="M 87.5 110.71125 
L 79.625 113.33625 
L 79.625 110.71175 
L 67.5 110.71175 
L 67.5 110.71075 
L 79.625 110.71075 
L 79.625 108.08625 
z
" style="fill: #9467bd; stroke: #9467bd; stroke-linejoin: miter"/>
    </g>
    <g id="text_18">
     <!-- $-\Delta x_1$ -->
     <g transform="translate(95.5 114.21125)scale(0.1 -0.1)">
      <use xlink:href="#DejaVuSans-2212" transform="translate(0 0.09375)"/>
      <use xlink:href="#DejaVuSans-394" transform="translate(83.789062 0.09375)"/>
      <use xlink:href="#DejaVuSans-Oblique-78" transform="translate(152.197266 0.09375)"/>
      <use xlink:href="#DejaVuSans-31" transform="translate(211.376953 -16.3125)scale(0.7)"/>
     </g>
    </g>
    <g id="patch_15">
     <path d="M 87.5 125.389375 
L 79.625 128.014375 
L 79.625 125.389875 
L 67.5 125.389875 
L 67.5 125.388875 
L 79.625 125.388875 
L 79.625 122.764375 
z
" style="fill: #8c564b; stroke: #8c564b; stroke-linejoin: miter"/>
    </g>
    <g id="text_19">
     <!-- $-\Delta y_1$ -->
     <g transform="translate(95.5 128.889375)scale(0.1 -0.1)">
      <use xlink:href="#DejaVuSans-2212" transform="translate(0 0.09375)"/>
      <use xlink:href="#DejaVuSans-394" transform="translate(83.789062 0.09375)"/>
      <use xlink:href="#DejaVuSans-Oblique-79" transform="translate(152.197266 0.09375)"/>
      <use xlink:href="#DejaVuSans-31" transform="translate(211.376953 -16.3125)scale(0.7)"/>
     </g>
    </g>
   </g>
   <g id="line2d_28">
    <path d="M 122.531691 217.025621 
L 357.168309 103.805932 
" clip-path="url(#p55c3ebf4c3)" style="fill: none; stroke: #1f77b4; stroke-width: 1.5; stroke-linecap: square"/>
    <g clip-path="url(#p55c3ebf4c3)">
     <use xlink:href="#mdc4743b1fb" x="122.531691" y="217.025621" style="fill: #1f77b4; stroke: #1f77b4"/>
     <use xlink:href="#mdc4743b1fb" x="357.168309" y="103.805932" style="fill: #1f77b4; stroke: #1f77b4"/>
    </g>
   </g>
   <g id="text_20">
    <!-- ($x_0$, $y_0$) -->
    <g style="fill: #1f77b4" transform="translate(107.0212 203.453942)scale(0.1 -0.1)">
     <defs>
      <path id="DejaVuSans-28" d="M 1984 4856 
Q 1566 4138 1362 3434 
Q 1159 2731 1159 2009 
Q 1159 1288 1364 580 
Q 1569 -128 1984 -844 
L 1484 -844 
Q 1016 -109 783 600 
Q 550 1309 550 2009 
Q 550 2706 781 3412 
Q 1013 4119 1484 4856 
L 1984 4856 
z
" transform="scale(0.015625)"/>
      <path id="DejaVuSans-2c" d="M 750 794 
L 1409 794 
L 1409 256 
L 897 -744 
L 494 -744 
L 750 256 
L 750 794 
z
" transform="scale(0.015625)"/>
      <path id="DejaVuSans-20" transform="scale(0.015625)"/>
      <path id="DejaVuSans-29" d="M 513 4856 
L 1013 4856 
Q 1481 4119 1714 3412 
Q 1947 2706 1947 2009 
Q 1947 1309 1714 600 
Q 1481 -109 1013 -844 
L 513 -844 
Q 928 -128 1133 580 
Q 1338 1288 1338 2009 
Q 1338 2731 1133 3434 
Q 928 4138 513 4856 
z
" transform="scale(0.015625)"/>
     </defs>
     <use xlink:href="#DejaVuSans-28" transform="translate(0 0.125)"/>
     <use xlink:href="#DejaVuSans-Oblique-78" transform="translate(39.013672 0.125)"/>
     <use xlink:href="#DejaVuSans-30" transform="translate(98.193359 -16.28125)scale(0.7)"/>
     <use xlink:href="#DejaVuSans-2c" transform="translate(145.463867 0.125)"/>
     <use xlink:href="#DejaVuSans-20" transform="translate(177.250977 0.125)"/>
     <use xlink:href="#DejaVuSans-Oblique-79" transform="translate(209.038086 0.125)"/>
     <use xlink:href="#DejaVuSans-30" transform="translate(268.217773 -16.28125)scale(0.7)"/>
     <use xlink:href="#DejaVuSans-29" transform="translate(315.488281 0.125)"/>
    </g>
   </g>
   <g id="text_21">
    <!-- ($x_1$, $y_1$) -->
    <g style="fill: #1f77b4" transform="translate(347.474253 117.377611)scale(0.1 -0.1)">
     <use xlink:href="#DejaVuSans-28" transform="translate(0 0.125)"/>
     <use xlink:href="#DejaVuSans-Oblique-78" transform="translate(39.013672 0.125)"/>
     <use xlink:href="#DejaVuSans-31" transform="translate(98.193359 -16.28125)scale(0.7)"/>
     <use xlink:href="#DejaVuSans-2c" transform="translate(145.463867 0.125)"/>
     <use xlink:href="#DejaVuSans-20" transform="translate(177.250977 0.125)"/>
     <use xlink:href="#DejaVuSans-Oblique-79" transform="translate(209.038086 0.125)"/>
     <use xlink:href="#DejaVuSans-31" transform="translate(268.217773 -16.28125)scale(0.7)"/>
     <use xlink:href="#DejaVuSans-29" transform="translate(315.488281 0.125)"/>
    </g>
   </g>
  </g>
 </g>
 <defs>
  <clipPath id="p55c3ebf4c3">
   <rect x="58.5" y="38.88" width="362.7" height="249.48"/>
  </clipPath>
 </defs>
</svg>
