<svg version="1.1" viewBox="0.0 0.0 488.90813648293965 487.95538057742783" fill="none" stroke="none" stroke-linecap="square" stroke-miterlimit="10" xmlns:xlink="http://www.w3.org/1999/xlink" xmlns="http://www.w3.org/2000/svg"><clipPath id="p.0"><path d="m0 0l488.90814 0l0 487.95538l-488.90814 0l0 -487.95538z" clip-rule="nonzero"/></clipPath><g clip-path="url(#p.0)"><path fill="#000000" fill-opacity="0.0" d="m0 0l488.90814 0l0 487.95538l-488.90814 0z" fill-rule="evenodd"/><path fill="#cfe2f3" d="m53.213554 182.93086l0 0c0 -3.835556 3.1093292 -6.9448853 6.9448814 -6.9448853l0 0c1.841896 0 3.6083565 0.73168945 4.9107704 2.0341187c1.3024216 1.302414 2.034111 3.0688782 2.034111 4.9107666l0 0c0 3.835556 -3.1093292 6.9448853 -6.9448814 6.9448853l0 0c-3.8355522 0 -6.9448814 -3.1093292 -6.9448814 -6.9448853z" fill-rule="evenodd"/><path stroke="#3d85c6" stroke-width="8.0" stroke-linejoin="round" stroke-linecap="butt" d="m53.213554 182.93086l0 0c0 -3.835556 3.1093292 -6.9448853 6.9448814 -6.9448853l0 0c1.841896 0 3.6083565 0.73168945 4.9107704 2.0341187c1.3024216 1.302414 2.034111 3.0688782 2.034111 4.9107666l0 0c0 3.835556 -3.1093292 6.9448853 -6.9448814 6.9448853l0 0c-3.8355522 0 -6.9448814 -3.1093292 -6.9448814 -6.9448853z" fill-rule="evenodd"/><path fill="#cfe2f3" d="m54.622555 303.88586l0 0c0 -3.8355713 3.1093292 -6.9448853 6.9448814 -6.9448853l0 0c1.8418999 0 3.6083527 0.73168945 4.910774 2.0340881c1.3024216 1.3024292 2.034111 3.0688782 2.034111 4.910797l0 0c0 3.8355408 -3.1093292 6.9448853 -6.9448853 6.9448853l0 0c-3.8355522 0 -6.9448814 -3.1093445 -6.9448814 -6.9448853z" fill-rule="evenodd"/><path stroke="#3d85c6" stroke-width="8.0" stroke-linejoin="round" stroke-linecap="butt" d="m54.622555 303.88586l0 0c0 -3.8355713 3.1093292 -6.9448853 6.9448814 -6.9448853l0 0c1.8418999 0 3.6083527 0.73168945 4.910774 2.0340881c1.3024216 1.3024292 2.034111 3.0688782 2.034111 4.910797l0 0c0 3.8355408 -3.1093292 6.9448853 -6.9448853 6.9448853l0 0c-3.8355522 0 -6.9448814 -3.1093445 -6.9448814 -6.9448853z" fill-rule="evenodd"/><path fill="#cfe2f3" d="m237.21355 308.11285l0 0c0 -3.8355408 3.1093292 -6.9448853 6.9448853 -6.9448853l0 0c1.8419037 0 3.6083527 0.73168945 4.910782 2.0341187c1.302414 1.3024292 2.0341034 3.0688782 2.0341034 4.9107666l0 0c0 3.8355713 -3.1093292 6.9448853 -6.9448853 6.9448853l0 0c-3.835556 0 -6.9448853 -3.109314 -6.9448853 -6.9448853z" fill-rule="evenodd"/><path stroke="#3d85c6" stroke-width="8.0" stroke-linejoin="round" stroke-linecap="butt" d="m237.21355 308.11285l0 0c0 -3.8355408 3.1093292 -6.9448853 6.9448853 -6.9448853l0 0c1.8419037 0 3.6083527 0.73168945 4.910782 2.0341187c1.302414 1.3024292 2.0341034 3.0688782 2.0341034 4.9107666l0 0c0 3.8355713 -3.1093292 6.9448853 -6.9448853 6.9448853l0 0c-3.835556 0 -6.9448853 -3.109314 -6.9448853 -6.9448853z" fill-rule="evenodd"/><path fill="#cfe2f3" d="m237.21355 428.11285l0 0c0 -3.8355408 3.1093292 -6.9448853 6.9448853 -6.9448853l0 0c1.8419037 0 3.6083527 0.73168945 4.910782 2.0341187c1.302414 1.3024292 2.0341034 3.0688782 2.0341034 4.9107666l0 0c0 3.8355713 -3.1093292 6.9448853 -6.9448853 6.9448853l0 0c-3.835556 0 -6.9448853 -3.109314 -6.9448853 -6.9448853z" fill-rule="evenodd"/><path stroke="#3d85c6" stroke-width="8.0" stroke-linejoin="round" stroke-linecap="butt" d="m237.21355 428.11285l0 0c0 -3.8355408 3.1093292 -6.9448853 6.9448853 -6.9448853l0 0c1.8419037 0 3.6083527 0.73168945 4.910782 2.0341187c1.302414 1.3024292 2.0341034 3.0688782 2.0341034 4.9107666l0 0c0 3.8355713 -3.1093292 6.9448853 -6.9448853 6.9448853l0 0c-3.835556 0 -6.9448853 -3.109314 -6.9448853 -6.9448853z" fill-rule="evenodd"/><path fill="#cfe2f3" d="m239.57755 182.93086l0 0c0 -3.835556 3.1093292 -6.9448853 6.9448853 -6.9448853l0 0c1.8418884 0 3.6083527 0.73168945 4.9107666 2.0341187c1.3024292 1.302414 2.0341187 3.0688782 2.0341187 4.9107666l0 0c0 3.835556 -3.1093292 6.9448853 -6.9448853 6.9448853l0 0c-3.835556 0 -6.9448853 -3.1093292 -6.9448853 -6.9448853z" fill-rule="evenodd"/><path stroke="#3d85c6" stroke-width="8.0" stroke-linejoin="round" stroke-linecap="butt" d="m239.57755 182.93086l0 0c0 -3.835556 3.1093292 -6.9448853 6.9448853 -6.9448853l0 0c1.8418884 0 3.6083527 0.73168945 4.9107666 2.0341187c1.3024292 1.302414 2.0341187 3.0688782 2.0341187 4.9107666l0 0c0 3.835556 -3.1093292 6.9448853 -6.9448853 6.9448853l0 0c-3.835556 0 -6.9448853 -3.1093292 -6.9448853 -6.9448853z" fill-rule="evenodd"/><path fill="#cfe2f3" d="m239.57755 60.11286l0 0c0 -3.8355522 3.1093292 -6.9448814 6.9448853 -6.9448814l0 0c1.8418884 0 3.6083527 0.73168945 4.9107666 2.0341072c1.3024292 1.3024178 2.0341187 3.0688782 2.0341187 4.910774l0 0c0 3.8355522 -3.1093292 6.9448776 -6.9448853 6.9448776l0 0c-3.835556 0 -6.9448853 -3.1093254 -6.9448853 -6.9448776z" fill-rule="evenodd"/><path stroke="#3d85c6" stroke-width="8.0" stroke-linejoin="round" stroke-linecap="butt" d="m239.57755 60.11286l0 0c0 -3.8355522 3.1093292 -6.9448814 6.9448853 -6.9448814l0 0c1.8418884 0 3.6083527 0.73168945 4.9107666 2.0341072c1.3024292 1.3024178 2.0341187 3.0688782 2.0341187 4.910774l0 0c0 3.8355522 -3.1093292 6.9448776 -6.9448853 6.9448776l0 0c-3.835556 0 -6.9448853 -3.1093254 -6.9448853 -6.9448776z" fill-rule="evenodd"/><path fill="#cfe2f3" d="m422.62256 243.15787l0 0c0 -3.835556 3.109314 -6.9448853 6.9448853 -6.9448853l0 0c1.8418884 0 3.6083374 0.73168945 4.9107666 2.0341187c1.3024292 1.302414 2.0341187 3.0688782 2.0341187 4.9107666l0 0c0 3.835556 -3.1093445 6.9448853 -6.9448853 6.9448853l0 0c-3.8355713 0 -6.9448853 -3.1093292 -6.9448853 -6.9448853z" fill-rule="evenodd"/><path stroke="#3d85c6" stroke-width="8.0" stroke-linejoin="round" stroke-linecap="butt" d="m422.62256 243.15787l0 0c0 -3.835556 3.109314 -6.9448853 6.9448853 -6.9448853l0 0c1.8418884 0 3.6083374 0.73168945 4.9107666 2.0341187c1.3024292 1.302414 2.0341187 3.0688782 2.0341187 4.9107666l0 0c0 3.835556 -3.1093445 6.9448853 -6.9448853 6.9448853l0 0c-3.8355713 0 -6.9448853 -3.1093292 -6.9448853 -6.9448853z" fill-rule="evenodd"/><path fill="#000000" fill-opacity="0.0" d="m65.05786 178.03412l174.51968 -117.92126" fill-rule="evenodd"/><path stroke="#3d85c6" stroke-width="8.0" stroke-linejoin="round" stroke-linecap="butt" d="m65.05786 178.03412l174.51968 -117.92126" fill-rule="evenodd"/><path fill="#000000" fill-opacity="0.0" d="m62.168934 183.53018l188.81891 0" fill-rule="evenodd"/><path stroke="#3d85c6" stroke-width="8.0" stroke-linejoin="round" stroke-linecap="butt" d="m62.168934 183.53018l188.81891 0" fill-rule="evenodd"/><path fill="#000000" fill-opacity="0.0" d="m64.98521 306.11285l183.18109 0" fill-rule="evenodd"/><path stroke="#3d85c6" stroke-width="8.0" stroke-linejoin="round" stroke-linecap="butt" d="m64.98521 306.11285l183.18109 0" fill-rule="evenodd"/><path fill="#000000" fill-opacity="0.0" d="m63.578384 304.7034l181.76378 124.0" fill-rule="evenodd"/><path stroke="#3d85c6" stroke-width="8.0" stroke-linejoin="round" stroke-linecap="butt" d="m63.578384 304.7034l181.76378 124.0" fill-rule="evenodd"/><path fill="#000000" fill-opacity="0.0" d="m60.759487 304.7034l185.98425 -119.77951" fill-rule="evenodd"/><path stroke="#3d85c6" stroke-width="8.0" stroke-linejoin="round" stroke-linecap="butt" d="m60.759487 304.7034l185.98425 -119.77951" fill-rule="evenodd"/><path fill="#000000" fill-opacity="0.0" d="m62.168934 303.2966l184.56694 -243.74805" fill-rule="evenodd"/><path stroke="#3d85c6" stroke-width="8.0" stroke-linejoin="round" stroke-linecap="butt" d="m62.168934 303.2966l184.56694 -243.74805" fill-rule="evenodd"/><path fill="#000000" fill-opacity="0.0" d="m62.168934 183.53018l180.34647 122.58267" fill-rule="evenodd"/><path stroke="#3d85c6" stroke-width="8.0" stroke-linejoin="round" stroke-linecap="butt" d="m62.168934 183.53018l180.34647 122.58267" fill-rule="evenodd"/><path fill="#000000" fill-opacity="0.0" d="m62.168934 184.93964l183.1811 243.74802" fill-rule="evenodd"/><path stroke="#3d85c6" stroke-width="8.0" stroke-linejoin="round" stroke-linecap="butt" d="m62.168934 184.93964l183.1811 243.74802" fill-rule="evenodd"/><path fill="#000000" fill-opacity="0.0" d="m248.1558 60.947506l183.1811 181.76378" fill-rule="evenodd"/><path stroke="#3d85c6" stroke-width="8.0" stroke-linejoin="round" stroke-linecap="butt" d="m248.1558 60.947506l183.1811 181.76378" fill-rule="evenodd"/><path fill="#000000" fill-opacity="0.0" d="m246.749 184.93964l185.98425 57.76378" fill-rule="evenodd"/><path stroke="#3d85c6" stroke-width="8.0" stroke-linejoin="round" stroke-linecap="butt" d="m246.749 184.93964l185.98425 57.76378" fill-rule="evenodd"/><path fill="#000000" fill-opacity="0.0" d="m245.33954 307.5223l185.98425 -63.40158" fill-rule="evenodd"/><path stroke="#3d85c6" stroke-width="8.0" stroke-linejoin="round" stroke-linecap="butt" d="m245.33954 307.5223l185.98425 -63.40158" fill-rule="evenodd"/><path fill="#000000" fill-opacity="0.0" d="m245.33954 428.69553l185.98425 -183.18109" fill-rule="evenodd"/><path stroke="#3d85c6" stroke-width="8.0" stroke-linejoin="round" stroke-linecap="butt" d="m245.33954 428.69553l185.98425 -183.18109" fill-rule="evenodd"/><path fill="#3d85c6" d="m207.29755 180.91602l0 0c0 -21.012924 17.034332 -38.047256 38.04724 -38.047256l0 0c10.090759 0 19.768219 4.008545 26.903473 11.143784c7.1352234 7.1352386 11.143768 16.812714 11.143768 26.903473l0 0c0 21.012909 -17.034332 38.04724 -38.04724 38.04724l0 0c-21.012909 0 -38.04724 -17.034332 -38.04724 -38.04724z" fill-rule="evenodd"/><path stroke="#3d85c6" stroke-width="8.0" stroke-linejoin="round" stroke-linecap="butt" d="m207.29755 180.91602l0 0c0 -21.012924 17.034332 -38.047256 38.04724 -38.047256l0 0c10.090759 0 19.768219 4.008545 26.903473 11.143784c7.1352234 7.1352386 11.143768 16.812714 11.143768 26.903473l0 0c0 21.012909 -17.034332 38.04724 -38.04724 38.04724l0 0c-21.012909 0 -38.04724 -17.034332 -38.04724 -38.04724z" fill-rule="evenodd"/><path fill="#3d85c6" d="m207.29755 304.0l0 0c0 -21.012909 17.034332 -38.04724 38.04724 -38.04724l0 0c10.090759 0 19.768219 4.008545 26.903473 11.143768c7.1352234 7.135254 11.143768 16.812714 11.143768 26.903473l0 0c0 21.012909 -17.034332 38.04724 -38.04724 38.04724l0 0c-21.012909 0 -38.04724 -17.034332 -38.04724 -38.04724z" fill-rule="evenodd"/><path stroke="#3d85c6" stroke-width="8.0" stroke-linejoin="round" stroke-linecap="butt" d="m207.29755 304.0l0 0c0 -21.012909 17.034332 -38.04724 38.04724 -38.04724l0 0c10.090759 0 19.768219 4.008545 26.903473 11.143768c7.1352234 7.135254 11.143768 16.812714 11.143768 26.903473l0 0c0 21.012909 -17.034332 38.04724 -38.04724 38.04724l0 0c-21.012909 0 -38.04724 -17.034332 -38.04724 -38.04724z" fill-rule="evenodd"/><path fill="#3d85c6" d="m207.29755 427.08398l0 0c0 -21.012909 17.034332 -38.04724 38.04724 -38.04724l0 0c10.090759 0 19.768219 4.008545 26.903473 11.143768c7.1352234 7.135254 11.143768 16.812714 11.143768 26.903473l0 0c0 21.012909 -17.034332 38.04724 -38.04724 38.04724l0 0c-21.012909 0 -38.04724 -17.034332 -38.04724 -38.04724z" fill-rule="evenodd"/><path stroke="#3d85c6" stroke-width="8.0" stroke-linejoin="round" stroke-linecap="butt" d="m207.29755 427.08398l0 0c0 -21.012909 17.034332 -38.04724 38.04724 -38.04724l0 0c10.090759 0 19.768219 4.008545 26.903473 11.143768c7.1352234 7.135254 11.143768 16.812714 11.143768 26.903473l0 0c0 21.012909 -17.034332 38.04724 -38.04724 38.04724l0 0c-21.012909 0 -38.04724 -17.034332 -38.04724 -38.04724z" fill-rule="evenodd"/><path fill="#3d85c6" d="m23.297543 304.0l0 0c0 -21.012909 17.034332 -38.04724 38.047245 -38.04724l0 0c10.090759 0 19.768219 4.008545 26.903465 11.143768c7.1352386 7.135254 11.143776 16.812714 11.143776 26.903473l0 0c0 21.012909 -17.034332 38.04724 -38.04724 38.04724l0 0c-21.012913 0 -38.047245 -17.034332 -38.047245 -38.04724z" fill-rule="evenodd"/><path stroke="#3d85c6" stroke-width="8.0" stroke-linejoin="round" stroke-linecap="butt" d="m23.297543 304.0l0 0c0 -21.012909 17.034332 -38.04724 38.047245 -38.04724l0 0c10.090759 0 19.768219 4.008545 26.903465 11.143768c7.1352386 7.135254 11.143776 16.812714 11.143776 26.903473l0 0c0 21.012909 -17.034332 38.04724 -38.04724 38.04724l0 0c-21.012913 0 -38.047245 -17.034332 -38.047245 -38.04724z" fill-rule="evenodd"/><path fill="#3d85c6" d="m207.29755 57.83202l0 0c0 -21.012913 17.034332 -38.04724 38.04724 -38.04724l0 0c10.090759 0 19.768219 4.0085373 26.903473 11.14378c7.1352234 7.1352444 11.143768 16.812708 11.143768 26.903463l0 0c0 21.012913 -17.034332 38.047245 -38.04724 38.047245l0 0c-21.012909 0 -38.04724 -17.034332 -38.04724 -38.047245z" fill-rule="evenodd"/><path stroke="#3d85c6" stroke-width="8.0" stroke-linejoin="round" stroke-linecap="butt" d="m207.29755 57.83202l0 0c0 -21.012913 17.034332 -38.04724 38.04724 -38.04724l0 0c10.090759 0 19.768219 4.0085373 26.903473 11.14378c7.1352234 7.1352444 11.143768 16.812708 11.143768 26.903463l0 0c0 21.012913 -17.034332 38.047245 -38.04724 38.047245l0 0c-21.012909 0 -38.04724 -17.034332 -38.04724 -38.047245z" fill-rule="evenodd"/><path fill="#3d85c6" d="m391.29755 241.0971l0 0c0 -21.012909 17.034332 -38.04724 38.04724 -38.04724l0 0c10.090759 0 19.768219 4.008545 26.903473 11.143784c7.1352234 7.1352386 11.143768 16.812714 11.143768 26.903458l0 0c0 21.012909 -17.034332 38.04724 -38.04724 38.04724l0 0c-21.012909 0 -38.04724 -17.034332 -38.04724 -38.04724z" fill-rule="evenodd"/><path stroke="#3d85c6" stroke-width="8.0" stroke-linejoin="round" stroke-linecap="butt" d="m391.29755 241.0971l0 0c0 -21.012909 17.034332 -38.04724 38.04724 -38.04724l0 0c10.090759 0 19.768219 4.008545 26.903473 11.143784c7.1352234 7.1352386 11.143768 16.812714 11.143768 26.903458l0 0c0 21.012909 -17.034332 38.04724 -38.04724 38.04724l0 0c-21.012909 0 -38.04724 -17.034332 -38.04724 -38.04724z" fill-rule="evenodd"/><path fill="#3d85c6" d="m23.297543 180.9169l0 0c0 -21.012909 17.034332 -38.04724 38.047245 -38.04724l0 0c10.090759 0 19.768219 4.008545 26.903465 11.143784c7.1352386 7.1352386 11.143776 16.812698 11.143776 26.903458l0 0c0 21.012909 -17.034332 38.04724 -38.04724 38.04724l0 0c-21.012913 0 -38.047245 -17.034332 -38.047245 -38.04724z" fill-rule="evenodd"/><path stroke="#3d85c6" stroke-width="8.0" stroke-linejoin="round" stroke-linecap="butt" d="m23.297543 180.9169l0 0c0 -21.012909 17.034332 -38.04724 38.047245 -38.04724l0 0c10.090759 0 19.768219 4.008545 26.903465 11.143784c7.1352386 7.1352386 11.143776 16.812698 11.143776 26.903458l0 0c0 21.012909 -17.034332 38.04724 -38.04724 38.04724l0 0c-21.012913 0 -38.047245 -17.034332 -38.047245 -38.04724z" fill-rule="evenodd"/></g></svg>