<?xml version="1.0" encoding="utf-8" standalone="no"?>
<!DOCTYPE svg PUBLIC "-//W3C//DTD SVG 1.1//EN"
  "http://www.w3.org/Graphics/SVG/1.1/DTD/svg11.dtd">
<!-- Created with matplotlib (https://matplotlib.org/) -->
<svg height="288pt" version="1.1" viewBox="0 0 432 288" width="432pt" xmlns="http://www.w3.org/2000/svg" xmlns:xlink="http://www.w3.org/1999/xlink">
 <defs>
  <style type="text/css">
*{stroke-linecap:butt;stroke-linejoin:round;}
  </style>
 </defs>
 <g id="figure_1">
  <g id="patch_1">
   <path d="M 0 288 
L 432 288 
L 432 0 
L 0 0 
z
" style="fill:#ffffff;"/>
  </g>
  <g id="axes_1">
   <g id="patch_2">
    <path d="M 54 252 
L 388.8 252 
L 388.8 34.56 
L 54 34.56 
z
" style="fill:#ffffff;"/>
   </g>
   <g id="PathCollection_1">
    <defs>
     <path d="M 0 3.535534 
C 0.937635 3.535534 1.836992 3.163008 2.5 2.5 
C 3.163008 1.836992 3.535534 0.937635 3.535534 0 
C 3.535534 -0.937635 3.163008 -1.836992 2.5 -2.5 
C 1.836992 -3.163008 0.937635 -3.535534 0 -3.535534 
C -0.937635 -3.535534 -1.836992 -3.163008 -2.5 -2.5 
C -3.163008 -1.836992 -3.535534 -0.937635 -3.535534 0 
C -3.535534 0.937635 -3.163008 1.836992 -2.5 2.5 
C -1.836992 3.163008 -0.937635 3.535534 0 3.535534 
z
" id="C0_0_34295fe0a9"/>
    </defs>
    <g clip-path="url(#p0764d37466)">
     <use style="fill:#fde725;stroke:#000000;stroke-width:0.5;" x="217.869894" xlink:href="#C0_0_34295fe0a9" y="52.68"/>
    </g>
    <g clip-path="url(#p0764d37466)">
     <use style="fill:#fde725;stroke:#000000;stroke-width:0.5;" x="170.660366" xlink:href="#C0_0_34295fe0a9" y="52.68"/>
    </g>
    <g clip-path="url(#p0764d37466)">
     <use style="fill:#440154;stroke:#000000;stroke-width:0.5;" x="299.816361" xlink:href="#C0_0_34295fe0a9" y="233.88"/>
    </g>
    <g clip-path="url(#p0764d37466)">
     <use style="fill:#440154;stroke:#000000;stroke-width:0.5;" x="251.706016" xlink:href="#C0_0_34295fe0a9" y="233.88"/>
    </g>
    <g clip-path="url(#p0764d37466)">
     <use style="fill:#fde725;stroke:#000000;stroke-width:0.5;" x="227.051053" xlink:href="#C0_0_34295fe0a9" y="52.68"/>
    </g>
    <g clip-path="url(#p0764d37466)">
     <use style="fill:#440154;stroke:#000000;stroke-width:0.5;" x="258.817048" xlink:href="#C0_0_34295fe0a9" y="233.88"/>
    </g>
    <g clip-path="url(#p0764d37466)">
     <use style="fill:#fde725;stroke:#000000;stroke-width:0.5;" x="169.788743" xlink:href="#C0_0_34295fe0a9" y="52.68"/>
    </g>
    <g clip-path="url(#p0764d37466)">
     <use style="fill:#440154;stroke:#000000;stroke-width:0.5;" x="338.185056" xlink:href="#C0_0_34295fe0a9" y="233.88"/>
    </g>
    <g clip-path="url(#p0764d37466)">
     <use style="fill:#fde725;stroke:#000000;stroke-width:0.5;" x="155.036978" xlink:href="#C0_0_34295fe0a9" y="52.68"/>
    </g>
    <g clip-path="url(#p0764d37466)">
     <use style="fill:#440154;stroke:#000000;stroke-width:0.5;" x="360.9" xlink:href="#C0_0_34295fe0a9" y="233.88"/>
    </g>
    <g clip-path="url(#p0764d37466)">
     <use style="fill:#440154;stroke:#000000;stroke-width:0.5;" x="218.547079" xlink:href="#C0_0_34295fe0a9" y="233.88"/>
    </g>
    <g clip-path="url(#p0764d37466)">
     <use style="fill:#fde725;stroke:#000000;stroke-width:0.5;" x="137.843804" xlink:href="#C0_0_34295fe0a9" y="52.68"/>
    </g>
    <g clip-path="url(#p0764d37466)">
     <use style="fill:#fde725;stroke:#000000;stroke-width:0.5;" x="166.733064" xlink:href="#C0_0_34295fe0a9" y="52.68"/>
    </g>
    <g clip-path="url(#p0764d37466)">
     <use style="fill:#fde725;stroke:#000000;stroke-width:0.5;" x="157.35818" xlink:href="#C0_0_34295fe0a9" y="52.68"/>
    </g>
    <g clip-path="url(#p0764d37466)">
     <use style="fill:#fde725;stroke:#000000;stroke-width:0.5;" x="81.9" xlink:href="#C0_0_34295fe0a9" y="52.68"/>
    </g>
    <g clip-path="url(#p0764d37466)">
     <use style="fill:#440154;stroke:#000000;stroke-width:0.5;" x="280.36782" xlink:href="#C0_0_34295fe0a9" y="233.88"/>
    </g>
    <g clip-path="url(#p0764d37466)">
     <use style="fill:#440154;stroke:#000000;stroke-width:0.5;" x="206.60454" xlink:href="#C0_0_34295fe0a9" y="233.88"/>
    </g>
    <g clip-path="url(#p0764d37466)">
     <use style="fill:#440154;stroke:#000000;stroke-width:0.5;" x="298.555877" xlink:href="#C0_0_34295fe0a9" y="233.88"/>
    </g>
    <g clip-path="url(#p0764d37466)">
     <use style="fill:#fde725;stroke:#000000;stroke-width:0.5;" x="155.8094" xlink:href="#C0_0_34295fe0a9" y="52.68"/>
    </g>
    <g clip-path="url(#p0764d37466)">
     <use style="fill:#440154;stroke:#000000;stroke-width:0.5;" x="275.583854" xlink:href="#C0_0_34295fe0a9" y="233.88"/>
    </g>
    <g clip-path="url(#p0764d37466)">
     <use style="fill:#fde725;stroke:#000000;stroke-width:0.5;" x="168.404126" xlink:href="#C0_0_34295fe0a9" y="52.68"/>
    </g>
    <g clip-path="url(#p0764d37466)">
     <use style="fill:#fde725;stroke:#000000;stroke-width:0.5;" x="125.353667" xlink:href="#C0_0_34295fe0a9" y="52.68"/>
    </g>
    <g clip-path="url(#p0764d37466)">
     <use style="fill:#440154;stroke:#000000;stroke-width:0.5;" x="242.083357" xlink:href="#C0_0_34295fe0a9" y="233.88"/>
    </g>
    <g clip-path="url(#p0764d37466)">
     <use style="fill:#440154;stroke:#000000;stroke-width:0.5;" x="249.362519" xlink:href="#C0_0_34295fe0a9" y="233.88"/>
    </g>
    <g clip-path="url(#p0764d37466)">
     <use style="fill:#440154;stroke:#000000;stroke-width:0.5;" x="260.262837" xlink:href="#C0_0_34295fe0a9" y="233.88"/>
    </g>
    <g clip-path="url(#p0764d37466)">
     <use style="fill:#440154;stroke:#000000;stroke-width:0.5;" x="321.974028" xlink:href="#C0_0_34295fe0a9" y="233.88"/>
    </g>
    <g clip-path="url(#p0764d37466)">
     <use style="fill:#440154;stroke:#000000;stroke-width:0.5;" x="281.348829" xlink:href="#C0_0_34295fe0a9" y="233.88"/>
    </g>
    <g clip-path="url(#p0764d37466)">
     <use style="fill:#440154;stroke:#000000;stroke-width:0.5;" x="237.645759" xlink:href="#C0_0_34295fe0a9" y="233.88"/>
    </g>
    <g clip-path="url(#p0764d37466)">
     <use style="fill:#fde725;stroke:#000000;stroke-width:0.5;" x="101.644286" xlink:href="#C0_0_34295fe0a9" y="52.68"/>
    </g>
    <g clip-path="url(#p0764d37466)">
     <use style="fill:#fde725;stroke:#000000;stroke-width:0.5;" x="153.454612" xlink:href="#C0_0_34295fe0a9" y="52.68"/>
    </g>
    <g clip-path="url(#p0764d37466)">
     <use style="fill:#fde725;stroke:#000000;stroke-width:0.5;" x="193.59649" xlink:href="#C0_0_34295fe0a9" y="52.68"/>
    </g>
    <g clip-path="url(#p0764d37466)">
     <use style="fill:#fde725;stroke:#000000;stroke-width:0.5;" x="184.218547" xlink:href="#C0_0_34295fe0a9" y="52.68"/>
    </g>
    <g clip-path="url(#p0764d37466)">
     <use style="fill:#fde725;stroke:#000000;stroke-width:0.5;" x="244.478512" xlink:href="#C0_0_34295fe0a9" y="52.68"/>
    </g>
    <g clip-path="url(#p0764d37466)">
     <use style="fill:#440154;stroke:#000000;stroke-width:0.5;" x="246.583105" xlink:href="#C0_0_34295fe0a9" y="233.88"/>
    </g>
    <g clip-path="url(#p0764d37466)">
     <use style="fill:#440154;stroke:#000000;stroke-width:0.5;" x="254.976879" xlink:href="#C0_0_34295fe0a9" y="233.88"/>
    </g>
    <g clip-path="url(#p0764d37466)">
     <use style="fill:#fde725;stroke:#000000;stroke-width:0.5;" x="179.639837" xlink:href="#C0_0_34295fe0a9" y="52.68"/>
    </g>
    <g clip-path="url(#p0764d37466)">
     <use style="fill:#fde725;stroke:#000000;stroke-width:0.5;" x="161.38461" xlink:href="#C0_0_34295fe0a9" y="52.68"/>
    </g>
    <g clip-path="url(#p0764d37466)">
     <use style="fill:#fde725;stroke:#000000;stroke-width:0.5;" x="137.318439" xlink:href="#C0_0_34295fe0a9" y="52.68"/>
    </g>
    <g clip-path="url(#p0764d37466)">
     <use style="fill:#fde725;stroke:#000000;stroke-width:0.5;" x="188.033198" xlink:href="#C0_0_34295fe0a9" y="52.68"/>
    </g>
    <g clip-path="url(#p0764d37466)">
     <use style="fill:#440154;stroke:#000000;stroke-width:0.5;" x="300.248256" xlink:href="#C0_0_34295fe0a9" y="233.88"/>
    </g>
    <g clip-path="url(#p0764d37466)">
     <use style="fill:#440154;stroke:#000000;stroke-width:0.5;" x="282.481694" xlink:href="#C0_0_34295fe0a9" y="233.88"/>
    </g>
    <g clip-path="url(#p0764d37466)">
     <use style="fill:#fde725;stroke:#000000;stroke-width:0.5;" x="201.587699" xlink:href="#C0_0_34295fe0a9" y="52.68"/>
    </g>
    <g clip-path="url(#p0764d37466)">
     <use style="fill:#440154;stroke:#000000;stroke-width:0.5;" x="269.229057" xlink:href="#C0_0_34295fe0a9" y="233.88"/>
    </g>
    <g clip-path="url(#p0764d37466)">
     <use style="fill:#440154;stroke:#000000;stroke-width:0.5;" x="272.805191" xlink:href="#C0_0_34295fe0a9" y="233.88"/>
    </g>
    <g clip-path="url(#p0764d37466)">
     <use style="fill:#fde725;stroke:#000000;stroke-width:0.5;" x="117.214351" xlink:href="#C0_0_34295fe0a9" y="52.68"/>
    </g>
    <g clip-path="url(#p0764d37466)">
     <use style="fill:#440154;stroke:#000000;stroke-width:0.5;" x="289.973855" xlink:href="#C0_0_34295fe0a9" y="233.88"/>
    </g>
    <g clip-path="url(#p0764d37466)">
     <use style="fill:#440154;stroke:#000000;stroke-width:0.5;" x="250.439134" xlink:href="#C0_0_34295fe0a9" y="233.88"/>
    </g>
    <g clip-path="url(#p0764d37466)">
     <use style="fill:#fde725;stroke:#000000;stroke-width:0.5;" x="214.105395" xlink:href="#C0_0_34295fe0a9" y="52.68"/>
    </g>
    <g clip-path="url(#p0764d37466)">
     <use style="fill:#fde725;stroke:#000000;stroke-width:0.5;" x="185.629495" xlink:href="#C0_0_34295fe0a9" y="52.68"/>
    </g>
    <g clip-path="url(#p0764d37466)">
     <use style="fill:#440154;stroke:#000000;stroke-width:0.5;" x="244.172958" xlink:href="#C0_0_34295fe0a9" y="233.88"/>
    </g>
   </g>
   <g id="matplotlib.axis_1">
    <g id="xtick_1">
     <g id="line2d_1">
      <path clip-path="url(#p0764d37466)" d="M 81.9 252 
L 81.9 34.56 
" style="fill:none;stroke:#b0b0b0;stroke-linecap:square;stroke-width:0.8;"/>
     </g>
     <g id="line2d_2">
      <defs>
       <path d="M 0 0 
L 0 3.5 
" id="m41beed9e7b" style="stroke:#000000;stroke-width:0.8;"/>
      </defs>
      <g>
       <use style="stroke:#000000;stroke-width:0.8;" x="81.9" xlink:href="#m41beed9e7b" y="252"/>
      </g>
     </g>
     <g id="text_1">
      <!-- 0.0 -->
      <defs>
       <path d="M 31.78125 66.40625 
Q 24.171875 66.40625 20.328125 58.90625 
Q 16.5 51.421875 16.5 36.375 
Q 16.5 21.390625 20.328125 13.890625 
Q 24.171875 6.390625 31.78125 6.390625 
Q 39.453125 6.390625 43.28125 13.890625 
Q 47.125 21.390625 47.125 36.375 
Q 47.125 51.421875 43.28125 58.90625 
Q 39.453125 66.40625 31.78125 66.40625 
z
M 31.78125 74.21875 
Q 44.046875 74.21875 50.515625 64.515625 
Q 56.984375 54.828125 56.984375 36.375 
Q 56.984375 17.96875 50.515625 8.265625 
Q 44.046875 -1.421875 31.78125 -1.421875 
Q 19.53125 -1.421875 13.0625 8.265625 
Q 6.59375 17.96875 6.59375 36.375 
Q 6.59375 54.828125 13.0625 64.515625 
Q 19.53125 74.21875 31.78125 74.21875 
z
" id="DejaVuSans-48"/>
       <path d="M 10.6875 12.40625 
L 21 12.40625 
L 21 0 
L 10.6875 0 
z
" id="DejaVuSans-46"/>
      </defs>
      <g transform="translate(73.948438 266.598437)scale(0.1 -0.1)">
       <use xlink:href="#DejaVuSans-48"/>
       <use x="63.623047" xlink:href="#DejaVuSans-46"/>
       <use x="95.410156" xlink:href="#DejaVuSans-48"/>
      </g>
     </g>
    </g>
    <g id="xtick_2">
     <g id="line2d_3">
      <path clip-path="url(#p0764d37466)" d="M 137.7 252 
L 137.7 34.56 
" style="fill:none;stroke:#b0b0b0;stroke-linecap:square;stroke-width:0.8;"/>
     </g>
     <g id="line2d_4">
      <g>
       <use style="stroke:#000000;stroke-width:0.8;" x="137.7" xlink:href="#m41beed9e7b" y="252"/>
      </g>
     </g>
     <g id="text_2">
      <!-- 0.2 -->
      <defs>
       <path d="M 19.1875 8.296875 
L 53.609375 8.296875 
L 53.609375 0 
L 7.328125 0 
L 7.328125 8.296875 
Q 12.9375 14.109375 22.625 23.890625 
Q 32.328125 33.6875 34.8125 36.53125 
Q 39.546875 41.84375 41.421875 45.53125 
Q 43.3125 49.21875 43.3125 52.78125 
Q 43.3125 58.59375 39.234375 62.25 
Q 35.15625 65.921875 28.609375 65.921875 
Q 23.96875 65.921875 18.8125 64.3125 
Q 13.671875 62.703125 7.8125 59.421875 
L 7.8125 69.390625 
Q 13.765625 71.78125 18.9375 73 
Q 24.125 74.21875 28.421875 74.21875 
Q 39.75 74.21875 46.484375 68.546875 
Q 53.21875 62.890625 53.21875 53.421875 
Q 53.21875 48.921875 51.53125 44.890625 
Q 49.859375 40.875 45.40625 35.40625 
Q 44.1875 33.984375 37.640625 27.21875 
Q 31.109375 20.453125 19.1875 8.296875 
z
" id="DejaVuSans-50"/>
      </defs>
      <g transform="translate(129.748438 266.598437)scale(0.1 -0.1)">
       <use xlink:href="#DejaVuSans-48"/>
       <use x="63.623047" xlink:href="#DejaVuSans-46"/>
       <use x="95.410156" xlink:href="#DejaVuSans-50"/>
      </g>
     </g>
    </g>
    <g id="xtick_3">
     <g id="line2d_5">
      <path clip-path="url(#p0764d37466)" d="M 193.5 252 
L 193.5 34.56 
" style="fill:none;stroke:#b0b0b0;stroke-linecap:square;stroke-width:0.8;"/>
     </g>
     <g id="line2d_6">
      <g>
       <use style="stroke:#000000;stroke-width:0.8;" x="193.5" xlink:href="#m41beed9e7b" y="252"/>
      </g>
     </g>
     <g id="text_3">
      <!-- 0.4 -->
      <defs>
       <path d="M 37.796875 64.3125 
L 12.890625 25.390625 
L 37.796875 25.390625 
z
M 35.203125 72.90625 
L 47.609375 72.90625 
L 47.609375 25.390625 
L 58.015625 25.390625 
L 58.015625 17.1875 
L 47.609375 17.1875 
L 47.609375 0 
L 37.796875 0 
L 37.796875 17.1875 
L 4.890625 17.1875 
L 4.890625 26.703125 
z
" id="DejaVuSans-52"/>
      </defs>
      <g transform="translate(185.548438 266.598437)scale(0.1 -0.1)">
       <use xlink:href="#DejaVuSans-48"/>
       <use x="63.623047" xlink:href="#DejaVuSans-46"/>
       <use x="95.410156" xlink:href="#DejaVuSans-52"/>
      </g>
     </g>
    </g>
    <g id="xtick_4">
     <g id="line2d_7">
      <path clip-path="url(#p0764d37466)" d="M 249.3 252 
L 249.3 34.56 
" style="fill:none;stroke:#b0b0b0;stroke-linecap:square;stroke-width:0.8;"/>
     </g>
     <g id="line2d_8">
      <g>
       <use style="stroke:#000000;stroke-width:0.8;" x="249.3" xlink:href="#m41beed9e7b" y="252"/>
      </g>
     </g>
     <g id="text_4">
      <!-- 0.6 -->
      <defs>
       <path d="M 33.015625 40.375 
Q 26.375 40.375 22.484375 35.828125 
Q 18.609375 31.296875 18.609375 23.390625 
Q 18.609375 15.53125 22.484375 10.953125 
Q 26.375 6.390625 33.015625 6.390625 
Q 39.65625 6.390625 43.53125 10.953125 
Q 47.40625 15.53125 47.40625 23.390625 
Q 47.40625 31.296875 43.53125 35.828125 
Q 39.65625 40.375 33.015625 40.375 
z
M 52.59375 71.296875 
L 52.59375 62.3125 
Q 48.875 64.0625 45.09375 64.984375 
Q 41.3125 65.921875 37.59375 65.921875 
Q 27.828125 65.921875 22.671875 59.328125 
Q 17.53125 52.734375 16.796875 39.40625 
Q 19.671875 43.65625 24.015625 45.921875 
Q 28.375 48.1875 33.59375 48.1875 
Q 44.578125 48.1875 50.953125 41.515625 
Q 57.328125 34.859375 57.328125 23.390625 
Q 57.328125 12.15625 50.6875 5.359375 
Q 44.046875 -1.421875 33.015625 -1.421875 
Q 20.359375 -1.421875 13.671875 8.265625 
Q 6.984375 17.96875 6.984375 36.375 
Q 6.984375 53.65625 15.1875 63.9375 
Q 23.390625 74.21875 37.203125 74.21875 
Q 40.921875 74.21875 44.703125 73.484375 
Q 48.484375 72.75 52.59375 71.296875 
z
" id="DejaVuSans-54"/>
      </defs>
      <g transform="translate(241.348438 266.598437)scale(0.1 -0.1)">
       <use xlink:href="#DejaVuSans-48"/>
       <use x="63.623047" xlink:href="#DejaVuSans-46"/>
       <use x="95.410156" xlink:href="#DejaVuSans-54"/>
      </g>
     </g>
    </g>
    <g id="xtick_5">
     <g id="line2d_9">
      <path clip-path="url(#p0764d37466)" d="M 305.1 252 
L 305.1 34.56 
" style="fill:none;stroke:#b0b0b0;stroke-linecap:square;stroke-width:0.8;"/>
     </g>
     <g id="line2d_10">
      <g>
       <use style="stroke:#000000;stroke-width:0.8;" x="305.1" xlink:href="#m41beed9e7b" y="252"/>
      </g>
     </g>
     <g id="text_5">
      <!-- 0.8 -->
      <defs>
       <path d="M 31.78125 34.625 
Q 24.75 34.625 20.71875 30.859375 
Q 16.703125 27.09375 16.703125 20.515625 
Q 16.703125 13.921875 20.71875 10.15625 
Q 24.75 6.390625 31.78125 6.390625 
Q 38.8125 6.390625 42.859375 10.171875 
Q 46.921875 13.96875 46.921875 20.515625 
Q 46.921875 27.09375 42.890625 30.859375 
Q 38.875 34.625 31.78125 34.625 
z
M 21.921875 38.8125 
Q 15.578125 40.375 12.03125 44.71875 
Q 8.5 49.078125 8.5 55.328125 
Q 8.5 64.0625 14.71875 69.140625 
Q 20.953125 74.21875 31.78125 74.21875 
Q 42.671875 74.21875 48.875 69.140625 
Q 55.078125 64.0625 55.078125 55.328125 
Q 55.078125 49.078125 51.53125 44.71875 
Q 48 40.375 41.703125 38.8125 
Q 48.828125 37.15625 52.796875 32.3125 
Q 56.78125 27.484375 56.78125 20.515625 
Q 56.78125 9.90625 50.3125 4.234375 
Q 43.84375 -1.421875 31.78125 -1.421875 
Q 19.734375 -1.421875 13.25 4.234375 
Q 6.78125 9.90625 6.78125 20.515625 
Q 6.78125 27.484375 10.78125 32.3125 
Q 14.796875 37.15625 21.921875 38.8125 
z
M 18.3125 54.390625 
Q 18.3125 48.734375 21.84375 45.5625 
Q 25.390625 42.390625 31.78125 42.390625 
Q 38.140625 42.390625 41.71875 45.5625 
Q 45.3125 48.734375 45.3125 54.390625 
Q 45.3125 60.0625 41.71875 63.234375 
Q 38.140625 66.40625 31.78125 66.40625 
Q 25.390625 66.40625 21.84375 63.234375 
Q 18.3125 60.0625 18.3125 54.390625 
z
" id="DejaVuSans-56"/>
      </defs>
      <g transform="translate(297.148438 266.598437)scale(0.1 -0.1)">
       <use xlink:href="#DejaVuSans-48"/>
       <use x="63.623047" xlink:href="#DejaVuSans-46"/>
       <use x="95.410156" xlink:href="#DejaVuSans-56"/>
      </g>
     </g>
    </g>
    <g id="xtick_6">
     <g id="line2d_11">
      <path clip-path="url(#p0764d37466)" d="M 360.9 252 
L 360.9 34.56 
" style="fill:none;stroke:#b0b0b0;stroke-linecap:square;stroke-width:0.8;"/>
     </g>
     <g id="line2d_12">
      <g>
       <use style="stroke:#000000;stroke-width:0.8;" x="360.9" xlink:href="#m41beed9e7b" y="252"/>
      </g>
     </g>
     <g id="text_6">
      <!-- 1.0 -->
      <defs>
       <path d="M 12.40625 8.296875 
L 28.515625 8.296875 
L 28.515625 63.921875 
L 10.984375 60.40625 
L 10.984375 69.390625 
L 28.421875 72.90625 
L 38.28125 72.90625 
L 38.28125 8.296875 
L 54.390625 8.296875 
L 54.390625 0 
L 12.40625 0 
z
" id="DejaVuSans-49"/>
      </defs>
      <g transform="translate(352.948438 266.598437)scale(0.1 -0.1)">
       <use xlink:href="#DejaVuSans-49"/>
       <use x="63.623047" xlink:href="#DejaVuSans-46"/>
       <use x="95.410156" xlink:href="#DejaVuSans-48"/>
      </g>
     </g>
    </g>
    <g id="text_7">
     <!-- X -->
     <defs>
      <path d="M 6.296875 72.90625 
L 16.890625 72.90625 
L 35.015625 45.796875 
L 53.21875 72.90625 
L 63.8125 72.90625 
L 40.375 37.890625 
L 65.375 0 
L 54.78125 0 
L 34.28125 31 
L 13.625 0 
L 2.984375 0 
L 29 38.921875 
z
" id="DejaVuSans-88"/>
     </defs>
     <g transform="translate(217.975 280.276563)scale(0.1 -0.1)">
      <use xlink:href="#DejaVuSans-88"/>
     </g>
    </g>
   </g>
   <g id="matplotlib.axis_2">
    <g id="ytick_1">
     <g id="line2d_13">
      <path clip-path="url(#p0764d37466)" d="M 54 233.88 
L 388.8 233.88 
" style="fill:none;stroke:#b0b0b0;stroke-linecap:square;stroke-width:0.8;"/>
     </g>
     <g id="line2d_14">
      <defs>
       <path d="M 0 0 
L -3.5 0 
" id="m5511c3247f" style="stroke:#000000;stroke-width:0.8;"/>
      </defs>
      <g>
       <use style="stroke:#000000;stroke-width:0.8;" x="54" xlink:href="#m5511c3247f" y="233.88"/>
      </g>
     </g>
     <g id="text_8">
      <!-- 0.0 -->
      <g transform="translate(31.096875 237.679219)scale(0.1 -0.1)">
       <use xlink:href="#DejaVuSans-48"/>
       <use x="63.623047" xlink:href="#DejaVuSans-46"/>
       <use x="95.410156" xlink:href="#DejaVuSans-48"/>
      </g>
     </g>
    </g>
    <g id="ytick_2">
     <g id="line2d_15">
      <path clip-path="url(#p0764d37466)" d="M 54 197.64 
L 388.8 197.64 
" style="fill:none;stroke:#b0b0b0;stroke-linecap:square;stroke-width:0.8;"/>
     </g>
     <g id="line2d_16">
      <g>
       <use style="stroke:#000000;stroke-width:0.8;" x="54" xlink:href="#m5511c3247f" y="197.64"/>
      </g>
     </g>
     <g id="text_9">
      <!-- 0.2 -->
      <g transform="translate(31.096875 201.439219)scale(0.1 -0.1)">
       <use xlink:href="#DejaVuSans-48"/>
       <use x="63.623047" xlink:href="#DejaVuSans-46"/>
       <use x="95.410156" xlink:href="#DejaVuSans-50"/>
      </g>
     </g>
    </g>
    <g id="ytick_3">
     <g id="line2d_17">
      <path clip-path="url(#p0764d37466)" d="M 54 161.4 
L 388.8 161.4 
" style="fill:none;stroke:#b0b0b0;stroke-linecap:square;stroke-width:0.8;"/>
     </g>
     <g id="line2d_18">
      <g>
       <use style="stroke:#000000;stroke-width:0.8;" x="54" xlink:href="#m5511c3247f" y="161.4"/>
      </g>
     </g>
     <g id="text_10">
      <!-- 0.4 -->
      <g transform="translate(31.096875 165.199219)scale(0.1 -0.1)">
       <use xlink:href="#DejaVuSans-48"/>
       <use x="63.623047" xlink:href="#DejaVuSans-46"/>
       <use x="95.410156" xlink:href="#DejaVuSans-52"/>
      </g>
     </g>
    </g>
    <g id="ytick_4">
     <g id="line2d_19">
      <path clip-path="url(#p0764d37466)" d="M 54 125.16 
L 388.8 125.16 
" style="fill:none;stroke:#b0b0b0;stroke-linecap:square;stroke-width:0.8;"/>
     </g>
     <g id="line2d_20">
      <g>
       <use style="stroke:#000000;stroke-width:0.8;" x="54" xlink:href="#m5511c3247f" y="125.16"/>
      </g>
     </g>
     <g id="text_11">
      <!-- 0.6 -->
      <g transform="translate(31.096875 128.959219)scale(0.1 -0.1)">
       <use xlink:href="#DejaVuSans-48"/>
       <use x="63.623047" xlink:href="#DejaVuSans-46"/>
       <use x="95.410156" xlink:href="#DejaVuSans-54"/>
      </g>
     </g>
    </g>
    <g id="ytick_5">
     <g id="line2d_21">
      <path clip-path="url(#p0764d37466)" d="M 54 88.92 
L 388.8 88.92 
" style="fill:none;stroke:#b0b0b0;stroke-linecap:square;stroke-width:0.8;"/>
     </g>
     <g id="line2d_22">
      <g>
       <use style="stroke:#000000;stroke-width:0.8;" x="54" xlink:href="#m5511c3247f" y="88.92"/>
      </g>
     </g>
     <g id="text_12">
      <!-- 0.8 -->
      <g transform="translate(31.096875 92.719219)scale(0.1 -0.1)">
       <use xlink:href="#DejaVuSans-48"/>
       <use x="63.623047" xlink:href="#DejaVuSans-46"/>
       <use x="95.410156" xlink:href="#DejaVuSans-56"/>
      </g>
     </g>
    </g>
    <g id="ytick_6">
     <g id="line2d_23">
      <path clip-path="url(#p0764d37466)" d="M 54 52.68 
L 388.8 52.68 
" style="fill:none;stroke:#b0b0b0;stroke-linecap:square;stroke-width:0.8;"/>
     </g>
     <g id="line2d_24">
      <g>
       <use style="stroke:#000000;stroke-width:0.8;" x="54" xlink:href="#m5511c3247f" y="52.68"/>
      </g>
     </g>
     <g id="text_13">
      <!-- 1.0 -->
      <g transform="translate(31.096875 56.479219)scale(0.1 -0.1)">
       <use xlink:href="#DejaVuSans-49"/>
       <use x="63.623047" xlink:href="#DejaVuSans-46"/>
       <use x="95.410156" xlink:href="#DejaVuSans-48"/>
      </g>
     </g>
    </g>
    <g id="text_14">
     <!-- Y -->
     <defs>
      <path d="M -0.203125 72.90625 
L 10.40625 72.90625 
L 30.609375 42.921875 
L 50.6875 72.90625 
L 61.28125 72.90625 
L 35.5 34.71875 
L 35.5 0 
L 25.59375 0 
L 25.59375 34.71875 
z
" id="DejaVuSans-89"/>
     </defs>
     <g transform="translate(25.017187 146.333906)rotate(-90)scale(0.1 -0.1)">
      <use xlink:href="#DejaVuSans-89"/>
     </g>
    </g>
   </g>
   <g id="patch_3">
    <path d="M 54 252 
L 54 34.56 
" style="fill:none;stroke:#000000;stroke-linecap:square;stroke-linejoin:miter;stroke-width:0.8;"/>
   </g>
   <g id="patch_4">
    <path d="M 388.8 252 
L 388.8 34.56 
" style="fill:none;stroke:#000000;stroke-linecap:square;stroke-linejoin:miter;stroke-width:0.8;"/>
   </g>
   <g id="patch_5">
    <path d="M 54 252 
L 388.8 252 
" style="fill:none;stroke:#000000;stroke-linecap:square;stroke-linejoin:miter;stroke-width:0.8;"/>
   </g>
   <g id="patch_6">
    <path d="M 54 34.56 
L 388.8 34.56 
" style="fill:none;stroke:#000000;stroke-linecap:square;stroke-linejoin:miter;stroke-width:0.8;"/>
   </g>
   <g id="legend_1">
    <g id="patch_7">
     <path d="M 325.923437 57.238125 
L 381.8 57.238125 
Q 383.8 57.238125 383.8 55.238125 
L 383.8 41.56 
Q 383.8 39.56 381.8 39.56 
L 325.923437 39.56 
Q 323.923437 39.56 323.923437 41.56 
L 323.923437 55.238125 
Q 323.923437 57.238125 325.923437 57.238125 
z
" style="fill:#ffffff;opacity:0.8;stroke:#cccccc;stroke-linejoin:miter;"/>
    </g>
    <g id="PathCollection_2">
     <defs>
      <path d="M 0 3.535534 
C 0.937635 3.535534 1.836992 3.163008 2.5 2.5 
C 3.163008 1.836992 3.535534 0.937635 3.535534 0 
C 3.535534 -0.937635 3.163008 -1.836992 2.5 -2.5 
C 1.836992 -3.163008 0.937635 -3.535534 0 -3.535534 
C -0.937635 -3.535534 -1.836992 -3.163008 -2.5 -2.5 
C -3.163008 -1.836992 -3.535534 -0.937635 -3.535534 0 
C -3.535534 0.937635 -3.163008 1.836992 -2.5 2.5 
C -1.836992 3.163008 -0.937635 3.535534 0 3.535534 
z
" id="mdbc71b1311" style="stroke:#000000;stroke-width:0.5;"/>
     </defs>
     <g>
      <use style="fill:#1f77b4;stroke:#000000;stroke-width:0.5;" x="337.923437" xlink:href="#mdbc71b1311" y="48.533437"/>
     </g>
    </g>
    <g id="text_15">
     <!-- Data -->
     <defs>
      <path d="M 19.671875 64.796875 
L 19.671875 8.109375 
L 31.59375 8.109375 
Q 46.6875 8.109375 53.6875 14.9375 
Q 60.6875 21.78125 60.6875 36.53125 
Q 60.6875 51.171875 53.6875 57.984375 
Q 46.6875 64.796875 31.59375 64.796875 
z
M 9.8125 72.90625 
L 30.078125 72.90625 
Q 51.265625 72.90625 61.171875 64.09375 
Q 71.09375 55.28125 71.09375 36.53125 
Q 71.09375 17.671875 61.125 8.828125 
Q 51.171875 0 30.078125 0 
L 9.8125 0 
z
" id="DejaVuSans-68"/>
      <path d="M 34.28125 27.484375 
Q 23.390625 27.484375 19.1875 25 
Q 14.984375 22.515625 14.984375 16.5 
Q 14.984375 11.71875 18.140625 8.90625 
Q 21.296875 6.109375 26.703125 6.109375 
Q 34.1875 6.109375 38.703125 11.40625 
Q 43.21875 16.703125 43.21875 25.484375 
L 43.21875 27.484375 
z
M 52.203125 31.203125 
L 52.203125 0 
L 43.21875 0 
L 43.21875 8.296875 
Q 40.140625 3.328125 35.546875 0.953125 
Q 30.953125 -1.421875 24.3125 -1.421875 
Q 15.921875 -1.421875 10.953125 3.296875 
Q 6 8.015625 6 15.921875 
Q 6 25.140625 12.171875 29.828125 
Q 18.359375 34.515625 30.609375 34.515625 
L 43.21875 34.515625 
L 43.21875 35.40625 
Q 43.21875 41.609375 39.140625 45 
Q 35.0625 48.390625 27.6875 48.390625 
Q 23 48.390625 18.546875 47.265625 
Q 14.109375 46.140625 10.015625 43.890625 
L 10.015625 52.203125 
Q 14.9375 54.109375 19.578125 55.046875 
Q 24.21875 56 28.609375 56 
Q 40.484375 56 46.34375 49.84375 
Q 52.203125 43.703125 52.203125 31.203125 
z
" id="DejaVuSans-97"/>
      <path d="M 18.3125 70.21875 
L 18.3125 54.6875 
L 36.8125 54.6875 
L 36.8125 47.703125 
L 18.3125 47.703125 
L 18.3125 18.015625 
Q 18.3125 11.328125 20.140625 9.421875 
Q 21.96875 7.515625 27.59375 7.515625 
L 36.8125 7.515625 
L 36.8125 0 
L 27.59375 0 
Q 17.1875 0 13.234375 3.875 
Q 9.28125 7.765625 9.28125 18.015625 
L 9.28125 47.703125 
L 2.6875 47.703125 
L 2.6875 54.6875 
L 9.28125 54.6875 
L 9.28125 70.21875 
z
" id="DejaVuSans-116"/>
     </defs>
     <g transform="translate(355.923437 51.158437)scale(0.1 -0.1)">
      <use xlink:href="#DejaVuSans-68"/>
      <use x="77.001953" xlink:href="#DejaVuSans-97"/>
      <use x="138.28125" xlink:href="#DejaVuSans-116"/>
      <use x="177.490234" xlink:href="#DejaVuSans-97"/>
     </g>
    </g>
   </g>
  </g>
 </g>
 <defs>
  <clipPath id="p0764d37466">
   <rect height="217.44" width="334.8" x="54" y="34.56"/>
  </clipPath>
 </defs>
</svg>
