<svg version="1.1" viewBox="0.0 0.0 486.3543307086614 415.3543307086614" fill="none" stroke="none" stroke-linecap="square" stroke-miterlimit="10" xmlns:xlink="http://www.w3.org/1999/xlink" xmlns="http://www.w3.org/2000/svg"><clipPath id="p.0"><path d="m0 0l486.35434 0l0 415.35434l-486.35434 0l0 -415.35434z" clip-rule="nonzero"/></clipPath><g clip-path="url(#p.0)"><path fill="#000000" fill-opacity="0.0" d="m0 0l486.35434 0l0 415.35434l-486.35434 0z" fill-rule="evenodd"/><path fill="#6fa8dc" d="m56.64042 149.25763l0 0c0 -16.455475 13.925003 -29.795273 31.102364 -29.795273l0 0c8.248856 0 16.159866 3.1391373 21.992691 8.726837c5.8328247 5.5876923 9.109673 13.1662445 9.109673 21.068436l0 0c0 16.455475 -13.925003 29.795273 -31.102364 29.795273l0 0c-17.17736 0 -31.102364 -13.339798 -31.102364 -29.795273z" fill-rule="evenodd"/><path stroke="#000000" stroke-width="1.0" stroke-linejoin="round" stroke-linecap="butt" d="m56.64042 149.25763l0 0c0 -16.455475 13.925003 -29.795273 31.102364 -29.795273l0 0c8.248856 0 16.159866 3.1391373 21.992691 8.726837c5.8328247 5.5876923 9.109673 13.1662445 9.109673 21.068436l0 0c0 16.455475 -13.925003 29.795273 -31.102364 29.795273l0 0c-17.17736 0 -31.102364 -13.339798 -31.102364 -29.795273z" fill-rule="evenodd"/><path fill="#000000" d="m74.96884 159.91763l5.546875 -7.90625l-5.140625 -7.296875l3.234375 0l2.328125 3.5625q0.65625 1.015625 1.0625 1.703125q0.625 -0.953125 1.15625 -1.671875l2.5625 -3.59375l3.078125 0l-5.25 7.15625l5.65625 8.046875l-3.171875 0l-3.125 -4.71875l-0.828125 -1.28125l-3.984375 6.0l-3.125 0z" fill-rule="nonzero"/><path fill="#000000" d="m90.226654 164.01138q0 -2.46875 0.5 -3.984375q0.515625 -1.515625 1.515625 -2.328125q1.015625 -0.828125 2.546875 -0.828125q1.125 0 1.96875 0.453125q0.859375 0.453125 1.40625 1.3125q0.5625 0.84375 0.875 2.078125q0.3125 1.21875 0.3125 3.296875q0 2.46875 -0.515625 3.984375q-0.5 1.515625 -1.515625 2.34375q-1.0 0.8125 -2.53125 0.8125q-2.03125 0 -3.1875 -1.453125q-1.375 -1.734375 -1.375 -5.6875zm1.765625 0q0 3.453125 0.796875 4.59375q0.8125 1.140625 2.0 1.140625q1.1875 0 1.984375 -1.140625q0.8125 -1.15625 0.8125 -4.59375q0 -3.453125 -0.8125 -4.578125q-0.796875 -1.140625 -2.0 -1.140625q-1.1875 0 -1.890625 1.0q-0.890625 1.28125 -0.890625 4.71875z" fill-rule="nonzero"/><path fill="#6fa8dc" d="m56.64042 266.58267l0 0c0 -16.455475 13.925003 -29.795273 31.102364 -29.795273l0 0c8.248856 0 16.159866 3.139145 21.992691 8.726837c5.8328247 5.5876923 9.109673 13.1662445 9.109673 21.068436l0 0c0 16.455475 -13.925003 29.795288 -31.102364 29.795288l0 0c-17.17736 0 -31.102364 -13.339813 -31.102364 -29.795288z" fill-rule="evenodd"/><path stroke="#000000" stroke-width="1.0" stroke-linejoin="round" stroke-linecap="butt" d="m56.64042 266.58267l0 0c0 -16.455475 13.925003 -29.795273 31.102364 -29.795273l0 0c8.248856 0 16.159866 3.139145 21.992691 8.726837c5.8328247 5.5876923 9.109673 13.1662445 9.109673 21.068436l0 0c0 16.455475 -13.925003 29.795288 -31.102364 29.795288l0 0c-17.17736 0 -31.102364 -13.339813 -31.102364 -29.795288z" fill-rule="evenodd"/><path fill="#000000" d="m74.96884 277.24268l5.546875 -7.90625l-5.140625 -7.296875l3.234375 0l2.328125 3.5625q0.65625 1.015625 1.0625 1.703125q0.625 -0.953125 1.15625 -1.671875l2.5625 -3.59375l3.078125 0l-5.25 7.15625l5.65625 8.046875l-3.171875 0l-3.125 -4.71875l-0.828125 -1.28125l-3.984375 6.0l-3.125 0z" fill-rule="nonzero"/><path fill="#000000" d="m96.695404 288.24268l-1.71875 0l0 -10.953125q-0.625 0.59375 -1.625 1.1875q-1.0 0.59375 -1.8125 0.890625l0 -1.65625q1.4375 -0.6875 2.515625 -1.640625q1.09375 -0.96875 1.53125 -1.875l1.109375 0l0 14.046875z" fill-rule="nonzero"/><path fill="#ffd966" d="m200.64043 70.132706l0 0c0 -16.455475 13.924988 -29.795273 31.102356 -29.795273l0 0c8.248856 0 16.159866 3.1391335 21.992691 8.726833c5.8328247 5.5877 9.10968 13.1662445 9.10968 21.06844l0 0c0 16.455475 -13.925018 29.79528 -31.102371 29.79528l0 0c-17.177368 0 -31.102356 -13.339806 -31.102356 -29.79528z" fill-rule="evenodd"/><path stroke="#000000" stroke-width="1.0" stroke-linejoin="round" stroke-linecap="butt" d="m200.64043 70.132706l0 0c0 -16.455475 13.924988 -29.795273 31.102356 -29.795273l0 0c8.248856 0 16.159866 3.1391335 21.992691 8.726833c5.8328247 5.5877 9.10968 13.1662445 9.10968 21.06844l0 0c0 16.455475 -13.925018 29.79528 -31.102371 29.79528l0 0c-17.177368 0 -31.102356 -13.339806 -31.102356 -29.79528z" fill-rule="evenodd"/><path fill="#000000" d="m237.95688 61.13146q0 -0.453125 0.28125 -0.921875q0.28125 -0.46875 0.28125 -0.53125q0 -0.453125 -0.59375 -0.453125q-1.828125 0 -3.15625 5.171871l-0.625 2.453125l3.203125 0l-0.3125 1.453125l-3.125 0q-0.59375 2.703125 -1.09375 5.15625q-0.5 2.4375 -1.0625 4.578125q-0.546875 2.125 -1.109375 3.90625q-0.546875 1.78125 -1.265625 3.1875q-0.703125 1.40625 -1.53125 2.375q-0.828125 0.96875 -1.90625 1.484375q-1.078125 0.53125 -2.390625 0.53125q-1.5625 0 -2.5 -0.75q-0.9375 -0.75 -0.9375 -2.0q0 -0.75 0.546875 -1.3125q0.53125 -0.546875 1.25 -0.546875q0.671875 0 1.1875 0.515625q0.515625 0.515625 0.515625 1.140625q0 0.484375 -0.265625 0.9375q-0.28125 0.453125 -0.28125 0.5625q0 0.375 0.625 0.375q0.40625 0 0.71875 -0.1875q0.3125 -0.1875 0.578125 -0.46875q0.25 -0.28125 0.546875 -1.171875q0.296875 -0.875 0.53125 -1.6875q0.25 -0.8125 0.65625 -2.640625q0.421875 -1.84375 0.78125 -3.453125q0.375 -1.625 1.046875 -4.703125q0.671875 -3.09375 1.296875 -5.828125l-2.515625 0l0.296875 -1.453125l2.53125 0q0.53125 -1.875 1.109375 -3.2187462q0.59375 -1.359375 1.484375 -2.6875q0.90625 -1.328125 2.21875 -2.015625q1.328125 -0.703125 3.03125 -0.703125q1.546875 0 2.484375 0.75q0.9375 0.734375 0.9375 2.015625q0 0.796875 -0.5 1.328125q-0.5 0.515625 -1.265625 0.515625q-0.6875 0 -1.203125 -0.5q-0.5 -0.5 -0.5 -1.203125z" fill-rule="nonzero"/><path fill="#ffd966" d="m200.64043 193.7076l0 0c0 -16.455475 13.924988 -29.795273 31.102356 -29.795273l0 0c8.248856 0 16.159866 3.139145 21.992691 8.726837c5.8328247 5.5876923 9.10968 13.1662445 9.10968 21.068436l0 0c0 16.455475 -13.925018 29.795288 -31.102371 29.795288l0 0c-17.177368 0 -31.102356 -13.339813 -31.102356 -29.795288z" fill-rule="evenodd"/><path stroke="#000000" stroke-width="1.0" stroke-linejoin="round" stroke-linecap="butt" d="m200.64043 193.7076l0 0c0 -16.455475 13.924988 -29.795273 31.102356 -29.795273l0 0c8.248856 0 16.159866 3.139145 21.992691 8.726837c5.8328247 5.5876923 9.10968 13.1662445 9.10968 21.068436l0 0c0 16.455475 -13.925018 29.795288 -31.102371 29.795288l0 0c-17.177368 0 -31.102356 -13.339813 -31.102356 -29.795288z" fill-rule="evenodd"/><path fill="#000000" d="m237.95688 184.70634q0 -0.453125 0.28125 -0.921875q0.28125 -0.46875 0.28125 -0.53125q0 -0.453125 -0.59375 -0.453125q-1.828125 0 -3.15625 5.171875l-0.625 2.453125l3.203125 0l-0.3125 1.453125l-3.125 0q-0.59375 2.703125 -1.09375 5.15625q-0.5 2.4375 -1.0625 4.578125q-0.546875 2.125 -1.109375 3.90625q-0.546875 1.78125 -1.265625 3.1875q-0.703125 1.40625 -1.53125 2.375q-0.828125 0.96875 -1.90625 1.484375q-1.078125 0.53125 -2.390625 0.53125q-1.5625 0 -2.5 -0.75q-0.9375 -0.75 -0.9375 -2.0q0 -0.75 0.546875 -1.3125q0.53125 -0.546875 1.25 -0.546875q0.671875 0 1.1875 0.515625q0.515625 0.515625 0.515625 1.140625q0 0.484375 -0.265625 0.9375q-0.28125 0.453125 -0.28125 0.5625q0 0.375 0.625 0.375q0.40625 0 0.71875 -0.1875q0.3125 -0.1875 0.578125 -0.46875q0.25 -0.28125 0.546875 -1.171875q0.296875 -0.875 0.53125 -1.6875q0.25 -0.8125 0.65625 -2.640625q0.421875 -1.84375 0.78125 -3.453125q0.375 -1.625 1.046875 -4.703125q0.671875 -3.09375 1.296875 -5.828125l-2.515625 0l0.296875 -1.453125l2.53125 0q0.53125 -1.875 1.109375 -3.21875q0.59375 -1.359375 1.484375 -2.6875q0.90625 -1.328125 2.21875 -2.015625q1.328125 -0.703125 3.03125 -0.703125q1.546875 0 2.484375 0.75q0.9375 0.734375 0.9375 2.015625q0 0.796875 -0.5 1.328125q-0.5 0.515625 -1.265625 0.515625q-0.6875 0 -1.203125 -0.5q-0.5 -0.5 -0.5 -1.203125z" fill-rule="nonzero"/><path fill="#ffd966" d="m200.64043 322.58267l0 0c0 -16.455475 13.924988 -29.795258 31.102356 -29.795258l0 0c8.248856 0 16.159866 3.1391296 21.992691 8.726807c5.8328247 5.5877075 9.10968 13.16626 9.10968 21.06845l0 0c0 16.455475 -13.925018 29.795288 -31.102371 29.795288l0 0c-17.177368 0 -31.102356 -13.339813 -31.102356 -29.795288z" fill-rule="evenodd"/><path stroke="#000000" stroke-width="1.0" stroke-linejoin="round" stroke-linecap="butt" d="m200.64043 322.58267l0 0c0 -16.455475 13.924988 -29.795258 31.102356 -29.795258l0 0c8.248856 0 16.159866 3.1391296 21.992691 8.726807c5.8328247 5.5877075 9.10968 13.16626 9.10968 21.06845l0 0c0 16.455475 -13.925018 29.795288 -31.102371 29.795288l0 0c-17.177368 0 -31.102356 -13.339813 -31.102356 -29.795288z" fill-rule="evenodd"/><path fill="#000000" d="m237.95688 313.58142q0 -0.453125 0.28125 -0.921875q0.28125 -0.46875 0.28125 -0.53125q0 -0.453125 -0.59375 -0.453125q-1.828125 0 -3.15625 5.171875l-0.625 2.453125l3.203125 0l-0.3125 1.453125l-3.125 0q-0.59375 2.703125 -1.09375 5.15625q-0.5 2.4375 -1.0625 4.578125q-0.546875 2.125 -1.109375 3.90625q-0.546875 1.78125 -1.265625 3.1875q-0.703125 1.40625 -1.53125 2.375q-0.828125 0.96875 -1.90625 1.484375q-1.078125 0.53125 -2.390625 0.53125q-1.5625 0 -2.5 -0.75q-0.9375 -0.75 -0.9375 -2.0q0 -0.75 0.546875 -1.3125q0.53125 -0.546875 1.25 -0.546875q0.671875 0 1.1875 0.515625q0.515625 0.515625 0.515625 1.140625q0 0.484375 -0.265625 0.9375q-0.28125 0.453125 -0.28125 0.5625q0 0.375 0.625 0.375q0.40625 0 0.71875 -0.1875q0.3125 -0.1875 0.578125 -0.46875q0.25 -0.28125 0.546875 -1.171875q0.296875 -0.875 0.53125 -1.6875q0.25 -0.8125 0.65625 -2.640625q0.421875 -1.84375 0.78125 -3.453125q0.375 -1.625 1.046875 -4.703125q0.671875 -3.09375 1.296875 -5.828125l-2.515625 0l0.296875 -1.453125l2.53125 0q0.53125 -1.875 1.109375 -3.21875q0.59375 -1.359375 1.484375 -2.6875q0.90625 -1.328125 2.21875 -2.015625q1.328125 -0.703125 3.03125 -0.703125q1.546875 0 2.484375 0.75q0.9375 0.734375 0.9375 2.015625q0 0.796875 -0.5 1.328125q-0.5 0.515625 -1.265625 0.515625q-0.6875 0 -1.203125 -0.5q-0.5 -0.5 -0.5 -1.203125z" fill-rule="nonzero"/><path fill="#93c47d" d="m344.6404 193.69518l0 0c0 -16.455475 13.925018 -29.795288 31.102356 -29.795288l0 0c8.248871 0 16.159882 3.139145 21.992706 8.726837c5.8328247 5.5877075 9.10968 13.1662445 9.10968 21.06845l0 0c0 16.455475 -13.925018 29.795273 -31.102386 29.795273l0 0c-17.177338 0 -31.102356 -13.339798 -31.102356 -29.795273z" fill-rule="evenodd"/><path stroke="#000000" stroke-width="1.0" stroke-linejoin="round" stroke-linecap="butt" d="m344.6404 193.69518l0 0c0 -16.455475 13.925018 -29.795288 31.102356 -29.795288l0 0c8.248871 0 16.159882 3.139145 21.992706 8.726837c5.8328247 5.5877075 9.10968 13.1662445 9.10968 21.06845l0 0c0 16.455475 -13.925018 29.795273 -31.102386 29.795273l0 0c-17.177338 0 -31.102356 -13.339798 -31.102356 -29.795273z" fill-rule="evenodd"/><path fill="#000000" fill-opacity="0.0" d="m118.845146 149.25763l90.89764 -58.04724" fill-rule="evenodd"/><path stroke="#000000" stroke-width="1.0" stroke-linejoin="round" stroke-linecap="butt" d="m118.845146 149.25763l85.8408 -54.817947" fill-rule="evenodd"/><path fill="#000000" stroke="#000000" stroke-width="1.0" stroke-linecap="butt" d="m205.57494 95.83177l2.9357452 -3.8345718l-4.71373 1.0503922z" fill-rule="evenodd"/><path fill="#000000" fill-opacity="0.0" d="m118.845146 149.25763l81.79528 44.44095" fill-rule="evenodd"/><path stroke="#000000" stroke-width="1.0" stroke-linejoin="round" stroke-linecap="butt" d="m118.845146 149.25763l76.52317 41.576508" fill-rule="evenodd"/><path fill="#000000" stroke="#000000" stroke-width="1.0" stroke-linecap="butt" d="m194.57977 192.28549l4.7760925 0.7151642l-3.1990051 -3.617859z" fill-rule="evenodd"/><path fill="#000000" fill-opacity="0.0" d="m118.845146 149.25763l81.79528 173.32285" fill-rule="evenodd"/><path stroke="#000000" stroke-width="1.0" stroke-linejoin="round" stroke-linecap="butt" d="m118.845146 149.25763l79.23455 167.89673" fill-rule="evenodd"/><path fill="#000000" stroke="#000000" stroke-width="1.0" stroke-linecap="butt" d="m196.58595 317.85928l3.430542 3.399109l-0.44303894 -4.8089905z" fill-rule="evenodd"/><path fill="#000000" fill-opacity="0.0" d="m118.845146 266.58267l90.89764 -175.37007" fill-rule="evenodd"/><path stroke="#000000" stroke-width="1.0" stroke-linejoin="round" stroke-linecap="butt" d="m118.845146 266.58267l88.13656 -170.04312" fill-rule="evenodd"/><path fill="#000000" stroke="#000000" stroke-width="1.0" stroke-linecap="butt" d="m208.44817 97.29965l0.6218872 -4.789139l-3.5547943 3.268959z" fill-rule="evenodd"/><path fill="#000000" fill-opacity="0.0" d="m118.845146 266.58267l81.79528 -72.88188" fill-rule="evenodd"/><path stroke="#000000" stroke-width="1.0" stroke-linejoin="round" stroke-linecap="butt" d="m118.845146 266.58267l77.315575 -68.89035" fill-rule="evenodd"/><path fill="#000000" stroke="#000000" stroke-width="1.0" stroke-linecap="butt" d="m197.25955 198.92554l2.289383 -4.2522125l-4.48703 1.7857819z" fill-rule="evenodd"/><path fill="#000000" fill-opacity="0.0" d="m118.845146 266.58267l81.79528 56.0" fill-rule="evenodd"/><path stroke="#000000" stroke-width="1.0" stroke-linejoin="round" stroke-linecap="butt" d="m118.845146 266.58267l76.8444 52.610474" fill-rule="evenodd"/><path fill="#000000" stroke="#000000" stroke-width="1.0" stroke-linecap="butt" d="m194.75645 320.55606l4.6776886 1.2007446l-2.8114777 -3.9265747z" fill-rule="evenodd"/><path fill="#000000" fill-opacity="0.0" d="m262.84515 70.132706l81.79526 123.55905" fill-rule="evenodd"/><path stroke="#000000" stroke-width="1.0" stroke-linejoin="round" stroke-linecap="butt" d="m262.84515 70.13271l78.48328 118.55598" fill-rule="evenodd"/><path fill="#000000" stroke="#000000" stroke-width="1.0" stroke-linecap="butt" d="m339.95114 189.60045l3.8823242 2.8723145l-1.1277466 -4.695816z" fill-rule="evenodd"/><path fill="#000000" fill-opacity="0.0" d="m262.84515 193.7076l81.79526 0" fill-rule="evenodd"/><path stroke="#000000" stroke-width="1.0" stroke-linejoin="round" stroke-linecap="butt" d="m262.84515 193.7076l75.79526 0" fill-rule="evenodd"/><path fill="#000000" stroke="#000000" stroke-width="1.0" stroke-linecap="butt" d="m338.6404 195.35933l4.5381165 -1.6517334l-4.5381165 -1.6517334z" fill-rule="evenodd"/><path fill="#000000" fill-opacity="0.0" d="m262.84515 322.58267l81.79526 -128.88188" fill-rule="evenodd"/><path stroke="#000000" stroke-width="1.0" stroke-linejoin="round" stroke-linecap="butt" d="m262.84515 322.58267l78.5802 -123.815994" fill-rule="evenodd"/><path fill="#000000" stroke="#000000" stroke-width="1.0" stroke-linecap="butt" d="m342.81992 199.65175l1.0371399 -4.7166595l-3.826294 2.946518z" fill-rule="evenodd"/><path fill="#000000" fill-opacity="0.0" d="m406.84515 193.69518l31.590546 0" fill-rule="evenodd"/><path stroke="#000000" stroke-width="1.0" stroke-linejoin="round" stroke-linecap="butt" d="m406.84515 193.69518l25.590546 0" fill-rule="evenodd"/><path fill="#000000" stroke="#000000" stroke-width="1.0" stroke-linecap="butt" d="m432.4357 195.34691l4.538086 -1.6517334l-4.538086 -1.6517334z" fill-rule="evenodd"/><path fill="#000000" fill-opacity="0.0" d="m175.71391 356.77692l136.66142 0l0 41.700775l-136.66142 0z" fill-rule="evenodd"/><path fill="#000000" d="m186.21391 383.6969l0 -13.359375l1.765625 0l0 5.484375l6.9375 0l0 -5.484375l1.765625 0l0 13.359375l-1.765625 0l0 -6.296875l-6.9375 0l0 6.296875l-1.765625 0zm13.207321 -11.46875l0 -1.890625l1.640625 0l0 1.890625l-1.640625 0zm0 11.46875l0 -9.671875l1.640625 0l0 9.671875l-1.640625 0zm10.410446 0l0 -1.21875q-0.90625 1.4375 -2.703125 1.4375q-1.15625 0 -2.125 -0.640625q-0.96875 -0.640625 -1.5 -1.78125q-0.53125 -1.140625 -0.53125 -2.625q0 -1.453125 0.484375 -2.625q0.484375 -1.1875 1.4375 -1.8125q0.96875 -0.625 2.171875 -0.625q0.875 0 1.546875 0.375q0.6875 0.359375 1.109375 0.953125l0 -4.796875l1.640625 0l0 13.359375l-1.53125 0zm-5.171875 -4.828125q0 1.859375 0.78125 2.78125q0.78125 0.921875 1.84375 0.921875q1.078125 0 1.828125 -0.875q0.75 -0.890625 0.75 -2.6875q0 -1.984375 -0.765625 -2.90625q-0.765625 -0.9375 -1.890625 -0.9375q-1.078125 0 -1.8125 0.890625q-0.734375 0.890625 -0.734375 2.8125zm15.547592 4.828125l0 -1.21875q-0.90625 1.4375 -2.703125 1.4375q-1.15625 0 -2.125 -0.640625q-0.96875 -0.640625 -1.5 -1.78125q-0.53125 -1.140625 -0.53125 -2.625q0 -1.453125 0.484375 -2.625q0.484375 -1.1875 1.4375 -1.8125q0.96875 -0.625 2.171875 -0.625q0.875 0 1.546875 0.375q0.6875 0.359375 1.109375 0.953125l0 -4.796875l1.640625 0l0 13.359375l-1.53125 0zm-5.171875 -4.828125q0 1.859375 0.78125 2.78125q0.78125 0.921875 1.84375 0.921875q1.078125 0 1.828125 -0.875q0.75 -0.890625 0.75 -2.6875q0 -1.984375 -0.765625 -2.90625q-0.765625 -0.9375 -1.890625 -0.9375q-1.078125 0 -1.8125 0.890625q-0.734375 0.890625 -0.734375 2.8125zm15.906967 1.71875l1.6875 0.203125q-0.40625 1.484375 -1.484375 2.3125q-1.078125 0.8125 -2.765625 0.8125q-2.125 0 -3.375 -1.296875q-1.234375 -1.3125 -1.234375 -3.671875q0 -2.453125 1.25 -3.796875q1.265625 -1.34375 3.265625 -1.34375q1.9375 0 3.15625 1.328125q1.234375 1.3125 1.234375 3.703125q0 0.15625 0 0.4375l-7.21875 0q0.09375 1.59375 0.90625 2.453125q0.8125 0.84375 2.015625 0.84375q0.90625 0 1.546875 -0.46875q0.640625 -0.484375 1.015625 -1.515625zm-5.390625 -2.65625l5.40625 0q-0.109375 -1.21875 -0.625 -1.828125q-0.78125 -0.953125 -2.03125 -0.953125q-1.125 0 -1.90625 0.765625q-0.765625 0.75 -0.84375 2.015625zm9.141342 5.765625l0 -9.671875l1.46875 0l0 1.375q1.0625 -1.59375 3.078125 -1.59375q0.875 0 1.609375 0.3125q0.734375 0.3125 1.09375 0.828125q0.375 0.5 0.515625 1.203125q0.09375 0.453125 0.09375 1.59375l0 5.953125l-1.640625 0l0 -5.890625q0 -1.0 -0.203125 -1.484375q-0.1875 -0.5 -0.671875 -0.796875q-0.484375 -0.296875 -1.140625 -0.296875q-1.046875 0 -1.8125 0.671875q-0.75 0.65625 -0.75 2.515625l0 5.28125l-1.640625 0zm15.684021 0l0 -13.359375l1.78125 0l0 11.78125l6.5625 0l0 1.578125l-8.34375 0zm16.563202 -1.1875q-0.921875 0.765625 -1.765625 1.09375q-0.828125 0.3125 -1.796875 0.3125q-1.59375 0 -2.453125 -0.78125q-0.859375 -0.78125 -0.859375 -1.984375q0 -0.71875 0.328125 -1.296875q0.328125 -0.59375 0.84375 -0.9375q0.53125 -0.359375 1.1875 -0.546875q0.46875 -0.125 1.453125 -0.25q1.984375 -0.234375 2.921875 -0.5625q0.015625 -0.34375 0.015625 -0.421875q0 -1.0 -0.46875 -1.421875q-0.625 -0.546875 -1.875 -0.546875q-1.15625 0 -1.703125 0.40625q-0.546875 0.40625 -0.8125 1.421875l-1.609375 -0.21875q0.21875 -1.015625 0.71875 -1.640625q0.5 -0.640625 1.453125 -0.984375q0.953125 -0.34375 2.1875 -0.34375q1.25 0 2.015625 0.296875q0.78125 0.28125 1.140625 0.734375q0.375 0.4375 0.515625 1.109375q0.078125 0.421875 0.078125 1.515625l0 2.1875q0 2.28125 0.109375 2.890625q0.109375 0.59375 0.40625 1.15625l-1.703125 0q-0.265625 -0.515625 -0.328125 -1.1875zm-0.140625 -3.671875q-0.890625 0.375 -2.671875 0.625q-1.015625 0.140625 -1.4375 0.328125q-0.421875 0.1875 -0.65625 0.53125q-0.21875 0.34375 -0.21875 0.78125q0 0.65625 0.5 1.09375q0.5 0.4375 1.453125 0.4375q0.9375 0 1.671875 -0.40625q0.75 -0.421875 1.09375 -1.140625q0.265625 -0.5625 0.265625 -1.640625l0 -0.609375zm4.1257324 8.578125l-0.1875 -1.53125q0.546875 0.140625 0.9375 0.140625q0.546875 0 0.875 -0.1875q0.328125 -0.171875 0.546875 -0.5q0.15625 -0.25 0.5 -1.21875q0.046875 -0.140625 0.140625 -0.40625l-3.671875 -9.6875l1.765625 0l2.015625 5.59375q0.390625 1.078125 0.703125 2.25q0.28125 -1.125 0.671875 -2.203125l2.078125 -5.640625l1.640625 0l-3.6875 9.828125q-0.59375 1.609375 -0.921875 2.203125q-0.4375 0.8125 -1.0 1.1875q-0.5625 0.375 -1.34375 0.375q-0.484375 0 -1.0625 -0.203125zm16.03125 -6.828125l1.6875 0.203125q-0.40625 1.484375 -1.484375 2.3125q-1.078125 0.8125 -2.765625 0.8125q-2.125 0 -3.375 -1.296875q-1.234375 -1.3125 -1.234375 -3.671875q0 -2.453125 1.25 -3.796875q1.265625 -1.34375 3.265625 -1.34375q1.9375 0 3.15625 1.328125q1.234375 1.3125 1.234375 3.703125q0 0.15625 0 0.4375l-7.21875 0q0.09375 1.59375 0.90625 2.453125q0.8125 0.84375 2.015625 0.84375q0.90625 0 1.546875 -0.46875q0.640625 -0.484375 1.015625 -1.515625zm-5.390625 -2.65625l5.40625 0q-0.109375 -1.21875 -0.625 -1.828125q-0.78125 -0.953125 -2.03125 -0.953125q-1.125 0 -1.90625 0.765625q-0.765625 0.75 -0.84375 2.015625zm9.125702 5.765625l0 -9.671875l1.46875 0l0 1.46875q0.5625 -1.03125 1.03125 -1.359375q0.484375 -0.328125 1.0625 -0.328125q0.828125 0 1.6875 0.53125l-0.5625 1.515625q-0.609375 -0.359375 -1.203125 -0.359375q-0.546875 0 -0.96875 0.328125q-0.421875 0.328125 -0.609375 0.890625q-0.28125 0.875 -0.28125 1.921875l0 5.0625l-1.625 0z" fill-rule="nonzero"/><path fill="#000000" fill-opacity="0.0" d="m39.71391 356.77692l136.66142 0l0 41.700775l-136.66142 0z" fill-rule="evenodd"/><path fill="#000000" d="m50.448284 383.6969l0 -13.359375l1.765625 0l0 13.359375l-1.765625 0zm4.683304 0l0 -9.671875l1.46875 0l0 1.375q1.0625 -1.59375 3.078125 -1.59375q0.875 0 1.609375 0.3125q0.734375 0.3125 1.09375 0.828125q0.375 0.5 0.515625 1.203125q0.09375 0.453125 0.09375 1.59375l0 5.953125l-1.640625 0l0 -5.890625q0 -1.0 -0.203125 -1.484375q-0.1875 -0.5 -0.671875 -0.796875q-0.484375 -0.296875 -1.140625 -0.296875q-1.046875 0 -1.8125 0.671875q-0.75 0.65625 -0.75 2.515625l0 5.28125l-1.640625 0zm10.375721 3.703125l0 -13.375l1.484375 0l0 1.25q0.53125 -0.734375 1.1875 -1.09375q0.671875 -0.375 1.625 -0.375q1.234375 0 2.171875 0.640625q0.953125 0.625 1.4375 1.796875q0.484375 1.15625 0.484375 2.546875q0 1.484375 -0.53125 2.671875q-0.53125 1.1875 -1.546875 1.828125q-1.015625 0.625 -2.140625 0.625q-0.8125 0 -1.46875 -0.34375q-0.65625 -0.34375 -1.0625 -0.875l0 4.703125l-1.640625 0zm1.484375 -8.484375q0 1.859375 0.75 2.765625q0.765625 0.890625 1.828125 0.890625q1.09375 0 1.875 -0.921875q0.78125 -0.9375 0.78125 -2.875q0 -1.84375 -0.765625 -2.765625q-0.75 -0.921875 -1.8125 -0.921875q-1.046875 0 -1.859375 0.984375q-0.796875 0.96875 -0.796875 2.84375zm15.219467 4.78125l0 -1.421875q-1.125 1.640625 -3.0625 1.640625q-0.859375 0 -1.609375 -0.328125q-0.734375 -0.328125 -1.09375 -0.828125q-0.359375 -0.5 -0.5 -1.21875q-0.109375 -0.46875 -0.109375 -1.53125l0 -5.984375l1.640625 0l0 5.359375q0 1.28125 0.109375 1.734375q0.15625 0.640625 0.65625 1.015625q0.5 0.375 1.234375 0.375q0.734375 0 1.375 -0.375q0.65625 -0.390625 0.921875 -1.03125q0.265625 -0.65625 0.265625 -1.890625l0 -5.1875l1.640625 0l0 9.671875l-1.46875 0zm7.625717 -1.46875l0.234375 1.453125q-0.6875 0.140625 -1.234375 0.140625q-0.890625 0 -1.390625 -0.28125q-0.484375 -0.28125 -0.6875 -0.734375q-0.203125 -0.46875 -0.203125 -1.9375l0 -5.578125l-1.203125 0l0 -1.265625l1.203125 0l0 -2.390625l1.625 -0.984375l0 3.375l1.65625 0l0 1.265625l-1.65625 0l0 5.671875q0 0.6875 0.078125 0.890625q0.09375 0.203125 0.28125 0.328125q0.203125 0.109375 0.578125 0.109375q0.265625 0 0.71875 -0.0625zm6.9134827 1.46875l0 -13.359375l1.78125 0l0 11.78125l6.5625 0l0 1.578125l-8.34375 0zm16.563217 -1.1875q-0.921875 0.765625 -1.765625 1.09375q-0.828125 0.3125 -1.796875 0.3125q-1.59375 0 -2.453125 -0.78125q-0.859375 -0.78125 -0.859375 -1.984375q0 -0.71875 0.328125 -1.296875q0.328125 -0.59375 0.84375 -0.9375q0.53125 -0.359375 1.1875 -0.546875q0.46875 -0.125 1.453125 -0.25q1.984375 -0.234375 2.921875 -0.5625q0.015625 -0.34375 0.015625 -0.421875q0 -1.0 -0.46875 -1.421875q-0.625 -0.546875 -1.875 -0.546875q-1.15625 0 -1.703125 0.40625q-0.546875 0.40625 -0.8125 1.421875l-1.609375 -0.21875q0.21875 -1.015625 0.71875 -1.640625q0.5 -0.640625 1.453125 -0.984375q0.953125 -0.34375 2.1875 -0.34375q1.25 0 2.015625 0.296875q0.78125 0.28125 1.140625 0.734375q0.375 0.4375 0.515625 1.109375q0.078125 0.421875 0.078125 1.515625l0 2.1875q0 2.28125 0.109375 2.890625q0.109375 0.59375 0.40625 1.15625l-1.703125 0q-0.265625 -0.515625 -0.328125 -1.1875zm-0.140625 -3.671875q-0.890625 0.375 -2.671875 0.625q-1.015625 0.140625 -1.4375 0.328125q-0.421875 0.1875 -0.65625 0.53125q-0.21875 0.34375 -0.21875 0.78125q0 0.65625 0.5 1.09375q0.5 0.4375 1.453125 0.4375q0.9375 0 1.671875 -0.40625q0.75 -0.421875 1.09375 -1.140625q0.265625 -0.5625 0.265625 -1.640625l0 -0.609375zm4.125717 8.578125l-0.1875 -1.53125q0.546875 0.140625 0.9375 0.140625q0.546875 0 0.875 -0.1875q0.328125 -0.171875 0.546875 -0.5q0.15625 -0.25 0.5 -1.21875q0.046875 -0.140625 0.140625 -0.40625l-3.671875 -9.6875l1.765625 0l2.015625 5.59375q0.390625 1.078125 0.703125 2.25q0.28125 -1.125 0.671875 -2.203125l2.078125 -5.640625l1.640625 0l-3.6875 9.828125q-0.59375 1.609375 -0.921875 2.203125q-0.4375 0.8125 -1.0 1.1875q-0.5625 0.375 -1.34375 0.375q-0.484375 0 -1.0625 -0.203125zm16.03125 -6.828125l1.6875 0.203125q-0.40625 1.484375 -1.484375 2.3125q-1.078125 0.8125 -2.765625 0.8125q-2.125 0 -3.375 -1.296875q-1.234375 -1.3125 -1.234375 -3.671875q0 -2.453125 1.25 -3.796875q1.265625 -1.34375 3.265625 -1.34375q1.9375 0 3.15625 1.328125q1.234375 1.3125 1.234375 3.703125q0 0.15625 0 0.4375l-7.21875 0q0.09375 1.59375 0.90625 2.453125q0.8125 0.84375 2.015625 0.84375q0.90625 0 1.546875 -0.46875q0.640625 -0.484375 1.015625 -1.515625zm-5.390625 -2.65625l5.40625 0q-0.109375 -1.21875 -0.625 -1.828125q-0.78125 -0.953125 -2.03125 -0.953125q-1.125 0 -1.90625 0.765625q-0.765625 0.75 -0.84375 2.015625zm9.125717 5.765625l0 -9.671875l1.46875 0l0 1.46875q0.5625 -1.03125 1.03125 -1.359375q0.484375 -0.328125 1.0625 -0.328125q0.828125 0 1.6875 0.53125l-0.5625 1.515625q-0.609375 -0.359375 -1.203125 -0.359375q-0.546875 0 -0.96875 0.328125q-0.421875 0.328125 -0.609375 0.890625q-0.28125 0.875 -0.28125 1.921875l0 5.0625l-1.625 0z" fill-rule="nonzero"/><path fill="#000000" fill-opacity="0.0" d="m319.7139 356.77692l136.66144 0l0 41.700775l-136.66144 0z" fill-rule="evenodd"/><path fill="#000000" d="m329.62015 377.1969q0 -3.328125 1.78125 -5.203125q1.78125 -1.890625 4.609375 -1.890625q1.84375 0 3.328125 0.890625q1.484375 0.875 2.265625 2.46875q0.78125 1.578125 0.78125 3.578125q0 2.03125 -0.828125 3.640625q-0.8125 1.59375 -2.3125 2.421875q-1.5 0.828125 -3.25 0.828125q-1.875 0 -3.359375 -0.90625q-1.484375 -0.921875 -2.25 -2.5q-0.765625 -1.578125 -0.765625 -3.328125zm1.8125 0.015625q0 2.421875 1.296875 3.8125q1.296875 1.390625 3.265625 1.390625q2.0 0 3.28125 -1.40625q1.28125 -1.40625 1.28125 -3.984375q0 -1.625 -0.546875 -2.84375q-0.546875 -1.21875 -1.609375 -1.875q-1.0625 -0.671875 -2.375 -0.671875q-1.890625 0 -3.25 1.296875q-1.34375 1.28125 -1.34375 4.28125zm19.355194 6.484375l0 -1.421875q-1.125 1.640625 -3.0625 1.640625q-0.859375 0 -1.609375 -0.328125q-0.734375 -0.328125 -1.09375 -0.828125q-0.359375 -0.5 -0.5 -1.21875q-0.109375 -0.46875 -0.109375 -1.53125l0 -5.984375l1.640625 0l0 5.359375q0 1.28125 0.109375 1.734375q0.15625 0.640625 0.65625 1.015625q0.5 0.375 1.234375 0.375q0.734375 0 1.375 -0.375q0.65625 -0.390625 0.921875 -1.03125q0.265625 -0.65625 0.265625 -1.890625l0 -5.1875l1.640625 0l0 9.671875l-1.46875 0zm7.625702 -1.46875l0.234375 1.453125q-0.6875 0.140625 -1.234375 0.140625q-0.890625 0 -1.390625 -0.28125q-0.484375 -0.28125 -0.6875 -0.734375q-0.203125 -0.46875 -0.203125 -1.9375l0 -5.578125l-1.203125 0l0 -1.265625l1.203125 0l0 -2.390625l1.625 -0.984375l0 3.375l1.65625 0l0 1.265625l-1.65625 0l0 5.671875q0 0.6875 0.078125 0.890625q0.09375 0.203125 0.28125 0.328125q0.203125 0.109375 0.578125 0.109375q0.265625 0 0.71875 -0.0625zm1.6051941 5.171875l0 -13.375l1.484375 0l0 1.25q0.53125 -0.734375 1.1875 -1.09375q0.671875 -0.375 1.625 -0.375q1.234375 0 2.171875 0.640625q0.953125 0.625 1.4375 1.796875q0.484375 1.15625 0.484375 2.546875q0 1.484375 -0.53125 2.671875q-0.53125 1.1875 -1.546875 1.828125q-1.015625 0.625 -2.140625 0.625q-0.8125 0 -1.46875 -0.34375q-0.65625 -0.34375 -1.0625 -0.875l0 4.703125l-1.640625 0zm1.484375 -8.484375q0 1.859375 0.75 2.765625q0.765625 0.890625 1.828125 0.890625q1.09375 0 1.875 -0.921875q0.78125 -0.9375 0.78125 -2.875q0 -1.84375 -0.765625 -2.765625q-0.75 -0.921875 -1.8125 -0.921875q-1.046875 0 -1.859375 0.984375q-0.796875 0.96875 -0.796875 2.84375zm15.219452 4.78125l0 -1.421875q-1.125 1.640625 -3.0625 1.640625q-0.859375 0 -1.609375 -0.328125q-0.734375 -0.328125 -1.09375 -0.828125q-0.359375 -0.5 -0.5 -1.21875q-0.109375 -0.46875 -0.109375 -1.53125l0 -5.984375l1.640625 0l0 5.359375q0 1.28125 0.109375 1.734375q0.15625 0.640625 0.65625 1.015625q0.5 0.375 1.234375 0.375q0.734375 0 1.375 -0.375q0.65625 -0.390625 0.921875 -1.03125q0.265625 -0.65625 0.265625 -1.890625l0 -5.1875l1.640625 0l0 9.671875l-1.46875 0zm7.6257324 -1.46875l0.234375 1.453125q-0.6875 0.140625 -1.234375 0.140625q-0.890625 0 -1.390625 -0.28125q-0.484375 -0.28125 -0.6875 -0.734375q-0.203125 -0.46875 -0.203125 -1.9375l0 -5.578125l-1.203125 0l0 -1.265625l1.203125 0l0 -2.390625l1.625 -0.984375l0 3.375l1.65625 0l0 1.265625l-1.65625 0l0 5.671875q0 0.6875 0.078125 0.890625q0.09375 0.203125 0.28125 0.328125q0.203125 0.109375 0.578125 0.109375q0.265625 0 0.71875 -0.0625zm6.9134827 1.46875l0 -13.359375l1.78125 0l0 11.78125l6.5625 0l0 1.578125l-8.34375 0zm16.563202 -1.1875q-0.921875 0.765625 -1.765625 1.09375q-0.828125 0.3125 -1.796875 0.3125q-1.59375 0 -2.453125 -0.78125q-0.859375 -0.78125 -0.859375 -1.984375q0 -0.71875 0.328125 -1.296875q0.328125 -0.59375 0.84375 -0.9375q0.53125 -0.359375 1.1875 -0.546875q0.46875 -0.125 1.453125 -0.25q1.984375 -0.234375 2.921875 -0.5625q0.015625 -0.34375 0.015625 -0.421875q0 -1.0 -0.46875 -1.421875q-0.625 -0.546875 -1.875 -0.546875q-1.15625 0 -1.703125 0.40625q-0.546875 0.40625 -0.8125 1.421875l-1.609375 -0.21875q0.21875 -1.015625 0.71875 -1.640625q0.5 -0.640625 1.453125 -0.984375q0.953125 -0.34375 2.1875 -0.34375q1.25 0 2.015625 0.296875q0.78125 0.28125 1.140625 0.734375q0.375 0.4375 0.515625 1.109375q0.078125 0.421875 0.078125 1.515625l0 2.1875q0 2.28125 0.109375 2.890625q0.109375 0.59375 0.40625 1.15625l-1.703125 0q-0.265625 -0.515625 -0.328125 -1.1875zm-0.140625 -3.671875q-0.890625 0.375 -2.671875 0.625q-1.015625 0.140625 -1.4375 0.328125q-0.421875 0.1875 -0.65625 0.53125q-0.21875 0.34375 -0.21875 0.78125q0 0.65625 0.5 1.09375q0.5 0.4375 1.453125 0.4375q0.9375 0 1.671875 -0.40625q0.75 -0.421875 1.09375 -1.140625q0.265625 -0.5625 0.265625 -1.640625l0 -0.609375zm4.1257324 8.578125l-0.1875 -1.53125q0.546875 0.140625 0.9375 0.140625q0.546875 0 0.875 -0.1875q0.328125 -0.171875 0.546875 -0.5q0.15625 -0.25 0.5 -1.21875q0.046875 -0.140625 0.140625 -0.40625l-3.671875 -9.6875l1.765625 0l2.015625 5.59375q0.390625 1.078125 0.703125 2.25q0.28125 -1.125 0.671875 -2.203125l2.078125 -5.640625l1.640625 0l-3.6875 9.828125q-0.59375 1.609375 -0.921875 2.203125q-0.4375 0.8125 -1.0 1.1875q-0.5625 0.375 -1.34375 0.375q-0.484375 0 -1.0625 -0.203125zm16.03125 -6.828125l1.6875 0.203125q-0.40625 1.484375 -1.484375 2.3125q-1.078125 0.8125 -2.765625 0.8125q-2.125 0 -3.375 -1.296875q-1.234375 -1.3125 -1.234375 -3.671875q0 -2.453125 1.25 -3.796875q1.265625 -1.34375 3.265625 -1.34375q1.9375 0 3.15625 1.328125q1.234375 1.3125 1.234375 3.703125q0 0.15625 0 0.4375l-7.21875 0q0.09375 1.59375 0.90625 2.453125q0.8125 0.84375 2.015625 0.84375q0.90625 0 1.546875 -0.46875q0.640625 -0.484375 1.015625 -1.515625zm-5.390625 -2.65625l5.40625 0q-0.109375 -1.21875 -0.625 -1.828125q-0.78125 -0.953125 -2.03125 -0.953125q-1.125 0 -1.90625 0.765625q-0.765625 0.75 -0.84375 2.015625zm9.125702 5.765625l0 -9.671875l1.46875 0l0 1.46875q0.5625 -1.03125 1.03125 -1.359375q0.484375 -0.328125 1.0625 -0.328125q0.828125 0 1.6875 0.53125l-0.5625 1.515625q-0.609375 -0.359375 -1.203125 -0.359375q-0.546875 0 -0.96875 0.328125q-0.421875 0.328125 -0.609375 0.890625q-0.28125 0.875 -0.28125 1.921875l0 5.0625l-1.625 0z" fill-rule="nonzero"/><path fill="#000000" fill-opacity="0.0" d="m439.7139 170.11438l40.283478 0l0 41.70079l-40.283478 0z" fill-rule="evenodd"/><path fill="#000000" d="m449.87015 200.75313l-0.1875 -1.53125q0.546875 0.140625 0.9375 0.140625q0.546875 0 0.875 -0.1875q0.328125 -0.171875 0.546875 -0.5q0.15625 -0.25 0.5 -1.21875q0.046875 -0.140625 0.140625 -0.40625l-3.671875 -9.6875l1.765625 0l2.015625 5.59375q0.390625 1.078125 0.703125 2.25q0.28125 -1.125 0.671875 -2.203125l2.078125 -5.640625l1.640625 0l-3.6875 9.828125q-0.59375 1.609375 -0.921875 2.203125q-0.4375 0.8125 -1.0 1.1875q-0.5625 0.375 -1.34375 0.375q-0.484375 0 -1.0625 -0.203125zm3.984375 -16.140625l-1.03125 1.546875l-1.875 0l1.96875 -2.546875l1.734375 0l2.0625 2.546875l-1.859375 0l-1.0 -1.546875z" fill-rule="nonzero"/></g></svg>