<svg version="1.1" viewBox="0.0 0.0 573.5643044619422 611.8608923884515" fill="none" stroke="none" stroke-linecap="square" stroke-miterlimit="10" xmlns:xlink="http://www.w3.org/1999/xlink" xmlns="http://www.w3.org/2000/svg"><clipPath id="p.0"><path d="m0 0l573.56433 0l0 611.8609l-573.56433 0l0 -611.8609z" clip-rule="nonzero"/></clipPath><g clip-path="url(#p.0)"><path fill="#000000" fill-opacity="0.0" d="m0 0l573.56433 0l0 611.8609l-573.56433 0z" fill-rule="evenodd"/><path fill="#6fa8dc" d="m56.64042 225.6655l0 0c0 -16.45549 13.925003 -29.795288 31.102364 -29.795288l0 0c8.248856 0 16.159866 3.139145 21.992691 8.726837c5.8328247 5.5877075 9.109673 13.1662445 9.109673 21.06845l0 0c0 16.455475 -13.925003 29.795273 -31.102364 29.795273l0 0c-17.17736 0 -31.102364 -13.339798 -31.102364 -29.795273z" fill-rule="evenodd"/><path stroke="#000000" stroke-width="1.0" stroke-linejoin="round" stroke-linecap="butt" d="m56.64042 225.6655l0 0c0 -16.45549 13.925003 -29.795288 31.102364 -29.795288l0 0c8.248856 0 16.159866 3.139145 21.992691 8.726837c5.8328247 5.5877075 9.109673 13.1662445 9.109673 21.06845l0 0c0 16.455475 -13.925003 29.795273 -31.102364 29.795273l0 0c-17.17736 0 -31.102364 -13.339798 -31.102364 -29.795273z" fill-rule="evenodd"/><path fill="#000000" d="m74.96884 236.32549l5.546875 -7.90625l-5.140625 -7.296875l3.234375 0l2.328125 3.5625q0.65625 1.015625 1.0625 1.703125q0.625 -0.953125 1.15625 -1.671875l2.5625 -3.59375l3.078125 0l-5.25 7.15625l5.65625 8.046875l-3.171875 0l-3.125 -4.71875l-0.828125 -1.28125l-3.984375 6.0l-3.125 0z" fill-rule="nonzero"/><path fill="#000000" d="m90.226654 240.41924q0 -2.46875 0.5 -3.984375q0.515625 -1.515625 1.515625 -2.328125q1.015625 -0.828125 2.546875 -0.828125q1.125 0 1.96875 0.453125q0.859375 0.453125 1.40625 1.3125q0.5625 0.84375 0.875 2.078125q0.3125 1.21875 0.3125 3.296875q0 2.46875 -0.515625 3.984375q-0.5 1.515625 -1.515625 2.34375q-1.0 0.8125 -2.53125 0.8125q-2.03125 0 -3.1875 -1.453125q-1.375 -1.734375 -1.375 -5.6875zm1.765625 0q0 3.453125 0.796875 4.59375q0.8125 1.140625 2.0 1.140625q1.1875 0 1.984375 -1.140625q0.8125 -1.15625 0.8125 -4.59375q0 -3.453125 -0.8125 -4.578125q-0.796875 -1.140625 -2.0 -1.140625q-1.1875 0 -1.890625 1.0q-0.890625 1.28125 -0.890625 4.71875z" fill-rule="nonzero"/><path fill="#6fa8dc" d="m56.64042 342.99054l0 0c0 -16.455475 13.925003 -29.795288 31.102364 -29.795288l0 0c8.248856 0 16.159866 3.1391602 21.992691 8.726837c5.8328247 5.5877075 9.109673 13.16626 9.109673 21.06845l0 0c0 16.455475 -13.925003 29.795258 -31.102364 29.795258l0 0c-17.17736 0 -31.102364 -13.339783 -31.102364 -29.795258z" fill-rule="evenodd"/><path stroke="#000000" stroke-width="1.0" stroke-linejoin="round" stroke-linecap="butt" d="m56.64042 342.99054l0 0c0 -16.455475 13.925003 -29.795288 31.102364 -29.795288l0 0c8.248856 0 16.159866 3.1391602 21.992691 8.726837c5.8328247 5.5877075 9.109673 13.16626 9.109673 21.06845l0 0c0 16.455475 -13.925003 29.795258 -31.102364 29.795258l0 0c-17.17736 0 -31.102364 -13.339783 -31.102364 -29.795258z" fill-rule="evenodd"/><path fill="#000000" d="m74.96884 353.65054l5.546875 -7.90625l-5.140625 -7.296875l3.234375 0l2.328125 3.5625q0.65625 1.015625 1.0625 1.703125q0.625 -0.953125 1.15625 -1.671875l2.5625 -3.59375l3.078125 0l-5.25 7.15625l5.65625 8.046875l-3.171875 0l-3.125 -4.71875l-0.828125 -1.28125l-3.984375 6.0l-3.125 0z" fill-rule="nonzero"/><path fill="#000000" d="m96.695404 364.65054l-1.71875 0l0 -10.953125q-0.625 0.59375 -1.625 1.1875q-1.0 0.59375 -1.8125 0.890625l0 -1.65625q1.4375 -0.6875 2.515625 -1.640625q1.09375 -0.96875 1.53125 -1.875l1.109375 0l0 14.046875z" fill-rule="nonzero"/><path fill="#c27ba0" d="m248.64043 54.13271l0 0c0 -16.455479 13.925003 -29.795277 31.10234 -29.795277l0 0c8.248871 0 16.159882 3.1391354 21.992706 8.726833c5.8328247 5.5877 9.10968 13.1662445 9.10968 21.068443l0 0c0 16.455471 -13.925018 29.795277 -31.102386 29.795277l0 0c-17.177338 0 -31.10234 -13.339806 -31.10234 -29.795277z" fill-rule="evenodd"/><path stroke="#000000" stroke-width="1.0" stroke-linejoin="round" stroke-linecap="butt" d="m248.64043 54.13271l0 0c0 -16.455479 13.925003 -29.795277 31.10234 -29.795277l0 0c8.248871 0 16.159882 3.1391354 21.992706 8.726833c5.8328247 5.5877 9.10968 13.1662445 9.10968 21.068443l0 0c0 16.455471 -13.925018 29.795277 -31.102386 29.795277l0 0c-17.177338 0 -31.10234 -13.339806 -31.10234 -29.795277z" fill-rule="evenodd"/><path fill="#000000" d="m285.95688 45.13146q0 -0.453125 0.28125 -0.921875q0.28125 -0.46875 0.28125 -0.53125q0 -0.453125 -0.59375 -0.453125q-1.828125 0 -3.15625 5.171875l-0.625 2.453125l3.203125 0l-0.3125 1.453125l-3.125 0q-0.59375 2.703125 -1.09375 5.15625q-0.5 2.4375 -1.0625 4.578125q-0.546875 2.1249962 -1.109375 3.9062462q-0.546875 1.78125 -1.265625 3.1875q-0.703125 1.40625 -1.53125 2.375q-0.828125 0.96875 -1.90625 1.484375q-1.078125 0.53125 -2.390625 0.53125q-1.5625 0 -2.5 -0.75q-0.9375 -0.75 -0.9375 -2.0q0 -0.75 0.546875 -1.3125q0.53125 -0.546875 1.25 -0.546875q0.671875 0 1.1875 0.515625q0.515625 0.515625 0.515625 1.140625q0 0.484375 -0.265625 0.9375q-0.28125 0.453125 -0.28125 0.5625q0 0.375 0.625 0.375q0.40625 0 0.71875 -0.1875q0.3125 -0.1875 0.578125 -0.46875q0.25 -0.28125 0.546875 -1.171875q0.296875 -0.875 0.53125 -1.6875q0.25 -0.8125 0.65625 -2.640625q0.421875 -1.84375 0.78125 -3.4531212q0.375 -1.625 1.046875 -4.703125q0.671875 -3.09375 1.296875 -5.828125l-2.515625 0l0.296875 -1.453125l2.53125 0q0.53125 -1.875 1.109375 -3.21875q0.59375 -1.359375 1.484375 -2.6875q0.90625 -1.328125 2.21875 -2.015625q1.328125 -0.703125 3.03125 -0.703125q1.546875 0 2.484375 0.75q0.9375 0.734375 0.9375 2.015625q0 0.796875 -0.5 1.328125q-0.5 0.515625 -1.265625 0.515625q-0.6875 0 -1.203125 -0.5q-0.5 -0.5 -0.5 -1.203125z" fill-rule="nonzero"/><path fill="#c27ba0" d="m248.64043 146.52332l0 0c0 -16.455475 13.925003 -29.795273 31.10234 -29.795273l0 0c8.248871 0 16.159882 3.1391373 21.992706 8.726837c5.8328247 5.5876923 9.10968 13.1662445 9.10968 21.068436l0 0c0 16.455475 -13.925018 29.795273 -31.102386 29.795273l0 0c-17.177338 0 -31.10234 -13.339798 -31.10234 -29.795273z" fill-rule="evenodd"/><path stroke="#000000" stroke-width="1.0" stroke-linejoin="round" stroke-linecap="butt" d="m248.64043 146.52332l0 0c0 -16.455475 13.925003 -29.795273 31.10234 -29.795273l0 0c8.248871 0 16.159882 3.1391373 21.992706 8.726837c5.8328247 5.5876923 9.10968 13.1662445 9.10968 21.068436l0 0c0 16.455475 -13.925018 29.795273 -31.102386 29.795273l0 0c-17.177338 0 -31.10234 -13.339798 -31.10234 -29.795273z" fill-rule="evenodd"/><path fill="#000000" d="m285.95688 137.52206q0 -0.453125 0.28125 -0.921875q0.28125 -0.46875 0.28125 -0.53125q0 -0.453125 -0.59375 -0.453125q-1.828125 0 -3.15625 5.171875l-0.625 2.453125l3.203125 0l-0.3125 1.453125l-3.125 0q-0.59375 2.703125 -1.09375 5.15625q-0.5 2.4375 -1.0625 4.578125q-0.546875 2.125 -1.109375 3.90625q-0.546875 1.78125 -1.265625 3.1875q-0.703125 1.40625 -1.53125 2.375q-0.828125 0.96875 -1.90625 1.484375q-1.078125 0.53125 -2.390625 0.53125q-1.5625 0 -2.5 -0.75q-0.9375 -0.75 -0.9375 -2.0q0 -0.75 0.546875 -1.3125q0.53125 -0.546875 1.25 -0.546875q0.671875 0 1.1875 0.515625q0.515625 0.515625 0.515625 1.140625q0 0.484375 -0.265625 0.9375q-0.28125 0.453125 -0.28125 0.5625q0 0.375 0.625 0.375q0.40625 0 0.71875 -0.1875q0.3125 -0.1875 0.578125 -0.46875q0.25 -0.28125 0.546875 -1.171875q0.296875 -0.875 0.53125 -1.6875q0.25 -0.8125 0.65625 -2.640625q0.421875 -1.84375 0.78125 -3.453125q0.375 -1.625 1.046875 -4.703125q0.671875 -3.09375 1.296875 -5.828125l-2.515625 0l0.296875 -1.453125l2.53125 0q0.53125 -1.875 1.109375 -3.21875q0.59375 -1.359375 1.484375 -2.6875q0.90625 -1.328125 2.21875 -2.015625q1.328125 -0.703125 3.03125 -0.703125q1.546875 0 2.484375 0.75q0.9375 0.734375 0.9375 2.015625q0 0.796875 -0.5 1.328125q-0.5 0.515625 -1.265625 0.515625q-0.6875 0 -1.203125 -0.5q-0.5 -0.5 -0.5 -1.203125z" fill-rule="nonzero"/><path fill="#c27ba0" d="m248.64043 234.58267l0 0c0 -16.455475 13.925003 -29.795273 31.10234 -29.795273l0 0c8.248871 0 16.159882 3.139145 21.992706 8.726837c5.8328247 5.5876923 9.10968 13.1662445 9.10968 21.068436l0 0c0 16.455475 -13.925018 29.795288 -31.102386 29.795288l0 0c-17.177338 0 -31.10234 -13.339813 -31.10234 -29.795288z" fill-rule="evenodd"/><path stroke="#000000" stroke-width="1.0" stroke-linejoin="round" stroke-linecap="butt" d="m248.64043 234.58267l0 0c0 -16.455475 13.925003 -29.795273 31.10234 -29.795273l0 0c8.248871 0 16.159882 3.139145 21.992706 8.726837c5.8328247 5.5876923 9.10968 13.1662445 9.10968 21.068436l0 0c0 16.455475 -13.925018 29.795288 -31.102386 29.795288l0 0c-17.177338 0 -31.10234 -13.339813 -31.10234 -29.795288z" fill-rule="evenodd"/><path fill="#000000" d="m285.95688 225.58142q0 -0.453125 0.28125 -0.921875q0.28125 -0.46875 0.28125 -0.53125q0 -0.453125 -0.59375 -0.453125q-1.828125 0 -3.15625 5.171875l-0.625 2.453125l3.203125 0l-0.3125 1.453125l-3.125 0q-0.59375 2.703125 -1.09375 5.15625q-0.5 2.4375 -1.0625 4.578125q-0.546875 2.125 -1.109375 3.90625q-0.546875 1.78125 -1.265625 3.1875q-0.703125 1.40625 -1.53125 2.375q-0.828125 0.96875 -1.90625 1.484375q-1.078125 0.53125 -2.390625 0.53125q-1.5625 0 -2.5 -0.75q-0.9375 -0.75 -0.9375 -2.0q0 -0.75 0.546875 -1.3125q0.53125 -0.546875 1.25 -0.546875q0.671875 0 1.1875 0.515625q0.515625 0.515625 0.515625 1.140625q0 0.484375 -0.265625 0.9375q-0.28125 0.453125 -0.28125 0.5625q0 0.375 0.625 0.375q0.40625 0 0.71875 -0.1875q0.3125 -0.1875 0.578125 -0.46875q0.25 -0.28125 0.546875 -1.171875q0.296875 -0.875 0.53125 -1.6875q0.25 -0.8125 0.65625 -2.640625q0.421875 -1.84375 0.78125 -3.453125q0.375 -1.625 1.046875 -4.703125q0.671875 -3.09375 1.296875 -5.828125l-2.515625 0l0.296875 -1.453125l2.53125 0q0.53125 -1.875 1.109375 -3.21875q0.59375 -1.359375 1.484375 -2.6875q0.90625 -1.328125 2.21875 -2.015625q1.328125 -0.703125 3.03125 -0.703125q1.546875 0 2.484375 0.75q0.9375 0.734375 0.9375 2.015625q0 0.796875 -0.5 1.328125q-0.5 0.515625 -1.265625 0.515625q-0.6875 0 -1.203125 -0.5q-0.5 -0.5 -0.5 -1.203125z" fill-rule="nonzero"/><path fill="#93c47d" d="m400.6404 210.89255l0 0c0 -16.455475 13.925018 -29.795273 31.102356 -29.795273l0 0c8.248871 0 16.159882 3.1391296 21.992706 8.726837c5.8328247 5.5876923 9.10968 13.1662445 9.10968 21.068436l0 0c0 16.455475 -13.925018 29.795273 -31.102386 29.795273l0 0c-17.177338 0 -31.102356 -13.339798 -31.102356 -29.795273z" fill-rule="evenodd"/><path stroke="#000000" stroke-width="1.0" stroke-linejoin="round" stroke-linecap="butt" d="m400.6404 210.89255l0 0c0 -16.455475 13.925018 -29.795273 31.102356 -29.795273l0 0c8.248871 0 16.159882 3.1391296 21.992706 8.726837c5.8328247 5.5876923 9.10968 13.1662445 9.10968 21.068436l0 0c0 16.455475 -13.925018 29.795273 -31.102386 29.795273l0 0c-17.177338 0 -31.102356 -13.339798 -31.102356 -29.795273z" fill-rule="evenodd"/><path fill="#000000" fill-opacity="0.0" d="m118.845146 225.6655l138.89761 -150.4567" fill-rule="evenodd"/><path stroke="#000000" stroke-width="1.0" stroke-linejoin="round" stroke-linecap="butt" d="m118.845146 225.6655l134.82773 -146.0481" fill-rule="evenodd"/><path fill="#000000" stroke="#000000" stroke-width="1.0" stroke-linecap="butt" d="m254.8865 80.73781l1.8646545 -4.4548492l-4.291931 2.2140503z" fill-rule="evenodd"/><path fill="#000000" fill-opacity="0.0" d="m118.845146 225.6655l129.79529 -79.14961" fill-rule="evenodd"/><path stroke="#000000" stroke-width="1.0" stroke-linejoin="round" stroke-linecap="butt" d="m118.845146 225.6655l124.672615 -76.02579" fill-rule="evenodd"/><path fill="#000000" stroke="#000000" stroke-width="1.0" stroke-linecap="butt" d="m244.3777 151.04991l3.0145721 -3.7729034l-4.734482 0.95248413z" fill-rule="evenodd"/><path fill="#000000" fill-opacity="0.0" d="m118.845146 225.6655l129.79529 8.913376" fill-rule="evenodd"/><path stroke="#000000" stroke-width="1.0" stroke-linejoin="round" stroke-linecap="butt" d="m118.845146 225.6655l123.80938 8.502319" fill-rule="evenodd"/><path fill="#000000" stroke="#000000" stroke-width="1.0" stroke-linecap="butt" d="m242.54135 235.81567l4.6405945 -1.3369446l-4.414261 -1.9587708z" fill-rule="evenodd"/><path fill="#000000" fill-opacity="0.0" d="m118.845146 342.99054l138.89761 -267.77954" fill-rule="evenodd"/><path stroke="#000000" stroke-width="1.0" stroke-linejoin="round" stroke-linecap="butt" d="m118.845146 342.99054l136.13495 -262.4534" fill-rule="evenodd"/><path fill="#000000" stroke="#000000" stroke-width="1.0" stroke-linecap="butt" d="m256.44632 81.29767l0.62332153 -4.788948l-3.5557556 3.2678833z" fill-rule="evenodd"/><path fill="#000000" fill-opacity="0.0" d="m118.845146 342.99054l129.79529 -196.47244" fill-rule="evenodd"/><path stroke="#000000" stroke-width="1.0" stroke-linejoin="round" stroke-linecap="butt" d="m118.845146 342.99054l126.48803 -191.46623" fill-rule="evenodd"/><path fill="#000000" stroke="#000000" stroke-width="1.0" stroke-linecap="butt" d="m246.71133 152.43475l1.1232758 -4.6968994l-3.879593 2.876007z" fill-rule="evenodd"/><path fill="#000000" fill-opacity="0.0" d="m118.845146 342.99054l129.79529 -108.409454" fill-rule="evenodd"/><path stroke="#000000" stroke-width="1.0" stroke-linejoin="round" stroke-linecap="butt" d="m118.845146 342.99054l125.19024 -104.56319" fill-rule="evenodd"/><path fill="#000000" stroke="#000000" stroke-width="1.0" stroke-linecap="butt" d="m245.09424 239.69505l2.4241638 -4.176834l-4.5418396 1.6414185z" fill-rule="evenodd"/><path fill="#000000" fill-opacity="0.0" d="m310.84515 54.13271l89.79526 156.7559" fill-rule="evenodd"/><path stroke="#000000" stroke-width="1.0" stroke-linejoin="round" stroke-linecap="butt" d="m310.84515 54.13271l86.8129 151.5496" fill-rule="evenodd"/><path fill="#000000" stroke="#000000" stroke-width="1.0" stroke-linecap="butt" d="m396.22482 206.50333l3.6889343 3.1167755l-0.82244873 -4.758789z" fill-rule="evenodd"/><path fill="#000000" fill-opacity="0.0" d="m310.84515 146.52332l89.79526 64.37796" fill-rule="evenodd"/><path stroke="#000000" stroke-width="1.0" stroke-linejoin="round" stroke-linecap="butt" d="m310.84515 146.52332l84.91901 60.881943" fill-rule="evenodd"/><path fill="#000000" stroke="#000000" stroke-width="1.0" stroke-linecap="butt" d="m394.80176 208.74765l4.650543 1.3018188l-2.7257385 -3.9865875z" fill-rule="evenodd"/><path fill="#000000" fill-opacity="0.0" d="m310.84515 234.58267l89.79526 -23.685028" fill-rule="evenodd"/><path stroke="#000000" stroke-width="1.0" stroke-linejoin="round" stroke-linecap="butt" d="m310.84515 234.58267l83.99368 -22.15477" fill-rule="evenodd"/><path fill="#000000" stroke="#000000" stroke-width="1.0" stroke-linecap="butt" d="m395.2601 214.02501l3.9667664 -2.7545166l-4.8092957 -0.43969727z" fill-rule="evenodd"/><path fill="#000000" fill-opacity="0.0" d="m462.84515 210.89255l31.590546 0" fill-rule="evenodd"/><path stroke="#000000" stroke-width="1.0" stroke-linejoin="round" stroke-linecap="butt" d="m462.84515 210.89255l25.590546 0" fill-rule="evenodd"/><path fill="#000000" stroke="#000000" stroke-width="1.0" stroke-linecap="butt" d="m488.4357 212.54428l4.538086 -1.6517334l-4.538086 -1.6517334z" fill-rule="evenodd"/><path fill="#000000" fill-opacity="0.0" d="m215.71391 540.7769l136.66142 0l0 41.700745l-136.66142 0z" fill-rule="evenodd"/><path fill="#000000" d="m226.21391 567.6969l0 -13.359375l1.765625 0l0 5.484375l6.9375 0l0 -5.484375l1.765625 0l0 13.359375l-1.765625 0l0 -6.296875l-6.9375 0l0 6.296875l-1.765625 0zm13.207321 -11.46875l0 -1.890625l1.640625 0l0 1.890625l-1.640625 0zm0 11.46875l0 -9.671875l1.640625 0l0 9.671875l-1.640625 0zm10.410446 0l0 -1.21875q-0.90625 1.4375 -2.703125 1.4375q-1.15625 0 -2.125 -0.640625q-0.96875 -0.640625 -1.5 -1.78125q-0.53125 -1.140625 -0.53125 -2.625q0 -1.453125 0.484375 -2.625q0.484375 -1.1875 1.4375 -1.8125q0.96875 -0.625 2.171875 -0.625q0.875 0 1.546875 0.375q0.6875 0.359375 1.109375 0.953125l0 -4.796875l1.640625 0l0 13.359375l-1.53125 0zm-5.171875 -4.828125q0 1.859375 0.78125 2.78125q0.78125 0.921875 1.84375 0.921875q1.078125 0 1.828125 -0.875q0.75 -0.890625 0.75 -2.6875q0 -1.984375 -0.765625 -2.90625q-0.765625 -0.9375 -1.890625 -0.9375q-1.078125 0 -1.8125 0.890625q-0.734375 0.890625 -0.734375 2.8125zm15.547592 4.828125l0 -1.21875q-0.90625 1.4375 -2.703125 1.4375q-1.15625 0 -2.125 -0.640625q-0.96875 -0.640625 -1.5 -1.78125q-0.53125 -1.140625 -0.53125 -2.625q0 -1.453125 0.484375 -2.625q0.484375 -1.1875 1.4375 -1.8125q0.96875 -0.625 2.171875 -0.625q0.875 0 1.546875 0.375q0.6875 0.359375 1.109375 0.953125l0 -4.796875l1.640625 0l0 13.359375l-1.53125 0zm-5.171875 -4.828125q0 1.859375 0.78125 2.78125q0.78125 0.921875 1.84375 0.921875q1.078125 0 1.828125 -0.875q0.75 -0.890625 0.75 -2.6875q0 -1.984375 -0.765625 -2.90625q-0.765625 -0.9375 -1.890625 -0.9375q-1.078125 0 -1.8125 0.890625q-0.734375 0.890625 -0.734375 2.8125zm15.906952 1.71875l1.6875 0.203125q-0.40625 1.484375 -1.484375 2.3125q-1.078125 0.8125 -2.765625 0.8125q-2.125 0 -3.375 -1.296875q-1.234375 -1.3125 -1.234375 -3.671875q0 -2.453125 1.25 -3.796875q1.265625 -1.34375 3.265625 -1.34375q1.9375 0 3.15625 1.328125q1.234375 1.3125 1.234375 3.703125q0 0.15625 0 0.4375l-7.21875 0q0.09375 1.59375 0.90625 2.453125q0.8125 0.84375 2.015625 0.84375q0.90625 0 1.546875 -0.46875q0.640625 -0.484375 1.015625 -1.515625zm-5.390625 -2.65625l5.40625 0q-0.109375 -1.21875 -0.625 -1.828125q-0.78125 -0.953125 -2.03125 -0.953125q-1.125 0 -1.90625 0.765625q-0.765625 0.75 -0.84375 2.015625zm9.141357 5.765625l0 -9.671875l1.46875 0l0 1.375q1.0625 -1.59375 3.078125 -1.59375q0.875 0 1.609375 0.3125q0.734375 0.3125 1.09375 0.828125q0.375 0.5 0.515625 1.203125q0.09375 0.453125 0.09375 1.59375l0 5.953125l-1.640625 0l0 -5.890625q0 -1.0 -0.203125 -1.484375q-0.1875 -0.5 -0.671875 -0.796875q-0.484375 -0.296875 -1.140625 -0.296875q-1.046875 0 -1.8125 0.671875q-0.75 0.65625 -0.75 2.515625l0 5.28125l-1.640625 0zm15.684021 0l0 -13.359375l1.78125 0l0 11.78125l6.5625 0l0 1.578125l-8.34375 0zm16.563202 -1.1875q-0.921875 0.765625 -1.765625 1.09375q-0.828125 0.3125 -1.796875 0.3125q-1.59375 0 -2.453125 -0.78125q-0.859375 -0.78125 -0.859375 -1.984375q0 -0.71875 0.328125 -1.296875q0.328125 -0.59375 0.84375 -0.9375q0.53125 -0.359375 1.1875 -0.546875q0.46875 -0.125 1.453125 -0.25q1.984375 -0.234375 2.921875 -0.5625q0.015625 -0.34375 0.015625 -0.421875q0 -1.0 -0.46875 -1.421875q-0.625 -0.546875 -1.875 -0.546875q-1.15625 0 -1.703125 0.40625q-0.546875 0.40625 -0.8125 1.421875l-1.609375 -0.21875q0.21875 -1.015625 0.71875 -1.640625q0.5 -0.640625 1.453125 -0.984375q0.953125 -0.34375 2.1875 -0.34375q1.25 0 2.015625 0.296875q0.78125 0.28125 1.140625 0.734375q0.375 0.4375 0.515625 1.109375q0.078125 0.421875 0.078125 1.515625l0 2.1875q0 2.28125 0.109375 2.890625q0.109375 0.59375 0.40625 1.15625l-1.703125 0q-0.265625 -0.515625 -0.328125 -1.1875zm-0.140625 -3.671875q-0.890625 0.375 -2.671875 0.625q-1.015625 0.140625 -1.4375 0.328125q-0.421875 0.1875 -0.65625 0.53125q-0.21875 0.34375 -0.21875 0.78125q0 0.65625 0.5 1.09375q0.5 0.4375 1.453125 0.4375q0.9375 0 1.671875 -0.40625q0.75 -0.421875 1.09375 -1.140625q0.265625 -0.5625 0.265625 -1.640625l0 -0.609375zm4.1257324 8.578125l-0.1875 -1.53125q0.546875 0.140625 0.9375 0.140625q0.546875 0 0.875 -0.1875q0.328125 -0.171875 0.546875 -0.5q0.15625 -0.25 0.5 -1.21875q0.046875 -0.140625 0.140625 -0.40625l-3.671875 -9.6875l1.765625 0l2.015625 5.59375q0.390625 1.078125 0.703125 2.25q0.28125 -1.125 0.671875 -2.203125l2.078125 -5.640625l1.640625 0l-3.6875 9.828125q-0.59375 1.609375 -0.921875 2.203125q-0.4375 0.8125 -1.0 1.1875q-0.5625 0.375 -1.34375 0.375q-0.484375 0 -1.0625 -0.203125zm16.03125 -6.828125l1.6875 0.203125q-0.40625 1.484375 -1.484375 2.3125q-1.078125 0.8125 -2.765625 0.8125q-2.125 0 -3.375 -1.296875q-1.234375 -1.3125 -1.234375 -3.671875q0 -2.453125 1.25 -3.796875q1.265625 -1.34375 3.265625 -1.34375q1.9375 0 3.15625 1.328125q1.234375 1.3125 1.234375 3.703125q0 0.15625 0 0.4375l-7.21875 0q0.09375 1.59375 0.90625 2.453125q0.8125 0.84375 2.015625 0.84375q0.90625 0 1.546875 -0.46875q0.640625 -0.484375 1.015625 -1.515625zm-5.390625 -2.65625l5.40625 0q-0.109375 -1.21875 -0.625 -1.828125q-0.78125 -0.953125 -2.03125 -0.953125q-1.125 0 -1.90625 0.765625q-0.765625 0.75 -0.84375 2.015625zm9.125702 5.765625l0 -9.671875l1.46875 0l0 1.46875q0.5625 -1.03125 1.03125 -1.359375q0.484375 -0.328125 1.0625 -0.328125q0.828125 0 1.6875 0.53125l-0.5625 1.515625q-0.609375 -0.359375 -1.203125 -0.359375q-0.546875 0 -0.96875 0.328125q-0.421875 0.328125 -0.609375 0.890625q-0.28125 0.875 -0.28125 1.921875l0 5.0625l-1.625 0z" fill-rule="nonzero"/><path fill="#000000" fill-opacity="0.0" d="m39.71391 409.18475l136.66142 0l0 41.700806l-136.66142 0z" fill-rule="evenodd"/><path fill="#000000" d="m50.448284 436.10477l0 -13.359375l1.765625 0l0 13.359375l-1.765625 0zm4.683304 0l0 -9.671875l1.46875 0l0 1.375q1.0625 -1.59375 3.078125 -1.59375q0.875 0 1.609375 0.3125q0.734375 0.3125 1.09375 0.828125q0.375 0.5 0.515625 1.203125q0.09375 0.453125 0.09375 1.59375l0 5.953125l-1.640625 0l0 -5.890625q0 -1.0 -0.203125 -1.484375q-0.1875 -0.5 -0.671875 -0.796875q-0.484375 -0.296875 -1.140625 -0.296875q-1.046875 0 -1.8125 0.671875q-0.75 0.65625 -0.75 2.515625l0 5.28125l-1.640625 0zm10.375721 3.703125l0 -13.375l1.484375 0l0 1.25q0.53125 -0.734375 1.1875 -1.09375q0.671875 -0.375 1.625 -0.375q1.234375 0 2.171875 0.640625q0.953125 0.625 1.4375 1.796875q0.484375 1.15625 0.484375 2.546875q0 1.484375 -0.53125 2.671875q-0.53125 1.1875 -1.546875 1.828125q-1.015625 0.625 -2.140625 0.625q-0.8125 0 -1.46875 -0.34375q-0.65625 -0.34375 -1.0625 -0.875l0 4.703125l-1.640625 0zm1.484375 -8.484375q0 1.859375 0.75 2.765625q0.765625 0.890625 1.828125 0.890625q1.09375 0 1.875 -0.921875q0.78125 -0.9375 0.78125 -2.875q0 -1.84375 -0.765625 -2.765625q-0.75 -0.921875 -1.8125 -0.921875q-1.046875 0 -1.859375 0.984375q-0.796875 0.96875 -0.796875 2.84375zm15.219467 4.78125l0 -1.421875q-1.125 1.640625 -3.0625 1.640625q-0.859375 0 -1.609375 -0.328125q-0.734375 -0.328125 -1.09375 -0.828125q-0.359375 -0.5 -0.5 -1.21875q-0.109375 -0.46875 -0.109375 -1.53125l0 -5.984375l1.640625 0l0 5.359375q0 1.28125 0.109375 1.734375q0.15625 0.640625 0.65625 1.015625q0.5 0.375 1.234375 0.375q0.734375 0 1.375 -0.375q0.65625 -0.390625 0.921875 -1.03125q0.265625 -0.65625 0.265625 -1.890625l0 -5.1875l1.640625 0l0 9.671875l-1.46875 0zm7.625717 -1.46875l0.234375 1.453125q-0.6875 0.140625 -1.234375 0.140625q-0.890625 0 -1.390625 -0.28125q-0.484375 -0.28125 -0.6875 -0.734375q-0.203125 -0.46875 -0.203125 -1.9375l0 -5.578125l-1.203125 0l0 -1.265625l1.203125 0l0 -2.390625l1.625 -0.984375l0 3.375l1.65625 0l0 1.265625l-1.65625 0l0 5.671875q0 0.6875 0.078125 0.890625q0.09375 0.203125 0.28125 0.328125q0.203125 0.109375 0.578125 0.109375q0.265625 0 0.71875 -0.0625zm6.9134827 1.46875l0 -13.359375l1.78125 0l0 11.78125l6.5625 0l0 1.578125l-8.34375 0zm16.563217 -1.1875q-0.921875 0.765625 -1.765625 1.09375q-0.828125 0.3125 -1.796875 0.3125q-1.59375 0 -2.453125 -0.78125q-0.859375 -0.78125 -0.859375 -1.984375q0 -0.71875 0.328125 -1.296875q0.328125 -0.59375 0.84375 -0.9375q0.53125 -0.359375 1.1875 -0.546875q0.46875 -0.125 1.453125 -0.25q1.984375 -0.234375 2.921875 -0.5625q0.015625 -0.34375 0.015625 -0.421875q0 -1.0 -0.46875 -1.421875q-0.625 -0.546875 -1.875 -0.546875q-1.15625 0 -1.703125 0.40625q-0.546875 0.40625 -0.8125 1.421875l-1.609375 -0.21875q0.21875 -1.015625 0.71875 -1.640625q0.5 -0.640625 1.453125 -0.984375q0.953125 -0.34375 2.1875 -0.34375q1.25 0 2.015625 0.296875q0.78125 0.28125 1.140625 0.734375q0.375 0.4375 0.515625 1.109375q0.078125 0.421875 0.078125 1.515625l0 2.1875q0 2.28125 0.109375 2.890625q0.109375 0.59375 0.40625 1.15625l-1.703125 0q-0.265625 -0.515625 -0.328125 -1.1875zm-0.140625 -3.671875q-0.890625 0.375 -2.671875 0.625q-1.015625 0.140625 -1.4375 0.328125q-0.421875 0.1875 -0.65625 0.53125q-0.21875 0.34375 -0.21875 0.78125q0 0.65625 0.5 1.09375q0.5 0.4375 1.453125 0.4375q0.9375 0 1.671875 -0.40625q0.75 -0.421875 1.09375 -1.140625q0.265625 -0.5625 0.265625 -1.640625l0 -0.609375zm4.125717 8.578125l-0.1875 -1.53125q0.546875 0.140625 0.9375 0.140625q0.546875 0 0.875 -0.1875q0.328125 -0.171875 0.546875 -0.5q0.15625 -0.25 0.5 -1.21875q0.046875 -0.140625 0.140625 -0.40625l-3.671875 -9.6875l1.765625 0l2.015625 5.59375q0.390625 1.078125 0.703125 2.25q0.28125 -1.125 0.671875 -2.203125l2.078125 -5.640625l1.640625 0l-3.6875 9.828125q-0.59375 1.609375 -0.921875 2.203125q-0.4375 0.8125 -1.0 1.1875q-0.5625 0.375 -1.34375 0.375q-0.484375 0 -1.0625 -0.203125zm16.03125 -6.828125l1.6875 0.203125q-0.40625 1.484375 -1.484375 2.3125q-1.078125 0.8125 -2.765625 0.8125q-2.125 0 -3.375 -1.296875q-1.234375 -1.3125 -1.234375 -3.671875q0 -2.453125 1.25 -3.796875q1.265625 -1.34375 3.265625 -1.34375q1.9375 0 3.15625 1.328125q1.234375 1.3125 1.234375 3.703125q0 0.15625 0 0.4375l-7.21875 0q0.09375 1.59375 0.90625 2.453125q0.8125 0.84375 2.015625 0.84375q0.90625 0 1.546875 -0.46875q0.640625 -0.484375 1.015625 -1.515625zm-5.390625 -2.65625l5.40625 0q-0.109375 -1.21875 -0.625 -1.828125q-0.78125 -0.953125 -2.03125 -0.953125q-1.125 0 -1.90625 0.765625q-0.765625 0.75 -0.84375 2.015625zm9.125717 5.765625l0 -9.671875l1.46875 0l0 1.46875q0.5625 -1.03125 1.03125 -1.359375q0.484375 -0.328125 1.0625 -0.328125q0.828125 0 1.6875 0.53125l-0.5625 1.515625q-0.609375 -0.359375 -1.203125 -0.359375q-0.546875 0 -0.96875 0.328125q-0.421875 0.328125 -0.609375 0.890625q-0.28125 0.875 -0.28125 1.921875l0 5.0625l-1.625 0z" fill-rule="nonzero"/><path fill="#000000" fill-opacity="0.0" d="m375.7139 404.77692l136.6614 0l0 41.700775l-136.6614 0z" fill-rule="evenodd"/><path fill="#000000" d="m385.62015 425.1969q0 -3.328125 1.78125 -5.203125q1.78125 -1.890625 4.609375 -1.890625q1.84375 0 3.328125 0.890625q1.484375 0.875 2.265625 2.46875q0.78125 1.578125 0.78125 3.578125q0 2.03125 -0.828125 3.640625q-0.8125 1.59375 -2.3125 2.421875q-1.5 0.828125 -3.25 0.828125q-1.875 0 -3.359375 -0.90625q-1.484375 -0.921875 -2.25 -2.5q-0.765625 -1.578125 -0.765625 -3.328125zm1.8125 0.015625q0 2.421875 1.296875 3.8125q1.296875 1.390625 3.265625 1.390625q2.0 0 3.28125 -1.40625q1.28125 -1.40625 1.28125 -3.984375q0 -1.625 -0.546875 -2.84375q-0.546875 -1.21875 -1.609375 -1.875q-1.0625 -0.671875 -2.375 -0.671875q-1.890625 0 -3.25 1.296875q-1.34375 1.28125 -1.34375 4.28125zm19.355194 6.484375l0 -1.421875q-1.125 1.640625 -3.0625 1.640625q-0.859375 0 -1.609375 -0.328125q-0.734375 -0.328125 -1.09375 -0.828125q-0.359375 -0.5 -0.5 -1.21875q-0.109375 -0.46875 -0.109375 -1.53125l0 -5.984375l1.640625 0l0 5.359375q0 1.28125 0.109375 1.734375q0.15625 0.640625 0.65625 1.015625q0.5 0.375 1.234375 0.375q0.734375 0 1.375 -0.375q0.65625 -0.390625 0.921875 -1.03125q0.265625 -0.65625 0.265625 -1.890625l0 -5.1875l1.640625 0l0 9.671875l-1.46875 0zm7.625702 -1.46875l0.234375 1.453125q-0.6875 0.140625 -1.234375 0.140625q-0.890625 0 -1.390625 -0.28125q-0.484375 -0.28125 -0.6875 -0.734375q-0.203125 -0.46875 -0.203125 -1.9375l0 -5.578125l-1.203125 0l0 -1.265625l1.203125 0l0 -2.390625l1.625 -0.984375l0 3.375l1.65625 0l0 1.265625l-1.65625 0l0 5.671875q0 0.6875 0.078125 0.890625q0.09375 0.203125 0.28125 0.328125q0.203125 0.109375 0.578125 0.109375q0.265625 0 0.71875 -0.0625zm1.6051941 5.171875l0 -13.375l1.484375 0l0 1.25q0.53125 -0.734375 1.1875 -1.09375q0.671875 -0.375 1.625 -0.375q1.234375 0 2.171875 0.640625q0.953125 0.625 1.4375 1.796875q0.484375 1.15625 0.484375 2.546875q0 1.484375 -0.53125 2.671875q-0.53125 1.1875 -1.546875 1.828125q-1.015625 0.625 -2.140625 0.625q-0.8125 0 -1.46875 -0.34375q-0.65625 -0.34375 -1.0625 -0.875l0 4.703125l-1.640625 0zm1.484375 -8.484375q0 1.859375 0.75 2.765625q0.765625 0.890625 1.828125 0.890625q1.09375 0 1.875 -0.921875q0.78125 -0.9375 0.78125 -2.875q0 -1.84375 -0.765625 -2.765625q-0.75 -0.921875 -1.8125 -0.921875q-1.046875 0 -1.859375 0.984375q-0.796875 0.96875 -0.796875 2.84375zm15.219452 4.78125l0 -1.421875q-1.125 1.640625 -3.0625 1.640625q-0.859375 0 -1.609375 -0.328125q-0.734375 -0.328125 -1.09375 -0.828125q-0.359375 -0.5 -0.5 -1.21875q-0.109375 -0.46875 -0.109375 -1.53125l0 -5.984375l1.640625 0l0 5.359375q0 1.28125 0.109375 1.734375q0.15625 0.640625 0.65625 1.015625q0.5 0.375 1.234375 0.375q0.734375 0 1.375 -0.375q0.65625 -0.390625 0.921875 -1.03125q0.265625 -0.65625 0.265625 -1.890625l0 -5.1875l1.640625 0l0 9.671875l-1.46875 0zm7.6257324 -1.46875l0.234375 1.453125q-0.6875 0.140625 -1.234375 0.140625q-0.890625 0 -1.390625 -0.28125q-0.484375 -0.28125 -0.6875 -0.734375q-0.203125 -0.46875 -0.203125 -1.9375l0 -5.578125l-1.203125 0l0 -1.265625l1.203125 0l0 -2.390625l1.625 -0.984375l0 3.375l1.65625 0l0 1.265625l-1.65625 0l0 5.671875q0 0.6875 0.078125 0.890625q0.09375 0.203125 0.28125 0.328125q0.203125 0.109375 0.578125 0.109375q0.265625 0 0.71875 -0.0625zm6.9134827 1.46875l0 -13.359375l1.78125 0l0 11.78125l6.5625 0l0 1.578125l-8.34375 0zm16.563202 -1.1875q-0.921875 0.765625 -1.765625 1.09375q-0.828125 0.3125 -1.796875 0.3125q-1.59375 0 -2.453125 -0.78125q-0.859375 -0.78125 -0.859375 -1.984375q0 -0.71875 0.328125 -1.296875q0.328125 -0.59375 0.84375 -0.9375q0.53125 -0.359375 1.1875 -0.546875q0.46875 -0.125 1.453125 -0.25q1.984375 -0.234375 2.921875 -0.5625q0.015625 -0.34375 0.015625 -0.421875q0 -1.0 -0.46875 -1.421875q-0.625 -0.546875 -1.875 -0.546875q-1.15625 0 -1.703125 0.40625q-0.546875 0.40625 -0.8125 1.421875l-1.609375 -0.21875q0.21875 -1.015625 0.71875 -1.640625q0.5 -0.640625 1.453125 -0.984375q0.953125 -0.34375 2.1875 -0.34375q1.25 0 2.015625 0.296875q0.78125 0.28125 1.140625 0.734375q0.375 0.4375 0.515625 1.109375q0.078125 0.421875 0.078125 1.515625l0 2.1875q0 2.28125 0.109375 2.890625q0.109375 0.59375 0.40625 1.15625l-1.703125 0q-0.265625 -0.515625 -0.328125 -1.1875zm-0.140625 -3.671875q-0.890625 0.375 -2.671875 0.625q-1.015625 0.140625 -1.4375 0.328125q-0.421875 0.1875 -0.65625 0.53125q-0.21875 0.34375 -0.21875 0.78125q0 0.65625 0.5 1.09375q0.5 0.4375 1.453125 0.4375q0.9375 0 1.671875 -0.40625q0.75 -0.421875 1.09375 -1.140625q0.265625 -0.5625 0.265625 -1.640625l0 -0.609375zm4.1257324 8.578125l-0.1875 -1.53125q0.546875 0.140625 0.9375 0.140625q0.546875 0 0.875 -0.1875q0.328125 -0.171875 0.546875 -0.5q0.15625 -0.25 0.5 -1.21875q0.046875 -0.140625 0.140625 -0.40625l-3.671875 -9.6875l1.765625 0l2.015625 5.59375q0.390625 1.078125 0.703125 2.25q0.28125 -1.125 0.671875 -2.203125l2.078125 -5.640625l1.640625 0l-3.6875 9.828125q-0.59375 1.609375 -0.921875 2.203125q-0.4375 0.8125 -1.0 1.1875q-0.5625 0.375 -1.34375 0.375q-0.484375 0 -1.0625 -0.203125zm16.03125 -6.828125l1.6875 0.203125q-0.40625 1.484375 -1.484375 2.3125q-1.078125 0.8125 -2.765625 0.8125q-2.125 0 -3.375 -1.296875q-1.234375 -1.3125 -1.234375 -3.671875q0 -2.453125 1.25 -3.796875q1.265625 -1.34375 3.265625 -1.34375q1.9375 0 3.15625 1.328125q1.234375 1.3125 1.234375 3.703125q0 0.15625 0 0.4375l-7.21875 0q0.09375 1.59375 0.90625 2.453125q0.8125 0.84375 2.015625 0.84375q0.90625 0 1.546875 -0.46875q0.640625 -0.484375 1.015625 -1.515625zm-5.390625 -2.65625l5.40625 0q-0.109375 -1.21875 -0.625 -1.828125q-0.78125 -0.953125 -2.03125 -0.953125q-1.125 0 -1.90625 0.765625q-0.765625 0.75 -0.84375 2.015625zm9.125702 5.765625l0 -9.671875l1.46875 0l0 1.46875q0.5625 -1.03125 1.03125 -1.359375q0.484375 -0.328125 1.0625 -0.328125q0.828125 0 1.6875 0.53125l-0.5625 1.515625q-0.609375 -0.359375 -1.203125 -0.359375q-0.546875 0 -0.96875 0.328125q-0.421875 0.328125 -0.609375 0.890625q-0.28125 0.875 -0.28125 1.921875l0 5.0625l-1.625 0z" fill-rule="nonzero"/><path fill="#000000" fill-opacity="0.0" d="m487.7139 179.31287l50.740143 0l0 41.70079l-50.740143 0z" fill-rule="evenodd"/><path fill="#000000" d="m498.44827 220.7866l-0.265625 -2.3125q0.796875 0.21875 1.40625 0.21875q0.8125 0 1.296875 -0.28125q0.5 -0.265625 0.8125 -0.75q0.234375 -0.375 0.765625 -1.84375q0.0625 -0.203125 0.21875 -0.59375l-5.515625 -14.546875l2.65625 0l3.015625 8.40625q0.59375 1.59375 1.046875 3.359375q0.4375 -1.6875 1.015625 -3.3125l3.109375 -8.453125l2.453125 0l-5.515625 14.765625q-0.890625 2.390625 -1.390625 3.296875q-0.65625 1.21875 -1.5 1.78125q-0.84375 0.5625 -2.015625 0.5625q-0.71875 0 -1.59375 -0.296875zm5.96875 -24.25l-1.546875 2.328125l-2.8125 0l2.953125 -3.828125l2.625 0l3.078125 3.828125l-2.796875 0l-1.5 -2.328125z" fill-rule="nonzero"/><path fill="#000000" d="m511.49515 219.0991q0 -2.359375 0.484375 -3.796875q0.48440552 -1.453125 1.4375305 -2.234375q0.96875 -0.78125 2.421875 -0.78125q1.078125 0 1.890625 0.4375q0.8125 0.421875 1.328125 1.25q0.53125 0.8125 0.828125 1.984375q0.3125 1.15625 0.3125 3.140625q0 2.359375 -0.484375 3.8125q-0.484375 1.4375 -1.453125 2.234375q-0.953125 0.78125 -2.421875 0.78125q-1.921875 0 -3.03125 -1.390625q-1.3125305 -1.671875 -1.3125305 -5.4375zm1.6719055 0q0 3.296875 0.765625 4.390625q0.78125 1.078125 1.90625 1.078125q1.140625 0 1.90625 -1.09375q0.765625 -1.09375 0.765625 -4.375q0 -3.296875 -0.765625 -4.375q-0.765625 -1.078125 -1.921875 -1.078125q-1.125 0 -1.796875 0.953125q-0.859375 1.21875 -0.859375 4.5z" fill-rule="nonzero"/><path fill="#ffd966" d="m248.64043 326.13272l0 0c0 -16.455475 13.925003 -29.795288 31.10234 -29.795288l0 0c8.248871 0 16.159882 3.1391296 21.992706 8.726837c5.8328247 5.5877075 9.10968 13.166229 9.10968 21.06845l0 0c0 16.455475 -13.925018 29.795258 -31.102386 29.795258l0 0c-17.177338 0 -31.10234 -13.339783 -31.10234 -29.795258z" fill-rule="evenodd"/><path stroke="#000000" stroke-width="1.0" stroke-linejoin="round" stroke-linecap="butt" d="m248.64043 326.13272l0 0c0 -16.455475 13.925003 -29.795288 31.10234 -29.795288l0 0c8.248871 0 16.159882 3.1391296 21.992706 8.726837c5.8328247 5.5877075 9.10968 13.166229 9.10968 21.06845l0 0c0 16.455475 -13.925018 29.795258 -31.102386 29.795258l0 0c-17.177338 0 -31.10234 -13.339783 -31.10234 -29.795258z" fill-rule="evenodd"/><path fill="#000000" d="m285.95688 317.13147q0 -0.453125 0.28125 -0.921875q0.28125 -0.46875 0.28125 -0.53125q0 -0.453125 -0.59375 -0.453125q-1.828125 0 -3.15625 5.171875l-0.625 2.453125l3.203125 0l-0.3125 1.453125l-3.125 0q-0.59375 2.703125 -1.09375 5.15625q-0.5 2.4375 -1.0625 4.578125q-0.546875 2.125 -1.109375 3.90625q-0.546875 1.78125 -1.265625 3.1875q-0.703125 1.40625 -1.53125 2.375q-0.828125 0.96875 -1.90625 1.484375q-1.078125 0.53125 -2.390625 0.53125q-1.5625 0 -2.5 -0.75q-0.9375 -0.75 -0.9375 -2.0q0 -0.75 0.546875 -1.3125q0.53125 -0.546875 1.25 -0.546875q0.671875 0 1.1875 0.515625q0.515625 0.515625 0.515625 1.140625q0 0.484375 -0.265625 0.9375q-0.28125 0.453125 -0.28125 0.5625q0 0.375 0.625 0.375q0.40625 0 0.71875 -0.1875q0.3125 -0.1875 0.578125 -0.46875q0.25 -0.28125 0.546875 -1.171875q0.296875 -0.875 0.53125 -1.6875q0.25 -0.8125 0.65625 -2.640625q0.421875 -1.84375 0.78125 -3.453125q0.375 -1.625 1.046875 -4.703125q0.671875 -3.09375 1.296875 -5.828125l-2.515625 0l0.296875 -1.453125l2.53125 0q0.53125 -1.875 1.109375 -3.21875q0.59375 -1.359375 1.484375 -2.6875q0.90625 -1.328125 2.21875 -2.015625q1.328125 -0.703125 3.03125 -0.703125q1.546875 0 2.484375 0.75q0.9375 0.734375 0.9375 2.015625q0 0.796875 -0.5 1.328125q-0.5 0.515625 -1.265625 0.515625q-0.6875 0 -1.203125 -0.5q-0.5 -0.5 -0.5 -1.203125z" fill-rule="nonzero"/><path fill="#ffd966" d="m248.64043 418.52332l0 0c0 -16.455475 13.925003 -29.795258 31.10234 -29.795258l0 0c8.248871 0 16.159882 3.1391296 21.992706 8.726807c5.8328247 5.5877075 9.10968 13.16626 9.10968 21.06845l0 0c0 16.455475 -13.925018 29.795288 -31.102386 29.795288l0 0c-17.177338 0 -31.10234 -13.339813 -31.10234 -29.795288z" fill-rule="evenodd"/><path stroke="#000000" stroke-width="1.0" stroke-linejoin="round" stroke-linecap="butt" d="m248.64043 418.52332l0 0c0 -16.455475 13.925003 -29.795258 31.10234 -29.795258l0 0c8.248871 0 16.159882 3.1391296 21.992706 8.726807c5.8328247 5.5877075 9.10968 13.16626 9.10968 21.06845l0 0c0 16.455475 -13.925018 29.795288 -31.102386 29.795288l0 0c-17.177338 0 -31.10234 -13.339813 -31.10234 -29.795288z" fill-rule="evenodd"/><path fill="#000000" d="m285.95688 409.52206q0 -0.453125 0.28125 -0.921875q0.28125 -0.46875 0.28125 -0.53125q0 -0.453125 -0.59375 -0.453125q-1.828125 0 -3.15625 5.171875l-0.625 2.453125l3.203125 0l-0.3125 1.453125l-3.125 0q-0.59375 2.703125 -1.09375 5.15625q-0.5 2.4375 -1.0625 4.578125q-0.546875 2.125 -1.109375 3.90625q-0.546875 1.78125 -1.265625 3.1875q-0.703125 1.40625 -1.53125 2.375q-0.828125 0.96875 -1.90625 1.484375q-1.078125 0.53125 -2.390625 0.53125q-1.5625 0 -2.5 -0.75q-0.9375 -0.75 -0.9375 -2.0q0 -0.75 0.546875 -1.3125q0.53125 -0.546875 1.25 -0.546875q0.671875 0 1.1875 0.515625q0.515625 0.515625 0.515625 1.140625q0 0.484375 -0.265625 0.9375q-0.28125 0.453125 -0.28125 0.5625q0 0.375 0.625 0.375q0.40625 0 0.71875 -0.1875q0.3125 -0.1875 0.578125 -0.46875q0.25 -0.28125 0.546875 -1.171875q0.296875 -0.875 0.53125 -1.6875q0.25 -0.8125 0.65625 -2.640625q0.421875 -1.84375 0.78125 -3.453125q0.375 -1.625 1.046875 -4.703125q0.671875 -3.09375 1.296875 -5.828125l-2.515625 0l0.296875 -1.453125l2.53125 0q0.53125 -1.875 1.109375 -3.21875q0.59375 -1.359375 1.484375 -2.6875q0.90625 -1.328125 2.21875 -2.015625q1.328125 -0.703125 3.03125 -0.703125q1.546875 0 2.484375 0.75q0.9375 0.734375 0.9375 2.015625q0 0.796875 -0.5 1.328125q-0.5 0.515625 -1.265625 0.515625q-0.6875 0 -1.203125 -0.5q-0.5 -0.5 -0.5 -1.203125z" fill-rule="nonzero"/><path fill="#ffd966" d="m248.64043 506.58267l0 0c0 -16.455475 13.925003 -29.795258 31.10234 -29.795258l0 0c8.248871 0 16.159882 3.1391296 21.992706 8.726807c5.8328247 5.5877075 9.10968 13.16626 9.10968 21.06845l0 0c0 16.455475 -13.925018 29.795258 -31.102386 29.795258l0 0c-17.177338 0 -31.10234 -13.339783 -31.10234 -29.795258z" fill-rule="evenodd"/><path stroke="#000000" stroke-width="1.0" stroke-linejoin="round" stroke-linecap="butt" d="m248.64043 506.58267l0 0c0 -16.455475 13.925003 -29.795258 31.10234 -29.795258l0 0c8.248871 0 16.159882 3.1391296 21.992706 8.726807c5.8328247 5.5877075 9.10968 13.16626 9.10968 21.06845l0 0c0 16.455475 -13.925018 29.795258 -31.102386 29.795258l0 0c-17.177338 0 -31.10234 -13.339783 -31.10234 -29.795258z" fill-rule="evenodd"/><path fill="#000000" d="m285.95688 497.58142q0 -0.453125 0.28125 -0.921875q0.28125 -0.46875 0.28125 -0.53125q0 -0.453125 -0.59375 -0.453125q-1.828125 0 -3.15625 5.171875l-0.625 2.453125l3.203125 0l-0.3125 1.453125l-3.125 0q-0.59375 2.703125 -1.09375 5.15625q-0.5 2.4375 -1.0625 4.578125q-0.546875 2.125 -1.109375 3.90625q-0.546875 1.78125 -1.265625 3.1875q-0.703125 1.40625 -1.53125 2.375q-0.828125 0.96875 -1.90625 1.484375q-1.078125 0.53125 -2.390625 0.53125q-1.5625 0 -2.5 -0.75q-0.9375 -0.75 -0.9375 -2.0q0 -0.75 0.546875 -1.3125q0.53125 -0.546875 1.25 -0.546875q0.671875 0 1.1875 0.515625q0.515625 0.515625 0.515625 1.140625q0 0.484375 -0.265625 0.9375q-0.28125 0.453125 -0.28125 0.5625q0 0.375 0.625 0.375q0.40625 0 0.71875 -0.1875q0.3125 -0.1875 0.578125 -0.46875q0.25 -0.28125 0.546875 -1.171875q0.296875 -0.875 0.53125 -1.6875q0.25 -0.8125 0.65625 -2.640625q0.421875 -1.84375 0.78125 -3.453125q0.375 -1.625 1.046875 -4.703125q0.671875 -3.09375 1.296875 -5.828125l-2.515625 0l0.296875 -1.453125l2.53125 0q0.53125 -1.875 1.109375 -3.21875q0.59375 -1.359375 1.484375 -2.6875q0.90625 -1.328125 2.21875 -2.015625q1.328125 -0.703125 3.03125 -0.703125q1.546875 0 2.484375 0.75q0.9375 0.734375 0.9375 2.015625q0 0.796875 -0.5 1.328125q-0.5 0.515625 -1.265625 0.515625q-0.6875 0 -1.203125 -0.5q-0.5 -0.5 -0.5 -1.203125z" fill-rule="nonzero"/><path fill="#93c47d" d="m400.6404 342.10303l0 0c0 -16.455475 13.925018 -29.795288 31.102356 -29.795288l0 0c8.248871 0 16.159882 3.1391602 21.992706 8.726837c5.8328247 5.5877075 9.10968 13.16626 9.10968 21.06845l0 0c0 16.455475 -13.925018 29.795288 -31.102386 29.795288l0 0c-17.177338 0 -31.102356 -13.339813 -31.102356 -29.795288z" fill-rule="evenodd"/><path stroke="#000000" stroke-width="1.0" stroke-linejoin="round" stroke-linecap="butt" d="m400.6404 342.10303l0 0c0 -16.455475 13.925018 -29.795288 31.102356 -29.795288l0 0c8.248871 0 16.159882 3.1391602 21.992706 8.726837c5.8328247 5.5877075 9.10968 13.16626 9.10968 21.06845l0 0c0 16.455475 -13.925018 29.795288 -31.102386 29.795288l0 0c-17.177338 0 -31.102356 -13.339813 -31.102356 -29.795288z" fill-rule="evenodd"/><path fill="#000000" fill-opacity="0.0" d="m310.84515 326.13272l89.79526 15.968506" fill-rule="evenodd"/><path stroke="#000000" stroke-width="1.0" stroke-linejoin="round" stroke-linecap="butt" d="m310.84515 326.13272l83.88794 14.917999" fill-rule="evenodd"/><path fill="#000000" stroke="#000000" stroke-width="1.0" stroke-linecap="butt" d="m394.4439 342.6769l4.757202 -0.83166504l-4.1788025 -2.4207764z" fill-rule="evenodd"/><path fill="#000000" fill-opacity="0.0" d="m310.84515 418.52332l89.79526 -76.409454" fill-rule="evenodd"/><path stroke="#000000" stroke-width="1.0" stroke-linejoin="round" stroke-linecap="butt" d="m310.84515 418.52335l85.22571 -72.52112" fill-rule="evenodd"/><path fill="#000000" stroke="#000000" stroke-width="1.0" stroke-linecap="butt" d="m397.1413 347.26016l2.3857422 -4.198883l-4.526581 1.6830139z" fill-rule="evenodd"/><path fill="#000000" fill-opacity="0.0" d="m310.84515 506.58267l89.79526 -164.47244" fill-rule="evenodd"/><path stroke="#000000" stroke-width="1.0" stroke-linejoin="round" stroke-linecap="butt" d="m310.84515 506.58267l86.920105 -159.2062" fill-rule="evenodd"/><path fill="#000000" stroke="#000000" stroke-width="1.0" stroke-linecap="butt" d="m399.215 348.168l0.72488403 -4.7746277l-3.6243591 3.1916199z" fill-rule="evenodd"/><path fill="#000000" fill-opacity="0.0" d="m462.84515 342.10303l31.590546 0" fill-rule="evenodd"/><path stroke="#000000" stroke-width="1.0" stroke-linejoin="round" stroke-linecap="butt" d="m462.84515 342.10303l25.590546 0" fill-rule="evenodd"/><path fill="#000000" stroke="#000000" stroke-width="1.0" stroke-linecap="butt" d="m488.4357 343.75476l4.538086 -1.6517334l-4.538086 -1.6517334z" fill-rule="evenodd"/><path fill="#000000" fill-opacity="0.0" d="m487.7139 310.52335l44.75589 0l0 41.700775l-44.75589 0z" fill-rule="evenodd"/><path fill="#000000" d="m498.44827 351.9971l-0.265625 -2.3125q0.796875 0.21875 1.40625 0.21875q0.8125 0 1.296875 -0.28125q0.5 -0.265625 0.8125 -0.75q0.234375 -0.375 0.765625 -1.84375q0.0625 -0.203125 0.21875 -0.59375l-5.515625 -14.546875l2.65625 0l3.015625 8.40625q0.59375 1.59375 1.046875 3.359375q0.4375 -1.6875 1.015625 -3.3125l3.109375 -8.453125l2.453125 0l-5.515625 14.765625q-0.890625 2.390625 -1.390625 3.296875q-0.65625 1.21875 -1.5 1.78125q-0.84375 0.5625 -2.015625 0.5625q-0.71875 0 -1.59375 -0.296875zm5.96875 -24.25l-1.546875 2.328125l-2.8125 0l2.953125 -3.828125l2.625 0l3.078125 3.828125l-2.796875 0l-1.5 -2.328125z" fill-rule="nonzero"/><path fill="#000000" d="m517.66705 356.90335l-1.640625 0l0 -10.453125q-0.59375 0.5625 -1.5625 1.140625q-0.953125 0.5625 -1.71875 0.84375l0 -1.59375q1.375 -0.640625 2.40625 -1.5625q1.03125 -0.921875 1.453125 -1.78125l1.0625 0l0 13.40625z" fill-rule="nonzero"/><path fill="#000000" fill-opacity="0.0" d="m118.845146 225.6655l129.79529 100.47244" fill-rule="evenodd"/><path stroke="#000000" stroke-width="1.0" stroke-linejoin="round" stroke-linecap="butt" d="m118.845146 225.6655l125.05068 96.79971" fill-rule="evenodd"/><path fill="#000000" stroke="#000000" stroke-width="1.0" stroke-linecap="butt" d="m242.88477 323.77136l4.5996246 1.4717102l-2.5775146 -4.0839844z" fill-rule="evenodd"/><path fill="#000000" fill-opacity="0.0" d="m118.845146 225.6655l129.79529 192.85037" fill-rule="evenodd"/><path stroke="#000000" stroke-width="1.0" stroke-linejoin="round" stroke-linecap="butt" d="m118.845146 225.6655l126.44515 187.87277" fill-rule="evenodd"/><path fill="#000000" stroke="#000000" stroke-width="1.0" stroke-linecap="butt" d="m243.92001 414.4605l3.9041443 2.8425598l-1.1635742 -4.6870728z" fill-rule="evenodd"/><path fill="#000000" fill-opacity="0.0" d="m118.845146 225.6655l129.79529 280.9134" fill-rule="evenodd"/><path stroke="#000000" stroke-width="1.0" stroke-linejoin="round" stroke-linecap="butt" d="m118.845146 225.6655l127.27865 275.46667" fill-rule="evenodd"/><path fill="#000000" stroke="#000000" stroke-width="1.0" stroke-linecap="butt" d="m244.62437 501.82495l3.4028625 3.4268188l-0.40403748 -4.8124084z" fill-rule="evenodd"/><path fill="#000000" fill-opacity="0.0" d="m118.845146 342.99054l129.79529 -16.850403" fill-rule="evenodd"/><path stroke="#000000" stroke-width="1.0" stroke-linejoin="round" stroke-linecap="butt" d="m118.845146 342.99054l123.84521 -16.077942" fill-rule="evenodd"/><path fill="#000000" stroke="#000000" stroke-width="1.0" stroke-linecap="butt" d="m242.903 328.55057l4.287689 -2.222229l-4.712982 -1.0537415z" fill-rule="evenodd"/><path fill="#000000" fill-opacity="0.0" d="m118.845146 342.99054l129.79529 75.52756" fill-rule="evenodd"/><path stroke="#000000" stroke-width="1.0" stroke-linejoin="round" stroke-linecap="butt" d="m118.845146 342.99054l124.60937 72.50986" fill-rule="evenodd"/><path fill="#000000" stroke="#000000" stroke-width="1.0" stroke-linecap="butt" d="m242.62378 416.92804l4.7530975 0.85479736l-3.0916443 -3.7100525z" fill-rule="evenodd"/><path fill="#000000" fill-opacity="0.0" d="m118.845146 342.99054l129.79529 163.59055" fill-rule="evenodd"/><path stroke="#000000" stroke-width="1.0" stroke-linejoin="round" stroke-linecap="butt" d="m118.845146 342.99054l126.066 158.89029" fill-rule="evenodd"/><path fill="#000000" stroke="#000000" stroke-width="1.0" stroke-linecap="butt" d="m243.61722 502.90744l4.114563 2.5284119l-1.5267029 -4.581665z" fill-rule="evenodd"/></g></svg>