<svg version="1.1" viewBox="0.0 0.0 732.6561679790026 419.06299212598424" fill="none" stroke="none" stroke-linecap="square" stroke-miterlimit="10" xmlns:xlink="http://www.w3.org/1999/xlink" xmlns="http://www.w3.org/2000/svg"><clipPath id="p.0"><path d="m0 0l732.6562 0l0 419.063l-732.6562 0l0 -419.063z" clip-rule="nonzero"/></clipPath><g clip-path="url(#p.0)"><path fill="#000000" fill-opacity="0.0" d="m0 0l732.6562 0l0 419.063l-732.6562 0z" fill-rule="evenodd"/><path fill="#cfe2f3" d="m332.65674 187.99213l0 0c0 -12.715591 10.308044 -23.02362 23.02362 -23.02362l0 0c6.106262 0 11.962402 2.4256897 16.280151 6.743454c4.3177795 4.3177795 6.743469 10.17392 6.743469 16.280167l0 0c0 12.715591 -10.308014 23.02362 -23.02362 23.02362l0 0c-12.715576 0 -23.02362 -10.308029 -23.02362 -23.02362z" fill-rule="evenodd"/><path stroke="#000000" stroke-width="1.0" stroke-linejoin="round" stroke-linecap="butt" d="m332.65674 187.99213l0 0c0 -12.715591 10.308044 -23.02362 23.02362 -23.02362l0 0c6.106262 0 11.962402 2.4256897 16.280151 6.743454c4.3177795 4.3177795 6.743469 10.17392 6.743469 16.280167l0 0c0 12.715591 -10.308014 23.02362 -23.02362 23.02362l0 0c-12.715576 0 -23.02362 -10.308029 -23.02362 -23.02362z" fill-rule="evenodd"/><path fill="#38761d" d="m78.750656 57.475067l0 0c0 -9.323612 7.558281 -16.881893 16.88189 -16.881893l0 0c4.477356 0 8.771332 1.7786255 11.937302 4.9445915c3.1659622 3.1659698 4.9445877 7.4599457 4.9445877 11.937302l0 0c0 9.323608 -7.558281 16.88189 -16.88189 16.88189l0 0c-9.323608 0 -16.88189 -7.558281 -16.88189 -16.88189z" fill-rule="evenodd"/><path stroke="#000000" stroke-width="1.0" stroke-linejoin="round" stroke-linecap="butt" d="m78.750656 57.475067l0 0c0 -9.323612 7.558281 -16.881893 16.88189 -16.881893l0 0c4.477356 0 8.771332 1.7786255 11.937302 4.9445915c3.1659622 3.1659698 4.9445877 7.4599457 4.9445877 11.937302l0 0c0 9.323608 -7.558281 16.88189 -16.88189 16.88189l0 0c-9.323608 0 -16.88189 -7.558281 -16.88189 -16.88189z" fill-rule="evenodd"/><path fill="#38761d" d="m78.750656 137.47507l0 0c0 -9.323608 7.558281 -16.88189 16.88189 -16.88189l0 0c4.477356 0 8.771332 1.7786179 11.937302 4.9445877c3.1659622 3.1659698 4.9445877 7.4599457 4.9445877 11.937302l0 0c0 9.323608 -7.558281 16.881882 -16.88189 16.881882l0 0c-9.323608 0 -16.88189 -7.5582733 -16.88189 -16.881882z" fill-rule="evenodd"/><path stroke="#000000" stroke-width="1.0" stroke-linejoin="round" stroke-linecap="butt" d="m78.750656 137.47507l0 0c0 -9.323608 7.558281 -16.88189 16.88189 -16.88189l0 0c4.477356 0 8.771332 1.7786179 11.937302 4.9445877c3.1659622 3.1659698 4.9445877 7.4599457 4.9445877 11.937302l0 0c0 9.323608 -7.558281 16.881882 -16.88189 16.881882l0 0c-9.323608 0 -16.88189 -7.5582733 -16.88189 -16.881882z" fill-rule="evenodd"/><path fill="#38761d" d="m78.750656 217.47507l0 0c0 -9.323608 7.558281 -16.881897 16.88189 -16.881897l0 0c4.477356 0 8.771332 1.7786255 11.937302 4.9445953c3.1659622 3.1659698 4.9445877 7.4599457 4.9445877 11.937302l0 0c0 9.323608 -7.558281 16.881882 -16.88189 16.881882l0 0c-9.323608 0 -16.88189 -7.5582733 -16.88189 -16.881882z" fill-rule="evenodd"/><path stroke="#000000" stroke-width="1.0" stroke-linejoin="round" stroke-linecap="butt" d="m78.750656 217.47507l0 0c0 -9.323608 7.558281 -16.881897 16.88189 -16.881897l0 0c4.477356 0 8.771332 1.7786255 11.937302 4.9445953c3.1659622 3.1659698 4.9445877 7.4599457 4.9445877 11.937302l0 0c0 9.323608 -7.558281 16.881882 -16.88189 16.881882l0 0c-9.323608 0 -16.88189 -7.5582733 -16.88189 -16.881882z" fill-rule="evenodd"/><path fill="#38761d" d="m78.750656 353.47507l0 0c0 -9.323608 7.558281 -16.881897 16.88189 -16.881897l0 0c4.477356 0 8.771332 1.7786255 11.937302 4.9446106c3.1659622 3.1659546 4.9445877 7.4599304 4.9445877 11.937286l0 0c0 9.323608 -7.558281 16.881897 -16.88189 16.881897l0 0c-9.323608 0 -16.88189 -7.5582886 -16.88189 -16.881897z" fill-rule="evenodd"/><path stroke="#000000" stroke-width="1.0" stroke-linejoin="round" stroke-linecap="butt" d="m78.750656 353.47507l0 0c0 -9.323608 7.558281 -16.881897 16.88189 -16.881897l0 0c4.477356 0 8.771332 1.7786255 11.937302 4.9446106c3.1659622 3.1659546 4.9445877 7.4599304 4.9445877 11.937286l0 0c0 9.323608 -7.558281 16.881897 -16.88189 16.881897l0 0c-9.323608 0 -16.88189 -7.5582886 -16.88189 -16.881897z" fill-rule="evenodd"/><path fill="#000000" fill-opacity="0.0" d="m95.632545 248.9507l0 76.25197" fill-rule="evenodd"/><path stroke="#000000" stroke-width="4.0" stroke-linejoin="round" stroke-linecap="butt" stroke-dasharray="16.0,12.0" d="m95.632545 248.9507l0 76.25197" fill-rule="evenodd"/><path fill="#000000" fill-opacity="0.0" d="m112.514435 57.475067l220.15747 130.51968" fill-rule="evenodd"/><path stroke="#000000" stroke-width="2.0" stroke-linejoin="round" stroke-linecap="butt" d="m112.514435 57.475067l220.15747 130.51968" fill-rule="evenodd"/><path fill="#000000" fill-opacity="0.0" d="m112.514435 137.47507l220.15747 50.519684" fill-rule="evenodd"/><path stroke="#000000" stroke-width="2.0" stroke-linejoin="round" stroke-linecap="butt" d="m112.514435 137.47507l220.15747 50.519684" fill-rule="evenodd"/><path fill="#000000" fill-opacity="0.0" d="m112.514435 217.47507l220.15747 -29.480316" fill-rule="evenodd"/><path stroke="#000000" stroke-width="2.0" stroke-linejoin="round" stroke-linecap="butt" d="m112.514435 217.47507l220.15747 -29.480316" fill-rule="evenodd"/><path fill="#000000" fill-opacity="0.0" d="m112.514435 353.47507l220.15747 -165.48032" fill-rule="evenodd"/><path stroke="#000000" stroke-width="2.0" stroke-linejoin="round" stroke-linecap="butt" d="m112.514435 353.47507l220.15747 -165.48032" fill-rule="evenodd"/><path fill="#f1c232" d="m286.81372 190.60138l0 0c0 -33.67633 34.84424 -60.97638 77.82678 -60.97638l0 0c42.982544 0 77.82678 27.300049 77.82678 60.97638l0 0c0 33.676315 -34.84424 60.97638 -77.82678 60.97638l0 0c-42.982544 0 -77.82678 -27.300064 -77.82678 -60.97638z" fill-rule="evenodd"/><path stroke="#000000" stroke-width="1.0" stroke-linejoin="round" stroke-linecap="butt" d="m286.81372 190.60138l0 0c0 -33.67633 34.84424 -60.97638 77.82678 -60.97638l0 0c42.982544 0 77.82678 27.300049 77.82678 60.97638l0 0c0 33.676315 -34.84424 60.97638 -77.82678 60.97638l0 0c-42.982544 0 -77.82678 -27.300064 -77.82678 -60.97638z" fill-rule="evenodd"/><path fill="#000000" fill-opacity="0.0" d="m14.592848 183.23508l46.04724 0l0 52.188965l-46.04724 0z" fill-rule="evenodd"/><path fill="#000000" d="m23.592848 215.27507l5.875 -8.96875l-5.328125 -8.21875l4.0625 0l3.4375 5.53125l3.374998 -5.53125l4.03125 0l-5.34375 8.34375l5.859375 8.84375l-4.171875 0l-3.812498 -5.9375l-3.828125 5.9375l-4.15625 0z" fill-rule="nonzero"/><path fill="#000000" fill-opacity="0.0" d="m161.75203 158.2801l54.4252 0l0 52.18898l-54.4252 0z" fill-rule="evenodd"/><path fill="#000000" d="m174.93953 190.3201l-4.109375 -17.1875l3.5625 0l2.578125 11.8125l3.140625 -11.8125l4.125 0l3.015625 12.0l2.640625 -12.0l3.484375 0l-4.171875 17.1875l-3.671875 0l-3.421875 -12.84375l-3.40625 12.84375l-3.765625 0z" fill-rule="nonzero"/><path fill="#000000" fill-opacity="0.0" d="m496.88727 163.4147l33.763794 0l0 52.188965l-33.763794 0z" fill-rule="evenodd"/><path fill="#000000" d="m506.05914 183.00157l3.5 0l2.96875 8.84375l2.90625 -8.84375l3.421875 0l-4.40625 11.984375l-0.78125 2.171875q-0.4375 1.09375 -0.828125 1.65625q-0.390625 0.578125 -0.90625 0.9375q-0.5 0.359375 -1.25 0.546875q-0.734375 0.203125 -1.671875 0.203125q-0.953125 0 -1.875 -0.1875l-0.28125 -2.578125q0.765625 0.140625 1.390625 0.140625q1.140625 0 1.6875 -0.671875q0.5625 -0.671875 0.859375 -1.71875l-4.734375 -12.484375z" fill-rule="nonzero"/><path fill="#000000" fill-opacity="0.0" d="m364.6405 129.625l0 121.95276" fill-rule="evenodd"/><path stroke="#000000" stroke-width="3.0" stroke-linejoin="round" stroke-linecap="butt" d="m364.6405 129.625l0 121.95276" fill-rule="evenodd"/><path fill="#000000" fill-opacity="0.0" d="m380.4699 137.68767l64.28345 0l0 99.55905l-64.28345 0z" fill-rule="evenodd"/><path fill="#000000" d="m411.61053 168.8308q0 -0.828125 0.515625 -1.6875q0.515625 -0.875 0.515625 -1.0q0 -0.828125 -1.09375 -0.828125q-3.390625 0 -5.828125 9.53125l-1.140625 4.546875l5.875 0l-0.5625 2.6875l-5.765625 0q-1.09375 4.984375 -2.015625 9.5q-0.921875 4.515625 -1.953125 8.453125q-1.03125 3.9375 -2.0625 7.234375q-1.015625 3.296875 -2.328125 5.875q-1.3125 2.59375 -2.84375 4.390625q-1.53125 1.796875 -3.515625 2.75q-1.984375 0.96875 -4.421875 0.96875q-2.875 0 -4.59375 -1.375q-1.734375 -1.375 -1.734375 -3.6875q0 -1.40625 1.0 -2.4375q0.984375 -1.015625 2.328125 -1.015625q1.21875 0 2.171875 0.953125q0.953125 0.96875 0.953125 2.125q0 0.890625 -0.5 1.71875q-0.515625 0.828125 -0.515625 1.03125q0 0.703125 1.15625 0.703125q0.765625 0 1.34375 -0.359375q0.578125 -0.34375 1.0625 -0.859375q0.46875 -0.515625 1.015625 -2.15625q0.546875 -1.625 0.984375 -3.125q0.453125 -1.5 1.21875 -4.890625q0.765625 -3.390625 1.4375 -6.359375q0.671875 -2.984375 1.921875 -8.671875q1.25 -5.703125 2.40625 -10.765625l-4.671875 0l0.578125 -2.6875l4.671875 0q0.953125 -3.453125 2.03125 -5.953125q1.09375 -2.5 2.75 -4.953125q1.671875 -2.46875 4.109375 -3.75q2.4375 -1.28125 5.5625 -1.28125q2.890625 0 4.609375 1.375q1.734375 1.375 1.734375 3.75q0 1.46875 -0.9375 2.4375q-0.921875 0.953125 -2.328125 0.953125q-1.28125 0 -2.21875 -0.921875q-0.921875 -0.9375 -0.921875 -2.21875z" fill-rule="nonzero"/><path fill="#000000" fill-opacity="0.0" d="m296.09457 135.31267l64.28345 0l0 93.22835l-64.28345 0z" fill-rule="evenodd"/><path fill="#000000" d="m309.43832 159.15892l38.65625 0l0 5.125l-30.875 0l18.96875 24.21875l-20.28125 25.6875l32.5 0l0 5.03125l-39.5 0l0 -5.84375l19.375 -24.625l-18.84375 -24.125l0 -5.46875z" fill-rule="nonzero"/><path fill="#000000" fill-opacity="0.0" d="m444.75336 187.4672l55.874023 0" fill-rule="evenodd"/><path stroke="#000000" stroke-width="3.0" stroke-linejoin="round" stroke-linecap="butt" d="m444.75336 187.4672l37.874023 0" fill-rule="evenodd"/><path fill="#000000" stroke="#000000" stroke-width="3.0" stroke-linecap="butt" d="m482.62738 192.4224l13.614288 -4.9552l-13.614288 -4.9552z" fill-rule="evenodd"/><path fill="#ffffff" d="m310.75067 57.475067l0 0c0 -9.323612 7.558258 -16.881893 16.881866 -16.881893l0 0c4.477356 0 8.771332 1.7786255 11.937317 4.9445915c3.1659546 3.1659698 4.94458 7.4599457 4.94458 11.937302l0 0c0 9.323608 -7.5582886 16.88189 -16.881897 16.88189l0 0c-9.323608 0 -16.881866 -7.558281 -16.881866 -16.88189z" fill-rule="evenodd"/><path stroke="#000000" stroke-width="1.0" stroke-linejoin="round" stroke-linecap="butt" d="m310.75067 57.475067l0 0c0 -9.323612 7.558258 -16.881893 16.881866 -16.881893l0 0c4.477356 0 8.771332 1.7786255 11.937317 4.9445915c3.1659546 3.1659698 4.94458 7.4599457 4.94458 11.937302l0 0c0 9.323608 -7.5582886 16.88189 -16.881897 16.88189l0 0c-9.323608 0 -16.881866 -7.558281 -16.881866 -16.88189z" fill-rule="evenodd"/><path fill="#000000" fill-opacity="0.0" d="m310.50098 33.562256l46.04724 0l0 52.188972l-46.04724 0z" fill-rule="evenodd"/><path fill="#000000" d="m321.0791 65.60226l0 -17.1875l3.296875 0l0 6.1875q1.53125 -1.734375 3.609375 -1.734375q2.28125 0 3.765625 1.65625q1.484375 1.640625 1.484375 4.71875q0 3.1875 -1.515625 4.921875q-1.515625 1.71875 -3.6875 1.71875q-1.0625 0 -2.109375 -0.53125q-1.03125 -0.53125 -1.78125 -1.578125l0 1.828125l-3.0625 0zm3.28125 -6.5q0 1.9375 0.609375 2.859375q0.84375 1.3125 2.265625 1.3125q1.09375 0 1.859375 -0.921875q0.765625 -0.9375 0.765625 -2.9375q0 -2.140625 -0.78125 -3.078125q-0.765625 -0.9375 -1.96875 -0.9375q-1.1875 0 -1.96875 0.921875q-0.78125 0.90625 -0.78125 2.78125z" fill-rule="nonzero"/><path fill="#000000" fill-opacity="0.0" d="m327.63254 74.35696l0.5984192 60.944878" fill-rule="evenodd"/><path stroke="#000000" stroke-width="2.0" stroke-linejoin="round" stroke-linecap="butt" d="m327.63254 74.35696l0.5984192 60.944878" fill-rule="evenodd"/><path fill="#000000" fill-opacity="0.0" d="m77.77928 352.54535c-9.323608 0 -16.88189 -7.558258 -16.88189 -16.881866l0 -111.086624c0 -9.323608 -7.558281 -16.881897 -16.88189 -16.881897l0 0c9.323608 0 16.88189 -7.5582733 16.88189 -16.881882l0 -111.08662l0 0c0 -9.323616 7.558281 -16.881893 16.88189 -16.881893z" fill-rule="evenodd"/><path fill="#000000" fill-opacity="0.0" d="m77.77928 352.54535c-9.323608 0 -16.88189 -7.558258 -16.88189 -16.881866l0 -111.086624c0 -9.323608 -7.558281 -16.881897 -16.88189 -16.881897l0 0c9.323608 0 16.88189 -7.5582733 16.88189 -16.881882l0 -111.08662l0 0c0 -9.323616 7.558281 -16.881893 16.88189 -16.881893" fill-rule="evenodd"/><path stroke="#000000" stroke-width="1.0" stroke-linejoin="round" stroke-linecap="butt" d="m77.77928 352.54535c-9.323608 0 -16.88189 -7.558258 -16.88189 -16.881866l0 -111.086624c0 -9.323608 -7.558281 -16.881897 -16.88189 -16.881897l0 0c9.323608 0 16.88189 -7.5582733 16.88189 -16.881882l0 -111.08662l0 0c0 -9.323616 7.558281 -16.881893 16.88189 -16.881893" fill-rule="evenodd"/><path fill="#dd7e6b" d="m584.0315 169.93721l0 0c0 -5.6099396 4.5477295 -10.157684 10.157654 -10.157684l79.52716 0c2.6939697 0 5.277649 1.0701904 7.182556 2.975113c1.9049683 1.9049377 2.9750977 4.4885864 2.9750977 7.1825714l0 40.629517c0 5.6099396 -4.5477295 10.157684 -10.157654 10.157684l-79.52716 0c-5.6099243 0 -10.157654 -4.5477448 -10.157654 -10.157684z" fill-rule="evenodd"/><path stroke="#000000" stroke-width="1.0" stroke-linejoin="round" stroke-linecap="butt" d="m584.0315 169.93721l0 0c0 -5.6099396 4.5477295 -10.157684 10.157654 -10.157684l79.52716 0c2.6939697 0 5.277649 1.0701904 7.182556 2.975113c1.9049683 1.9049377 2.9750977 4.4885864 2.9750977 7.1825714l0 40.629517c0 5.6099396 -4.5477295 10.157684 -10.157654 10.157684l-79.52716 0c-5.6099243 0 -10.157654 -4.5477448 -10.157654 -10.157684z" fill-rule="evenodd"/><path fill="#000000" d="m597.64716 198.51196l0 -16.21875l12.03125 0l0 2.75l-8.75 0l0 3.59375l8.140625 0l0 2.734375l-8.140625 0l0 4.40625l9.0625 0l0 2.734375l-12.34375 0zm26.546814 4.765625l-2.140625 0q-1.6875 -2.546875 -2.578125 -5.296875q-0.875 -2.765625 -0.875 -5.34375q0 -3.203125 1.09375 -6.046875q0.953125 -2.484375 2.40625 -4.578125l2.125 0q-1.515625 3.359375 -2.09375 5.71875q-0.5625 2.34375 -0.5625 4.96875q0 1.8125 0.328125 3.71875q0.34375 1.90625 0.9375 3.625q0.390625 1.125 1.359375 3.234375zm0.91973877 -16.515625l3.3125 0l2.796875 8.34375l2.75 -8.34375l3.21875 0l-4.140625 11.3125l-0.75 2.046875q-0.40625 1.03125 -0.78125 1.5625q-0.375 0.546875 -0.859375 0.875q-0.46875 0.34375 -1.171875 0.53125q-0.703125 0.1875 -1.59375 0.1875q-0.890625 0 -1.75 -0.1875l-0.28125 -2.4375q0.734375 0.15625 1.3125 0.15625q1.09375 0 1.609375 -0.640625q0.515625 -0.640625 0.796875 -1.625l-4.46875 -11.78125zm2.875 -1.484375l2.328125 -3.265625l2.875 0l2.28125 3.265625l-2.5 0l-1.28125 -1.640625l-1.1875 1.640625l-2.515625 0zm11.115906 10.125l3.109375 0l0 2.21875q0 1.359375 -0.234375 2.140625q-0.234375 0.78125 -0.890625 1.390625q-0.640625 0.625 -1.625 0.984375l-0.609375 -1.296875q0.9375 -0.296875 1.328125 -0.84375q0.40625 -0.546875 0.421875 -1.484375l-1.5 0l0 -3.109375zm11.198669 -8.640625l3.3125 0l2.796875 8.34375l2.75 -8.34375l3.21875 0l-4.140625 11.3125l-0.75 2.046875q-0.40625 1.03125 -0.78125 1.5625q-0.375 0.546875 -0.859375 0.875q-0.46875 0.34375 -1.171875 0.53125q-0.703125 0.1875 -1.59375 0.1875q-0.890625 0 -1.75 -0.1875l-0.28125 -2.4375q0.734375 0.15625 1.3125 0.15625q1.09375 0 1.609375 -0.640625q0.515625 -0.640625 0.796875 -1.625l-4.46875 -11.78125z" fill-rule="nonzero"/><path fill="#000000" d="m665.54425 203.27759l-1.421875 0q3.296875 -5.3125 3.296875 -10.625q0 -2.078125 -0.46875 -4.125q-0.375 -1.671875 -1.046875 -3.1875q-0.4375 -1.0 -1.78125 -3.328125l1.421875 0q2.078125 2.78125 3.078125 5.578125q0.84375 2.421875 0.84375 5.046875q0 2.984375 -1.140625 5.78125q-1.140625 2.78125 -2.78125 4.859375z" fill-rule="nonzero"/><path fill="#000000" fill-opacity="0.0" d="m530.65106 189.50919l53.385803 0.75590515" fill-rule="evenodd"/><path stroke="#000000" stroke-width="2.0" stroke-linejoin="round" stroke-linecap="butt" d="m530.65106 189.50919l46.53235 0.6588745" fill-rule="evenodd"/><path fill="#000000" stroke="#000000" stroke-width="2.0" stroke-linecap="butt" d="m577.1834 190.16805l-2.2808228 2.217102l6.2107544 -2.1614532l-6.1470337 -2.3364258z" fill-rule="evenodd"/><path fill="#000000" fill-opacity="0.0" d="m634.44507 98.35696l-0.5039673 61.41732" fill-rule="evenodd"/><path stroke="#000000" stroke-width="2.0" stroke-linejoin="round" stroke-linecap="butt" d="m634.44507 98.35696l-0.4477539 54.563377" fill-rule="evenodd"/><path fill="#000000" stroke="#000000" stroke-width="2.0" stroke-linecap="butt" d="m633.9974 152.92033l-2.2306519 -2.2675476l2.1983643 6.1977844l2.2998047 -6.1608734z" fill-rule="evenodd"/><path fill="#ffffff" d="m617.5632 81.47507l0 0c0 -9.323608 7.5582886 -16.88189 16.881897 -16.88189l0 0c4.477356 0 8.771301 1.7786179 11.937256 4.9445877c3.1660156 3.1659698 4.944641 7.4599457 4.944641 11.937302l0 0c0 9.323608 -7.5582886 16.88189 -16.881897 16.88189l0 0c-9.323608 0 -16.881897 -7.558281 -16.881897 -16.88189z" fill-rule="evenodd"/><path stroke="#000000" stroke-width="1.0" stroke-linejoin="round" stroke-linecap="butt" d="m617.5632 81.47507l0 0c0 -9.323608 7.5582886 -16.88189 16.881897 -16.88189l0 0c4.477356 0 8.771301 1.7786179 11.937256 4.9445877c3.1660156 3.1659698 4.944641 7.4599457 4.944641 11.937302l0 0c0 9.323608 -7.5582886 16.88189 -16.881897 16.88189l0 0c-9.323608 0 -16.881897 -7.558281 -16.881897 -16.88189z" fill-rule="evenodd"/><path fill="#000000" fill-opacity="0.0" d="m610.7192 55.61152l46.04724 0l0 46.04725l-46.04724 0z" fill-rule="evenodd"/><path fill="#000000" d="m627.24084 75.198395l3.5 0l2.96875 8.84375l2.90625 -8.84375l3.421875 0l-4.40625 11.984375l-0.78125 2.171875q-0.4375 1.09375 -0.828125 1.65625q-0.390625 0.578125 -0.90625 0.9375q-0.5 0.359375 -1.25 0.546875q-0.734375 0.203125 -1.671875 0.203125q-0.953125 0 -1.875 -0.1875l-0.28125 -2.578125q0.765625 0.140625 1.390625 0.140625q1.140625 0 1.6875 -0.671875q0.5625 -0.671875 0.859375 -1.71875l-4.734375 -12.484375z" fill-rule="nonzero"/><path fill="#000000" fill-opacity="0.0" d="m579.7192 209.50041l-53.448853 0" fill-rule="evenodd"/><path stroke="#cc0000" stroke-width="1.0" stroke-linejoin="round" stroke-linecap="butt" d="m579.7192 209.50041l-47.448853 0" fill-rule="evenodd"/><path fill="#cc0000" stroke="#cc0000" stroke-width="1.0" stroke-linecap="butt" d="m532.2703 207.84868l-4.538086 1.6517334l4.538086 1.6517334z" fill-rule="evenodd"/><path fill="#000000" fill-opacity="0.0" d="m488.40683 208.46924l-47.811035 0" fill-rule="evenodd"/><path stroke="#cc0000" stroke-width="1.0" stroke-linejoin="round" stroke-linecap="butt" d="m488.40683 208.46924l-41.811035 0" fill-rule="evenodd"/><path fill="#cc0000" stroke="#cc0000" stroke-width="1.0" stroke-linecap="butt" d="m446.5958 206.8175l-4.538086 1.6517334l4.538086 1.6517334z" fill-rule="evenodd"/><path fill="#000000" fill-opacity="0.0" d="m291.09268 233.43652l-163.1181 125.165344" fill-rule="evenodd"/><path stroke="#cc0000" stroke-width="1.0" stroke-linejoin="round" stroke-linecap="butt" d="m291.09268 233.43651l-158.358 121.5128" fill-rule="evenodd"/><path fill="#cc0000" stroke="#cc0000" stroke-width="1.0" stroke-linecap="butt" d="m131.72917 353.6389l-2.5947876 4.0730286l4.6058197 -1.4522095z" fill-rule="evenodd"/><path fill="#000000" fill-opacity="0.0" d="m272.81274 205.31201l-142.04724 19.685043" fill-rule="evenodd"/><path stroke="#cc0000" stroke-width="1.0" stroke-linejoin="round" stroke-linecap="butt" d="m272.81274 205.31201l-136.10403 18.86142" fill-rule="evenodd"/><path fill="#cc0000" stroke="#cc0000" stroke-width="1.0" stroke-linecap="butt" d="m136.48198 222.53734l-4.2684174 2.2590332l4.721878 1.0131531z" fill-rule="evenodd"/><path fill="#000000" fill-opacity="0.0" d="m264.37592 181.40535l-132.189 -29.543304" fill-rule="evenodd"/><path stroke="#cc0000" stroke-width="1.0" stroke-linejoin="round" stroke-linecap="butt" d="m264.37592 181.40535l-126.33345 -28.234634" fill-rule="evenodd"/><path fill="#cc0000" stroke="#cc0000" stroke-width="1.0" stroke-linecap="butt" d="m138.40273 151.55875l-4.789093 0.6221466l4.068573 2.6017914z" fill-rule="evenodd"/><path fill="#000000" fill-opacity="0.0" d="m285.46982 145.81364l-143.43307 -84.377945" fill-rule="evenodd"/><path stroke="#cc0000" stroke-width="1.0" stroke-linejoin="round" stroke-linecap="butt" d="m285.46982 145.81364l-138.26155 -81.33568" fill-rule="evenodd"/><path fill="#cc0000" stroke="#cc0000" stroke-width="1.0" stroke-linecap="butt" d="m148.04576 63.054306l-4.7489777 -0.8773613l3.0739746 3.7246819z" fill-rule="evenodd"/><path fill="#000000" fill-opacity="0.0" d="m335.55743 127.860794l0 -50.110237" fill-rule="evenodd"/><path stroke="#cc0000" stroke-width="1.0" stroke-linejoin="round" stroke-linecap="butt" d="m335.5574 127.8608l0 -44.110245" fill-rule="evenodd"/><path fill="#cc0000" stroke="#cc0000" stroke-width="1.0" stroke-linecap="butt" d="m337.20914 83.75056l-1.6517334 -4.5380936l-1.6517334 4.5380936z" fill-rule="evenodd"/></g></svg>