<svg version="1.1" viewBox="0.0 0.0 665.2519685039371 410.9160104986877" fill="none" stroke="none" stroke-linecap="square" stroke-miterlimit="10" xmlns:xlink="http://www.w3.org/1999/xlink" xmlns="http://www.w3.org/2000/svg"><clipPath id="p.0"><path d="m0 0l665.25195 0l0 410.91602l-665.25195 0l0 -410.91602z" clip-rule="nonzero"/></clipPath><g clip-path="url(#p.0)"><path fill="#000000" fill-opacity="0.0" d="m0 0l665.25195 0l0 410.91602l-665.25195 0z" fill-rule="evenodd"/><path fill="#cfe2f3" d="m332.65674 187.99213l0 0c0 -12.715591 10.308044 -23.02362 23.02362 -23.02362l0 0c6.106262 0 11.962402 2.4256897 16.280151 6.743454c4.3177795 4.3177795 6.743469 10.17392 6.743469 16.280167l0 0c0 12.715591 -10.308014 23.02362 -23.02362 23.02362l0 0c-12.715576 0 -23.02362 -10.308029 -23.02362 -23.02362z" fill-rule="evenodd"/><path stroke="#000000" stroke-width="1.0" stroke-linejoin="round" stroke-linecap="butt" d="m332.65674 187.99213l0 0c0 -12.715591 10.308044 -23.02362 23.02362 -23.02362l0 0c6.106262 0 11.962402 2.4256897 16.280151 6.743454c4.3177795 4.3177795 6.743469 10.17392 6.743469 16.280167l0 0c0 12.715591 -10.308014 23.02362 -23.02362 23.02362l0 0c-12.715576 0 -23.02362 -10.308029 -23.02362 -23.02362z" fill-rule="evenodd"/><path fill="#38761d" d="m78.750656 57.475067l0 0c0 -9.323612 7.558281 -16.881893 16.88189 -16.881893l0 0c4.477356 0 8.771332 1.7786255 11.937302 4.9445915c3.1659622 3.1659698 4.9445877 7.4599457 4.9445877 11.937302l0 0c0 9.323608 -7.558281 16.88189 -16.88189 16.88189l0 0c-9.323608 0 -16.88189 -7.558281 -16.88189 -16.88189z" fill-rule="evenodd"/><path stroke="#000000" stroke-width="1.0" stroke-linejoin="round" stroke-linecap="butt" d="m78.750656 57.475067l0 0c0 -9.323612 7.558281 -16.881893 16.88189 -16.881893l0 0c4.477356 0 8.771332 1.7786255 11.937302 4.9445915c3.1659622 3.1659698 4.9445877 7.4599457 4.9445877 11.937302l0 0c0 9.323608 -7.558281 16.88189 -16.88189 16.88189l0 0c-9.323608 0 -16.88189 -7.558281 -16.88189 -16.88189z" fill-rule="evenodd"/><path fill="#38761d" d="m78.750656 137.47507l0 0c0 -9.323608 7.558281 -16.88189 16.88189 -16.88189l0 0c4.477356 0 8.771332 1.7786179 11.937302 4.9445877c3.1659622 3.1659698 4.9445877 7.4599457 4.9445877 11.937302l0 0c0 9.323608 -7.558281 16.881882 -16.88189 16.881882l0 0c-9.323608 0 -16.88189 -7.5582733 -16.88189 -16.881882z" fill-rule="evenodd"/><path stroke="#000000" stroke-width="1.0" stroke-linejoin="round" stroke-linecap="butt" d="m78.750656 137.47507l0 0c0 -9.323608 7.558281 -16.88189 16.88189 -16.88189l0 0c4.477356 0 8.771332 1.7786179 11.937302 4.9445877c3.1659622 3.1659698 4.9445877 7.4599457 4.9445877 11.937302l0 0c0 9.323608 -7.558281 16.881882 -16.88189 16.881882l0 0c-9.323608 0 -16.88189 -7.5582733 -16.88189 -16.881882z" fill-rule="evenodd"/><path fill="#38761d" d="m78.750656 217.47507l0 0c0 -9.323608 7.558281 -16.881897 16.88189 -16.881897l0 0c4.477356 0 8.771332 1.7786255 11.937302 4.9445953c3.1659622 3.1659698 4.9445877 7.4599457 4.9445877 11.937302l0 0c0 9.323608 -7.558281 16.881882 -16.88189 16.881882l0 0c-9.323608 0 -16.88189 -7.5582733 -16.88189 -16.881882z" fill-rule="evenodd"/><path stroke="#000000" stroke-width="1.0" stroke-linejoin="round" stroke-linecap="butt" d="m78.750656 217.47507l0 0c0 -9.323608 7.558281 -16.881897 16.88189 -16.881897l0 0c4.477356 0 8.771332 1.7786255 11.937302 4.9445953c3.1659622 3.1659698 4.9445877 7.4599457 4.9445877 11.937302l0 0c0 9.323608 -7.558281 16.881882 -16.88189 16.881882l0 0c-9.323608 0 -16.88189 -7.5582733 -16.88189 -16.881882z" fill-rule="evenodd"/><path fill="#38761d" d="m78.750656 353.47507l0 0c0 -9.323608 7.558281 -16.881897 16.88189 -16.881897l0 0c4.477356 0 8.771332 1.7786255 11.937302 4.9446106c3.1659622 3.1659546 4.9445877 7.4599304 4.9445877 11.937286l0 0c0 9.323608 -7.558281 16.881897 -16.88189 16.881897l0 0c-9.323608 0 -16.88189 -7.5582886 -16.88189 -16.881897z" fill-rule="evenodd"/><path stroke="#000000" stroke-width="1.0" stroke-linejoin="round" stroke-linecap="butt" d="m78.750656 353.47507l0 0c0 -9.323608 7.558281 -16.881897 16.88189 -16.881897l0 0c4.477356 0 8.771332 1.7786255 11.937302 4.9446106c3.1659622 3.1659546 4.9445877 7.4599304 4.9445877 11.937286l0 0c0 9.323608 -7.558281 16.881897 -16.88189 16.881897l0 0c-9.323608 0 -16.88189 -7.5582886 -16.88189 -16.881897z" fill-rule="evenodd"/><path fill="#000000" fill-opacity="0.0" d="m95.632545 248.9507l0 76.25197" fill-rule="evenodd"/><path stroke="#000000" stroke-width="4.0" stroke-linejoin="round" stroke-linecap="butt" stroke-dasharray="16.0,12.0" d="m95.632545 248.9507l0 76.25197" fill-rule="evenodd"/><path fill="#000000" fill-opacity="0.0" d="m112.514435 57.475067l220.15747 130.51968" fill-rule="evenodd"/><path stroke="#000000" stroke-width="2.0" stroke-linejoin="round" stroke-linecap="butt" d="m112.514435 57.475067l220.15747 130.51968" fill-rule="evenodd"/><path fill="#000000" fill-opacity="0.0" d="m112.514435 137.47507l220.15747 50.519684" fill-rule="evenodd"/><path stroke="#000000" stroke-width="2.0" stroke-linejoin="round" stroke-linecap="butt" d="m112.514435 137.47507l220.15747 50.519684" fill-rule="evenodd"/><path fill="#000000" fill-opacity="0.0" d="m112.514435 217.47507l220.15747 -29.480316" fill-rule="evenodd"/><path stroke="#000000" stroke-width="2.0" stroke-linejoin="round" stroke-linecap="butt" d="m112.514435 217.47507l220.15747 -29.480316" fill-rule="evenodd"/><path fill="#000000" fill-opacity="0.0" d="m112.514435 353.47507l220.15747 -165.48032" fill-rule="evenodd"/><path stroke="#000000" stroke-width="2.0" stroke-linejoin="round" stroke-linecap="butt" d="m112.514435 353.47507l220.15747 -165.48032" fill-rule="evenodd"/><path fill="#f1c232" d="m286.81372 190.60138l0 0c0 -33.67633 34.84424 -60.97638 77.82678 -60.97638l0 0c42.982544 0 77.82678 27.300049 77.82678 60.97638l0 0c0 33.676315 -34.84424 60.97638 -77.82678 60.97638l0 0c-42.982544 0 -77.82678 -27.300064 -77.82678 -60.97638z" fill-rule="evenodd"/><path stroke="#000000" stroke-width="1.0" stroke-linejoin="round" stroke-linecap="butt" d="m286.81372 190.60138l0 0c0 -33.67633 34.84424 -60.97638 77.82678 -60.97638l0 0c42.982544 0 77.82678 27.300049 77.82678 60.97638l0 0c0 33.676315 -34.84424 60.97638 -77.82678 60.97638l0 0c-42.982544 0 -77.82678 -27.300064 -77.82678 -60.97638z" fill-rule="evenodd"/><path fill="#000000" fill-opacity="0.0" d="m14.592848 183.23508l46.04724 0l0 52.188965l-46.04724 0z" fill-rule="evenodd"/><path fill="#000000" d="m23.592848 215.27507l5.875 -8.96875l-5.328125 -8.21875l4.0625 0l3.4375 5.53125l3.374998 -5.53125l4.03125 0l-5.34375 8.34375l5.859375 8.84375l-4.171875 0l-3.812498 -5.9375l-3.828125 5.9375l-4.15625 0z" fill-rule="nonzero"/><path fill="#000000" fill-opacity="0.0" d="m161.75203 158.2801l54.4252 0l0 52.18898l-54.4252 0z" fill-rule="evenodd"/><path fill="#000000" d="m174.93953 190.3201l-4.109375 -17.1875l3.5625 0l2.578125 11.8125l3.140625 -11.8125l4.125 0l3.015625 12.0l2.640625 -12.0l3.484375 0l-4.171875 17.1875l-3.671875 0l-3.421875 -12.84375l-3.40625 12.84375l-3.765625 0z" fill-rule="nonzero"/><path fill="#000000" d="m199.70125 199.3201l-2.1875 0l0 -8.28125q-1.203125 1.125 -2.84375 1.671875l0 -2.0q0.859375 -0.28125 1.859375 -1.0625q1.015625 -0.78125 1.390625 -1.828125l1.78125 0l0 11.5z" fill-rule="nonzero"/><path fill="#000000" fill-opacity="0.0" d="m364.6405 129.625l0 121.95276" fill-rule="evenodd"/><path stroke="#000000" stroke-width="3.0" stroke-linejoin="round" stroke-linecap="butt" d="m364.6405 129.625l0 121.95276" fill-rule="evenodd"/><path fill="#000000" fill-opacity="0.0" d="m380.4699 137.68767l64.28345 0l0 99.55905l-64.28345 0z" fill-rule="evenodd"/><path fill="#000000" d="m411.61053 168.8308q0 -0.828125 0.515625 -1.6875q0.515625 -0.875 0.515625 -1.0q0 -0.828125 -1.09375 -0.828125q-3.390625 0 -5.828125 9.53125l-1.140625 4.546875l5.875 0l-0.5625 2.6875l-5.765625 0q-1.09375 4.984375 -2.015625 9.5q-0.921875 4.515625 -1.953125 8.453125q-1.03125 3.9375 -2.0625 7.234375q-1.015625 3.296875 -2.328125 5.875q-1.3125 2.59375 -2.84375 4.390625q-1.53125 1.796875 -3.515625 2.75q-1.984375 0.96875 -4.421875 0.96875q-2.875 0 -4.59375 -1.375q-1.734375 -1.375 -1.734375 -3.6875q0 -1.40625 1.0 -2.4375q0.984375 -1.015625 2.328125 -1.015625q1.21875 0 2.171875 0.953125q0.953125 0.96875 0.953125 2.125q0 0.890625 -0.5 1.71875q-0.515625 0.828125 -0.515625 1.03125q0 0.703125 1.15625 0.703125q0.765625 0 1.34375 -0.359375q0.578125 -0.34375 1.0625 -0.859375q0.46875 -0.515625 1.015625 -2.15625q0.546875 -1.625 0.984375 -3.125q0.453125 -1.5 1.21875 -4.890625q0.765625 -3.390625 1.4375 -6.359375q0.671875 -2.984375 1.921875 -8.671875q1.25 -5.703125 2.40625 -10.765625l-4.671875 0l0.578125 -2.6875l4.671875 0q0.953125 -3.453125 2.03125 -5.953125q1.09375 -2.5 2.75 -4.953125q1.671875 -2.46875 4.109375 -3.75q2.4375 -1.28125 5.5625 -1.28125q2.890625 0 4.609375 1.375q1.734375 1.375 1.734375 3.75q0 1.46875 -0.9375 2.4375q-0.921875 0.953125 -2.328125 0.953125q-1.28125 0 -2.21875 -0.921875q-0.921875 -0.9375 -0.921875 -2.21875z" fill-rule="nonzero"/><path fill="#000000" fill-opacity="0.0" d="m296.09457 135.31267l64.28345 0l0 93.22835l-64.28345 0z" fill-rule="evenodd"/><path fill="#000000" d="m309.43832 159.15892l38.65625 0l0 5.125l-30.875 0l18.96875 24.21875l-20.28125 25.6875l32.5 0l0 5.03125l-39.5 0l0 -5.84375l19.375 -24.625l-18.84375 -24.125l0 -5.46875z" fill-rule="nonzero"/><path fill="#ffffff" d="m307.27618 53.682415l0 0c0 -11.410988 9.250427 -20.661419 20.661407 -20.661419l0 0c5.4797363 0 10.735046 2.1768227 14.609833 6.05159c3.8747559 3.8747673 6.0515747 9.130081 6.0515747 14.609829l0 0c0 11.410984 -9.250427 20.661419 -20.661407 20.661419l0 0c-11.41098 0 -20.661407 -9.250435 -20.661407 -20.661419z" fill-rule="evenodd"/><path stroke="#000000" stroke-width="1.0" stroke-linejoin="round" stroke-linecap="butt" d="m307.27618 53.682415l0 0c0 -11.410988 9.250427 -20.661419 20.661407 -20.661419l0 0c5.4797363 0 10.735046 2.1768227 14.609833 6.05159c3.8747559 3.8747673 6.0515747 9.130081 6.0515747 14.609829l0 0c0 11.410984 -9.250427 20.661419 -20.661407 20.661419l0 0c-11.41098 0 -20.661407 -9.250435 -20.661407 -20.661419z" fill-rule="evenodd"/><path fill="#000000" fill-opacity="0.0" d="m306.8809 26.126858l69.95276 0l0 17.763779l-69.95276 0z" fill-rule="evenodd"/><path fill="#000000" d="m317.459 57.930637l0 -17.1875l3.296875 0l0 6.1875q1.53125 -1.734375 3.609375 -1.734375q2.28125 0 3.765625 1.65625q1.484375 1.640625 1.484375 4.71875q0 3.1875 -1.515625 4.921875q-1.515625 1.71875 -3.6875 1.71875q-1.0625 0 -2.109375 -0.53125q-1.03125 -0.53125 -1.78125 -1.578125l0 1.828125l-3.0625 0zm3.28125 -6.5q0 1.9375 0.609375 2.859375q0.84375 1.3125 2.265625 1.3125q1.09375 0 1.859375 -0.921875q0.765625 -0.9375 0.765625 -2.9375q0 -2.140625 -0.78125 -3.078125q-0.765625 -0.9375 -1.96875 -0.9375q-1.1875 0 -1.96875 0.921875q-0.78125 0.90625 -0.78125 2.78125z" fill-rule="nonzero"/><path fill="#000000" d="m336.83792 66.93063l-2.1875 0l0 -8.281246q-1.203125 1.125 -2.84375 1.671875l0 -2.0q0.859375 -0.28125 1.859375 -1.0625q1.015625 -0.78125 1.390625 -1.828125l1.78125 0l0 11.499996z" fill-rule="nonzero"/><path fill="#000000" fill-opacity="0.0" d="m327.9376 74.343834l0.28347778 60.97637" fill-rule="evenodd"/><path stroke="#000000" stroke-width="2.0" stroke-linejoin="round" stroke-linecap="butt" d="m327.9376 74.343834l0.28347778 60.97637" fill-rule="evenodd"/><path fill="#000000" fill-opacity="0.0" d="m77.77928 352.54535c-9.323608 0 -16.88189 -7.558258 -16.88189 -16.881866l0 -111.086624c0 -9.323608 -7.558281 -16.881897 -16.88189 -16.881897l0 0c9.323608 0 16.88189 -7.5582733 16.88189 -16.881882l0 -111.08662l0 0c0 -9.323616 7.558281 -16.881893 16.88189 -16.881893z" fill-rule="evenodd"/><path fill="#000000" fill-opacity="0.0" d="m77.77928 352.54535c-9.323608 0 -16.88189 -7.558258 -16.88189 -16.881866l0 -111.086624c0 -9.323608 -7.558281 -16.881897 -16.88189 -16.881897l0 0c9.323608 0 16.88189 -7.5582733 16.88189 -16.881882l0 -111.08662l0 0c0 -9.323616 7.558281 -16.881893 16.88189 -16.881893" fill-rule="evenodd"/><path stroke="#000000" stroke-width="1.0" stroke-linejoin="round" stroke-linecap="butt" d="m77.77928 352.54535c-9.323608 0 -16.88189 -7.558258 -16.88189 -16.881866l0 -111.086624c0 -9.323608 -7.558281 -16.881897 -16.88189 -16.881897l0 0c9.323608 0 16.88189 -7.5582733 16.88189 -16.881882l0 -111.08662l0 0c0 -9.323616 7.558281 -16.881893 16.88189 -16.881893" fill-rule="evenodd"/><path fill="#cfe2f3" d="m523.91034 187.94733l0 0c0 -9.323608 7.5582886 -16.881882 16.881897 -16.881882l0 0c4.477356 0 8.771362 1.7786255 11.937317 4.94458c3.1659546 3.1659698 4.94458 7.4599457 4.94458 11.937302l0 0c0 9.323608 -7.5582886 16.881897 -16.881897 16.881897l0 0c-9.323608 0 -16.881897 -7.5582886 -16.881897 -16.881897z" fill-rule="evenodd"/><path stroke="#000000" stroke-width="1.0" stroke-linejoin="round" stroke-linecap="butt" d="m523.91034 187.94733l0 0c0 -9.323608 7.5582886 -16.881882 16.881897 -16.881882l0 0c4.477356 0 8.771362 1.7786255 11.937317 4.94458c3.1659546 3.1659698 4.94458 7.4599457 4.94458 11.937302l0 0c0 9.323608 -7.5582886 16.881897 -16.881897 16.881897l0 0c-9.323608 0 -16.881897 -7.5582886 -16.881897 -16.881897z" fill-rule="evenodd"/><path fill="#000000" fill-opacity="0.0" d="m523.6247 162.74689l33.763733 0l0 29.480316l-33.763733 0z" fill-rule="evenodd"/><path fill="#000000" d="m538.9987 192.31815l0 -4.46875l-4.5 0l0 -3.078125l4.5 0l0 -4.46875l3.0 0l0 4.46875l4.515625 0l0 3.078125l-4.515625 0l0 4.46875l-3.0 0z" fill-rule="nonzero"/><path fill="#ffffff" d="m520.56085 53.682415l0 0c0 -11.410988 9.250427 -20.661419 20.661438 -20.661419l0 0c5.4797363 0 10.735046 2.1768227 14.609802 6.05159c3.8747559 3.8747673 6.0516357 9.130081 6.0516357 14.609829l0 0c0 11.410984 -9.250488 20.661419 -20.661438 20.661419l0 0c-11.411011 0 -20.661438 -9.250435 -20.661438 -20.661419z" fill-rule="evenodd"/><path stroke="#000000" stroke-width="1.0" stroke-linejoin="round" stroke-linecap="butt" d="m520.56085 53.682415l0 0c0 -11.410988 9.250427 -20.661419 20.661438 -20.661419l0 0c5.4797363 0 10.735046 2.1768227 14.609802 6.05159c3.8747559 3.8747673 6.0516357 9.130081 6.0516357 14.609829l0 0c0 11.410984 -9.250488 20.661419 -20.661438 20.661419l0 0c-11.411011 0 -20.661438 -9.250435 -20.661438 -20.661419z" fill-rule="evenodd"/><path fill="#000000" fill-opacity="0.0" d="m519.2615 26.124382l69.95276 0l0 50.519684l-69.95276 0z" fill-rule="evenodd"/><path fill="#000000" d="m529.8396 58.164383l0 -17.1875l3.296875 0l0 6.1875q1.53125 -1.734375 3.609375 -1.734375q2.28125 0 3.765625 1.65625q1.484375 1.640625 1.484375 4.71875q0 3.1875 -1.515625 4.921875q-1.515625 1.71875 -3.6875 1.71875q-1.0625 0 -2.109375 -0.53125q-1.03125 -0.53125 -1.78125 -1.578125l0 1.828125l-3.0625 0zm3.28125 -6.5q0 1.9375 0.609375 2.859375q0.84375 1.3125 2.265625 1.3125q1.09375 0 1.859375 -0.921875q0.765625 -0.9375 0.765625 -2.9375q0 -2.140625 -0.78125 -3.078125q-0.765625 -0.9375 -1.96875 -0.9375q-1.1875 0 -1.96875 0.921875q-0.78125 0.90625 -0.78125 2.78125z" fill-rule="nonzero"/><path fill="#000000" d="m551.0154 65.11751l0 2.046875l-7.6875 0q0.125 -1.15625 0.75 -2.1875q0.625 -1.046875 2.46875 -2.75q1.484375 -1.390625 1.8125 -1.875q0.453125 -0.6875 0.453125 -1.34375q0 -0.734375 -0.390625 -1.125q-0.390625 -0.40625 -1.09375 -0.40625q-0.6875 0 -1.09375 0.421875q-0.40625 0.40625 -0.46875 1.375l-2.1875 -0.21875q0.203125 -1.8125 1.234375 -2.59375q1.03125 -0.796875 2.578125 -0.796875q1.6875 0 2.65625 0.921875q0.96875 0.90625 0.96875 2.265625q0 0.765625 -0.28125 1.46875q-0.265625 0.703125 -0.875 1.46875q-0.390625 0.5 -1.4375 1.453125q-1.03125 0.953125 -1.3125 1.265625q-0.28125 0.3125 -0.453125 0.609375l4.359375 0z" fill-rule="nonzero"/><path fill="#000000" fill-opacity="0.0" d="m541.2223 74.343834l-0.440979 96.7244" fill-rule="evenodd"/><path stroke="#000000" stroke-width="2.0" stroke-linejoin="round" stroke-linecap="butt" d="m541.2223 74.343834l-0.440979 96.7244" fill-rule="evenodd"/><path fill="#000000" fill-opacity="0.0" d="m444.75336 187.4672l79.1496 0.47244263" fill-rule="evenodd"/><path stroke="#000000" stroke-width="2.0" stroke-linejoin="round" stroke-linecap="butt" d="m444.75336 187.4672l79.1496 0.47244263" fill-rule="evenodd"/><path fill="#000000" fill-opacity="0.0" d="m449.75204 142.2801l54.42517 0l0 52.18898l-54.42517 0z" fill-rule="evenodd"/><path fill="#000000" d="m462.93954 174.3201l-4.109375 -17.1875l3.5625 0l2.578125 11.8125l3.140625 -11.8125l4.125 0l3.015625 12.0l2.640625 -12.0l3.484375 0l-4.171875 17.1875l-3.671875 0l-3.421875 -12.84375l-3.40625 12.84375l-3.765625 0z" fill-rule="nonzero"/><path fill="#000000" d="m489.49814 181.27322l0 2.046875l-7.6875 0q0.125 -1.15625 0.75 -2.1875q0.625 -1.046875 2.46875 -2.75q1.484375 -1.390625 1.8125 -1.875q0.453125 -0.6875 0.453125 -1.34375q0 -0.734375 -0.390625 -1.125q-0.390625 -0.40625 -1.09375 -0.40625q-0.6875 0 -1.09375 0.421875q-0.40625 0.40625 -0.46875 1.375l-2.1875 -0.21875q0.203125 -1.8125 1.234375 -2.59375q1.03125 -0.796875 2.578125 -0.796875q1.6875 0 2.65625 0.921875q0.96875 0.90625 0.96875 2.265625q0 0.765625 -0.28125 1.46875q-0.265625 0.703125 -0.875 1.46875q-0.390625 0.5 -1.4375 1.453125q-1.03125 0.953125 -1.3125 1.265625q-0.28125 0.3125 -0.453125 0.609375l4.359375 0z" fill-rule="nonzero"/><path fill="#000000" fill-opacity="0.0" d="m557.67413 187.94733l52.37793 0" fill-rule="evenodd"/><path stroke="#000000" stroke-width="3.0" stroke-linejoin="round" stroke-linecap="butt" d="m557.67413 187.94733l34.37793 0" fill-rule="evenodd"/><path fill="#000000" stroke="#000000" stroke-width="3.0" stroke-linecap="butt" d="m592.05206 192.90253l13.614319 -4.9552l-13.614319 -4.9552z" fill-rule="evenodd"/><path fill="#000000" fill-opacity="0.0" d="m603.56226 159.18521l54.42517 0l0 52.188965l-54.42517 0z" fill-rule="evenodd"/><path fill="#000000" d="m614.04663 196.02208l-0.234375 -1.984375q0.703125 0.1875 1.21875 0.1875q0.703125 0 1.125 -0.234375q0.421875 -0.234375 0.6875 -0.65625q0.203125 -0.3125 0.640625 -1.5625q0.0625 -0.1875 0.1875 -0.515625l-4.71875 -12.484375l2.265625 0l2.59375 7.21875q0.5 1.359375 0.90625 2.875q0.359375 -1.453125 0.859375 -2.828125l2.671875 -7.265625l2.109375 0l-4.734375 12.671875q-0.765625 2.046875 -1.1875 2.8125q-0.5625 1.046875 -1.296875 1.53125q-0.71875 0.484375 -1.734375 0.484375q-0.609375 0 -1.359375 -0.25zm5.546875 -20.78125l-1.328125 1.984375l-2.40625 0l2.53125 -3.28125l2.25 0l2.640625 3.28125l-2.390625 0l-1.296875 -1.984375z" fill-rule="nonzero"/></g></svg>