<svg version="1.1" viewBox="0.0 0.0 1164.7821522309712 483.2283464566929" fill="none" stroke="none" stroke-linecap="square" stroke-miterlimit="10" xmlns:xlink="http://www.w3.org/1999/xlink" xmlns="http://www.w3.org/2000/svg"><clipPath id="p.0"><path d="m0 0l1164.7821 0l0 483.22833l-1164.7821 0l0 -483.22833z" clip-rule="nonzero"/></clipPath><g clip-path="url(#p.0)"><path fill="#ffffff" d="m0 0l1164.7821 0l0 483.22833l-1164.7821 0z" fill-rule="evenodd"/><path fill="#6fa8dc" d="m56.64042 105.66549l0 0c0 -16.455475 13.925003 -29.795273 31.102364 -29.795273l0 0c8.248856 0 16.159866 3.1391373 21.992691 8.72683c5.8328247 5.5877 9.109673 13.1662445 9.109673 21.068443l0 0c0 16.455475 -13.925003 29.79528 -31.102364 29.79528l0 0c-17.17736 0 -31.102364 -13.339806 -31.102364 -29.79528z" fill-rule="evenodd"/><path stroke="#000000" stroke-width="1.0" stroke-linejoin="round" stroke-linecap="butt" d="m56.64042 105.66549l0 0c0 -16.455475 13.925003 -29.795273 31.102364 -29.795273l0 0c8.248856 0 16.159866 3.1391373 21.992691 8.72683c5.8328247 5.5877 9.109673 13.1662445 9.109673 21.068443l0 0c0 16.455475 -13.925003 29.79528 -31.102364 29.79528l0 0c-17.17736 0 -31.102364 -13.339806 -31.102364 -29.79528z" fill-rule="evenodd"/><path fill="#000000" d="m74.96884 116.32549l5.546875 -7.90625l-5.140625 -7.296875l3.234375 0l2.328125 3.5625q0.65625 1.015625 1.0625 1.703125q0.625 -0.953125 1.15625 -1.671875l2.5625 -3.59375l3.078125 0l-5.25 7.15625l5.65625 8.046875l-3.171875 0l-3.125 -4.71875l-0.828125 -1.28125l-3.984375 6.0l-3.125 0z" fill-rule="nonzero"/><path fill="#000000" d="m90.226654 120.419235q0 -2.46875 0.5 -3.984375q0.515625 -1.515625 1.515625 -2.328125q1.015625 -0.828125 2.546875 -0.828125q1.125 0 1.96875 0.453125q0.859375 0.453125 1.40625 1.3125q0.5625 0.84375 0.875 2.078125q0.3125 1.21875 0.3125 3.296875q0 2.46875 -0.515625 3.984375q-0.5 1.515625 -1.515625 2.34375q-1.0 0.8125 -2.53125 0.8125q-2.03125 0 -3.1875 -1.453125q-1.375 -1.734375 -1.375 -5.6875zm1.765625 0q0 3.453125 0.796875 4.59375q0.8125 1.140625 2.0 1.140625q1.1875 0 1.984375 -1.140625q0.8125 -1.15625 0.8125 -4.59375q0 -3.453125 -0.8125 -4.578125q-0.796875 -1.140625 -2.0 -1.140625q-1.1875 0 -1.890625 1.0q-0.890625 1.28125 -0.890625 4.71875z" fill-rule="nonzero"/><path fill="#6fa8dc" d="m56.64042 206.99054l0 0c0 -16.455475 13.925003 -29.795273 31.102364 -29.795273l0 0c8.248856 0 16.159866 3.1391296 21.992691 8.726822c5.8328247 5.5877075 9.109673 13.1662445 9.109673 21.06845l0 0c0 16.455475 -13.925003 29.795273 -31.102364 29.795273l0 0c-17.17736 0 -31.102364 -13.339798 -31.102364 -29.795273z" fill-rule="evenodd"/><path stroke="#000000" stroke-width="1.0" stroke-linejoin="round" stroke-linecap="butt" d="m56.64042 206.99054l0 0c0 -16.455475 13.925003 -29.795273 31.102364 -29.795273l0 0c8.248856 0 16.159866 3.1391296 21.992691 8.726822c5.8328247 5.5877075 9.109673 13.1662445 9.109673 21.06845l0 0c0 16.455475 -13.925003 29.795273 -31.102364 29.795273l0 0c-17.17736 0 -31.102364 -13.339798 -31.102364 -29.795273z" fill-rule="evenodd"/><path fill="#000000" d="m74.96884 217.65054l5.546875 -7.90625l-5.140625 -7.296875l3.234375 0l2.328125 3.5625q0.65625 1.015625 1.0625 1.703125q0.625 -0.953125 1.15625 -1.671875l2.5625 -3.59375l3.078125 0l-5.25 7.15625l5.65625 8.046875l-3.171875 0l-3.125 -4.71875l-0.828125 -1.28125l-3.984375 6.0l-3.125 0z" fill-rule="nonzero"/><path fill="#000000" d="m96.695404 228.65053l-1.71875 0l0 -10.953125q-0.625 0.59375 -1.625 1.1875q-1.0 0.59375 -1.8125 0.890625l0 -1.65625q1.4375 -0.6875 2.515625 -1.640625q1.09375 -0.96875 1.53125 -1.875l1.109375 0l0 14.046875z" fill-rule="nonzero"/><path fill="#ffd966" d="m248.64043 66.523315l0 0c0 -16.455471 13.925003 -29.795273 31.10234 -29.795273l0 0c8.248871 0 16.159882 3.1391373 21.992706 8.726833c5.8328247 5.5877 9.10968 13.1662445 9.10968 21.06844l0 0c0 16.455482 -13.925018 29.79528 -31.102386 29.79528l0 0c-17.177338 0 -31.10234 -13.339798 -31.10234 -29.79528z" fill-rule="evenodd"/><path stroke="#000000" stroke-width="1.0" stroke-linejoin="round" stroke-linecap="butt" d="m248.64043 66.523315l0 0c0 -16.455471 13.925003 -29.795273 31.10234 -29.795273l0 0c8.248871 0 16.159882 3.1391373 21.992706 8.726833c5.8328247 5.5877 9.10968 13.1662445 9.10968 21.06844l0 0c0 16.455482 -13.925018 29.79528 -31.102386 29.79528l0 0c-17.177338 0 -31.10234 -13.339798 -31.10234 -29.79528z" fill-rule="evenodd"/><path fill="#000000" d="m285.95688 57.522068q0 -0.453125 0.28125 -0.921875q0.28125 -0.46875 0.28125 -0.53125q0 -0.453125 -0.59375 -0.453125q-1.828125 0 -3.15625 5.171875l-0.625 2.453125l3.203125 0l-0.3125 1.4531288l-3.125 0q-0.59375 2.703125 -1.09375 5.15625q-0.5 2.4375 -1.0625 4.578125q-0.546875 2.125 -1.109375 3.90625q-0.546875 1.78125 -1.265625 3.1875q-0.703125 1.40625 -1.53125 2.375q-0.828125 0.96875 -1.90625 1.484375q-1.078125 0.53125 -2.390625 0.53125q-1.5625 0 -2.5 -0.75q-0.9375 -0.75 -0.9375 -2.0q0 -0.75 0.546875 -1.3125q0.53125 -0.546875 1.25 -0.546875q0.671875 0 1.1875 0.515625q0.515625 0.515625 0.515625 1.140625q0 0.484375 -0.265625 0.9375q-0.28125 0.453125 -0.28125 0.5625q0 0.375 0.625 0.375q0.40625 0 0.71875 -0.1875q0.3125 -0.1875 0.578125 -0.46875q0.25 -0.28125 0.546875 -1.171875q0.296875 -0.875 0.53125 -1.6875q0.25 -0.8125 0.65625 -2.640625q0.421875 -1.84375 0.78125 -3.453125q0.375 -1.625 1.046875 -4.703125q0.671875 -3.09375 1.296875 -5.828125l-2.515625 0l0.296875 -1.4531288l2.53125 0q0.53125 -1.875 1.109375 -3.21875q0.59375 -1.359375 1.484375 -2.6875q0.90625 -1.328125 2.21875 -2.015625q1.328125 -0.703125 3.03125 -0.703125q1.546875 0 2.484375 0.75q0.9375 0.734375 0.9375 2.015625q0 0.796875 -0.5 1.328125q-0.5 0.515625 -1.265625 0.515625q-0.6875 0 -1.203125 -0.5q-0.5 -0.5 -0.5 -1.203125z" fill-rule="nonzero"/><path fill="#ffd966" d="m248.64043 154.58267l0 0c0 -16.455475 13.925003 -29.795273 31.10234 -29.795273l0 0c8.248871 0 16.159882 3.1391373 21.992706 8.726837c5.8328247 5.5876923 9.10968 13.1662445 9.10968 21.068436l0 0c0 16.455475 -13.925018 29.795288 -31.102386 29.795288l0 0c-17.177338 0 -31.10234 -13.339813 -31.10234 -29.795288z" fill-rule="evenodd"/><path stroke="#000000" stroke-width="1.0" stroke-linejoin="round" stroke-linecap="butt" d="m248.64043 154.58267l0 0c0 -16.455475 13.925003 -29.795273 31.10234 -29.795273l0 0c8.248871 0 16.159882 3.1391373 21.992706 8.726837c5.8328247 5.5876923 9.10968 13.1662445 9.10968 21.068436l0 0c0 16.455475 -13.925018 29.795288 -31.102386 29.795288l0 0c-17.177338 0 -31.10234 -13.339813 -31.10234 -29.795288z" fill-rule="evenodd"/><path fill="#000000" d="m285.95688 145.58142q0 -0.453125 0.28125 -0.921875q0.28125 -0.46875 0.28125 -0.53125q0 -0.453125 -0.59375 -0.453125q-1.828125 0 -3.15625 5.171875l-0.625 2.453125l3.203125 0l-0.3125 1.453125l-3.125 0q-0.59375 2.703125 -1.09375 5.15625q-0.5 2.4375 -1.0625 4.578125q-0.546875 2.125 -1.109375 3.90625q-0.546875 1.78125 -1.265625 3.1875q-0.703125 1.40625 -1.53125 2.375q-0.828125 0.96875 -1.90625 1.484375q-1.078125 0.53125 -2.390625 0.53125q-1.5625 0 -2.5 -0.75q-0.9375 -0.75 -0.9375 -2.0q0 -0.75 0.546875 -1.3125q0.53125 -0.546875 1.25 -0.546875q0.671875 0 1.1875 0.515625q0.515625 0.515625 0.515625 1.140625q0 0.484375 -0.265625 0.9375q-0.28125 0.453125 -0.28125 0.5625q0 0.375 0.625 0.375q0.40625 0 0.71875 -0.1875q0.3125 -0.1875 0.578125 -0.46875q0.25 -0.28125 0.546875 -1.171875q0.296875 -0.875 0.53125 -1.6875q0.25 -0.8125 0.65625 -2.640625q0.421875 -1.84375 0.78125 -3.453125q0.375 -1.625 1.046875 -4.703125q0.671875 -3.09375 1.296875 -5.828125l-2.515625 0l0.296875 -1.453125l2.53125 0q0.53125 -1.875 1.109375 -3.21875q0.59375 -1.359375 1.484375 -2.6875q0.90625 -1.328125 2.21875 -2.015625q1.328125 -0.703125 3.03125 -0.703125q1.546875 0 2.484375 0.75q0.9375 0.734375 0.9375 2.015625q0 0.796875 -0.5 1.328125q-0.5 0.515625 -1.265625 0.515625q-0.6875 0 -1.203125 -0.5q-0.5 -0.5 -0.5 -1.203125z" fill-rule="nonzero"/><path fill="#93c47d" d="m440.6404 154.89255l0 0c0 -16.455475 13.925018 -29.795273 31.102356 -29.795273l0 0c8.248871 0 16.159882 3.1391296 21.992706 8.726837c5.8328247 5.5876923 9.10968 13.1662445 9.10968 21.068436l0 0c0 16.455475 -13.925018 29.795273 -31.102386 29.795273l0 0c-17.177338 0 -31.102356 -13.339798 -31.102356 -29.795273z" fill-rule="evenodd"/><path stroke="#000000" stroke-width="1.0" stroke-linejoin="round" stroke-linecap="butt" d="m440.6404 154.89255l0 0c0 -16.455475 13.925018 -29.795273 31.102356 -29.795273l0 0c8.248871 0 16.159882 3.1391296 21.992706 8.726837c5.8328247 5.5876923 9.10968 13.1662445 9.10968 21.068436l0 0c0 16.455475 -13.925018 29.795273 -31.102386 29.795273l0 0c-17.177338 0 -31.102356 -13.339798 -31.102356 -29.795273z" fill-rule="evenodd"/><path fill="#000000" d="m459.32822 165.55255l0 -2.09375l9.671875 -11.109375q-1.640625 0.078125 -2.90625 0.078125l-6.203125 0l0 -2.078125l12.4375 0l0 1.703125l-8.234375 9.640625l-1.59375 1.765625q1.734375 -0.125 3.25 -0.125l7.03125 0l0 2.21875l-13.453125 0z" fill-rule="nonzero"/><path fill="#000000" d="m480.6954 176.55255l-1.71875 0l0 -10.953125q-0.625 0.59375 -1.625 1.1875q-1.0 0.59375 -1.8125 0.890625l0 -1.65625q1.4375 -0.6875 2.515625 -1.640625q1.09375 -0.96875 1.53125 -1.875l1.109375 0l0 14.046875z" fill-rule="nonzero"/><path fill="#000000" fill-opacity="0.0" d="m118.845146 105.66549l129.79529 -39.149605" fill-rule="evenodd"/><path stroke="#000000" stroke-width="1.0" stroke-linejoin="round" stroke-linecap="butt" d="m118.845146 105.66549l124.050896 -37.416946" fill-rule="evenodd"/><path fill="#000000" stroke="#000000" stroke-width="1.0" stroke-linecap="butt" d="m243.37302 69.8299l3.8677826 -2.8918533l-4.821747 -0.27087402z" fill-rule="evenodd"/><path fill="#000000" fill-opacity="0.0" d="m118.845146 105.66549l129.79529 48.913383" fill-rule="evenodd"/><path stroke="#000000" stroke-width="1.0" stroke-linejoin="round" stroke-linecap="butt" d="m118.845146 105.66549l124.18073 46.79754" fill-rule="evenodd"/><path fill="#000000" stroke="#000000" stroke-width="1.0" stroke-linecap="butt" d="m242.4434 154.00865l4.8290253 0.0546875l-3.664093 -3.145935z" fill-rule="evenodd"/><path fill="#000000" fill-opacity="0.0" d="m118.845146 206.99054l129.79529 -140.47244" fill-rule="evenodd"/><path stroke="#000000" stroke-width="1.0" stroke-linejoin="round" stroke-linecap="butt" d="m118.845146 206.99052l125.72343 -136.06561" fill-rule="evenodd"/><path fill="#000000" stroke="#000000" stroke-width="1.0" stroke-linecap="butt" d="m245.78171 72.045845l1.8666077 -4.4540253l-4.2928925 2.2121506z" fill-rule="evenodd"/><path fill="#000000" fill-opacity="0.0" d="m118.845146 206.99054l129.79529 -52.409454" fill-rule="evenodd"/><path stroke="#000000" stroke-width="1.0" stroke-linejoin="round" stroke-linecap="butt" d="m118.845146 206.99052l124.23171 -50.16295" fill-rule="evenodd"/><path fill="#000000" stroke="#000000" stroke-width="1.0" stroke-linecap="butt" d="m243.69528 158.35916l3.589569 -3.230713l-4.8264313 0.1675415z" fill-rule="evenodd"/><path fill="#000000" fill-opacity="0.0" d="m310.84515 66.523315l129.79526 88.37796" fill-rule="evenodd"/><path stroke="#000000" stroke-width="1.0" stroke-linejoin="round" stroke-linecap="butt" d="m310.84515 66.52332l124.835785 85.00103" fill-rule="evenodd"/><path fill="#000000" stroke="#000000" stroke-width="1.0" stroke-linecap="butt" d="m434.7513 152.88963l4.680725 1.1888428l-2.8214722 -3.9194183z" fill-rule="evenodd"/><path fill="#000000" fill-opacity="0.0" d="m310.84515 154.58267l129.79526 0.31497192" fill-rule="evenodd"/><path stroke="#000000" stroke-width="1.0" stroke-linejoin="round" stroke-linecap="butt" d="m310.84515 154.58267l123.79526 0.30039978" fill-rule="evenodd"/><path fill="#000000" stroke="#000000" stroke-width="1.0" stroke-linecap="butt" d="m434.63644 156.5348l4.5420837 -1.6407166l-4.534088 -1.662735z" fill-rule="evenodd"/><path fill="#000000" fill-opacity="0.0" d="m502.84515 154.89255l31.590515 0" fill-rule="evenodd"/><path stroke="#000000" stroke-width="2.0" stroke-linejoin="round" stroke-linecap="butt" d="m502.84515 154.89255l19.590515 0" fill-rule="evenodd"/><path fill="#000000" stroke="#000000" stroke-width="2.0" stroke-linecap="butt" d="m522.43567 158.19601l9.076233 -3.3034668l-9.076233 -3.3034668z" fill-rule="evenodd"/><path fill="#ffd966" d="m248.64043 246.1327l0 0c0 -16.455475 13.925003 -29.795273 31.10234 -29.795273l0 0c8.248871 0 16.159882 3.1391296 21.992706 8.726837c5.8328247 5.5876923 9.10968 13.1662445 9.10968 21.068436l0 0c0 16.45549 -13.925018 29.795273 -31.102386 29.795273l0 0c-17.177338 0 -31.10234 -13.339783 -31.10234 -29.795273z" fill-rule="evenodd"/><path stroke="#000000" stroke-width="1.0" stroke-linejoin="round" stroke-linecap="butt" d="m248.64043 246.1327l0 0c0 -16.455475 13.925003 -29.795273 31.10234 -29.795273l0 0c8.248871 0 16.159882 3.1391296 21.992706 8.726837c5.8328247 5.5876923 9.10968 13.1662445 9.10968 21.068436l0 0c0 16.45549 -13.925018 29.795273 -31.102386 29.795273l0 0c-17.177338 0 -31.10234 -13.339783 -31.10234 -29.795273z" fill-rule="evenodd"/><path fill="#000000" d="m285.95688 237.13145q0 -0.453125 0.28125 -0.921875q0.28125 -0.46875 0.28125 -0.53125q0 -0.453125 -0.59375 -0.453125q-1.828125 0 -3.15625 5.171875l-0.625 2.453125l3.203125 0l-0.3125 1.453125l-3.125 0q-0.59375 2.703125 -1.09375 5.15625q-0.5 2.4375 -1.0625 4.578125q-0.546875 2.1250153 -1.109375 3.9062653q-0.546875 1.78125 -1.265625 3.1875q-0.703125 1.40625 -1.53125 2.375q-0.828125 0.96875 -1.90625 1.484375q-1.078125 0.53125 -2.390625 0.53125q-1.5625 0 -2.5 -0.75q-0.9375 -0.75 -0.9375 -2.0q0 -0.75 0.546875 -1.3125q0.53125 -0.546875 1.25 -0.546875q0.671875 0 1.1875 0.515625q0.515625 0.515625 0.515625 1.140625q0 0.484375 -0.265625 0.9375q-0.28125 0.453125 -0.28125 0.5625q0 0.375 0.625 0.375q0.40625 0 0.71875 -0.1875q0.3125 -0.1875 0.578125 -0.46875q0.25 -0.28125 0.546875 -1.171875q0.296875 -0.875 0.53125 -1.6875q0.25 -0.8125 0.65625 -2.640625q0.421875 -1.84375 0.78125 -3.4531403q0.375 -1.625 1.046875 -4.703125q0.671875 -3.09375 1.296875 -5.828125l-2.515625 0l0.296875 -1.453125l2.53125 0q0.53125 -1.875 1.109375 -3.21875q0.59375 -1.359375 1.484375 -2.6875q0.90625 -1.328125 2.21875 -2.015625q1.328125 -0.703125 3.03125 -0.703125q1.546875 0 2.484375 0.75q0.9375 0.734375 0.9375 2.015625q0 0.796875 -0.5 1.328125q-0.5 0.515625 -1.265625 0.515625q-0.6875 0 -1.203125 -0.5q-0.5 -0.5 -0.5 -1.203125z" fill-rule="nonzero"/><path fill="#ffd966" d="m248.64043 338.52332l0 0c0 -16.455475 13.925003 -29.795258 31.10234 -29.795258l0 0c8.248871 0 16.159882 3.1391296 21.992706 8.726807c5.8328247 5.5877075 9.10968 13.16626 9.10968 21.06845l0 0c0 16.455475 -13.925018 29.795288 -31.102386 29.795288l0 0c-17.177338 0 -31.10234 -13.339813 -31.10234 -29.795288z" fill-rule="evenodd"/><path stroke="#000000" stroke-width="1.0" stroke-linejoin="round" stroke-linecap="butt" d="m248.64043 338.52332l0 0c0 -16.455475 13.925003 -29.795258 31.10234 -29.795258l0 0c8.248871 0 16.159882 3.1391296 21.992706 8.726807c5.8328247 5.5877075 9.10968 13.16626 9.10968 21.06845l0 0c0 16.455475 -13.925018 29.795288 -31.102386 29.795288l0 0c-17.177338 0 -31.10234 -13.339813 -31.10234 -29.795288z" fill-rule="evenodd"/><path fill="#000000" d="m285.95688 329.52206q0 -0.453125 0.28125 -0.921875q0.28125 -0.46875 0.28125 -0.53125q0 -0.453125 -0.59375 -0.453125q-1.828125 0 -3.15625 5.171875l-0.625 2.453125l3.203125 0l-0.3125 1.453125l-3.125 0q-0.59375 2.703125 -1.09375 5.15625q-0.5 2.4375 -1.0625 4.578125q-0.546875 2.125 -1.109375 3.90625q-0.546875 1.78125 -1.265625 3.1875q-0.703125 1.40625 -1.53125 2.375q-0.828125 0.96875 -1.90625 1.484375q-1.078125 0.53125 -2.390625 0.53125q-1.5625 0 -2.5 -0.75q-0.9375 -0.75 -0.9375 -2.0q0 -0.75 0.546875 -1.3125q0.53125 -0.546875 1.25 -0.546875q0.671875 0 1.1875 0.515625q0.515625 0.515625 0.515625 1.140625q0 0.484375 -0.265625 0.9375q-0.28125 0.453125 -0.28125 0.5625q0 0.375 0.625 0.375q0.40625 0 0.71875 -0.1875q0.3125 -0.1875 0.578125 -0.46875q0.25 -0.28125 0.546875 -1.171875q0.296875 -0.875 0.53125 -1.6875q0.25 -0.8125 0.65625 -2.640625q0.421875 -1.84375 0.78125 -3.453125q0.375 -1.625 1.046875 -4.703125q0.671875 -3.09375 1.296875 -5.828125l-2.515625 0l0.296875 -1.453125l2.53125 0q0.53125 -1.875 1.109375 -3.21875q0.59375 -1.359375 1.484375 -2.6875q0.90625 -1.328125 2.21875 -2.015625q1.328125 -0.703125 3.03125 -0.703125q1.546875 0 2.484375 0.75q0.9375 0.734375 0.9375 2.015625q0 0.796875 -0.5 1.328125q-0.5 0.515625 -1.265625 0.515625q-0.6875 0 -1.203125 -0.5q-0.5 -0.5 -0.5 -1.203125z" fill-rule="nonzero"/><path fill="#93c47d" d="m440.6404 246.10303l0 0c0 -16.455475 13.925018 -29.795273 31.102356 -29.795273l0 0c8.248871 0 16.159882 3.1391296 21.992706 8.726837c5.8328247 5.5876923 9.10968 13.1662445 9.10968 21.068436l0 0c0 16.455475 -13.925018 29.795288 -31.102386 29.795288l0 0c-17.177338 0 -31.102356 -13.339813 -31.102356 -29.795288z" fill-rule="evenodd"/><path stroke="#000000" stroke-width="1.0" stroke-linejoin="round" stroke-linecap="butt" d="m440.6404 246.10303l0 0c0 -16.455475 13.925018 -29.795273 31.102356 -29.795273l0 0c8.248871 0 16.159882 3.1391296 21.992706 8.726837c5.8328247 5.5876923 9.10968 13.1662445 9.10968 21.068436l0 0c0 16.455475 -13.925018 29.795288 -31.102386 29.795288l0 0c-17.177338 0 -31.102356 -13.339813 -31.102356 -29.795288z" fill-rule="evenodd"/><path fill="#000000" d="m459.32822 256.76303l0 -2.09375l9.671875 -11.109375q-1.640625 0.078125 -2.90625 0.078125l-6.203125 0l0 -2.078125l12.4375 0l0 1.703125l-8.234375 9.640625l-1.59375 1.765625q1.734375 -0.125 3.25 -0.125l7.03125 0l0 2.21875l-13.453125 0z" fill-rule="nonzero"/><path fill="#000000" d="m483.2579 266.10678l0 1.65625l-9.25 0q-0.015625 -0.625 0.203125 -1.1875q0.34375 -0.953125 1.125 -1.859375q0.78125 -0.921875 2.25 -2.125q2.28125 -1.875 3.078125 -2.96875q0.8125 -1.09375 0.8125 -2.0625q0 -1.015625 -0.734375 -1.71875q-0.734375 -0.703125 -1.90625 -0.703125q-1.234375 0 -1.984375 0.75q-0.75 0.734375 -0.75 2.046875l-1.765625 -0.171875q0.171875 -1.984375 1.359375 -3.015625q1.1875 -1.03125 3.171875 -1.03125q2.015625 0 3.1875 1.125q1.1875 1.109375 1.1875 2.75q0 0.84375 -0.34375 1.65625q-0.34375 0.8125 -1.140625 1.71875q-0.796875 0.890625 -2.65625 2.453125q-1.546875 1.296875 -1.984375 1.765625q-0.4375 0.453125 -0.71875 0.921875l6.859375 0z" fill-rule="nonzero"/><path fill="#000000" fill-opacity="0.0" d="m310.84515 246.1327l129.79526 -0.03149414" fill-rule="evenodd"/><path stroke="#000000" stroke-width="1.0" stroke-linejoin="round" stroke-linecap="butt" d="m310.84515 246.1327l123.79526 -0.030029297" fill-rule="evenodd"/><path fill="#000000" stroke="#000000" stroke-width="1.0" stroke-linecap="butt" d="m434.6408 247.75441l4.5377197 -1.6528473l-4.538513 -1.6506195z" fill-rule="evenodd"/><path fill="#000000" fill-opacity="0.0" d="m310.84515 338.52332l129.79526 -92.40944" fill-rule="evenodd"/><path stroke="#000000" stroke-width="1.0" stroke-linejoin="round" stroke-linecap="butt" d="m310.84515 338.52332l124.9075 -88.92955" fill-rule="evenodd"/><path fill="#000000" stroke="#000000" stroke-width="1.0" stroke-linecap="butt" d="m436.71063 250.93932l2.7388916 -3.9775696l-4.654846 1.2864838z" fill-rule="evenodd"/><path fill="#000000" fill-opacity="0.0" d="m502.84515 246.10303l31.590515 0" fill-rule="evenodd"/><path stroke="#000000" stroke-width="2.0" stroke-linejoin="round" stroke-linecap="butt" d="m502.84515 246.10301l19.590515 0" fill-rule="evenodd"/><path fill="#000000" stroke="#000000" stroke-width="2.0" stroke-linecap="butt" d="m522.43567 249.40648l9.076233 -3.3034668l-9.076233 -3.3034515z" fill-rule="evenodd"/><path fill="#000000" fill-opacity="0.0" d="m118.845146 105.66549l129.79529 140.47244" fill-rule="evenodd"/><path stroke="#000000" stroke-width="1.0" stroke-linejoin="round" stroke-linecap="butt" d="m118.845146 105.66549l125.72343 136.06564" fill-rule="evenodd"/><path fill="#000000" stroke="#000000" stroke-width="1.0" stroke-linecap="butt" d="m243.35542 242.85207l4.2928925 2.2121582l-1.8666077 -4.4540405z" fill-rule="evenodd"/><path fill="#000000" fill-opacity="0.0" d="m118.845146 105.66549l129.79529 232.85037" fill-rule="evenodd"/><path stroke="#000000" stroke-width="1.0" stroke-linejoin="round" stroke-linecap="butt" d="m118.845146 105.66549l126.873955 227.60959" fill-rule="evenodd"/><path fill="#000000" stroke="#000000" stroke-width="1.0" stroke-linecap="butt" d="m244.27637 334.0793l3.6522675 3.159668l-0.7667999 -4.768097z" fill-rule="evenodd"/><path fill="#000000" fill-opacity="0.0" d="m118.845146 206.99054l129.79529 39.149597" fill-rule="evenodd"/><path stroke="#000000" stroke-width="1.0" stroke-linejoin="round" stroke-linecap="butt" d="m118.845146 206.99052l124.050896 37.41696" fill-rule="evenodd"/><path fill="#000000" stroke="#000000" stroke-width="1.0" stroke-linecap="butt" d="m242.41905 245.98885l4.821747 -0.27087402l-3.8677826 -2.891861z" fill-rule="evenodd"/><path fill="#000000" fill-opacity="0.0" d="m118.845146 206.99054l129.79529 131.52756" fill-rule="evenodd"/><path stroke="#000000" stroke-width="1.0" stroke-linejoin="round" stroke-linecap="butt" d="m118.845146 206.99052l125.58085 127.25688" fill-rule="evenodd"/><path fill="#000000" stroke="#000000" stroke-width="1.0" stroke-linecap="butt" d="m243.25034 335.4076l4.3632355 2.0699463l-2.0119019 -4.39032z" fill-rule="evenodd"/><path fill="#000000" fill-opacity="0.0" d="m310.84515 338.52332l129.79526 -183.62204" fill-rule="evenodd"/><path stroke="#000000" stroke-width="1.0" stroke-linejoin="round" stroke-linecap="butt" d="m310.84515 338.52332l126.33197 -178.7225" fill-rule="evenodd"/><path fill="#000000" stroke="#000000" stroke-width="1.0" stroke-linecap="butt" d="m438.5259 160.75423l1.2706909 -4.6591797l-3.9682617 2.752365z" fill-rule="evenodd"/><path fill="#000000" fill-opacity="0.0" d="m310.84515 246.1327l129.79526 -91.244095" fill-rule="evenodd"/><path stroke="#000000" stroke-width="1.0" stroke-linejoin="round" stroke-linecap="butt" d="m310.84515 246.1327l124.88675 -87.79349" fill-rule="evenodd"/><path fill="#000000" stroke="#000000" stroke-width="1.0" stroke-linecap="butt" d="m436.68182 159.69048l2.7626343 -3.9611206l-4.662445 1.258606z" fill-rule="evenodd"/><path fill="#000000" fill-opacity="0.0" d="m310.84515 154.58267l129.79526 91.52756" fill-rule="evenodd"/><path stroke="#000000" stroke-width="1.0" stroke-linejoin="round" stroke-linecap="butt" d="m310.84515 154.58267l124.891815 88.06981" fill-rule="evenodd"/><path fill="#000000" stroke="#000000" stroke-width="1.0" stroke-linecap="butt" d="m434.7851 244.00233l4.6605835 1.2654114l-2.756836 -3.9651337z" fill-rule="evenodd"/><path fill="#000000" fill-opacity="0.0" d="m310.84515 66.523315l129.79526 179.59056" fill-rule="evenodd"/><path stroke="#000000" stroke-width="1.0" stroke-linejoin="round" stroke-linecap="butt" d="m310.84515 66.52332l126.2807 174.72763" fill-rule="evenodd"/><path fill="#000000" stroke="#000000" stroke-width="1.0" stroke-linecap="butt" d="m435.78714 242.21848l3.9969482 2.7105408l-1.319519 -4.645569z" fill-rule="evenodd"/><path fill="#000000" fill-opacity="0.0" d="m56.64042 105.66549l-36.15748 0" fill-rule="evenodd"/><path stroke="#000000" stroke-width="2.0" stroke-linejoin="round" stroke-linecap="butt" d="m49.786247 105.66549l-29.303308 0" fill-rule="evenodd"/><path fill="#000000" stroke="#000000" stroke-width="2.0" stroke-linecap="butt" d="m49.786247 105.66549l-2.2491684 2.2491684l6.179535 -2.2491684l-6.179535 -2.2491684z" fill-rule="evenodd"/><path fill="#000000" fill-opacity="0.0" d="m56.64042 206.99054l-38.582676 0" fill-rule="evenodd"/><path stroke="#000000" stroke-width="2.0" stroke-linejoin="round" stroke-linecap="butt" d="m49.786247 206.99052l-31.728504 0" fill-rule="evenodd"/><path fill="#000000" stroke="#000000" stroke-width="2.0" stroke-linecap="butt" d="m49.786247 206.99052l-2.2491684 2.249176l6.179535 -2.249176l-6.179535 -2.2491608z" fill-rule="evenodd"/><path fill="#6fa8dc" d="m56.64042 302.99054l0 0c0 -16.455475 13.925003 -29.795288 31.102364 -29.795288l0 0c8.248856 0 16.159866 3.1391602 21.992691 8.726837c5.8328247 5.5877075 9.109673 13.16626 9.109673 21.06845l0 0c0 16.455475 -13.925003 29.795258 -31.102364 29.795258l0 0c-17.17736 0 -31.102364 -13.339783 -31.102364 -29.795258z" fill-rule="evenodd"/><path stroke="#000000" stroke-width="1.0" stroke-linejoin="round" stroke-linecap="butt" d="m56.64042 302.99054l0 0c0 -16.455475 13.925003 -29.795288 31.102364 -29.795288l0 0c8.248856 0 16.159866 3.1391602 21.992691 8.726837c5.8328247 5.5877075 9.109673 13.16626 9.109673 21.06845l0 0c0 16.455475 -13.925003 29.795258 -31.102364 29.795258l0 0c-17.17736 0 -31.102364 -13.339783 -31.102364 -29.795258z" fill-rule="evenodd"/><path fill="#000000" d="m74.96884 313.65054l5.546875 -7.90625l-5.140625 -7.296875l3.234375 0l2.328125 3.5625q0.65625 1.015625 1.0625 1.703125q0.625 -0.953125 1.15625 -1.671875l2.5625 -3.59375l3.078125 0l-5.25 7.15625l5.65625 8.046875l-3.171875 0l-3.125 -4.71875l-0.828125 -1.28125l-3.984375 6.0l-3.125 0z" fill-rule="nonzero"/><path fill="#000000" d="m99.257904 322.9943l0 1.65625l-9.25 0q-0.015625 -0.625 0.203125 -1.1875q0.34375 -0.953125 1.125 -1.859375q0.78125 -0.921875 2.25 -2.125q2.28125 -1.875 3.078125 -2.96875q0.8125 -1.09375 0.8125 -2.0625q0 -1.015625 -0.734375 -1.71875q-0.734375 -0.703125 -1.90625 -0.703125q-1.234375 0 -1.984375 0.75q-0.75 0.734375 -0.75 2.046875l-1.765625 -0.171875q0.171875 -1.984375 1.359375 -3.015625q1.1875 -1.03125 3.171875 -1.03125q2.015625 0 3.1875 1.125q1.1875 1.109375 1.1875 2.75q0 0.84375 -0.34375 1.65625q-0.34375 0.8125 -1.140625 1.71875q-0.796875 0.890625 -2.65625 2.453125q-1.546875 1.296875 -1.984375 1.765625q-0.4375 0.453125 -0.71875 0.921875l6.859375 0z" fill-rule="nonzero"/><path fill="#000000" fill-opacity="0.0" d="m118.845146 302.99054l129.79529 -236.47244" fill-rule="evenodd"/><path stroke="#000000" stroke-width="1.0" stroke-linejoin="round" stroke-linecap="butt" d="m118.845146 302.99054l126.90827 -231.21268" fill-rule="evenodd"/><path fill="#000000" stroke="#000000" stroke-width="1.0" stroke-linecap="butt" d="m247.20139 72.57263l0.73561096 -4.7729874l-3.6315308 3.1834717z" fill-rule="evenodd"/><path fill="#000000" fill-opacity="0.0" d="m118.845146 302.99054l129.79529 -148.40945" fill-rule="evenodd"/><path stroke="#000000" stroke-width="1.0" stroke-linejoin="round" stroke-linecap="butt" d="m118.845146 302.99054l125.84533 -143.89304" fill-rule="evenodd"/><path fill="#000000" stroke="#000000" stroke-width="1.0" stroke-linecap="butt" d="m245.93379 160.18488l1.7442169 -4.503357l-4.23085 2.328598z" fill-rule="evenodd"/><path fill="#000000" fill-opacity="0.0" d="m118.845146 302.99054l129.79529 -56.850403" fill-rule="evenodd"/><path stroke="#000000" stroke-width="1.0" stroke-linejoin="round" stroke-linecap="butt" d="m118.845146 302.99054l124.29934 -54.44319" fill-rule="evenodd"/><path fill="#000000" stroke="#000000" stroke-width="1.0" stroke-linecap="butt" d="m243.80717 250.06032l3.494156 -3.333664l-4.819519 0.30773926z" fill-rule="evenodd"/><path fill="#000000" fill-opacity="0.0" d="m118.845146 302.99054l129.79529 35.527557" fill-rule="evenodd"/><path stroke="#000000" stroke-width="1.0" stroke-linejoin="round" stroke-linecap="butt" d="m118.845146 302.99054l124.008156 33.94348" fill-rule="evenodd"/><path fill="#000000" stroke="#000000" stroke-width="1.0" stroke-linecap="butt" d="m242.41722 338.52716l4.8131714 -0.39501953l-3.9410248 -2.7912292z" fill-rule="evenodd"/><path fill="#000000" fill-opacity="0.0" d="m56.64042 302.99054l-38.582676 0" fill-rule="evenodd"/><path stroke="#000000" stroke-width="2.0" stroke-linejoin="round" stroke-linecap="butt" d="m49.786247 302.99054l-31.728504 0" fill-rule="evenodd"/><path fill="#000000" stroke="#000000" stroke-width="2.0" stroke-linecap="butt" d="m49.786247 302.99054l-2.2491684 2.2491455l6.179535 -2.2491455l-6.179535 -2.249176z" fill-rule="evenodd"/><path fill="#93c47d" d="m440.6404 66.89255l0 0c0 -16.455475 13.925018 -29.795273 31.102356 -29.795273l0 0c8.248871 0 16.159882 3.1391373 21.992706 8.726833c5.8328247 5.5877 9.10968 13.1662445 9.10968 21.06844l0 0c0 16.455475 -13.925018 29.79528 -31.102386 29.79528l0 0c-17.177338 0 -31.102356 -13.339806 -31.102356 -29.79528z" fill-rule="evenodd"/><path stroke="#000000" stroke-width="1.0" stroke-linejoin="round" stroke-linecap="butt" d="m440.6404 66.89255l0 0c0 -16.455475 13.925018 -29.795273 31.102356 -29.795273l0 0c8.248871 0 16.159882 3.1391373 21.992706 8.726833c5.8328247 5.5877 9.10968 13.1662445 9.10968 21.06844l0 0c0 16.455475 -13.925018 29.79528 -31.102386 29.79528l0 0c-17.177338 0 -31.102356 -13.339806 -31.102356 -29.79528z" fill-rule="evenodd"/><path fill="#000000" d="m459.32822 77.55255l0 -2.09375l9.671875 -11.109375q-1.640625 0.078125 -2.90625 0.078125l-6.203125 0l0 -2.078125l12.4375 0l0 1.703125l-8.234375 9.640625l-1.59375 1.765625q1.734375 -0.125 3.25 -0.125l7.03125 0l0 2.21875l-13.453125 0z" fill-rule="nonzero"/><path fill="#000000" d="m474.22665 81.6463q0 -2.46875 0.5 -3.984375q0.515625 -1.515625 1.515625 -2.328125q1.015625 -0.828125 2.546875 -0.828125q1.125 0 1.96875 0.453125q0.859375 0.453125 1.40625 1.3125q0.5625 0.84375 0.875 2.078125q0.3125 1.21875 0.3125 3.296875q0 2.46875 -0.515625 3.984375q-0.5 1.515625 -1.515625 2.34375q-1.0 0.8125 -2.53125 0.8125q-2.03125 0 -3.1875 -1.453125q-1.375 -1.734375 -1.375 -5.6875zm1.765625 0q0 3.453125 0.796875 4.59375q0.8125 1.140625 2.0 1.140625q1.1875 0 1.984375 -1.140625q0.8125 -1.15625 0.8125 -4.59375q0 -3.453125 -0.8125 -4.578125q-0.796875 -1.140625 -2.0 -1.140625q-1.1875 0 -1.890625 1.0q-0.890625 1.28125 -0.890625 4.71875z" fill-rule="nonzero"/><path fill="#000000" fill-opacity="0.0" d="m502.84515 66.89255l31.590515 0" fill-rule="evenodd"/><path stroke="#000000" stroke-width="2.0" stroke-linejoin="round" stroke-linecap="butt" d="m502.84515 66.89255l19.590515 0" fill-rule="evenodd"/><path fill="#000000" stroke="#000000" stroke-width="2.0" stroke-linecap="butt" d="m522.43567 70.196014l9.076233 -3.3034668l-9.076233 -3.3034668z" fill-rule="evenodd"/><path fill="#93c47d" d="m440.6404 338.89255l0 0c0 -16.455475 13.925018 -29.795288 31.102356 -29.795288l0 0c8.248871 0 16.159882 3.1391602 21.992706 8.726837c5.8328247 5.5877075 9.10968 13.16626 9.10968 21.06845l0 0c0 16.455475 -13.925018 29.795288 -31.102386 29.795288l0 0c-17.177338 0 -31.102356 -13.339813 -31.102356 -29.795288z" fill-rule="evenodd"/><path stroke="#000000" stroke-width="1.0" stroke-linejoin="round" stroke-linecap="butt" d="m440.6404 338.89255l0 0c0 -16.455475 13.925018 -29.795288 31.102356 -29.795288l0 0c8.248871 0 16.159882 3.1391602 21.992706 8.726837c5.8328247 5.5877075 9.10968 13.16626 9.10968 21.06845l0 0c0 16.455475 -13.925018 29.795288 -31.102386 29.795288l0 0c-17.177338 0 -31.102356 -13.339813 -31.102356 -29.795288z" fill-rule="evenodd"/><path fill="#000000" d="m459.32822 349.55255l0 -2.09375l9.671875 -11.109375q-1.640625 0.078125 -2.90625 0.078125l-6.203125 0l0 -2.078125l12.4375 0l0 1.703125l-8.234375 9.640625l-1.59375 1.765625q1.734375 -0.125 3.25 -0.125l7.03125 0l0 2.21875l-13.453125 0z" fill-rule="nonzero"/><path fill="#000000" d="m474.24228 356.86505l1.703125 -0.234375q0.296875 1.453125 1.0 2.109375q0.71875 0.640625 1.75 0.640625q1.203125 0 2.03125 -0.84375q0.84375 -0.84375 0.84375 -2.078125q0 -1.1875 -0.78125 -1.953125q-0.765625 -0.765625 -1.953125 -0.765625q-0.484375 0 -1.21875 0.1875l0.203125 -1.5q0.171875 0.015625 0.265625 0.015625q1.109375 0 1.984375 -0.578125q0.875 -0.578125 0.875 -1.765625q0 -0.9375 -0.640625 -1.5625q-0.640625 -0.625 -1.65625 -0.625q-1.0 0 -1.671875 0.640625q-0.65625 0.625 -0.859375 1.890625l-1.703125 -0.3125q0.3125 -1.734375 1.421875 -2.671875q1.125 -0.953125 2.78125 -0.953125q1.140625 0 2.109375 0.5q0.96875 0.484375 1.46875 1.328125q0.515625 0.84375 0.515625 1.8125q0 0.90625 -0.484375 1.65625q-0.484375 0.734375 -1.4375 1.171875q1.234375 0.28125 1.921875 1.1875q0.6875 0.90625 0.6875 2.265625q0 1.828125 -1.34375 3.109375q-1.328125 1.265625 -3.375 1.265625q-1.84375 0 -3.0625 -1.09375q-1.203125 -1.109375 -1.375 -2.84375z" fill-rule="nonzero"/><path fill="#000000" fill-opacity="0.0" d="m502.84515 338.89255l31.590515 0" fill-rule="evenodd"/><path stroke="#000000" stroke-width="2.0" stroke-linejoin="round" stroke-linecap="butt" d="m502.84515 338.89255l19.590515 0" fill-rule="evenodd"/><path fill="#000000" stroke="#000000" stroke-width="2.0" stroke-linecap="butt" d="m522.43567 342.196l9.076233 -3.3034668l-9.076233 -3.3034668z" fill-rule="evenodd"/><path fill="#000000" fill-opacity="0.0" d="m310.84515 66.523315l129.79526 0.3779602" fill-rule="evenodd"/><path stroke="#000000" stroke-width="1.0" stroke-linejoin="round" stroke-linecap="butt" d="m310.84515 66.52332l123.79532 0.36048126" fill-rule="evenodd"/><path fill="#000000" stroke="#000000" stroke-width="1.0" stroke-linecap="butt" d="m434.63565 68.53553l4.542877 -1.6385117l-4.533264 -1.6649399z" fill-rule="evenodd"/><path fill="#000000" fill-opacity="0.0" d="m310.84515 154.58267l129.79526 -87.685036" fill-rule="evenodd"/><path stroke="#000000" stroke-width="1.0" stroke-linejoin="round" stroke-linecap="butt" d="m310.84515 154.58267l124.82349 -84.32627" fill-rule="evenodd"/><path fill="#000000" stroke="#000000" stroke-width="1.0" stroke-linecap="butt" d="m436.59326 71.62508l2.835785 -3.9090729l-4.6850586 1.1717224z" fill-rule="evenodd"/><path fill="#000000" fill-opacity="0.0" d="m310.84515 246.1327l129.79526 -179.2441" fill-rule="evenodd"/><path stroke="#000000" stroke-width="1.0" stroke-linejoin="round" stroke-linecap="butt" d="m310.84515 246.1327l126.276245 -174.3844" fill-rule="evenodd"/><path fill="#000000" stroke="#000000" stroke-width="1.0" stroke-linecap="butt" d="m438.45923 72.71704l1.3237915 -4.6443634l-3.9994507 2.706871z" fill-rule="evenodd"/><path fill="#000000" fill-opacity="0.0" d="m310.84515 338.52332l129.79526 -271.62204" fill-rule="evenodd"/><path stroke="#000000" stroke-width="1.0" stroke-linejoin="round" stroke-linecap="butt" d="m310.84515 338.52332l127.20831 -266.20837" fill-rule="evenodd"/><path fill="#000000" stroke="#000000" stroke-width="1.0" stroke-linecap="butt" d="m439.5438 73.02709l0.4663086 -4.806778l-3.44693 3.3824692z" fill-rule="evenodd"/><path fill="#000000" fill-opacity="0.0" d="m310.84515 338.52332l129.79526 0.3779602" fill-rule="evenodd"/><path stroke="#000000" stroke-width="1.0" stroke-linejoin="round" stroke-linecap="butt" d="m310.84515 338.52332l123.79532 0.36047363" fill-rule="evenodd"/><path fill="#000000" stroke="#000000" stroke-width="1.0" stroke-linecap="butt" d="m434.63565 340.53552l4.542877 -1.6385193l-4.533264 -1.6649475z" fill-rule="evenodd"/><path fill="#000000" fill-opacity="0.0" d="m310.84515 246.1327l129.79526 92.755905" fill-rule="evenodd"/><path stroke="#000000" stroke-width="1.0" stroke-linejoin="round" stroke-linecap="butt" d="m310.84515 246.1327l124.913666 89.26735" fill-rule="evenodd"/><path fill="#000000" stroke="#000000" stroke-width="1.0" stroke-linecap="butt" d="m434.79846 336.74393l4.6525574 1.2947083l-2.731842 -3.9824219z" fill-rule="evenodd"/><path fill="#000000" fill-opacity="0.0" d="m310.84515 154.58267l129.79526 184.31497" fill-rule="evenodd"/><path stroke="#000000" stroke-width="1.0" stroke-linejoin="round" stroke-linecap="butt" d="m310.84515 154.58267l126.34067 179.4093" fill-rule="evenodd"/><path fill="#000000" stroke="#000000" stroke-width="1.0" stroke-linecap="butt" d="m435.83533 334.94296l3.963379 2.7593994l-1.2624207 -4.6614075z" fill-rule="evenodd"/><path fill="#000000" fill-opacity="0.0" d="m310.84515 66.514595l129.79526 272.37796" fill-rule="evenodd"/><path stroke="#000000" stroke-width="1.0" stroke-linejoin="round" stroke-linecap="butt" d="m310.84515 66.514595l127.2142 266.96152" fill-rule="evenodd"/><path fill="#000000" stroke="#000000" stroke-width="1.0" stroke-linecap="butt" d="m436.56824 334.18665l3.4432983 3.3862l-0.4611206 -4.8072815z" fill-rule="evenodd"/><path fill="#6fa8dc" d="m640.4128 66.6093l0 0c0 -16.455479 13.924988 -29.795277 31.102356 -29.795277l0 0c8.24884 0 16.159851 3.1391335 21.992676 8.726833c5.8328247 5.587696 9.10968 13.166241 9.10968 21.068443l0 0c0 16.455475 -13.924988 29.795273 -31.102356 29.795273l0 0c-17.177368 0 -31.102356 -13.339798 -31.102356 -29.795273z" fill-rule="evenodd"/><path stroke="#000000" stroke-width="1.0" stroke-linejoin="round" stroke-linecap="butt" d="m640.4128 66.6093l0 0c0 -16.455479 13.924988 -29.795277 31.102356 -29.795277l0 0c8.24884 0 16.159851 3.1391335 21.992676 8.726833c5.8328247 5.587696 9.10968 13.166241 9.10968 21.068443l0 0c0 16.455475 -13.924988 29.795273 -31.102356 29.795273l0 0c-17.177368 0 -31.102356 -13.339798 -31.102356 -29.795273z" fill-rule="evenodd"/><path fill="#000000" d="m659.1006 77.269295l0 -2.09375l9.671875 -11.109375q-1.640625 0.078125 -2.90625 0.078125l-6.203125 0l0 -2.078125l12.4375 0l0 1.703125l-8.234375 9.640625l-1.59375 1.765625q1.734375 -0.125 3.25 -0.125l7.03125 0l0 2.21875l-13.453125 0z" fill-rule="nonzero"/><path fill="#000000" d="m673.999 81.363045q0 -2.46875 0.5 -3.984375q0.515625 -1.515625 1.515625 -2.328125q1.015625 -0.828125 2.546875 -0.828125q1.125 0 1.96875 0.453125q0.859375 0.453125 1.40625 1.3125q0.5625 0.84375 0.875 2.078125q0.3125 1.21875 0.3125 3.296875q0 2.46875 -0.515625 3.984375q-0.5 1.515625 -1.515625 2.34375q-1.0 0.8125 -2.53125 0.8125q-2.03125 0 -3.1875 -1.453125q-1.375 -1.734375 -1.375 -5.6875zm1.765625 0q0 3.453125 0.796875 4.59375q0.8125 1.140625 2.0 1.140625q1.1875 0 1.984375 -1.140625q0.8125 -1.15625 0.8125 -4.59375q0 -3.453125 -0.8125 -4.578125q-0.796875 -1.140625 -2.0 -1.140625q-1.1875 0 -1.890625 1.0q-0.890625 1.28125 -0.890625 4.71875z" fill-rule="nonzero"/><path fill="#ffd966" d="m832.64044 66.523315l0 0c0 -16.455471 13.924988 -29.795273 31.102356 -29.795273l0 0c8.24884 0 16.159851 3.1391373 21.992676 8.726833c5.8328247 5.5877 9.10968 13.1662445 9.10968 21.06844l0 0c0 16.455482 -13.924988 29.79528 -31.102356 29.79528l0 0c-17.177368 0 -31.102356 -13.339798 -31.102356 -29.79528z" fill-rule="evenodd"/><path stroke="#000000" stroke-width="1.0" stroke-linejoin="round" stroke-linecap="butt" d="m832.64044 66.523315l0 0c0 -16.455471 13.924988 -29.795273 31.102356 -29.795273l0 0c8.24884 0 16.159851 3.1391373 21.992676 8.726833c5.8328247 5.5877 9.10968 13.1662445 9.10968 21.06844l0 0c0 16.455482 -13.924988 29.79528 -31.102356 29.79528l0 0c-17.177368 0 -31.102356 -13.339798 -31.102356 -29.79528z" fill-rule="evenodd"/><path fill="#000000" d="m869.9569 57.522068q0 -0.453125 0.28125 -0.921875q0.28125 -0.46875 0.28125 -0.53125q0 -0.453125 -0.59375 -0.453125q-1.828125 0 -3.15625 5.171875l-0.625 2.453125l3.203125 0l-0.3125 1.4531288l-3.125 0q-0.59375 2.703125 -1.09375 5.15625q-0.5 2.4375 -1.0625 4.578125q-0.546875 2.125 -1.109375 3.90625q-0.546875 1.78125 -1.265625 3.1875q-0.703125 1.40625 -1.53125 2.375q-0.828125 0.96875 -1.90625 1.484375q-1.078125 0.53125 -2.390625 0.53125q-1.5625 0 -2.5 -0.75q-0.9375 -0.75 -0.9375 -2.0q0 -0.75 0.546875 -1.3125q0.53125 -0.546875 1.25 -0.546875q0.671875 0 1.1875 0.515625q0.515625 0.515625 0.515625 1.140625q0 0.484375 -0.265625 0.9375q-0.28125 0.453125 -0.28125 0.5625q0 0.375 0.625 0.375q0.40625 0 0.71875 -0.1875q0.3125 -0.1875 0.578125 -0.46875q0.25 -0.28125 0.546875 -1.171875q0.296875 -0.875 0.53125 -1.6875q0.25 -0.8125 0.65625 -2.640625q0.421875 -1.84375 0.78125 -3.453125q0.375 -1.625 1.046875 -4.703125q0.671875 -3.09375 1.296875 -5.828125l-2.515625 0l0.296875 -1.4531288l2.53125 0q0.53125 -1.875 1.109375 -3.21875q0.59375 -1.359375 1.484375 -2.6875q0.90625 -1.328125 2.21875 -2.015625q1.328125 -0.703125 3.03125 -0.703125q1.546875 0 2.484375 0.75q0.9375 0.734375 0.9375 2.015625q0 0.796875 -0.5 1.328125q-0.5 0.515625 -1.265625 0.515625q-0.6875 0 -1.203125 -0.5q-0.5 -0.5 -0.5 -1.203125z" fill-rule="nonzero"/><path fill="#ffd966" d="m832.64044 154.58267l0 0c0 -16.455475 13.924988 -29.795273 31.102356 -29.795273l0 0c8.24884 0 16.159851 3.1391373 21.992676 8.726837c5.8328247 5.5876923 9.10968 13.1662445 9.10968 21.068436l0 0c0 16.455475 -13.924988 29.795288 -31.102356 29.795288l0 0c-17.177368 0 -31.102356 -13.339813 -31.102356 -29.795288z" fill-rule="evenodd"/><path stroke="#000000" stroke-width="1.0" stroke-linejoin="round" stroke-linecap="butt" d="m832.64044 154.58267l0 0c0 -16.455475 13.924988 -29.795273 31.102356 -29.795273l0 0c8.24884 0 16.159851 3.1391373 21.992676 8.726837c5.8328247 5.5876923 9.10968 13.1662445 9.10968 21.068436l0 0c0 16.455475 -13.924988 29.795288 -31.102356 29.795288l0 0c-17.177368 0 -31.102356 -13.339813 -31.102356 -29.795288z" fill-rule="evenodd"/><path fill="#000000" d="m869.9569 145.58142q0 -0.453125 0.28125 -0.921875q0.28125 -0.46875 0.28125 -0.53125q0 -0.453125 -0.59375 -0.453125q-1.828125 0 -3.15625 5.171875l-0.625 2.453125l3.203125 0l-0.3125 1.453125l-3.125 0q-0.59375 2.703125 -1.09375 5.15625q-0.5 2.4375 -1.0625 4.578125q-0.546875 2.125 -1.109375 3.90625q-0.546875 1.78125 -1.265625 3.1875q-0.703125 1.40625 -1.53125 2.375q-0.828125 0.96875 -1.90625 1.484375q-1.078125 0.53125 -2.390625 0.53125q-1.5625 0 -2.5 -0.75q-0.9375 -0.75 -0.9375 -2.0q0 -0.75 0.546875 -1.3125q0.53125 -0.546875 1.25 -0.546875q0.671875 0 1.1875 0.515625q0.515625 0.515625 0.515625 1.140625q0 0.484375 -0.265625 0.9375q-0.28125 0.453125 -0.28125 0.5625q0 0.375 0.625 0.375q0.40625 0 0.71875 -0.1875q0.3125 -0.1875 0.578125 -0.46875q0.25 -0.28125 0.546875 -1.171875q0.296875 -0.875 0.53125 -1.6875q0.25 -0.8125 0.65625 -2.640625q0.421875 -1.84375 0.78125 -3.453125q0.375 -1.625 1.046875 -4.703125q0.671875 -3.09375 1.296875 -5.828125l-2.515625 0l0.296875 -1.453125l2.53125 0q0.53125 -1.875 1.109375 -3.21875q0.59375 -1.359375 1.484375 -2.6875q0.90625 -1.328125 2.21875 -2.015625q1.328125 -0.703125 3.03125 -0.703125q1.546875 0 2.484375 0.75q0.9375 0.734375 0.9375 2.015625q0 0.796875 -0.5 1.328125q-0.5 0.515625 -1.265625 0.515625q-0.6875 0 -1.203125 -0.5q-0.5 -0.5 -0.5 -1.203125z" fill-rule="nonzero"/><path fill="#93c47d" d="m1024.6404 154.89255l0 0c0 -16.455475 13.925049 -29.795273 31.102417 -29.795273l0 0c8.248901 0 16.159912 3.1391296 21.992676 8.726837c5.8327637 5.5876923 9.109619 13.1662445 9.109619 21.068436l0 0c0 16.455475 -13.924927 29.795273 -31.102295 29.795273l0 0c-17.177368 0 -31.102417 -13.339798 -31.102417 -29.795273z" fill-rule="evenodd"/><path stroke="#000000" stroke-width="1.0" stroke-linejoin="round" stroke-linecap="butt" d="m1024.6404 154.89255l0 0c0 -16.455475 13.925049 -29.795273 31.102417 -29.795273l0 0c8.248901 0 16.159912 3.1391296 21.992676 8.726837c5.8327637 5.5876923 9.109619 13.1662445 9.109619 21.068436l0 0c0 16.455475 -13.924927 29.795273 -31.102295 29.795273l0 0c-17.177368 0 -31.102417 -13.339798 -31.102417 -29.795273z" fill-rule="evenodd"/><path fill="#000000" d="m1044.5626 171.41193l-0.28125 -2.421875q0.84375 0.234375 1.46875 0.234375q0.859375 0 1.375 -0.296875q0.515625 -0.28125 0.859375 -0.796875q0.234375 -0.390625 0.78125 -1.921875q0.078125 -0.21875 0.234375 -0.625l-5.78125 -15.234375l2.78125 0l3.171875 8.796875q0.609375 1.6875 1.09375 3.53125q0.453125 -1.78125 1.0625 -3.46875l3.25 -8.859375l2.578125 0l-5.78125 15.453125q-0.9375 2.515625 -1.453125 3.453125q-0.6875 1.28125 -1.578125 1.875q-0.875 0.59375 -2.109375 0.59375q-0.75 0 -1.671875 -0.3125zm6.109375 -25.390625l-1.609375 2.4375l-2.953125 0l3.09375 -4.015625l2.75 0l3.21875 4.015625l-2.921875 0l-1.578125 -2.4375z" fill-rule="nonzero"/><path fill="#000000" d="m1058.2267 169.6463q0 -2.46875 0.5 -3.984375q0.515625 -1.515625 1.515625 -2.328125q1.015625 -0.828125 2.546875 -0.828125q1.125 0 1.96875 0.453125q0.859375 0.453125 1.40625 1.3125q0.5625 0.84375 0.875 2.078125q0.3125 1.21875 0.3125 3.296875q0 2.46875 -0.515625 3.984375q-0.5 1.515625 -1.515625 2.34375q-1.0 0.8125 -2.53125 0.8125q-2.03125 0 -3.1875 -1.453125q-1.375 -1.734375 -1.375 -5.6875zm1.765625 0q0 3.453125 0.796875 4.59375q0.8125 1.140625 2.0 1.140625q1.1875 0 1.984375 -1.140625q0.8125 -1.15625 0.8125 -4.59375q0 -3.453125 -0.8125 -4.578125q-0.796875 -1.140625 -2.0 -1.140625q-1.1875 0 -1.890625 1.0q-0.890625 1.28125 -0.890625 4.71875z" fill-rule="nonzero"/><path fill="#000000" fill-opacity="0.0" d="m702.6175 66.6093l130.01575 -0.09449005" fill-rule="evenodd"/><path stroke="#000000" stroke-width="1.0" stroke-linejoin="round" stroke-linecap="butt" d="m702.61743 66.6093l124.01575 -0.09012604" fill-rule="evenodd"/><path fill="#000000" stroke="#000000" stroke-width="1.0" stroke-linecap="butt" d="m826.6344 68.170906l4.5369263 -1.6550369l-4.5393066 -1.6484299z" fill-rule="evenodd"/><path fill="#000000" fill-opacity="0.0" d="m702.6175 66.6093l130.01575 87.968506" fill-rule="evenodd"/><path stroke="#000000" stroke-width="1.0" stroke-linejoin="round" stroke-linecap="butt" d="m702.61743 66.6093l125.04639 84.6062" fill-rule="evenodd"/><path fill="#000000" stroke="#000000" stroke-width="1.0" stroke-linecap="butt" d="m826.7382 152.58353l4.684204 1.1750488l-2.8330078 -3.911087z" fill-rule="evenodd"/><path fill="#000000" fill-opacity="0.0" d="m702.84515 155.47614l129.79529 -88.94488" fill-rule="evenodd"/><path stroke="#000000" stroke-width="1.0" stroke-linejoin="round" stroke-linecap="butt" d="m702.84515 155.47614l124.84589 -85.5532" fill-rule="evenodd"/><path fill="#000000" stroke="#000000" stroke-width="1.0" stroke-linecap="butt" d="m828.6247 71.285446l2.8098145 -3.927803l-4.677185 1.2027817z" fill-rule="evenodd"/><path fill="#000000" fill-opacity="0.0" d="m702.84515 155.47614l129.79529 -0.8818817" fill-rule="evenodd"/><path stroke="#000000" stroke-width="1.0" stroke-linejoin="round" stroke-linecap="butt" d="m702.84515 155.47614l123.79541 -0.8411255" fill-rule="evenodd"/><path fill="#000000" stroke="#000000" stroke-width="1.0" stroke-linecap="butt" d="m826.6518 156.28671l4.5267334 -1.6825256l-4.5491943 -1.6208649z" fill-rule="evenodd"/><path fill="#000000" fill-opacity="0.0" d="m894.84515 66.523315l129.79523 88.37796" fill-rule="evenodd"/><path stroke="#000000" stroke-width="1.0" stroke-linejoin="round" stroke-linecap="butt" d="m894.84515 66.52332l124.835754 85.00103" fill-rule="evenodd"/><path fill="#000000" stroke="#000000" stroke-width="1.0" stroke-linecap="butt" d="m1018.75134 152.88963l4.680725 1.1888428l-2.8214722 -3.9194183z" fill-rule="evenodd"/><path fill="#000000" fill-opacity="0.0" d="m894.84515 154.58267l129.79523 0.31497192" fill-rule="evenodd"/><path stroke="#000000" stroke-width="1.0" stroke-linejoin="round" stroke-linecap="butt" d="m894.84515 154.58267l123.79529 0.30039978" fill-rule="evenodd"/><path fill="#000000" stroke="#000000" stroke-width="1.0" stroke-linecap="butt" d="m1018.6364 156.5348l4.5421143 -1.6407166l-4.5340576 -1.662735z" fill-rule="evenodd"/><path fill="#000000" fill-opacity="0.0" d="m1086.8451 154.89255l31.590576 0" fill-rule="evenodd"/><path stroke="#000000" stroke-width="2.0" stroke-linejoin="round" stroke-linecap="butt" d="m1086.8451 154.89255l19.590576 0" fill-rule="evenodd"/><path fill="#000000" stroke="#000000" stroke-width="2.0" stroke-linecap="butt" d="m1106.4357 158.19601l9.076172 -3.3034668l-9.076172 -3.3034668z" fill-rule="evenodd"/><path fill="#ffd966" d="m832.64044 246.1327l0 0c0 -16.455475 13.924988 -29.795273 31.102356 -29.795273l0 0c8.24884 0 16.159851 3.1391296 21.992676 8.726837c5.8328247 5.5876923 9.10968 13.1662445 9.10968 21.068436l0 0c0 16.45549 -13.924988 29.795273 -31.102356 29.795273l0 0c-17.177368 0 -31.102356 -13.339783 -31.102356 -29.795273z" fill-rule="evenodd"/><path stroke="#000000" stroke-width="1.0" stroke-linejoin="round" stroke-linecap="butt" d="m832.64044 246.1327l0 0c0 -16.455475 13.924988 -29.795273 31.102356 -29.795273l0 0c8.24884 0 16.159851 3.1391296 21.992676 8.726837c5.8328247 5.5876923 9.10968 13.1662445 9.10968 21.068436l0 0c0 16.45549 -13.924988 29.795273 -31.102356 29.795273l0 0c-17.177368 0 -31.102356 -13.339783 -31.102356 -29.795273z" fill-rule="evenodd"/><path fill="#000000" d="m869.9569 237.13145q0 -0.453125 0.28125 -0.921875q0.28125 -0.46875 0.28125 -0.53125q0 -0.453125 -0.59375 -0.453125q-1.828125 0 -3.15625 5.171875l-0.625 2.453125l3.203125 0l-0.3125 1.453125l-3.125 0q-0.59375 2.703125 -1.09375 5.15625q-0.5 2.4375 -1.0625 4.578125q-0.546875 2.1250153 -1.109375 3.9062653q-0.546875 1.78125 -1.265625 3.1875q-0.703125 1.40625 -1.53125 2.375q-0.828125 0.96875 -1.90625 1.484375q-1.078125 0.53125 -2.390625 0.53125q-1.5625 0 -2.5 -0.75q-0.9375 -0.75 -0.9375 -2.0q0 -0.75 0.546875 -1.3125q0.53125 -0.546875 1.25 -0.546875q0.671875 0 1.1875 0.515625q0.515625 0.515625 0.515625 1.140625q0 0.484375 -0.265625 0.9375q-0.28125 0.453125 -0.28125 0.5625q0 0.375 0.625 0.375q0.40625 0 0.71875 -0.1875q0.3125 -0.1875 0.578125 -0.46875q0.25 -0.28125 0.546875 -1.171875q0.296875 -0.875 0.53125 -1.6875q0.25 -0.8125 0.65625 -2.640625q0.421875 -1.84375 0.78125 -3.4531403q0.375 -1.625 1.046875 -4.703125q0.671875 -3.09375 1.296875 -5.828125l-2.515625 0l0.296875 -1.453125l2.53125 0q0.53125 -1.875 1.109375 -3.21875q0.59375 -1.359375 1.484375 -2.6875q0.90625 -1.328125 2.21875 -2.015625q1.328125 -0.703125 3.03125 -0.703125q1.546875 0 2.484375 0.75q0.9375 0.734375 0.9375 2.015625q0 0.796875 -0.5 1.328125q-0.5 0.515625 -1.265625 0.515625q-0.6875 0 -1.203125 -0.5q-0.5 -0.5 -0.5 -1.203125z" fill-rule="nonzero"/><path fill="#ffd966" d="m832.64044 338.52332l0 0c0 -16.455475 13.924988 -29.795258 31.102356 -29.795258l0 0c8.24884 0 16.159851 3.1391296 21.992676 8.726807c5.8328247 5.5877075 9.10968 13.16626 9.10968 21.06845l0 0c0 16.455475 -13.924988 29.795288 -31.102356 29.795288l0 0c-17.177368 0 -31.102356 -13.339813 -31.102356 -29.795288z" fill-rule="evenodd"/><path stroke="#000000" stroke-width="1.0" stroke-linejoin="round" stroke-linecap="butt" d="m832.64044 338.52332l0 0c0 -16.455475 13.924988 -29.795258 31.102356 -29.795258l0 0c8.24884 0 16.159851 3.1391296 21.992676 8.726807c5.8328247 5.5877075 9.10968 13.16626 9.10968 21.06845l0 0c0 16.455475 -13.924988 29.795288 -31.102356 29.795288l0 0c-17.177368 0 -31.102356 -13.339813 -31.102356 -29.795288z" fill-rule="evenodd"/><path fill="#000000" d="m869.9569 329.52206q0 -0.453125 0.28125 -0.921875q0.28125 -0.46875 0.28125 -0.53125q0 -0.453125 -0.59375 -0.453125q-1.828125 0 -3.15625 5.171875l-0.625 2.453125l3.203125 0l-0.3125 1.453125l-3.125 0q-0.59375 2.703125 -1.09375 5.15625q-0.5 2.4375 -1.0625 4.578125q-0.546875 2.125 -1.109375 3.90625q-0.546875 1.78125 -1.265625 3.1875q-0.703125 1.40625 -1.53125 2.375q-0.828125 0.96875 -1.90625 1.484375q-1.078125 0.53125 -2.390625 0.53125q-1.5625 0 -2.5 -0.75q-0.9375 -0.75 -0.9375 -2.0q0 -0.75 0.546875 -1.3125q0.53125 -0.546875 1.25 -0.546875q0.671875 0 1.1875 0.515625q0.515625 0.515625 0.515625 1.140625q0 0.484375 -0.265625 0.9375q-0.28125 0.453125 -0.28125 0.5625q0 0.375 0.625 0.375q0.40625 0 0.71875 -0.1875q0.3125 -0.1875 0.578125 -0.46875q0.25 -0.28125 0.546875 -1.171875q0.296875 -0.875 0.53125 -1.6875q0.25 -0.8125 0.65625 -2.640625q0.421875 -1.84375 0.78125 -3.453125q0.375 -1.625 1.046875 -4.703125q0.671875 -3.09375 1.296875 -5.828125l-2.515625 0l0.296875 -1.453125l2.53125 0q0.53125 -1.875 1.109375 -3.21875q0.59375 -1.359375 1.484375 -2.6875q0.90625 -1.328125 2.21875 -2.015625q1.328125 -0.703125 3.03125 -0.703125q1.546875 0 2.484375 0.75q0.9375 0.734375 0.9375 2.015625q0 0.796875 -0.5 1.328125q-0.5 0.515625 -1.265625 0.515625q-0.6875 0 -1.203125 -0.5q-0.5 -0.5 -0.5 -1.203125z" fill-rule="nonzero"/><path fill="#93c47d" d="m1024.6404 246.10303l0 0c0 -16.455475 13.925049 -29.795273 31.102417 -29.795273l0 0c8.248901 0 16.159912 3.1391296 21.992676 8.726837c5.8327637 5.5876923 9.109619 13.1662445 9.109619 21.068436l0 0c0 16.455475 -13.924927 29.795288 -31.102295 29.795288l0 0c-17.177368 0 -31.102417 -13.339813 -31.102417 -29.795288z" fill-rule="evenodd"/><path stroke="#000000" stroke-width="1.0" stroke-linejoin="round" stroke-linecap="butt" d="m1024.6404 246.10303l0 0c0 -16.455475 13.925049 -29.795273 31.102417 -29.795273l0 0c8.248901 0 16.159912 3.1391296 21.992676 8.726837c5.8327637 5.5876923 9.109619 13.1662445 9.109619 21.068436l0 0c0 16.455475 -13.924927 29.795288 -31.102295 29.795288l0 0c-17.177368 0 -31.102417 -13.339813 -31.102417 -29.795288z" fill-rule="evenodd"/><path fill="#000000" d="m1044.5626 262.6224l-0.28125 -2.421875q0.84375 0.234375 1.46875 0.234375q0.859375 0 1.375 -0.296875q0.515625 -0.28125 0.859375 -0.796875q0.234375 -0.390625 0.78125 -1.921875q0.078125 -0.21875 0.234375 -0.625l-5.78125 -15.234375l2.78125 0l3.171875 8.796875q0.609375 1.6875 1.09375 3.53125q0.453125 -1.78125 1.0625 -3.46875l3.25 -8.859375l2.578125 0l-5.78125 15.453125q-0.9375 2.515625 -1.453125 3.453125q-0.6875 1.28125 -1.578125 1.875q-0.875 0.59375 -2.109375 0.59375q-0.75 0 -1.671875 -0.3125zm6.109375 -25.390625l-1.609375 2.4375l-2.953125 0l3.09375 -4.015625l2.75 0l3.21875 4.015625l-2.921875 0l-1.578125 -2.4375z" fill-rule="nonzero"/><path fill="#000000" d="m1064.6954 267.76303l-1.71875 0l0 -10.953125q-0.625 0.59375 -1.625 1.1875q-1.0 0.59375 -1.8125 0.890625l0 -1.65625q1.4375 -0.6875 2.515625 -1.640625q1.09375 -0.96875 1.53125 -1.875l1.109375 0l0 14.046875z" fill-rule="nonzero"/><path fill="#000000" fill-opacity="0.0" d="m894.84515 246.1327l129.79523 -0.03149414" fill-rule="evenodd"/><path stroke="#000000" stroke-width="1.0" stroke-linejoin="round" stroke-linecap="butt" d="m894.84515 246.1327l123.79529 -0.030029297" fill-rule="evenodd"/><path fill="#000000" stroke="#000000" stroke-width="1.0" stroke-linecap="butt" d="m1018.6408 247.75441l4.5377197 -1.6528473l-4.538513 -1.6506195z" fill-rule="evenodd"/><path fill="#000000" fill-opacity="0.0" d="m894.84515 338.52332l129.79523 -92.40944" fill-rule="evenodd"/><path stroke="#000000" stroke-width="1.0" stroke-linejoin="round" stroke-linecap="butt" d="m894.84515 338.52332l124.90747 -88.92955" fill-rule="evenodd"/><path fill="#000000" stroke="#000000" stroke-width="1.0" stroke-linecap="butt" d="m1020.71063 250.93932l2.7388916 -3.9775696l-4.654846 1.2864838z" fill-rule="evenodd"/><path fill="#000000" fill-opacity="0.0" d="m1086.8451 246.10303l31.590576 0" fill-rule="evenodd"/><path stroke="#000000" stroke-width="2.0" stroke-linejoin="round" stroke-linecap="butt" d="m1086.8451 246.10301l19.590576 0" fill-rule="evenodd"/><path fill="#000000" stroke="#000000" stroke-width="2.0" stroke-linecap="butt" d="m1106.4357 249.40648l9.076172 -3.3034668l-9.076172 -3.3034515z" fill-rule="evenodd"/><path fill="#000000" fill-opacity="0.0" d="m702.6175 66.6093l130.01575 179.52756" fill-rule="evenodd"/><path stroke="#000000" stroke-width="1.0" stroke-linejoin="round" stroke-linecap="butt" d="m702.61743 66.6093l126.49652 174.66808" fill-rule="evenodd"/><path fill="#000000" stroke="#000000" stroke-width="1.0" stroke-linecap="butt" d="m827.7761 242.24619l3.9995728 2.7066498l-1.3240356 -4.644287z" fill-rule="evenodd"/><path fill="#000000" fill-opacity="0.0" d="m702.6175 66.6093l130.01575 271.90552" fill-rule="evenodd"/><path stroke="#000000" stroke-width="1.0" stroke-linejoin="round" stroke-linecap="butt" d="m702.61743 66.6093l127.42743 266.4925" fill-rule="evenodd"/><path fill="#000000" stroke="#000000" stroke-width="1.0" stroke-linecap="butt" d="m828.55475 333.81433l3.447815 3.3815918l-0.4675293 -4.806671z" fill-rule="evenodd"/><path fill="#000000" fill-opacity="0.0" d="m702.84515 155.47614l129.79529 90.645676" fill-rule="evenodd"/><path stroke="#000000" stroke-width="1.0" stroke-linejoin="round" stroke-linecap="butt" d="m702.84515 155.47614l124.87616 87.21025" fill-rule="evenodd"/><path fill="#000000" stroke="#000000" stroke-width="1.0" stroke-linecap="butt" d="m826.7756 244.04059l4.666321 1.2441711l-2.7749023 -3.9525452z" fill-rule="evenodd"/><path fill="#000000" fill-opacity="0.0" d="m702.84515 155.47614l129.79529 183.05511" fill-rule="evenodd"/><path stroke="#000000" stroke-width="1.0" stroke-linejoin="round" stroke-linecap="butt" d="m702.84515 155.47614l126.32477 178.16061" fill-rule="evenodd"/><path fill="#000000" stroke="#000000" stroke-width="1.0" stroke-linecap="butt" d="m827.8226 334.59213l3.97229 2.746582l-1.2774658 -4.657318z" fill-rule="evenodd"/><path fill="#000000" fill-opacity="0.0" d="m894.84515 338.52332l129.79523 -183.62204" fill-rule="evenodd"/><path stroke="#000000" stroke-width="1.0" stroke-linejoin="round" stroke-linecap="butt" d="m894.84515 338.52332l126.33191 -178.7225" fill-rule="evenodd"/><path fill="#000000" stroke="#000000" stroke-width="1.0" stroke-linecap="butt" d="m1022.52594 160.75423l1.2706299 -4.6591797l-3.9682617 2.752365z" fill-rule="evenodd"/><path fill="#000000" fill-opacity="0.0" d="m894.84515 246.1327l129.79523 -91.244095" fill-rule="evenodd"/><path stroke="#000000" stroke-width="1.0" stroke-linejoin="round" stroke-linecap="butt" d="m894.84515 246.1327l124.88678 -87.79349" fill-rule="evenodd"/><path fill="#000000" stroke="#000000" stroke-width="1.0" stroke-linecap="butt" d="m1020.6818 159.69048l2.7626343 -3.9611206l-4.6624756 1.258606z" fill-rule="evenodd"/><path fill="#000000" fill-opacity="0.0" d="m894.84515 154.58267l129.79523 91.52756" fill-rule="evenodd"/><path stroke="#000000" stroke-width="1.0" stroke-linejoin="round" stroke-linecap="butt" d="m894.84515 154.58267l124.891785 88.06981" fill-rule="evenodd"/><path fill="#000000" stroke="#000000" stroke-width="1.0" stroke-linecap="butt" d="m1018.7851 244.00233l4.6605835 1.2654114l-2.756836 -3.9651337z" fill-rule="evenodd"/><path fill="#000000" fill-opacity="0.0" d="m894.84515 66.523315l129.79523 179.59056" fill-rule="evenodd"/><path stroke="#000000" stroke-width="1.0" stroke-linejoin="round" stroke-linecap="butt" d="m894.84515 66.52332l126.28064 174.72763" fill-rule="evenodd"/><path fill="#000000" stroke="#000000" stroke-width="1.0" stroke-linecap="butt" d="m1019.7872 242.21848l3.9969482 2.7105408l-1.3195801 -4.645569z" fill-rule="evenodd"/><path fill="#000000" fill-opacity="0.0" d="m640.4128 66.6093l-36.15747 0" fill-rule="evenodd"/><path stroke="#000000" stroke-width="2.0" stroke-linejoin="round" stroke-linecap="butt" d="m633.5586 66.6093l-29.303284 0" fill-rule="evenodd"/><path fill="#000000" stroke="#000000" stroke-width="2.0" stroke-linecap="butt" d="m633.5586 66.6093l-2.2491455 2.2491684l6.1795044 -2.2491684l-6.1795044 -2.2491684z" fill-rule="evenodd"/><path fill="#6fa8dc" d="m640.64044 246.99054l0 0c0 -16.455475 13.924988 -29.795273 31.102356 -29.795273l0 0c8.24884 0 16.159851 3.1391296 21.992676 8.726822c5.8328247 5.5877075 9.10968 13.1662445 9.10968 21.06845l0 0c0 16.455475 -13.924988 29.795258 -31.102356 29.795258l0 0c-17.177368 0 -31.102356 -13.339783 -31.102356 -29.795258z" fill-rule="evenodd"/><path stroke="#000000" stroke-width="1.0" stroke-linejoin="round" stroke-linecap="butt" d="m640.64044 246.99054l0 0c0 -16.455475 13.924988 -29.795273 31.102356 -29.795273l0 0c8.24884 0 16.159851 3.1391296 21.992676 8.726822c5.8328247 5.5877075 9.10968 13.1662445 9.10968 21.06845l0 0c0 16.455475 -13.924988 29.795258 -31.102356 29.795258l0 0c-17.177368 0 -31.102356 -13.339783 -31.102356 -29.795258z" fill-rule="evenodd"/><path fill="#000000" d="m659.3282 257.65054l0 -2.09375l9.671875 -11.109375q-1.640625 0.078125 -2.90625 0.078125l-6.203125 0l0 -2.078125l12.4375 0l0 1.703125l-8.234375 9.640625l-1.59375 1.765625q1.734375 -0.125 3.25 -0.125l7.03125 0l0 2.21875l-13.453125 0z" fill-rule="nonzero"/><path fill="#000000" d="m683.2579 266.9943l0 1.65625l-9.25 0q-0.015625 -0.625 0.203125 -1.1875q0.34375 -0.953125 1.125 -1.859375q0.78125 -0.921875 2.25 -2.125q2.28125 -1.875 3.078125 -2.96875q0.8125 -1.09375 0.8125 -2.0625q0 -1.015625 -0.734375 -1.71875q-0.734375 -0.703125 -1.90625 -0.703125q-1.234375 0 -1.984375 0.75q-0.75 0.734375 -0.75 2.046875l-1.765625 -0.171875q0.171875 -1.984375 1.359375 -3.0156403q1.1875 -1.03125 3.171875 -1.03125q2.015625 0 3.1875 1.125q1.1875 1.1093903 1.1875 2.7500153q0 0.84375 -0.34375 1.65625q-0.34375 0.8125 -1.140625 1.71875q-0.796875 0.890625 -2.65625 2.453125q-1.546875 1.296875 -1.984375 1.765625q-0.4375 0.453125 -0.71875 0.921875l6.859375 0z" fill-rule="nonzero"/><path fill="#000000" fill-opacity="0.0" d="m702.84515 246.99054l129.79529 -180.47244" fill-rule="evenodd"/><path stroke="#000000" stroke-width="1.0" stroke-linejoin="round" stroke-linecap="butt" d="m702.84515 246.99052l126.29199 -175.60138" fill-rule="evenodd"/><path fill="#000000" stroke="#000000" stroke-width="1.0" stroke-linecap="butt" d="m830.4781 72.35356l1.3087769 -4.648628l-3.9906616 2.719818z" fill-rule="evenodd"/><path fill="#000000" fill-opacity="0.0" d="m702.84515 246.99054l129.79529 -92.409454" fill-rule="evenodd"/><path stroke="#000000" stroke-width="1.0" stroke-linejoin="round" stroke-linecap="butt" d="m702.84515 246.99052l124.90747 -88.929535" fill-rule="evenodd"/><path fill="#000000" stroke="#000000" stroke-width="1.0" stroke-linecap="butt" d="m828.71063 159.40654l2.7388916 -3.9775696l-4.654846 1.2864838z" fill-rule="evenodd"/><path fill="#000000" fill-opacity="0.0" d="m702.84515 246.99054l129.79529 -0.85040283" fill-rule="evenodd"/><path stroke="#000000" stroke-width="1.0" stroke-linejoin="round" stroke-linecap="butt" d="m702.84515 246.99052l123.79541 -0.81108093" fill-rule="evenodd"/><path fill="#000000" stroke="#000000" stroke-width="1.0" stroke-linecap="butt" d="m826.65137 247.83115l4.5271606 -1.6814423l-4.548828 -1.6219635z" fill-rule="evenodd"/><path fill="#000000" fill-opacity="0.0" d="m702.84515 246.99054l129.79529 91.52756" fill-rule="evenodd"/><path stroke="#000000" stroke-width="1.0" stroke-linejoin="round" stroke-linecap="butt" d="m702.84515 246.99052l124.891785 88.06981" fill-rule="evenodd"/><path fill="#000000" stroke="#000000" stroke-width="1.0" stroke-linecap="butt" d="m826.7851 336.4102l4.6605835 1.2654114l-2.756836 -3.965149z" fill-rule="evenodd"/><path fill="#6fa8dc" d="m640.64044 155.47614l0 0c0 -16.455475 13.924988 -29.795273 31.102356 -29.795273l0 0c8.24884 0 16.159851 3.139145 21.992676 8.726837c5.8328247 5.5876923 9.10968 13.1662445 9.10968 21.068436l0 0c0 16.45549 -13.924988 29.795288 -31.102356 29.795288l0 0c-17.177368 0 -31.102356 -13.339798 -31.102356 -29.795288z" fill-rule="evenodd"/><path stroke="#000000" stroke-width="1.0" stroke-linejoin="round" stroke-linecap="butt" d="m640.64044 155.47614l0 0c0 -16.455475 13.924988 -29.795273 31.102356 -29.795273l0 0c8.24884 0 16.159851 3.139145 21.992676 8.726837c5.8328247 5.5876923 9.10968 13.1662445 9.10968 21.068436l0 0c0 16.45549 -13.924988 29.795288 -31.102356 29.795288l0 0c-17.177368 0 -31.102356 -13.339798 -31.102356 -29.795288z" fill-rule="evenodd"/><path fill="#000000" d="m659.3282 166.13614l0 -2.09375l9.671875 -11.109375q-1.640625 0.078125 -2.90625 0.078125l-6.203125 0l0 -2.078125l12.4375 0l0 1.703125l-8.234375 9.640625l-1.59375 1.765625q1.734375 -0.125 3.25 -0.125l7.03125 0l0 2.21875l-13.453125 0z" fill-rule="nonzero"/><path fill="#000000" d="m680.6954 177.13614l-1.71875 0l0 -10.953125q-0.625 0.59375 -1.625 1.1875q-1.0 0.59375 -1.8125 0.890625l0 -1.65625q1.4375 -0.6875 2.515625 -1.640625q1.09375 -0.96875 1.53125 -1.875l1.109375 0l0 14.046875z" fill-rule="nonzero"/><path fill="#000000" fill-opacity="0.0" d="m640.64044 155.47614l-38.582703 0" fill-rule="evenodd"/><path stroke="#000000" stroke-width="2.0" stroke-linejoin="round" stroke-linecap="butt" d="m633.78625 155.47614l-31.728516 0" fill-rule="evenodd"/><path fill="#000000" stroke="#000000" stroke-width="2.0" stroke-linecap="butt" d="m633.78625 155.47614l-2.2491455 2.249176l6.1795044 -2.249176l-6.1795044 -2.2491608z" fill-rule="evenodd"/><path fill="#000000" fill-opacity="0.0" d="m640.64044 246.99054l-38.582703 0" fill-rule="evenodd"/><path stroke="#000000" stroke-width="2.0" stroke-linejoin="round" stroke-linecap="butt" d="m633.78625 246.99052l-31.728516 0" fill-rule="evenodd"/><path fill="#000000" stroke="#000000" stroke-width="2.0" stroke-linecap="butt" d="m633.78625 246.99052l-2.2491455 2.249176l6.1795044 -2.249176l-6.1795044 -2.2491608z" fill-rule="evenodd"/><path fill="#6fa8dc" d="m640.64044 338.50494l0 0c0 -16.455475 13.924988 -29.795288 31.102356 -29.795288l0 0c8.24884 0 16.159851 3.1391296 21.992676 8.726837c5.8328247 5.5877075 9.10968 13.166229 9.10968 21.06845l0 0c0 16.455475 -13.924988 29.795258 -31.102356 29.795258l0 0c-17.177368 0 -31.102356 -13.339783 -31.102356 -29.795258z" fill-rule="evenodd"/><path stroke="#000000" stroke-width="1.0" stroke-linejoin="round" stroke-linecap="butt" d="m640.64044 338.50494l0 0c0 -16.455475 13.924988 -29.795288 31.102356 -29.795288l0 0c8.24884 0 16.159851 3.1391296 21.992676 8.726837c5.8328247 5.5877075 9.10968 13.166229 9.10968 21.06845l0 0c0 16.455475 -13.924988 29.795258 -31.102356 29.795258l0 0c-17.177368 0 -31.102356 -13.339783 -31.102356 -29.795258z" fill-rule="evenodd"/><path fill="#000000" d="m659.3282 349.16492l0 -2.09375l9.671875 -11.109375q-1.640625 0.078125 -2.90625 0.078125l-6.203125 0l0 -2.078125l12.4375 0l0 1.703125l-8.234375 9.640625l-1.59375 1.765625q1.734375 -0.125 3.25 -0.125l7.03125 0l0 2.21875l-13.453125 0z" fill-rule="nonzero"/><path fill="#000000" d="m683.2579 358.50867l0 1.65625l-9.25 0q-0.015625 -0.625 0.203125 -1.1875q0.34375 -0.953125 1.125 -1.859375q0.78125 -0.921875 2.25 -2.125q2.28125 -1.875 3.078125 -2.96875q0.8125 -1.09375 0.8125 -2.0625q0 -1.015625 -0.734375 -1.71875q-0.734375 -0.703125 -1.90625 -0.703125q-1.234375 0 -1.984375 0.75q-0.75 0.734375 -0.75 2.046875l-1.765625 -0.171875q0.171875 -1.984375 1.359375 -3.015625q1.1875 -1.03125 3.171875 -1.03125q2.015625 0 3.1875 1.125q1.1875 1.109375 1.1875 2.75q0 0.84375 -0.34375 1.65625q-0.34375 0.8125 -1.140625 1.71875q-0.796875 0.890625 -2.65625 2.453125q-1.546875 1.296875 -1.984375 1.765625q-0.4375 0.453125 -0.71875 0.921875l6.859375 0z" fill-rule="nonzero"/><path fill="#000000" fill-opacity="0.0" d="m640.64044 338.50494l-38.582703 0" fill-rule="evenodd"/><path stroke="#000000" stroke-width="2.0" stroke-linejoin="round" stroke-linecap="butt" d="m633.78625 338.5049l-31.728516 0" fill-rule="evenodd"/><path fill="#000000" stroke="#000000" stroke-width="2.0" stroke-linecap="butt" d="m633.78625 338.5049l-2.2491455 2.249176l6.1795044 -2.249176l-6.1795044 -2.2491455z" fill-rule="evenodd"/><path fill="#000000" fill-opacity="0.0" d="m702.84515 338.50494l129.79529 -271.9685" fill-rule="evenodd"/><path stroke="#000000" stroke-width="1.0" stroke-linejoin="round" stroke-linecap="butt" d="m702.84515 338.5049l127.21106 -266.55353" fill-rule="evenodd"/><path fill="#000000" stroke="#000000" stroke-width="1.0" stroke-linecap="butt" d="m831.5468 72.66279l0.46392822 -4.807007l-3.4452515 3.3841782z" fill-rule="evenodd"/><path fill="#000000" fill-opacity="0.0" d="m702.84515 338.50494l129.79529 -183.93703" fill-rule="evenodd"/><path stroke="#000000" stroke-width="1.0" stroke-linejoin="round" stroke-linecap="butt" d="m702.84515 338.5049l126.33594 -179.03465" fill-rule="evenodd"/><path fill="#000000" stroke="#000000" stroke-width="1.0" stroke-linecap="butt" d="m830.53064 160.42258l1.2669067 -4.660202l-3.9660034 2.7555695z" fill-rule="evenodd"/><path fill="#000000" fill-opacity="0.0" d="m702.84515 338.50494l129.79529 -92.37796" fill-rule="evenodd"/><path stroke="#000000" stroke-width="1.0" stroke-linejoin="round" stroke-linecap="butt" d="m702.84515 338.5049l124.90698 -88.89882" fill-rule="evenodd"/><path fill="#000000" stroke="#000000" stroke-width="1.0" stroke-linecap="butt" d="m828.70984 250.95178l2.739563 -3.977127l-4.6550903 1.2857361z" fill-rule="evenodd"/><path fill="#000000" fill-opacity="0.0" d="m702.84515 338.50494l129.79529 0.03149414" fill-rule="evenodd"/><path stroke="#000000" stroke-width="1.0" stroke-linejoin="round" stroke-linecap="butt" d="m702.84515 338.5049l123.79529 0.030059814" fill-rule="evenodd"/><path fill="#000000" stroke="#000000" stroke-width="1.0" stroke-linecap="butt" d="m826.64 340.1867l4.538513 -1.6506348l-4.5377197 -1.652832z" fill-rule="evenodd"/><path fill="#000000" fill-opacity="0.0" d="m96.808395 390.71652l246.83464 0l0 68.50394l-246.83464 0z" fill-rule="evenodd"/><path stroke="#000000" stroke-width="1.0" stroke-linejoin="round" stroke-linecap="butt" d="m96.808395 390.71652l246.83464 0l0 68.50394l-246.83464 0z" fill-rule="evenodd"/><path fill="#000000" d="m107.82402 436.83655l0 -21.9375l2.703125 0l0 7.859375q1.875 -2.171875 4.75 -2.171875q1.765625 0 3.0625 0.703125q1.3125 0.6875 1.875 1.921875q0.5625 1.21875 0.5625 3.546875l0 10.078125l-2.6875 0l0 -10.078125q0 -2.015625 -0.890625 -2.9375q-0.875 -0.921875 -2.46875 -0.921875q-1.203125 0 -2.265625 0.625q-1.046875 0.625 -1.5 1.6875q-0.4375 1.0625 -0.4375 2.921875l0 8.703125l-2.703125 0z" fill-rule="nonzero"/><path fill="#000000" d="m130.90482 425.33655l-2.8125 0l0 -10.5625q-1.53125 1.4375 -3.625 2.125l0 -2.546875q1.109375 -0.359375 2.390625 -1.359375q1.28125 -1.015625 1.765625 -2.34375l2.28125 0l0 14.6875z" fill-rule="nonzero"/><path fill="#000000" d="m158.94472 423.9303l-14.5 0l0 -2.515625l14.5 0l0 2.515625zm0 6.671875l-14.5 0l0 -2.515625l14.5 0l0 2.515625z" fill-rule="nonzero"/><path fill="#000000" d="m182.53665 413.10217q0 -0.5 0.3125 -1.015625q0.3125 -0.53125 0.3125 -0.609375q0 -0.5 -0.65625 -0.5q-2.0625 0 -3.53125 5.765625l-0.6875 2.734375l3.546875 0l-0.34375 1.625l-3.46875 0q-0.671875 3.015625 -1.234375 5.75q-0.546875 2.71875 -1.171875 5.09375q-0.609375 2.375 -1.234375 4.375q-0.625 1.984375 -1.421875 3.546875q-0.78125 1.5625 -1.71875 2.640625q-0.921875 1.09375 -2.109375 1.671875q-1.203125 0.578125 -2.671875 0.578125q-1.75 0 -2.78125 -0.828125q-1.046875 -0.828125 -1.046875 -2.21875q0 -0.859375 0.609375 -1.484375q0.59375 -0.609375 1.40625 -0.609375q0.734375 0 1.3125 0.578125q0.578125 0.578125 0.578125 1.28125q0 0.546875 -0.3125 1.046875q-0.3125 0.5 -0.3125 0.609375q0 0.421875 0.703125 0.421875q0.453125 0 0.8125 -0.21875q0.34375 -0.203125 0.640625 -0.515625q0.28125 -0.296875 0.609375 -1.28125q0.328125 -0.984375 0.59375 -1.90625q0.28125 -0.90625 0.734375 -2.953125q0.46875 -2.046875 0.875 -3.84375q0.40625 -1.796875 1.15625 -5.234375q0.765625 -3.4375 1.453125 -6.5l-2.828125 0l0.359375 -1.625l2.8125 0q0.578125 -2.078125 1.234375 -3.578125q0.671875 -1.515625 1.671875 -3.0q1.0 -1.5 2.46875 -2.265625q1.46875 -0.78125 3.359375 -0.78125q1.75 0 2.78125 0.84375q1.046875 0.828125 1.046875 2.25q0 0.890625 -0.5625 1.46875q-0.546875 0.578125 -1.40625 0.578125q-0.765625 0 -1.328125 -0.5625q-0.5625 -0.5625 -0.5625 -1.328125z" fill-rule="nonzero"/><path fill="#000000" d="m189.64355 448.33655l-1.796875 0l0 -11.453125q-0.640625 0.625 -1.703125 1.25q-1.046875 0.609375 -1.890625 0.921875l0 -1.734375q1.515625 -0.703125 2.640625 -1.703125q1.125 -1.015625 1.59375 -1.96875l1.15625 0l0 14.6875z" fill-rule="nonzero"/><path fill="#000000" d="m200.57242 443.28967q-2.234375 -2.8125 -3.78125 -6.578125q-1.53125 -3.78125 -1.53125 -7.828125q0 -3.5625 1.15625 -6.828125q1.34375 -3.78125 4.15625 -7.53125l1.921875 0q-1.796875 3.109375 -2.390625 4.4375q-0.90625 2.0625 -1.4375 4.3125q-0.640625 2.796875 -0.640625 5.625q0 7.203125 4.46875 14.390625l-1.921875 0zm9.240021 -6.453125l-5.828125 -21.9375l2.984375 0l3.328125 14.375q0.546875 2.265625 0.9375 4.5q0.828125 -3.53125 0.984375 -4.0625l4.171875 -14.8125l3.5 0l3.140625 11.09375q1.1875 4.140625 1.71875 7.78125q0.421875 -2.09375 1.09375 -4.78125l3.4375 -14.09375l2.921875 0l-6.015625 21.9375l-2.796875 0l-4.625 -16.71875q-0.59375 -2.09375 -0.703125 -2.578125q-0.34375 1.515625 -0.640625 2.578125l-4.65625 16.71875l-2.953125 0z" fill-rule="nonzero"/><path fill="#000000" d="m240.15352 448.33655l-1.796875 0l0 -11.453125q-0.640625 0.625 -1.703125 1.25q-1.046875 0.609375 -1.890625 0.921875l0 -1.734375q1.515625 -0.703125 2.640625 -1.703125q1.125 -1.015625 1.59375 -1.96875l1.15625 0l0 14.6875z" fill-rule="nonzero"/><path fill="#000000" d="m246.69176 436.83655l0 -3.0625l3.078125 0l0 3.0625l-3.078125 0zm5.954788 0l5.8125 -8.265625l-5.375 -7.625l3.375 0l2.4375 3.71875q0.6875 1.0625 1.109375 1.78125q0.65625 -0.984375 1.203125 -1.75l2.6875 -3.75l3.21875 0l-5.5 7.484375l5.921875 8.40625l-3.3125 0l-3.265625 -4.9375l-0.859375 -1.328125l-4.1875 6.265625l-3.265625 0zm22.78125 -3.546875l0 -6.015625l-5.96875 0l0 -2.515625l5.96875 0l0 -5.96875l2.546875 0l0 5.96875l5.984375 0l0 2.515625l-5.984375 0l0 6.015625l-2.546875 0zm14.730896 3.546875l-2.5 0l0 -21.9375l2.703125 0l0 7.828125q1.703125 -2.140625 4.359375 -2.140625q1.453125 0 2.765625 0.59375q1.3125 0.578125 2.15625 1.65625q0.84375 1.0625 1.328125 2.578125q0.484375 1.515625 0.484375 3.234375q0 4.09375 -2.03125 6.328125q-2.015625 2.21875 -4.84375 2.21875q-2.8125 0 -4.421875 -2.34375l0 1.984375zm-0.03125 -8.0625q0 2.859375 0.78125 4.125q1.28125 2.078125 3.453125 2.078125q1.765625 0 3.046875 -1.53125q1.28125 -1.53125 1.28125 -4.578125q0 -3.109375 -1.234375 -4.59375q-1.234375 -1.484375 -2.984375 -1.484375q-1.765625 0 -3.0625 1.546875q-1.28125 1.53125 -1.28125 4.4375z" fill-rule="nonzero"/><path fill="#000000" d="m310.31763 448.33655l-1.796875 0l0 -11.453125q-0.640625 0.625 -1.703125 1.25q-1.046875 0.609375 -1.890625 0.921875l0 -1.734375q1.515625 -0.703125 2.640625 -1.703125q1.125 -1.015625 1.59375 -1.96875l1.15625 0l0 14.6875z" fill-rule="nonzero"/><path fill="#000000" d="m317.85587 443.28967l-1.921875 0q4.46875 -7.1875 4.46875 -14.390625q0 -2.8125 -0.640625 -5.578125q-0.515625 -2.25 -1.421875 -4.3125q-0.578125 -1.34375 -2.40625 -4.484375l1.921875 0q2.8125 3.75 4.171875 7.53125q1.140625 3.265625 1.140625 6.828125q0 4.046875 -1.546875 7.828125q-1.546875 3.765625 -3.765625 6.578125z" fill-rule="nonzero"/><path fill="#000000" fill-opacity="0.0" d="m352.8084 390.71652l198.86615 0l0 68.50394l-198.86615 0z" fill-rule="evenodd"/><path stroke="#000000" stroke-width="1.0" stroke-linejoin="round" stroke-linecap="butt" d="m352.8084 390.71652l198.86615 0l0 68.50394l-198.86615 0z" fill-rule="evenodd"/><path fill="#000000" d="m362.40216 429.15652l0 -2.1875l10.125 -11.609375q-1.71875 0.078125 -3.046875 0.078125l-6.46875 0l0 -2.171875l12.984375 0l0 1.78125l-8.609375 10.078125l-1.65625 1.84375q1.8125 -0.125 3.390625 -0.125l7.359375 0l0 2.3125l-14.078125 0z" fill-rule="nonzero"/><path fill="#000000" d="m401.85693 416.25027l-14.5 0l0 -2.515625l14.5 0l0 2.515625zm0 6.671875l-14.5 0l0 -2.515625l14.5 0l0 2.515625zm16.420074 6.234375l-5.828125 -21.9375l2.984375 0l3.328125 14.375q0.546875 2.265625 0.9375 4.5q0.828125 -3.53125 0.984375 -4.0625l4.171875 -14.8125l3.5 0l3.140625 11.09375q1.1875 4.140625 1.71875 7.78125q0.421875 -2.09375 1.09375 -4.78125l3.4375 -14.09375l2.921875 0l-6.015625 21.9375l-2.796875 0l-4.625 -16.71875q-0.59375 -2.09375 -0.703125 -2.578125q-0.34375 1.515625 -0.640625 2.578125l-4.65625 16.71875l-2.953125 0z" fill-rule="nonzero"/><path fill="#000000" d="m451.28995 438.93777l0 1.71875l-9.65625 0q-0.03125 -0.65625 0.203125 -1.25q0.375 -0.984375 1.1875 -1.9375q0.8125 -0.96875 2.34375 -2.21875q2.390625 -1.953125 3.21875 -3.09375q0.84375 -1.15625 0.84375 -2.171875q0 -1.0625 -0.765625 -1.796875q-0.765625 -0.734375 -1.984375 -0.734375q-1.296875 0 -2.078125 0.78125q-0.78125 0.78125 -0.796875 2.15625l-1.84375 -0.1875q0.1875 -2.078125 1.421875 -3.15625q1.25 -1.078125 3.328125 -1.078125q2.109375 0 3.328125 1.171875q1.234375 1.15625 1.234375 2.890625q0 0.875 -0.359375 1.734375q-0.359375 0.84375 -1.1875 1.78125q-0.828125 0.9375 -2.765625 2.5625q-1.625 1.359375 -2.09375 1.84375q-0.453125 0.484375 -0.75 0.984375l7.171875 0z" fill-rule="nonzero"/><path fill="#000000" d="m455.1563 429.15652l0 -3.0625l3.078125 0l0 3.0625l-3.078125 0zm7.7516785 0l0 -21.9375l2.703125 0l0 7.859375q1.875 -2.171875 4.75 -2.171875q1.765625 0 3.0625 0.703125q1.3125 0.6875 1.875 1.921875q0.5625 1.21875 0.5625 3.546875l0 10.078125l-2.6875 0l0 -10.078125q0 -2.015625 -0.890625 -2.9375q-0.875 -0.921875 -2.46875 -0.921875q-1.203125 0 -2.265625 0.625q-1.046875 0.625 -1.5 1.6875q-0.4375 1.0625 -0.4375 2.921875l0 8.703125l-2.703125 0z" fill-rule="nonzero"/><path fill="#000000" d="m485.55127 417.65652l-1.796875 0l0 -11.453125q-0.640625 0.625 -1.703125 1.25q-1.046875 0.609375 -1.890625 0.921875l0 -1.734375q1.515625 -0.703125 2.640625 -1.703125q1.125 -1.015625 1.59375 -1.96875l1.15625 0l0 14.6875z" fill-rule="nonzero"/><path fill="#000000" d="m496.98013 425.60965l0 -6.015625l-5.96875 0l0 -2.515625l5.96875 0l0 -5.96875l2.546875 0l0 5.96875l5.984375 0l0 2.515625l-5.984375 0l0 6.015625l-2.546875 0zm14.730896 3.546875l-2.5 0l0 -21.9375l2.703125 0l0 7.828125q1.7031555 -2.140625 4.3594055 -2.140625q1.453125 0 2.765625 0.59375q1.3125 0.578125 2.15625 1.65625q0.84375 1.0625 1.328125 2.578125q0.484375 1.515625 0.484375 3.234375q0 4.09375 -2.03125 6.328125q-2.015625 2.21875 -4.84375 2.21875q-2.8125 0 -4.4219055 -2.34375l0 1.984375zm-0.03125 -8.0625q0 2.859375 0.7812805 4.125q1.28125 2.078125 3.453125 2.078125q1.765625 0 3.046875 -1.53125q1.28125 -1.53125 1.28125 -4.578125q0 -3.109375 -1.234375 -4.59375q-1.234375 -1.484375 -2.984375 -1.484375q-1.765625 0 -3.0625 1.546875q-1.2812805 1.53125 -1.2812805 4.4375z" fill-rule="nonzero"/><path fill="#000000" d="m534.5418 438.93777l0 1.71875l-9.65625 0q-0.03125 -0.65625 0.203125 -1.25q0.375 -0.984375 1.1875 -1.9375q0.8125 -0.96875 2.34375 -2.21875q2.390625 -1.953125 3.21875 -3.09375q0.84375 -1.15625 0.84375 -2.171875q0 -1.0625 -0.765625 -1.796875q-0.765625 -0.734375 -1.984375 -0.734375q-1.296875 0 -2.078125 0.78125q-0.78125 0.78125 -0.796875 2.15625l-1.84375 -0.1875q0.1875 -2.078125 1.421875 -3.15625q1.25 -1.078125 3.328125 -1.078125q2.109375 0 3.328125 1.171875q1.234375 1.15625 1.234375 2.890625q0 0.875 -0.359375 1.734375q-0.359375 0.84375 -1.1875 1.78125q-0.828125 0.9375 -2.765625 2.5625q-1.625 1.359375 -2.09375 1.84375q-0.453125 0.484375 -0.75 0.984375l7.171875 0z" fill-rule="nonzero"/><path fill="#000000" fill-opacity="0.0" d="m696.8084 390.71652l246.83466 0l0 68.50394l-246.83466 0z" fill-rule="evenodd"/><path stroke="#000000" stroke-width="1.0" stroke-linejoin="round" stroke-linecap="butt" d="m696.8084 390.71652l246.83466 0l0 68.50394l-246.83466 0z" fill-rule="evenodd"/><path fill="#000000" d="m707.82404 436.83655l0 -21.9375l2.703125 0l0 7.859375q1.875 -2.171875 4.75 -2.171875q1.765625 0 3.0625 0.703125q1.3125 0.6875 1.875 1.921875q0.5625 1.21875 0.5625 3.546875l0 10.078125l-2.6875 0l0 -10.078125q0 -2.015625 -0.890625 -2.9375q-0.875 -0.921875 -2.46875 -0.921875q-1.203125 0 -2.265625 0.625q-1.046875 0.625 -1.5 1.6875q-0.4375 1.0625 -0.4375 2.921875l0 8.703125l-2.703125 0z" fill-rule="nonzero"/><path fill="#000000" d="m733.1392 423.6178l0 1.71875l-9.65625 0q-0.03125 -0.65625 0.203125 -1.25q0.375 -0.984375 1.1875 -1.9375q0.8125 -0.96875 2.34375 -2.21875q2.390625 -1.953125 3.21875 -3.09375q0.84375 -1.15625 0.84375 -2.171875q0 -1.0625 -0.765625 -1.796875q-0.765625 -0.734375 -1.984375 -0.734375q-1.296875 0 -2.078125 0.78125q-0.78125 0.78125 -0.796875 2.15625l-1.84375 -0.1875q0.1875 -2.078125 1.421875 -3.15625q1.25 -1.078125 3.328125 -1.078125q2.109375 0 3.328125 1.171875q1.234375 1.15625 1.234375 2.890625q0 0.875 -0.359375 1.734375q-0.359375 0.84375 -1.1875 1.78125q-0.828125 0.9375 -2.765625 2.5625q-1.625 1.359375 -2.09375 1.84375q-0.453125 0.484375 -0.75 0.984375l7.171875 0z" fill-rule="nonzero"/><path fill="#000000" d="m758.9447 423.9303l-14.5 0l0 -2.515625l14.5 0l0 2.515625zm0 6.671875l-14.5 0l0 -2.515625l14.5 0l0 2.515625z" fill-rule="nonzero"/><path fill="#000000" d="m782.5367 413.10217q0 -0.5 0.3125 -1.015625q0.3125 -0.53125 0.3125 -0.609375q0 -0.5 -0.65625 -0.5q-2.0625 0 -3.53125 5.765625l-0.6875 2.734375l3.546875 0l-0.34375 1.625l-3.46875 0q-0.671875 3.015625 -1.234375 5.75q-0.546875 2.71875 -1.171875 5.09375q-0.609375 2.375 -1.234375 4.375q-0.625 1.984375 -1.421875 3.546875q-0.78125 1.5625 -1.71875 2.640625q-0.921875 1.09375 -2.109375 1.671875q-1.203125 0.578125 -2.671875 0.578125q-1.75 0 -2.78125 -0.828125q-1.046875 -0.828125 -1.046875 -2.21875q0 -0.859375 0.609375 -1.484375q0.59375 -0.609375 1.40625 -0.609375q0.734375 0 1.3125 0.578125q0.578125 0.578125 0.578125 1.28125q0 0.546875 -0.3125 1.046875q-0.3125 0.5 -0.3125 0.609375q0 0.421875 0.703125 0.421875q0.453125 0 0.8125 -0.21875q0.34375 -0.203125 0.640625 -0.515625q0.28125 -0.296875 0.609375 -1.28125q0.328125 -0.984375 0.59375 -1.90625q0.28125 -0.90625 0.734375 -2.953125q0.46875 -2.046875 0.875 -3.84375q0.40625 -1.796875 1.15625 -5.234375q0.765625 -3.4375 1.453125 -6.5l-2.828125 0l0.359375 -1.625l2.8125 0q0.578125 -2.078125 1.234375 -3.578125q0.671875 -1.515625 1.671875 -3.0q1.0 -1.5 2.46875 -2.265625q1.46875 -0.78125 3.359375 -0.78125q1.75 0 2.78125 0.84375q1.046875 0.828125 1.046875 2.25q0 0.890625 -0.5625 1.46875q-0.546875 0.578125 -1.40625 0.578125q-0.765625 0 -1.328125 -0.5625q-0.5625 -0.5625 -0.5625 -1.328125z" fill-rule="nonzero"/><path fill="#000000" d="m792.3154 446.6178l0 1.71875l-9.65625 0q-0.03125 -0.65625 0.203125 -1.25q0.375 -0.984375 1.1875 -1.9375q0.8125 -0.96875 2.34375 -2.21875q2.390625 -1.953125 3.21875 -3.09375q0.84375 -1.15625 0.84375 -2.171875q0 -1.0625 -0.765625 -1.796875q-0.765625 -0.734375 -1.984375 -0.734375q-1.296875 0 -2.078125 0.78125q-0.78125 0.78125 -0.796875 2.15625l-1.84375 -0.1875q0.1875 -2.078125 1.421875 -3.15625q1.25 -1.078125 3.328125 -1.078125q2.109375 0 3.328125 1.171875q1.234375 1.15625 1.234375 2.890625q0 0.875 -0.359375 1.734375q-0.359375 0.84375 -1.1875 1.78125q-0.828125 0.9375 -2.765625 2.5625q-1.625 1.359375 -2.09375 1.84375q-0.453125 0.484375 -0.75 0.984375l7.171875 0z" fill-rule="nonzero"/><path fill="#000000" d="m800.57245 443.28967q-2.234375 -2.8125 -3.78125 -6.578125q-1.53125 -3.78125 -1.53125 -7.828125q0 -3.5625 1.15625 -6.828125q1.34375 -3.78125 4.15625 -7.53125l1.921875 0q-1.796875 3.109375 -2.390625 4.4375q-0.90625 2.0625 -1.4375 4.3125q-0.640625 2.796875 -0.640625 5.625q0 7.203125 4.46875 14.390625l-1.921875 0zm9.23999 -6.453125l-5.828125 -21.9375l2.984375 0l3.328125 14.375q0.546875 2.265625 0.9375 4.5q0.828125 -3.53125 0.984375 -4.0625l4.171875 -14.8125l3.5 0l3.140625 11.09375q1.1875 4.140625 1.71875 7.78125q0.421875 -2.09375 1.09375 -4.78125l3.4375 -14.09375l2.921875 0l-6.015625 21.9375l-2.796875 0l-4.625 -16.71875q-0.59375 -2.09375 -0.703125 -2.578125q-0.34375 1.515625 -0.640625 2.578125l-4.65625 16.71875l-2.953125 0z" fill-rule="nonzero"/><path fill="#000000" d="m833.4035 444.47717l1.796875 -0.234375q0.3125 1.515625 1.046875 2.1875q0.75 0.671875 1.8125 0.671875q1.265625 0 2.140625 -0.875q0.875 -0.875 0.875 -2.171875q0 -1.234375 -0.8125 -2.03125q-0.796875 -0.8125 -2.046875 -0.8125q-0.515625 0 -1.265625 0.203125l0.1875 -1.578125q0.1875 0.015625 0.296875 0.015625q1.140625 0 2.0625 -0.59375q0.921875 -0.609375 0.921875 -1.84375q0 -1.0 -0.671875 -1.640625q-0.671875 -0.65625 -1.71875 -0.65625q-1.046875 0 -1.75 0.671875q-0.703125 0.65625 -0.90625 1.96875l-1.796875 -0.3125q0.328125 -1.8125 1.5 -2.796875q1.171875 -1.0 2.90625 -1.0q1.203125 0 2.203125 0.515625q1.015625 0.515625 1.546875 1.40625q0.53125 0.875 0.53125 1.875q0 0.953125 -0.515625 1.734375q-0.5 0.78125 -1.5 1.234375q1.296875 0.296875 2.015625 1.25q0.71875 0.9375 0.71875 2.34375q0 1.921875 -1.40625 3.265625q-1.390625 1.328125 -3.515625 1.328125q-1.9375 0 -3.21875 -1.140625q-1.265625 -1.15625 -1.4375 -2.984375z" fill-rule="nonzero"/><path fill="#000000" d="m846.6918 436.83655l0 -3.0625l3.078125 0l0 3.0625l-3.078125 0zm6.329773 0l0 -2.1875l10.125 -11.609375q-1.71875 0.078125 -3.046875 0.078125l-6.46875 0l0 -2.171875l12.984375 0l0 1.78125l-8.609375 10.078125l-1.65625 1.84375q1.8125 -0.125 3.390625 -0.125l7.359375 0l0 2.3125l-14.078125 0zm22.40625 -3.546875l0 -6.015625l-5.96875 0l0 -2.515625l5.96875 0l0 -5.96875l2.546875 0l0 5.96875l5.984375 0l0 2.515625l-5.984375 0l0 6.015625l-2.546875 0zm14.730896 3.546875l-2.5 0l0 -21.9375l2.703125 0l0 7.828125q1.703125 -2.140625 4.359375 -2.140625q1.453125 0 2.765625 0.59375q1.3125 0.578125 2.15625 1.65625q0.84375 1.0625 1.328125 2.578125q0.484375 1.515625 0.484375 3.234375q0 4.09375 -2.03125 6.328125q-2.015625 2.21875 -4.84375 2.21875q-2.8125 0 -4.421875 -2.34375l0 1.984375zm-0.03125 -8.0625q0 2.859375 0.78125 4.125q1.28125 2.078125 3.453125 2.078125q1.765625 0 3.046875 -1.53125q1.28125 -1.53125 1.28125 -4.578125q0 -3.109375 -1.234375 -4.59375q-1.234375 -1.484375 -2.984375 -1.484375q-1.765625 0 -3.0625 1.546875q-1.28125 1.53125 -1.28125 4.4375z" fill-rule="nonzero"/><path fill="#000000" d="m903.5676 444.47717l1.796875 -0.234375q0.3125 1.515625 1.046875 2.1875q0.75 0.671875 1.8125 0.671875q1.265625 0 2.140625 -0.875q0.875 -0.875 0.875 -2.171875q0 -1.234375 -0.8125 -2.03125q-0.796875 -0.8125 -2.046875 -0.8125q-0.515625 0 -1.265625 0.203125l0.1875 -1.578125q0.1875 0.015625 0.296875 0.015625q1.140625 0 2.0625 -0.59375q0.921875 -0.609375 0.921875 -1.84375q0 -1.0 -0.671875 -1.640625q-0.671875 -0.65625 -1.71875 -0.65625q-1.046875 0 -1.75 0.671875q-0.703125 0.65625 -0.90625 1.96875l-1.796875 -0.3125q0.328125 -1.8125 1.5 -2.796875q1.171875 -1.0 2.90625 -1.0q1.203125 0 2.203125 0.515625q1.015625 0.515625 1.546875 1.40625q0.53125 0.875 0.53125 1.875q0 0.953125 -0.515625 1.734375q-0.5 0.78125 -1.5 1.234375q1.296875 0.296875 2.015625 1.25q0.71875 0.9375 0.71875 2.34375q0 1.921875 -1.40625 3.265625q-1.390625 1.328125 -3.515625 1.328125q-1.9375 0 -3.21875 -1.140625q-1.265625 -1.15625 -1.4375 -2.984375z" fill-rule="nonzero"/><path fill="#000000" d="m917.85583 443.28967l-1.921875 0q4.46875 -7.1875 4.46875 -14.390625q0 -2.8125 -0.640625 -5.578125q-0.515625 -2.25 -1.421875 -4.3125q-0.578125 -1.34375 -2.40625 -4.484375l1.921875 0q2.8125 3.75 4.171875 7.53125q1.140625 3.265625 1.140625 6.828125q0 4.046875 -1.546875 7.828125q-1.546875 3.765625 -3.765625 6.578125z" fill-rule="nonzero"/><path fill="#000000" fill-opacity="0.0" d="m953.3438 390.71652l198.86615 0l0 68.50394l-198.86615 0z" fill-rule="evenodd"/><path stroke="#000000" stroke-width="1.0" stroke-linejoin="round" stroke-linecap="butt" d="m953.3438 390.71652l198.86615 0l0 68.50394l-198.86615 0z" fill-rule="evenodd"/><path fill="#000000" d="m964.25006 435.28152l-0.296875 -2.53125q0.875 0.234375 1.53125 0.234375q0.90625 0 1.4375 -0.296875q0.546875 -0.296875 0.890625 -0.84375q0.25 -0.390625 0.8125 -2.0q0.078125 -0.21875 0.25 -0.65625l-6.03125 -15.921875l2.890625 0l3.3125 9.203125q0.640625 1.75 1.15625 3.671875q0.46875 -1.84375 1.109375 -3.609375l3.390625 -9.265625l2.703125 0l-6.046875 16.15625q-0.984375 2.625 -1.515625 3.609375q-0.71875 1.328125 -1.65625 1.953125q-0.921875 0.625 -2.203125 0.625q-0.78125 0 -1.734375 -0.328125zm6.25 -26.546875l-1.703125 2.546875l-3.078125 0l3.234375 -4.1875l2.875 0l3.359375 4.1875l-3.046875 0l-1.640625 -2.546875z" fill-rule="nonzero"/><path fill="#000000" d="m1002.3924 416.25027l-14.5 0l0 -2.515625l14.5 0l0 2.515625zm0 6.671875l-14.5 0l0 -2.515625l14.5 0l0 2.515625zm16.420044 6.234375l-5.828125 -21.9375l2.984375 0l3.328125 14.375q0.546875 2.265625 0.9375 4.5q0.828125 -3.53125 0.984375 -4.0625l4.171814 -14.8125l3.5 0l3.140625 11.09375q1.1875 4.140625 1.71875 7.78125q0.421875 -2.09375 1.09375 -4.78125l3.4375 -14.09375l2.921875 0l-6.015625 21.9375l-2.796875 0l-4.625 -16.71875q-0.59375 -2.09375 -0.703125 -2.578125q-0.34375 1.515625 -0.640625 2.578125l-4.656189 16.71875l-2.953125 0z" fill-rule="nonzero"/><path fill="#000000" d="m1048.1536 440.65652l0 -3.5l-6.34375 0l0 -1.65625l6.671875 -9.46875l1.46875 0l0 9.46875l1.96875 0l0 1.65625l-1.96875 0l0 3.5l-1.796875 0zm0 -5.15625l0 -6.59375l-4.578125 6.59375l4.578125 0z" fill-rule="nonzero"/><path fill="#000000" d="m1055.6918 429.15652l0 -3.0625l3.078125 0l0 3.0625l-3.078125 0zm7.751587 0l0 -21.9375l2.703125 0l0 7.859375q1.875 -2.171875 4.75 -2.171875q1.765625 0 3.0625 0.703125q1.3125 0.6875 1.875 1.921875q0.5625 1.21875 0.5625 3.546875l0 10.078125l-2.6875 0l0 -10.078125q0 -2.015625 -0.890625 -2.9375q-0.875 -0.921875 -2.46875 -0.921875q-1.203125 0 -2.265625 0.625q-1.046875 0.625 -1.5 1.6875q-0.4375 1.0625 -0.4375 2.921875l0 8.703125l-2.703125 0z" fill-rule="nonzero"/><path fill="#000000" d="m1088.7585 415.93777l0 1.71875l-9.65625 0q-0.03125 -0.65625 0.203125 -1.25q0.375 -0.984375 1.1875 -1.9375q0.8125 -0.96875 2.34375 -2.21875q2.390625 -1.953125 3.21875 -3.09375q0.84375 -1.15625 0.84375 -2.171875q0 -1.0625 -0.765625 -1.796875q-0.765625 -0.734375 -1.984375 -0.734375q-1.296875 0 -2.078125 0.78125q-0.78125 0.78125 -0.796875 2.15625l-1.84375 -0.1875q0.1875 -2.078125 1.421875 -3.15625q1.25 -1.078125 3.328125 -1.078125q2.109375 0 3.328125 1.171875q1.234375 1.15625 1.234375 2.890625q0 0.875 -0.359375 1.734375q-0.359375 0.84375 -1.1875 1.78125q-0.828125 0.9375 -2.765625 2.5625q-1.625 1.359375 -2.09375 1.84375q-0.453125 0.484375 -0.75 0.984375l7.171875 0z" fill-rule="nonzero"/><path fill="#000000" d="m1097.5156 425.60965l0 -6.015625l-5.96875 0l0 -2.515625l5.96875 0l0 -5.96875l2.546875 0l0 5.96875l5.984375 0l0 2.515625l-5.984375 0l0 6.015625l-2.546875 0zm14.730835 3.546875l-2.5 0l0 -21.9375l2.703125 0l0 7.828125q1.703125 -2.140625 4.359375 -2.140625q1.453125 0 2.765625 0.59375q1.3125 0.578125 2.15625 1.65625q0.84375 1.0625 1.328125 2.578125q0.484375 1.515625 0.484375 3.234375q0 4.09375 -2.03125 6.328125q-2.015625 2.21875 -4.84375 2.21875q-2.8125 0 -4.421875 -2.34375l0 1.984375zm-0.03125 -8.0625q0 2.859375 0.78125 4.125q1.28125 2.078125 3.453125 2.078125q1.765625 0 3.046875 -1.53125q1.28125 -1.53125 1.28125 -4.578125q0 -3.109375 -1.234375 -4.59375q-1.234375 -1.484375 -2.984375 -1.484375q-1.765625 0 -3.0625 1.546875q-1.28125 1.53125 -1.28125 4.4375z" fill-rule="nonzero"/><path fill="#000000" d="m1131.4054 440.65652l0 -3.5l-6.34375 0l0 -1.65625l6.671875 -9.46875l1.46875 0l0 9.46875l1.96875 0l0 1.65625l-1.96875 0l0 3.5l-1.796875 0zm0 -5.15625l0 -6.59375l-4.578125 6.59375l4.578125 0z" fill-rule="nonzero"/></g></svg>