<svg version="1.1" viewBox="0.0 0.0 773.0498687664042 471.9501312335958" fill="none" stroke="none" stroke-linecap="square" stroke-miterlimit="10" xmlns:xlink="http://www.w3.org/1999/xlink" xmlns="http://www.w3.org/2000/svg"><clipPath id="p.0"><path d="m0 0l773.04987 0l0 471.95013l-773.04987 0l0 -471.95013z" clip-rule="nonzero"/></clipPath><g clip-path="url(#p.0)"><path fill="#000000" fill-opacity="0.0" d="m0 0l773.04987 0l0 471.95013l-773.04987 0z" fill-rule="evenodd"/><path fill="#6fa8dc" d="m56.64042 113.66549l0 0c0 -16.455475 13.925003 -29.795273 31.102364 -29.795273l0 0c8.248856 0 16.159866 3.1391373 21.992691 8.72683c5.8328247 5.5877 9.109673 13.1662445 9.109673 21.068443l0 0c0 16.455482 -13.925003 29.79528 -31.102364 29.79528l0 0c-17.17736 0 -31.102364 -13.339798 -31.102364 -29.79528z" fill-rule="evenodd"/><path stroke="#000000" stroke-width="1.0" stroke-linejoin="round" stroke-linecap="butt" d="m56.64042 113.66549l0 0c0 -16.455475 13.925003 -29.795273 31.102364 -29.795273l0 0c8.248856 0 16.159866 3.1391373 21.992691 8.72683c5.8328247 5.5877 9.109673 13.1662445 9.109673 21.068443l0 0c0 16.455482 -13.925003 29.79528 -31.102364 29.79528l0 0c-17.17736 0 -31.102364 -13.339798 -31.102364 -29.79528z" fill-rule="evenodd"/><path fill="#000000" d="m74.96884 124.32549l5.546875 -7.90625l-5.140625 -7.296875l3.234375 0l2.328125 3.5625q0.65625 1.015625 1.0625 1.703125q0.625 -0.953125 1.15625 -1.671875l2.5625 -3.59375l3.078125 0l-5.25 7.15625l5.65625 8.046875l-3.171875 0l-3.125 -4.71875l-0.828125 -1.28125l-3.984375 6.0l-3.125 0z" fill-rule="nonzero"/><path fill="#000000" d="m90.226654 128.41924q0 -2.46875 0.5 -3.984375q0.515625 -1.515625 1.515625 -2.328125q1.015625 -0.828125 2.546875 -0.828125q1.125 0 1.96875 0.453125q0.859375 0.453125 1.40625 1.3125q0.5625 0.84375 0.875 2.078125q0.3125 1.21875 0.3125 3.296875q0 2.46875 -0.515625 3.984375q-0.5 1.515625 -1.515625 2.34375q-1.0 0.8125 -2.53125 0.8125q-2.03125 0 -3.1875 -1.453125q-1.375 -1.734375 -1.375 -5.6875zm1.765625 0q0 3.453125 0.796875 4.59375q0.8125 1.140625 2.0 1.140625q1.1875 0 1.984375 -1.140625q0.8125 -1.15625 0.8125 -4.59375q0 -3.453125 -0.8125 -4.578125q-0.796875 -1.140625 -2.0 -1.140625q-1.1875 0 -1.890625 1.0q-0.890625 1.28125 -0.890625 4.71875z" fill-rule="nonzero"/><path fill="#6fa8dc" d="m56.64042 214.99054l0 0c0 -16.455475 13.925003 -29.795273 31.102364 -29.795273l0 0c8.248856 0 16.159866 3.1391296 21.992691 8.726822c5.8328247 5.5877075 9.109673 13.1662445 9.109673 21.06845l0 0c0 16.455475 -13.925003 29.795273 -31.102364 29.795273l0 0c-17.17736 0 -31.102364 -13.339798 -31.102364 -29.795273z" fill-rule="evenodd"/><path stroke="#000000" stroke-width="1.0" stroke-linejoin="round" stroke-linecap="butt" d="m56.64042 214.99054l0 0c0 -16.455475 13.925003 -29.795273 31.102364 -29.795273l0 0c8.248856 0 16.159866 3.1391296 21.992691 8.726822c5.8328247 5.5877075 9.109673 13.1662445 9.109673 21.06845l0 0c0 16.455475 -13.925003 29.795273 -31.102364 29.795273l0 0c-17.17736 0 -31.102364 -13.339798 -31.102364 -29.795273z" fill-rule="evenodd"/><path fill="#000000" d="m74.96884 225.65054l5.546875 -7.90625l-5.140625 -7.296875l3.234375 0l2.328125 3.5625q0.65625 1.015625 1.0625 1.703125q0.625 -0.953125 1.15625 -1.671875l2.5625 -3.59375l3.078125 0l-5.25 7.15625l5.65625 8.046875l-3.171875 0l-3.125 -4.71875l-0.828125 -1.28125l-3.984375 6.0l-3.125 0z" fill-rule="nonzero"/><path fill="#000000" d="m96.695404 236.65053l-1.71875 0l0 -10.953125q-0.625 0.59375 -1.625 1.1875q-1.0 0.59375 -1.8125 0.890625l0 -1.65625q1.4375 -0.6875 2.515625 -1.640625q1.09375 -0.96875 1.53125 -1.875l1.109375 0l0 14.046875z" fill-rule="nonzero"/><path fill="#ffd966" d="m248.64043 74.523315l0 0c0 -16.455471 13.925003 -29.795273 31.10234 -29.795273l0 0c8.248871 0 16.159882 3.1391373 21.992706 8.726833c5.8328247 5.5877 9.10968 13.166248 9.10968 21.06844l0 0c0 16.455482 -13.925018 29.79528 -31.102386 29.79528l0 0c-17.177338 0 -31.10234 -13.339798 -31.10234 -29.79528z" fill-rule="evenodd"/><path stroke="#000000" stroke-width="1.0" stroke-linejoin="round" stroke-linecap="butt" d="m248.64043 74.523315l0 0c0 -16.455471 13.925003 -29.795273 31.10234 -29.795273l0 0c8.248871 0 16.159882 3.1391373 21.992706 8.726833c5.8328247 5.5877 9.10968 13.166248 9.10968 21.06844l0 0c0 16.455482 -13.925018 29.79528 -31.102386 29.79528l0 0c-17.177338 0 -31.10234 -13.339798 -31.10234 -29.79528z" fill-rule="evenodd"/><path fill="#000000" d="m285.95688 65.52207q0 -0.453125 0.28125 -0.921875q0.28125 -0.46875 0.28125 -0.53125q0 -0.4531288 -0.59375 -0.4531288q-1.828125 0 -3.15625 5.171879l-0.625 2.453125l3.203125 0l-0.3125 1.453125l-3.125 0q-0.59375 2.703125 -1.09375 5.15625q-0.5 2.4375 -1.0625 4.578125q-0.546875 2.125 -1.109375 3.90625q-0.546875 1.78125 -1.265625 3.1875q-0.703125 1.40625 -1.53125 2.375q-0.828125 0.96875 -1.90625 1.484375q-1.078125 0.53125 -2.390625 0.53125q-1.5625 0 -2.5 -0.75q-0.9375 -0.75 -0.9375 -2.0q0 -0.75 0.546875 -1.3125q0.53125 -0.546875 1.25 -0.546875q0.671875 0 1.1875 0.515625q0.515625 0.515625 0.515625 1.140625q0 0.484375 -0.265625 0.9375q-0.28125 0.453125 -0.28125 0.5625q0 0.375 0.625 0.375q0.40625 0 0.71875 -0.1875q0.3125 -0.1875 0.578125 -0.46875q0.25 -0.28125 0.546875 -1.171875q0.296875 -0.875 0.53125 -1.6875q0.25 -0.8125 0.65625 -2.640625q0.421875 -1.84375 0.78125 -3.453125q0.375 -1.625 1.046875 -4.703125q0.671875 -3.09375 1.296875 -5.828125l-2.515625 0l0.296875 -1.453125l2.53125 0q0.53125 -1.875 1.109375 -3.21875q0.59375 -1.359375 1.484375 -2.6875q0.90625 -1.328125 2.21875 -2.0156288q1.328125 -0.703125 3.03125 -0.703125q1.546875 0 2.484375 0.75q0.9375 0.7343788 0.9375 2.0156288q0 0.796875 -0.5 1.328125q-0.5 0.515625 -1.265625 0.515625q-0.6875 0 -1.203125 -0.5q-0.5 -0.5 -0.5 -1.203125z" fill-rule="nonzero"/><path fill="#ffd966" d="m248.64043 162.58267l0 0c0 -16.455475 13.925003 -29.795273 31.10234 -29.795273l0 0c8.248871 0 16.159882 3.139145 21.992706 8.726837c5.8328247 5.5876923 9.10968 13.1662445 9.10968 21.068436l0 0c0 16.455475 -13.925018 29.795288 -31.102386 29.795288l0 0c-17.177338 0 -31.10234 -13.339813 -31.10234 -29.795288z" fill-rule="evenodd"/><path stroke="#000000" stroke-width="1.0" stroke-linejoin="round" stroke-linecap="butt" d="m248.64043 162.58267l0 0c0 -16.455475 13.925003 -29.795273 31.10234 -29.795273l0 0c8.248871 0 16.159882 3.139145 21.992706 8.726837c5.8328247 5.5876923 9.10968 13.1662445 9.10968 21.068436l0 0c0 16.455475 -13.925018 29.795288 -31.102386 29.795288l0 0c-17.177338 0 -31.10234 -13.339813 -31.10234 -29.795288z" fill-rule="evenodd"/><path fill="#000000" d="m285.95688 153.58142q0 -0.453125 0.28125 -0.921875q0.28125 -0.46875 0.28125 -0.53125q0 -0.453125 -0.59375 -0.453125q-1.828125 0 -3.15625 5.171875l-0.625 2.453125l3.203125 0l-0.3125 1.453125l-3.125 0q-0.59375 2.703125 -1.09375 5.15625q-0.5 2.4375 -1.0625 4.578125q-0.546875 2.125 -1.109375 3.90625q-0.546875 1.78125 -1.265625 3.1875q-0.703125 1.40625 -1.53125 2.375q-0.828125 0.96875 -1.90625 1.484375q-1.078125 0.53125 -2.390625 0.53125q-1.5625 0 -2.5 -0.75q-0.9375 -0.75 -0.9375 -2.0q0 -0.75 0.546875 -1.3125q0.53125 -0.546875 1.25 -0.546875q0.671875 0 1.1875 0.515625q0.515625 0.515625 0.515625 1.140625q0 0.484375 -0.265625 0.9375q-0.28125 0.453125 -0.28125 0.5625q0 0.375 0.625 0.375q0.40625 0 0.71875 -0.1875q0.3125 -0.1875 0.578125 -0.46875q0.25 -0.28125 0.546875 -1.171875q0.296875 -0.875 0.53125 -1.6875q0.25 -0.8125 0.65625 -2.640625q0.421875 -1.84375 0.78125 -3.453125q0.375 -1.625 1.046875 -4.703125q0.671875 -3.09375 1.296875 -5.828125l-2.515625 0l0.296875 -1.453125l2.53125 0q0.53125 -1.875 1.109375 -3.21875q0.59375 -1.359375 1.484375 -2.6875q0.90625 -1.328125 2.21875 -2.015625q1.328125 -0.703125 3.03125 -0.703125q1.546875 0 2.484375 0.75q0.9375 0.734375 0.9375 2.015625q0 0.796875 -0.5 1.328125q-0.5 0.515625 -1.265625 0.515625q-0.6875 0 -1.203125 -0.5q-0.5 -0.5 -0.5 -1.203125z" fill-rule="nonzero"/><path fill="#000000" fill-opacity="0.0" d="m118.845146 113.66549l129.79529 -39.149605" fill-rule="evenodd"/><path stroke="#000000" stroke-width="1.0" stroke-linejoin="round" stroke-linecap="butt" d="m118.845146 113.66549l124.050896 -37.416946" fill-rule="evenodd"/><path fill="#000000" stroke="#000000" stroke-width="1.0" stroke-linecap="butt" d="m243.37302 77.8299l3.8677826 -2.8918533l-4.821747 -0.27087402z" fill-rule="evenodd"/><path fill="#000000" fill-opacity="0.0" d="m118.845146 113.66549l129.79529 48.913383" fill-rule="evenodd"/><path stroke="#000000" stroke-width="1.0" stroke-linejoin="round" stroke-linecap="butt" d="m118.845146 113.66549l124.18073 46.79754" fill-rule="evenodd"/><path fill="#000000" stroke="#000000" stroke-width="1.0" stroke-linecap="butt" d="m242.4434 162.00865l4.8290253 0.0546875l-3.664093 -3.145935z" fill-rule="evenodd"/><path fill="#000000" fill-opacity="0.0" d="m118.845146 214.99054l129.79529 -140.47244" fill-rule="evenodd"/><path stroke="#000000" stroke-width="1.0" stroke-linejoin="round" stroke-linecap="butt" d="m118.845146 214.99052l125.72343 -136.06561" fill-rule="evenodd"/><path fill="#000000" stroke="#000000" stroke-width="1.0" stroke-linecap="butt" d="m245.78171 80.045845l1.8666077 -4.4540253l-4.2928925 2.2121506z" fill-rule="evenodd"/><path fill="#000000" fill-opacity="0.0" d="m118.845146 214.99054l129.79529 -52.409454" fill-rule="evenodd"/><path stroke="#000000" stroke-width="1.0" stroke-linejoin="round" stroke-linecap="butt" d="m118.845146 214.99052l124.23171 -50.16295" fill-rule="evenodd"/><path fill="#000000" stroke="#000000" stroke-width="1.0" stroke-linecap="butt" d="m243.69528 166.35916l3.589569 -3.230713l-4.8264313 0.1675415z" fill-rule="evenodd"/><path fill="#ffd966" d="m248.64043 254.1327l0 0c0 -16.455475 13.925003 -29.795273 31.10234 -29.795273l0 0c8.248871 0 16.159882 3.1391296 21.992706 8.726837c5.8328247 5.5876923 9.10968 13.1662445 9.10968 21.068436l0 0c0 16.45549 -13.925018 29.795273 -31.102386 29.795273l0 0c-17.177338 0 -31.10234 -13.339783 -31.10234 -29.795273z" fill-rule="evenodd"/><path stroke="#000000" stroke-width="1.0" stroke-linejoin="round" stroke-linecap="butt" d="m248.64043 254.1327l0 0c0 -16.455475 13.925003 -29.795273 31.10234 -29.795273l0 0c8.248871 0 16.159882 3.1391296 21.992706 8.726837c5.8328247 5.5876923 9.10968 13.1662445 9.10968 21.068436l0 0c0 16.45549 -13.925018 29.795273 -31.102386 29.795273l0 0c-17.177338 0 -31.10234 -13.339783 -31.10234 -29.795273z" fill-rule="evenodd"/><path fill="#000000" d="m285.95688 245.13145q0 -0.453125 0.28125 -0.921875q0.28125 -0.46875 0.28125 -0.53125q0 -0.453125 -0.59375 -0.453125q-1.828125 0 -3.15625 5.171875l-0.625 2.453125l3.203125 0l-0.3125 1.453125l-3.125 0q-0.59375 2.703125 -1.09375 5.1562653q-0.5 2.4375 -1.0625 4.578125q-0.546875 2.125 -1.109375 3.90625q-0.546875 1.78125 -1.265625 3.1875q-0.703125 1.40625 -1.53125 2.375q-0.828125 0.96875 -1.90625 1.484375q-1.078125 0.53125 -2.390625 0.53125q-1.5625 0 -2.5 -0.75q-0.9375 -0.75 -0.9375 -2.0q0 -0.75 0.546875 -1.3125q0.53125 -0.546875 1.25 -0.546875q0.671875 0 1.1875 0.515625q0.515625 0.515625 0.515625 1.140625q0 0.484375 -0.265625 0.9375q-0.28125 0.453125 -0.28125 0.5625q0 0.375 0.625 0.375q0.40625 0 0.71875 -0.1875q0.3125 -0.1875 0.578125 -0.46875q0.25 -0.28125 0.546875 -1.171875q0.296875 -0.875 0.53125 -1.6875q0.25 -0.8125 0.65625 -2.640625q0.421875 -1.84375 0.78125 -3.453125q0.375 -1.625 1.046875 -4.703125q0.671875 -3.0937653 1.296875 -5.8281403l-2.515625 0l0.296875 -1.453125l2.53125 0q0.53125 -1.875 1.109375 -3.21875q0.59375 -1.359375 1.484375 -2.6875q0.90625 -1.328125 2.21875 -2.015625q1.328125 -0.703125 3.03125 -0.703125q1.546875 0 2.484375 0.75q0.9375 0.734375 0.9375 2.015625q0 0.796875 -0.5 1.328125q-0.5 0.515625 -1.265625 0.515625q-0.6875 0 -1.203125 -0.5q-0.5 -0.5 -0.5 -1.203125z" fill-rule="nonzero"/><path fill="#ffd966" d="m248.64043 346.52332l0 0c0 -16.455475 13.925003 -29.795258 31.10234 -29.795258l0 0c8.248871 0 16.159882 3.1391296 21.992706 8.726807c5.8328247 5.5877075 9.10968 13.16626 9.10968 21.06845l0 0c0 16.455475 -13.925018 29.795288 -31.102386 29.795288l0 0c-17.177338 0 -31.10234 -13.339813 -31.10234 -29.795288z" fill-rule="evenodd"/><path stroke="#000000" stroke-width="1.0" stroke-linejoin="round" stroke-linecap="butt" d="m248.64043 346.52332l0 0c0 -16.455475 13.925003 -29.795258 31.10234 -29.795258l0 0c8.248871 0 16.159882 3.1391296 21.992706 8.726807c5.8328247 5.5877075 9.10968 13.16626 9.10968 21.06845l0 0c0 16.455475 -13.925018 29.795288 -31.102386 29.795288l0 0c-17.177338 0 -31.10234 -13.339813 -31.10234 -29.795288z" fill-rule="evenodd"/><path fill="#000000" d="m285.95688 337.52206q0 -0.453125 0.28125 -0.921875q0.28125 -0.46875 0.28125 -0.53125q0 -0.453125 -0.59375 -0.453125q-1.828125 0 -3.15625 5.171875l-0.625 2.453125l3.203125 0l-0.3125 1.453125l-3.125 0q-0.59375 2.703125 -1.09375 5.15625q-0.5 2.4375 -1.0625 4.578125q-0.546875 2.125 -1.109375 3.90625q-0.546875 1.78125 -1.265625 3.1875q-0.703125 1.40625 -1.53125 2.375q-0.828125 0.96875 -1.90625 1.484375q-1.078125 0.53125 -2.390625 0.53125q-1.5625 0 -2.5 -0.75q-0.9375 -0.75 -0.9375 -2.0q0 -0.75 0.546875 -1.3125q0.53125 -0.546875 1.25 -0.546875q0.671875 0 1.1875 0.515625q0.515625 0.515625 0.515625 1.140625q0 0.484375 -0.265625 0.9375q-0.28125 0.453125 -0.28125 0.5625q0 0.375 0.625 0.375q0.40625 0 0.71875 -0.1875q0.3125 -0.1875 0.578125 -0.46875q0.25 -0.28125 0.546875 -1.171875q0.296875 -0.875 0.53125 -1.6875q0.25 -0.8125 0.65625 -2.640625q0.421875 -1.84375 0.78125 -3.453125q0.375 -1.625 1.046875 -4.703125q0.671875 -3.09375 1.296875 -5.828125l-2.515625 0l0.296875 -1.453125l2.53125 0q0.53125 -1.875 1.109375 -3.21875q0.59375 -1.359375 1.484375 -2.6875q0.90625 -1.328125 2.21875 -2.015625q1.328125 -0.703125 3.03125 -0.703125q1.546875 0 2.484375 0.75q0.9375 0.734375 0.9375 2.015625q0 0.796875 -0.5 1.328125q-0.5 0.515625 -1.265625 0.515625q-0.6875 0 -1.203125 -0.5q-0.5 -0.5 -0.5 -1.203125z" fill-rule="nonzero"/><path fill="#000000" fill-opacity="0.0" d="m118.845146 113.66549l129.79529 140.47244" fill-rule="evenodd"/><path stroke="#000000" stroke-width="1.0" stroke-linejoin="round" stroke-linecap="butt" d="m118.845146 113.66549l125.72343 136.06564" fill-rule="evenodd"/><path fill="#000000" stroke="#000000" stroke-width="1.0" stroke-linecap="butt" d="m243.35542 250.85207l4.2928925 2.2121582l-1.8666077 -4.4540405z" fill-rule="evenodd"/><path fill="#000000" fill-opacity="0.0" d="m118.845146 113.66549l129.79529 232.85037" fill-rule="evenodd"/><path stroke="#000000" stroke-width="1.0" stroke-linejoin="round" stroke-linecap="butt" d="m118.845146 113.66549l126.873955 227.60959" fill-rule="evenodd"/><path fill="#000000" stroke="#000000" stroke-width="1.0" stroke-linecap="butt" d="m244.27637 342.07928l3.6522675 3.159668l-0.7667999 -4.7680664z" fill-rule="evenodd"/><path fill="#000000" fill-opacity="0.0" d="m118.845146 214.99054l129.79529 39.149597" fill-rule="evenodd"/><path stroke="#000000" stroke-width="1.0" stroke-linejoin="round" stroke-linecap="butt" d="m118.845146 214.99052l124.050896 37.41696" fill-rule="evenodd"/><path fill="#000000" stroke="#000000" stroke-width="1.0" stroke-linecap="butt" d="m242.41905 253.98885l4.821747 -0.27087402l-3.8677826 -2.891861z" fill-rule="evenodd"/><path fill="#000000" fill-opacity="0.0" d="m118.845146 214.99054l129.79529 131.52756" fill-rule="evenodd"/><path stroke="#000000" stroke-width="1.0" stroke-linejoin="round" stroke-linecap="butt" d="m118.845146 214.99052l125.58085 127.25688" fill-rule="evenodd"/><path fill="#000000" stroke="#000000" stroke-width="1.0" stroke-linecap="butt" d="m243.25034 343.4076l4.3632355 2.0699463l-2.0119019 -4.39032z" fill-rule="evenodd"/><path fill="#000000" fill-opacity="0.0" d="m56.64042 113.66549l-36.15748 0" fill-rule="evenodd"/><path stroke="#000000" stroke-width="2.0" stroke-linejoin="round" stroke-linecap="butt" d="m49.786247 113.66549l-29.303308 0" fill-rule="evenodd"/><path fill="#000000" stroke="#000000" stroke-width="2.0" stroke-linecap="butt" d="m49.786247 113.66549l-2.2491684 2.2491684l6.179535 -2.2491684l-6.179535 -2.2491684z" fill-rule="evenodd"/><path fill="#000000" fill-opacity="0.0" d="m56.64042 214.99054l-38.582676 0" fill-rule="evenodd"/><path stroke="#000000" stroke-width="2.0" stroke-linejoin="round" stroke-linecap="butt" d="m49.786247 214.99052l-31.728504 0" fill-rule="evenodd"/><path fill="#000000" stroke="#000000" stroke-width="2.0" stroke-linecap="butt" d="m49.786247 214.99052l-2.2491684 2.249176l6.179535 -2.249176l-6.179535 -2.2491608z" fill-rule="evenodd"/><path fill="#6fa8dc" d="m56.64042 310.99054l0 0c0 -16.455475 13.925003 -29.795288 31.102364 -29.795288l0 0c8.248856 0 16.159866 3.1391602 21.992691 8.726837c5.8328247 5.5877075 9.109673 13.16626 9.109673 21.06845l0 0c0 16.455475 -13.925003 29.795258 -31.102364 29.795258l0 0c-17.17736 0 -31.102364 -13.339783 -31.102364 -29.795258z" fill-rule="evenodd"/><path stroke="#000000" stroke-width="1.0" stroke-linejoin="round" stroke-linecap="butt" d="m56.64042 310.99054l0 0c0 -16.455475 13.925003 -29.795288 31.102364 -29.795288l0 0c8.248856 0 16.159866 3.1391602 21.992691 8.726837c5.8328247 5.5877075 9.109673 13.16626 9.109673 21.06845l0 0c0 16.455475 -13.925003 29.795258 -31.102364 29.795258l0 0c-17.17736 0 -31.102364 -13.339783 -31.102364 -29.795258z" fill-rule="evenodd"/><path fill="#000000" d="m74.96884 321.65054l5.546875 -7.90625l-5.140625 -7.296875l3.234375 0l2.328125 3.5625q0.65625 1.015625 1.0625 1.703125q0.625 -0.953125 1.15625 -1.671875l2.5625 -3.59375l3.078125 0l-5.25 7.15625l5.65625 8.046875l-3.171875 0l-3.125 -4.71875l-0.828125 -1.28125l-3.984375 6.0l-3.125 0z" fill-rule="nonzero"/><path fill="#000000" d="m99.257904 330.9943l0 1.65625l-9.25 0q-0.015625 -0.625 0.203125 -1.1875q0.34375 -0.953125 1.125 -1.859375q0.78125 -0.921875 2.25 -2.125q2.28125 -1.875 3.078125 -2.96875q0.8125 -1.09375 0.8125 -2.0625q0 -1.015625 -0.734375 -1.71875q-0.734375 -0.703125 -1.90625 -0.703125q-1.234375 0 -1.984375 0.75q-0.75 0.734375 -0.75 2.046875l-1.765625 -0.171875q0.171875 -1.984375 1.359375 -3.015625q1.1875 -1.03125 3.171875 -1.03125q2.015625 0 3.1875 1.125q1.1875 1.109375 1.1875 2.75q0 0.84375 -0.34375 1.65625q-0.34375 0.8125 -1.140625 1.71875q-0.796875 0.890625 -2.65625 2.453125q-1.546875 1.296875 -1.984375 1.765625q-0.4375 0.453125 -0.71875 0.921875l6.859375 0z" fill-rule="nonzero"/><path fill="#000000" fill-opacity="0.0" d="m118.845146 310.99054l129.79529 -236.47244" fill-rule="evenodd"/><path stroke="#000000" stroke-width="1.0" stroke-linejoin="round" stroke-linecap="butt" d="m118.845146 310.99054l126.90827 -231.21268" fill-rule="evenodd"/><path fill="#000000" stroke="#000000" stroke-width="1.0" stroke-linecap="butt" d="m247.20139 80.57263l0.73561096 -4.7729874l-3.6315308 3.1834717z" fill-rule="evenodd"/><path fill="#000000" fill-opacity="0.0" d="m118.845146 310.99054l129.79529 -148.40945" fill-rule="evenodd"/><path stroke="#000000" stroke-width="1.0" stroke-linejoin="round" stroke-linecap="butt" d="m118.845146 310.99054l125.84533 -143.89304" fill-rule="evenodd"/><path fill="#000000" stroke="#000000" stroke-width="1.0" stroke-linecap="butt" d="m245.93379 168.18488l1.7442169 -4.503357l-4.23085 2.328598z" fill-rule="evenodd"/><path fill="#000000" fill-opacity="0.0" d="m118.845146 310.99054l129.79529 -56.850403" fill-rule="evenodd"/><path stroke="#000000" stroke-width="1.0" stroke-linejoin="round" stroke-linecap="butt" d="m118.845146 310.99054l124.29934 -54.443207" fill-rule="evenodd"/><path fill="#000000" stroke="#000000" stroke-width="1.0" stroke-linecap="butt" d="m243.80717 258.06033l3.494156 -3.3336792l-4.819519 0.30773926z" fill-rule="evenodd"/><path fill="#000000" fill-opacity="0.0" d="m118.845146 310.99054l129.79529 35.527557" fill-rule="evenodd"/><path stroke="#000000" stroke-width="1.0" stroke-linejoin="round" stroke-linecap="butt" d="m118.845146 310.99054l124.008156 33.943512" fill-rule="evenodd"/><path fill="#000000" stroke="#000000" stroke-width="1.0" stroke-linecap="butt" d="m242.41722 346.52716l4.8131714 -0.39501953l-3.9410248 -2.7912292z" fill-rule="evenodd"/><path fill="#000000" fill-opacity="0.0" d="m56.64042 310.99054l-38.582676 0" fill-rule="evenodd"/><path stroke="#000000" stroke-width="2.0" stroke-linejoin="round" stroke-linecap="butt" d="m49.786247 310.99054l-31.728504 0" fill-rule="evenodd"/><path fill="#000000" stroke="#000000" stroke-width="2.0" stroke-linecap="butt" d="m49.786247 310.99054l-2.2491684 2.2491455l6.179535 -2.2491455l-6.179535 -2.249176z" fill-rule="evenodd"/><path fill="#ffd966" d="m441.58896 74.523315l0 0c0 -16.455471 13.924988 -29.795273 31.102356 -29.795273l0 0c8.24884 0 16.159851 3.1391373 21.992676 8.726833c5.8328247 5.5877 9.10968 13.166248 9.10968 21.06844l0 0c0 16.455482 -13.924988 29.79528 -31.102356 29.79528l0 0c-17.177368 0 -31.102356 -13.339798 -31.102356 -29.79528z" fill-rule="evenodd"/><path stroke="#000000" stroke-width="1.0" stroke-linejoin="round" stroke-linecap="butt" d="m441.58896 74.523315l0 0c0 -16.455471 13.924988 -29.795273 31.102356 -29.795273l0 0c8.24884 0 16.159851 3.1391373 21.992676 8.726833c5.8328247 5.5877 9.10968 13.166248 9.10968 21.06844l0 0c0 16.455482 -13.924988 29.79528 -31.102356 29.79528l0 0c-17.177368 0 -31.102356 -13.339798 -31.102356 -29.79528z" fill-rule="evenodd"/><path fill="#000000" d="m478.90543 65.52207q0 -0.453125 0.28125 -0.921875q0.28125 -0.46875 0.28125 -0.53125q0 -0.4531288 -0.59375 -0.4531288q-1.828125 0 -3.15625 5.171879l-0.625 2.453125l3.203125 0l-0.3125 1.453125l-3.125 0q-0.59375 2.703125 -1.09375 5.15625q-0.5 2.4375 -1.0625 4.578125q-0.546875 2.125 -1.109375 3.90625q-0.546875 1.78125 -1.265625 3.1875q-0.703125 1.40625 -1.53125 2.375q-0.828125 0.96875 -1.90625 1.484375q-1.078125 0.53125 -2.390625 0.53125q-1.5625 0 -2.5 -0.75q-0.9375 -0.75 -0.9375 -2.0q0 -0.75 0.546875 -1.3125q0.53125 -0.546875 1.25 -0.546875q0.671875 0 1.1875 0.515625q0.515625 0.515625 0.515625 1.140625q0 0.484375 -0.265625 0.9375q-0.28125 0.453125 -0.28125 0.5625q0 0.375 0.625 0.375q0.40625 0 0.71875 -0.1875q0.3125 -0.1875 0.578125 -0.46875q0.25 -0.28125 0.546875 -1.171875q0.296875 -0.875 0.53125 -1.6875q0.25 -0.8125 0.65625 -2.640625q0.421875 -1.84375 0.78125 -3.453125q0.375 -1.625 1.046875 -4.703125q0.671875 -3.09375 1.296875 -5.828125l-2.515625 0l0.296875 -1.453125l2.53125 0q0.53125 -1.875 1.109375 -3.21875q0.59375 -1.359375 1.484375 -2.6875q0.90625 -1.328125 2.21875 -2.0156288q1.328125 -0.703125 3.03125 -0.703125q1.546875 0 2.484375 0.75q0.9375 0.7343788 0.9375 2.0156288q0 0.796875 -0.5 1.328125q-0.5 0.515625 -1.265625 0.515625q-0.6875 0 -1.203125 -0.5q-0.5 -0.5 -0.5 -1.203125z" fill-rule="nonzero"/><path fill="#ffd966" d="m441.58896 162.58267l0 0c0 -16.455475 13.924988 -29.795273 31.102356 -29.795273l0 0c8.24884 0 16.159851 3.139145 21.992676 8.726837c5.8328247 5.5876923 9.10968 13.1662445 9.10968 21.068436l0 0c0 16.455475 -13.924988 29.795288 -31.102356 29.795288l0 0c-17.177368 0 -31.102356 -13.339813 -31.102356 -29.795288z" fill-rule="evenodd"/><path stroke="#000000" stroke-width="1.0" stroke-linejoin="round" stroke-linecap="butt" d="m441.58896 162.58267l0 0c0 -16.455475 13.924988 -29.795273 31.102356 -29.795273l0 0c8.24884 0 16.159851 3.139145 21.992676 8.726837c5.8328247 5.5876923 9.10968 13.1662445 9.10968 21.068436l0 0c0 16.455475 -13.924988 29.795288 -31.102356 29.795288l0 0c-17.177368 0 -31.102356 -13.339813 -31.102356 -29.795288z" fill-rule="evenodd"/><path fill="#000000" d="m478.90543 153.58142q0 -0.453125 0.28125 -0.921875q0.28125 -0.46875 0.28125 -0.53125q0 -0.453125 -0.59375 -0.453125q-1.828125 0 -3.15625 5.171875l-0.625 2.453125l3.203125 0l-0.3125 1.453125l-3.125 0q-0.59375 2.703125 -1.09375 5.15625q-0.5 2.4375 -1.0625 4.578125q-0.546875 2.125 -1.109375 3.90625q-0.546875 1.78125 -1.265625 3.1875q-0.703125 1.40625 -1.53125 2.375q-0.828125 0.96875 -1.90625 1.484375q-1.078125 0.53125 -2.390625 0.53125q-1.5625 0 -2.5 -0.75q-0.9375 -0.75 -0.9375 -2.0q0 -0.75 0.546875 -1.3125q0.53125 -0.546875 1.25 -0.546875q0.671875 0 1.1875 0.515625q0.515625 0.515625 0.515625 1.140625q0 0.484375 -0.265625 0.9375q-0.28125 0.453125 -0.28125 0.5625q0 0.375 0.625 0.375q0.40625 0 0.71875 -0.1875q0.3125 -0.1875 0.578125 -0.46875q0.25 -0.28125 0.546875 -1.171875q0.296875 -0.875 0.53125 -1.6875q0.25 -0.8125 0.65625 -2.640625q0.421875 -1.84375 0.78125 -3.453125q0.375 -1.625 1.046875 -4.703125q0.671875 -3.09375 1.296875 -5.828125l-2.515625 0l0.296875 -1.453125l2.53125 0q0.53125 -1.875 1.109375 -3.21875q0.59375 -1.359375 1.484375 -2.6875q0.90625 -1.328125 2.21875 -2.015625q1.328125 -0.703125 3.03125 -0.703125q1.546875 0 2.484375 0.75q0.9375 0.734375 0.9375 2.015625q0 0.796875 -0.5 1.328125q-0.5 0.515625 -1.265625 0.515625q-0.6875 0 -1.203125 -0.5q-0.5 -0.5 -0.5 -1.203125z" fill-rule="nonzero"/><path fill="#93c47d" d="m633.5889 162.89255l0 0c0 -16.455475 13.925049 -29.795273 31.102356 -29.795273l0 0c8.248901 0 16.159912 3.1391296 21.992737 8.726837c5.8328247 5.5876923 9.10968 13.1662445 9.10968 21.068436l0 0c0 16.455475 -13.925049 29.795273 -31.102417 29.795273l0 0c-17.177307 0 -31.102356 -13.339798 -31.102356 -29.795273z" fill-rule="evenodd"/><path stroke="#000000" stroke-width="1.0" stroke-linejoin="round" stroke-linecap="butt" d="m633.5889 162.89255l0 0c0 -16.455475 13.925049 -29.795273 31.102356 -29.795273l0 0c8.248901 0 16.159912 3.1391296 21.992737 8.726837c5.8328247 5.5876923 9.10968 13.1662445 9.10968 21.068436l0 0c0 16.455475 -13.925049 29.795273 -31.102417 29.795273l0 0c-17.177307 0 -31.102356 -13.339798 -31.102356 -29.795273z" fill-rule="evenodd"/><path fill="#000000" d="m653.5111 179.41193l-0.28125 -2.421875q0.84375 0.234375 1.46875 0.234375q0.859375 0 1.375 -0.296875q0.515625 -0.28125 0.859375 -0.796875q0.234375 -0.390625 0.78125 -1.921875q0.078125 -0.21875 0.234375 -0.625l-5.78125 -15.234375l2.78125 0l3.171875 8.796875q0.609375 1.6875 1.09375 3.53125q0.453125 -1.78125 1.0625 -3.46875l3.25 -8.859375l2.578125 0l-5.78125 15.453125q-0.9375 2.515625 -1.453125 3.453125q-0.6875 1.28125 -1.578125 1.875q-0.875 0.59375 -2.109375 0.59375q-0.75 0 -1.671875 -0.3125zm6.109375 -25.390625l-1.609375 2.4375l-2.953125 0l3.09375 -4.015625l2.75 0l3.21875 4.015625l-2.921875 0l-1.578125 -2.4375z" fill-rule="nonzero"/><path fill="#000000" d="m667.1752 177.6463q0 -2.46875 0.5 -3.984375q0.515625 -1.515625 1.515625 -2.328125q1.015625 -0.828125 2.546875 -0.828125q1.125 0 1.96875 0.453125q0.859375 0.453125 1.40625 1.3125q0.5625 0.84375 0.875 2.078125q0.3125 1.21875 0.3125 3.296875q0 2.46875 -0.515625 3.984375q-0.5 1.515625 -1.515625 2.34375q-1.0 0.8125 -2.53125 0.8125q-2.03125 0 -3.1875 -1.453125q-1.375 -1.734375 -1.375 -5.6875zm1.765625 0q0 3.453125 0.796875 4.59375q0.8125 1.140625 2.0 1.140625q1.1875 0 1.984375 -1.140625q0.8125 -1.15625 0.8125 -4.59375q0 -3.453125 -0.8125 -4.578125q-0.796875 -1.140625 -2.0 -1.140625q-1.1875 0 -1.890625 1.0q-0.890625 1.28125 -0.890625 4.71875z" fill-rule="nonzero"/><path fill="#000000" fill-opacity="0.0" d="m311.5732 74.617805l130.01575 -0.09449005" fill-rule="evenodd"/><path stroke="#000000" stroke-width="1.0" stroke-linejoin="round" stroke-linecap="butt" d="m311.5732 74.617805l124.01575 -0.09012604" fill-rule="evenodd"/><path fill="#000000" stroke="#000000" stroke-width="1.0" stroke-linecap="butt" d="m435.59015 76.17941l4.5368958 -1.6550293l-4.5393066 -1.6484375z" fill-rule="evenodd"/><path fill="#000000" fill-opacity="0.0" d="m311.5732 74.614174l130.01575 87.9685" fill-rule="evenodd"/><path stroke="#000000" stroke-width="1.0" stroke-linejoin="round" stroke-linecap="butt" d="m311.5732 74.614174l125.046326 84.60621" fill-rule="evenodd"/><path fill="#000000" stroke="#000000" stroke-width="1.0" stroke-linecap="butt" d="m435.69394 160.58841l4.684204 1.1750488l-2.8330078 -3.9111023z" fill-rule="evenodd"/><path fill="#000000" fill-opacity="0.0" d="m311.79367 163.4682l129.79529 -88.944885" fill-rule="evenodd"/><path stroke="#000000" stroke-width="1.0" stroke-linejoin="round" stroke-linecap="butt" d="m311.79367 163.4682l124.84589 -85.55321" fill-rule="evenodd"/><path fill="#000000" stroke="#000000" stroke-width="1.0" stroke-linecap="butt" d="m437.57324 79.27751l2.809784 -3.9278107l-4.6771545 1.2027817z" fill-rule="evenodd"/><path fill="#000000" fill-opacity="0.0" d="m311.79367 163.46457l129.79529 -0.881897" fill-rule="evenodd"/><path stroke="#000000" stroke-width="1.0" stroke-linejoin="round" stroke-linecap="butt" d="m311.79367 163.46457l123.79541 -0.8411255" fill-rule="evenodd"/><path fill="#000000" stroke="#000000" stroke-width="1.0" stroke-linecap="butt" d="m435.6003 164.27513l4.526764 -1.6825256l-4.5491943 -1.6208496z" fill-rule="evenodd"/><path fill="#000000" fill-opacity="0.0" d="m503.79367 74.523315l129.79526 88.37796" fill-rule="evenodd"/><path stroke="#000000" stroke-width="1.0" stroke-linejoin="round" stroke-linecap="butt" d="m503.79367 74.52332l124.835785 85.00103" fill-rule="evenodd"/><path fill="#000000" stroke="#000000" stroke-width="1.0" stroke-linecap="butt" d="m627.6998 160.88963l4.680725 1.1888428l-2.8214722 -3.9194183z" fill-rule="evenodd"/><path fill="#000000" fill-opacity="0.0" d="m503.79367 162.58267l129.79526 0.31497192" fill-rule="evenodd"/><path stroke="#000000" stroke-width="1.0" stroke-linejoin="round" stroke-linecap="butt" d="m503.79367 162.58267l123.79526 0.30039978" fill-rule="evenodd"/><path fill="#000000" stroke="#000000" stroke-width="1.0" stroke-linecap="butt" d="m627.58496 164.5348l4.5421143 -1.6407166l-4.5341187 -1.662735z" fill-rule="evenodd"/><path fill="#000000" fill-opacity="0.0" d="m695.7937 162.89255l31.590515 0" fill-rule="evenodd"/><path stroke="#000000" stroke-width="2.0" stroke-linejoin="round" stroke-linecap="butt" d="m695.79364 162.89255l19.590576 0" fill-rule="evenodd"/><path fill="#000000" stroke="#000000" stroke-width="2.0" stroke-linecap="butt" d="m715.3842 166.19601l9.076172 -3.3034668l-9.076172 -3.3034668z" fill-rule="evenodd"/><path fill="#ffd966" d="m441.58896 254.1327l0 0c0 -16.455475 13.924988 -29.795273 31.102356 -29.795273l0 0c8.24884 0 16.159851 3.1391296 21.992676 8.726837c5.8328247 5.5876923 9.10968 13.1662445 9.10968 21.068436l0 0c0 16.45549 -13.924988 29.795273 -31.102356 29.795273l0 0c-17.177368 0 -31.102356 -13.339783 -31.102356 -29.795273z" fill-rule="evenodd"/><path stroke="#000000" stroke-width="1.0" stroke-linejoin="round" stroke-linecap="butt" d="m441.58896 254.1327l0 0c0 -16.455475 13.924988 -29.795273 31.102356 -29.795273l0 0c8.24884 0 16.159851 3.1391296 21.992676 8.726837c5.8328247 5.5876923 9.10968 13.1662445 9.10968 21.068436l0 0c0 16.45549 -13.924988 29.795273 -31.102356 29.795273l0 0c-17.177368 0 -31.102356 -13.339783 -31.102356 -29.795273z" fill-rule="evenodd"/><path fill="#000000" d="m478.90543 245.13145q0 -0.453125 0.28125 -0.921875q0.28125 -0.46875 0.28125 -0.53125q0 -0.453125 -0.59375 -0.453125q-1.828125 0 -3.15625 5.171875l-0.625 2.453125l3.203125 0l-0.3125 1.453125l-3.125 0q-0.59375 2.703125 -1.09375 5.1562653q-0.5 2.4375 -1.0625 4.578125q-0.546875 2.125 -1.109375 3.90625q-0.546875 1.78125 -1.265625 3.1875q-0.703125 1.40625 -1.53125 2.375q-0.828125 0.96875 -1.90625 1.484375q-1.078125 0.53125 -2.390625 0.53125q-1.5625 0 -2.5 -0.75q-0.9375 -0.75 -0.9375 -2.0q0 -0.75 0.546875 -1.3125q0.53125 -0.546875 1.25 -0.546875q0.671875 0 1.1875 0.515625q0.515625 0.515625 0.515625 1.140625q0 0.484375 -0.265625 0.9375q-0.28125 0.453125 -0.28125 0.5625q0 0.375 0.625 0.375q0.40625 0 0.71875 -0.1875q0.3125 -0.1875 0.578125 -0.46875q0.25 -0.28125 0.546875 -1.171875q0.296875 -0.875 0.53125 -1.6875q0.25 -0.8125 0.65625 -2.640625q0.421875 -1.84375 0.78125 -3.453125q0.375 -1.625 1.046875 -4.703125q0.671875 -3.0937653 1.296875 -5.8281403l-2.515625 0l0.296875 -1.453125l2.53125 0q0.53125 -1.875 1.109375 -3.21875q0.59375 -1.359375 1.484375 -2.6875q0.90625 -1.328125 2.21875 -2.015625q1.328125 -0.703125 3.03125 -0.703125q1.546875 0 2.484375 0.75q0.9375 0.734375 0.9375 2.015625q0 0.796875 -0.5 1.328125q-0.5 0.515625 -1.265625 0.515625q-0.6875 0 -1.203125 -0.5q-0.5 -0.5 -0.5 -1.203125z" fill-rule="nonzero"/><path fill="#ffd966" d="m441.58896 346.52332l0 0c0 -16.455475 13.924988 -29.795258 31.102356 -29.795258l0 0c8.24884 0 16.159851 3.1391296 21.992676 8.726807c5.8328247 5.5877075 9.10968 13.16626 9.10968 21.06845l0 0c0 16.455475 -13.924988 29.795288 -31.102356 29.795288l0 0c-17.177368 0 -31.102356 -13.339813 -31.102356 -29.795288z" fill-rule="evenodd"/><path stroke="#000000" stroke-width="1.0" stroke-linejoin="round" stroke-linecap="butt" d="m441.58896 346.52332l0 0c0 -16.455475 13.924988 -29.795258 31.102356 -29.795258l0 0c8.24884 0 16.159851 3.1391296 21.992676 8.726807c5.8328247 5.5877075 9.10968 13.16626 9.10968 21.06845l0 0c0 16.455475 -13.924988 29.795288 -31.102356 29.795288l0 0c-17.177368 0 -31.102356 -13.339813 -31.102356 -29.795288z" fill-rule="evenodd"/><path fill="#000000" d="m478.90543 337.52206q0 -0.453125 0.28125 -0.921875q0.28125 -0.46875 0.28125 -0.53125q0 -0.453125 -0.59375 -0.453125q-1.828125 0 -3.15625 5.171875l-0.625 2.453125l3.203125 0l-0.3125 1.453125l-3.125 0q-0.59375 2.703125 -1.09375 5.15625q-0.5 2.4375 -1.0625 4.578125q-0.546875 2.125 -1.109375 3.90625q-0.546875 1.78125 -1.265625 3.1875q-0.703125 1.40625 -1.53125 2.375q-0.828125 0.96875 -1.90625 1.484375q-1.078125 0.53125 -2.390625 0.53125q-1.5625 0 -2.5 -0.75q-0.9375 -0.75 -0.9375 -2.0q0 -0.75 0.546875 -1.3125q0.53125 -0.546875 1.25 -0.546875q0.671875 0 1.1875 0.515625q0.515625 0.515625 0.515625 1.140625q0 0.484375 -0.265625 0.9375q-0.28125 0.453125 -0.28125 0.5625q0 0.375 0.625 0.375q0.40625 0 0.71875 -0.1875q0.3125 -0.1875 0.578125 -0.46875q0.25 -0.28125 0.546875 -1.171875q0.296875 -0.875 0.53125 -1.6875q0.25 -0.8125 0.65625 -2.640625q0.421875 -1.84375 0.78125 -3.453125q0.375 -1.625 1.046875 -4.703125q0.671875 -3.09375 1.296875 -5.828125l-2.515625 0l0.296875 -1.453125l2.53125 0q0.53125 -1.875 1.109375 -3.21875q0.59375 -1.359375 1.484375 -2.6875q0.90625 -1.328125 2.21875 -2.015625q1.328125 -0.703125 3.03125 -0.703125q1.546875 0 2.484375 0.75q0.9375 0.734375 0.9375 2.015625q0 0.796875 -0.5 1.328125q-0.5 0.515625 -1.265625 0.515625q-0.6875 0 -1.203125 -0.5q-0.5 -0.5 -0.5 -1.203125z" fill-rule="nonzero"/><path fill="#93c47d" d="m633.5889 254.10303l0 0c0 -16.455475 13.925049 -29.795273 31.102356 -29.795273l0 0c8.248901 0 16.159912 3.1391296 21.992737 8.726837c5.8328247 5.5876923 9.10968 13.1662445 9.10968 21.068436l0 0c0 16.455475 -13.925049 29.795288 -31.102417 29.795288l0 0c-17.177307 0 -31.102356 -13.339813 -31.102356 -29.795288z" fill-rule="evenodd"/><path stroke="#000000" stroke-width="1.0" stroke-linejoin="round" stroke-linecap="butt" d="m633.5889 254.10303l0 0c0 -16.455475 13.925049 -29.795273 31.102356 -29.795273l0 0c8.248901 0 16.159912 3.1391296 21.992737 8.726837c5.8328247 5.5876923 9.10968 13.1662445 9.10968 21.068436l0 0c0 16.455475 -13.925049 29.795288 -31.102417 29.795288l0 0c-17.177307 0 -31.102356 -13.339813 -31.102356 -29.795288z" fill-rule="evenodd"/><path fill="#000000" d="m653.5111 270.6224l-0.28125 -2.421875q0.84375 0.234375 1.46875 0.234375q0.859375 0 1.375 -0.296875q0.515625 -0.28125 0.859375 -0.796875q0.234375 -0.390625 0.78125 -1.921875q0.078125 -0.21875 0.234375 -0.625l-5.78125 -15.234375l2.78125 0l3.171875 8.796875q0.609375 1.6875 1.09375 3.53125q0.453125 -1.78125 1.0625 -3.46875l3.25 -8.859375l2.578125 0l-5.78125 15.453125q-0.9375 2.515625 -1.453125 3.453125q-0.6875 1.28125 -1.578125 1.875q-0.875 0.59375 -2.109375 0.59375q-0.75 0 -1.671875 -0.3125zm6.109375 -25.390625l-1.609375 2.4375l-2.953125 0l3.09375 -4.015625l2.75 0l3.21875 4.015625l-2.921875 0l-1.578125 -2.4375z" fill-rule="nonzero"/><path fill="#000000" d="m673.6439 275.76303l-1.71875 0l0 -10.953125q-0.625 0.59375 -1.625 1.1875q-1.0 0.59375 -1.8125 0.890625l0 -1.65625q1.4375 -0.6875 2.515625 -1.640625q1.09375 -0.96875 1.53125 -1.875l1.109375 0l0 14.046875z" fill-rule="nonzero"/><path fill="#000000" fill-opacity="0.0" d="m503.79367 254.1327l129.79526 -0.03149414" fill-rule="evenodd"/><path stroke="#000000" stroke-width="1.0" stroke-linejoin="round" stroke-linecap="butt" d="m503.79367 254.1327l123.79526 -0.030029297" fill-rule="evenodd"/><path fill="#000000" stroke="#000000" stroke-width="1.0" stroke-linecap="butt" d="m627.58936 255.75441l4.5377197 -1.6528473l-4.538513 -1.6506195z" fill-rule="evenodd"/><path fill="#000000" fill-opacity="0.0" d="m503.79367 346.52332l129.79526 -92.40944" fill-rule="evenodd"/><path stroke="#000000" stroke-width="1.0" stroke-linejoin="round" stroke-linecap="butt" d="m503.79367 346.52335l124.9075 -88.929565" fill-rule="evenodd"/><path fill="#000000" stroke="#000000" stroke-width="1.0" stroke-linecap="butt" d="m629.6592 258.93933l2.7388916 -3.9775848l-4.654846 1.2864838z" fill-rule="evenodd"/><path fill="#000000" fill-opacity="0.0" d="m695.7937 254.10303l31.590515 0" fill-rule="evenodd"/><path stroke="#000000" stroke-width="2.0" stroke-linejoin="round" stroke-linecap="butt" d="m695.79364 254.10301l19.590576 0" fill-rule="evenodd"/><path fill="#000000" stroke="#000000" stroke-width="2.0" stroke-linecap="butt" d="m715.3842 257.4065l9.076172 -3.303482l-9.076172 -3.3034515z" fill-rule="evenodd"/><path fill="#000000" fill-opacity="0.0" d="m311.5732 74.60515l130.01575 179.52756" fill-rule="evenodd"/><path stroke="#000000" stroke-width="1.0" stroke-linejoin="round" stroke-linecap="butt" d="m311.5732 74.60515l126.49646 174.66809" fill-rule="evenodd"/><path fill="#000000" stroke="#000000" stroke-width="1.0" stroke-linecap="butt" d="m436.7319 250.24205l3.9995728 2.7066498l-1.3240662 -4.6443024z" fill-rule="evenodd"/><path fill="#000000" fill-opacity="0.0" d="m311.5732 74.617805l130.01575 271.90552" fill-rule="evenodd"/><path stroke="#000000" stroke-width="1.0" stroke-linejoin="round" stroke-linecap="butt" d="m311.5732 74.617805l127.42746 266.49252" fill-rule="evenodd"/><path fill="#000000" stroke="#000000" stroke-width="1.0" stroke-linecap="butt" d="m437.5105 341.82288l3.447815 3.3815918l-0.4675293 -4.806671z" fill-rule="evenodd"/><path fill="#000000" fill-opacity="0.0" d="m311.79367 163.48705l129.79529 90.64566" fill-rule="evenodd"/><path stroke="#000000" stroke-width="1.0" stroke-linejoin="round" stroke-linecap="butt" d="m311.79367 163.48705l124.87616 87.21025" fill-rule="evenodd"/><path fill="#000000" stroke="#000000" stroke-width="1.0" stroke-linecap="butt" d="m435.7241 252.0515l4.666321 1.2441711l-2.7748718 -3.9525452z" fill-rule="evenodd"/><path fill="#000000" fill-opacity="0.0" d="m311.79367 163.4682l129.79529 183.05511" fill-rule="evenodd"/><path stroke="#000000" stroke-width="1.0" stroke-linejoin="round" stroke-linecap="butt" d="m311.79367 163.4682l126.32486 178.16064" fill-rule="evenodd"/><path fill="#000000" stroke="#000000" stroke-width="1.0" stroke-linecap="butt" d="m436.77112 342.58423l3.9722595 2.7465515l-1.2774658 -4.657318z" fill-rule="evenodd"/><path fill="#000000" fill-opacity="0.0" d="m503.79367 346.52332l129.79526 -183.62204" fill-rule="evenodd"/><path stroke="#000000" stroke-width="1.0" stroke-linejoin="round" stroke-linecap="butt" d="m503.79367 346.52335l126.332 -178.72253" fill-rule="evenodd"/><path fill="#000000" stroke="#000000" stroke-width="1.0" stroke-linecap="butt" d="m631.4744 168.75423l1.2706909 -4.6591797l-3.9682617 2.752365z" fill-rule="evenodd"/><path fill="#000000" fill-opacity="0.0" d="m503.79367 254.1327l129.79526 -91.244095" fill-rule="evenodd"/><path stroke="#000000" stroke-width="1.0" stroke-linejoin="round" stroke-linecap="butt" d="m503.79367 254.1327l124.88675 -87.79349" fill-rule="evenodd"/><path fill="#000000" stroke="#000000" stroke-width="1.0" stroke-linecap="butt" d="m629.6304 167.69048l2.7626343 -3.9611206l-4.6624756 1.258606z" fill-rule="evenodd"/><path fill="#000000" fill-opacity="0.0" d="m503.79367 162.58267l129.79526 91.52756" fill-rule="evenodd"/><path stroke="#000000" stroke-width="1.0" stroke-linejoin="round" stroke-linecap="butt" d="m503.79367 162.58267l124.891815 88.06981" fill-rule="evenodd"/><path fill="#000000" stroke="#000000" stroke-width="1.0" stroke-linecap="butt" d="m627.73364 252.00233l4.6605835 1.2654114l-2.756836 -3.9651337z" fill-rule="evenodd"/><path fill="#000000" fill-opacity="0.0" d="m503.79367 74.523315l129.79526 179.59056" fill-rule="evenodd"/><path stroke="#000000" stroke-width="1.0" stroke-linejoin="round" stroke-linecap="butt" d="m503.79367 74.52332l126.28073 174.72763" fill-rule="evenodd"/><path fill="#000000" stroke="#000000" stroke-width="1.0" stroke-linecap="butt" d="m628.73566 250.21848l3.9969482 2.7105408l-1.319519 -4.645569z" fill-rule="evenodd"/><path fill="#000000" fill-opacity="0.0" d="m311.79367 254.99576l129.79529 -180.47244" fill-rule="evenodd"/><path stroke="#000000" stroke-width="1.0" stroke-linejoin="round" stroke-linecap="butt" d="m311.79367 254.99576l126.29205 -175.60138" fill-rule="evenodd"/><path fill="#000000" stroke="#000000" stroke-width="1.0" stroke-linecap="butt" d="m439.42664 80.35879l1.3087463 -4.648636l-3.990631 2.719818z" fill-rule="evenodd"/><path fill="#000000" fill-opacity="0.0" d="m311.79367 254.99213l129.79529 -92.409454" fill-rule="evenodd"/><path stroke="#000000" stroke-width="1.0" stroke-linejoin="round" stroke-linecap="butt" d="m311.79367 254.99213l124.90753 -88.92955" fill-rule="evenodd"/><path fill="#000000" stroke="#000000" stroke-width="1.0" stroke-linecap="butt" d="m437.65918 167.40813l2.738861 -3.9775696l-4.654846 1.2864838z" fill-rule="evenodd"/><path fill="#000000" fill-opacity="0.0" d="m311.79367 254.98311l129.79529 -0.85040283" fill-rule="evenodd"/><path stroke="#000000" stroke-width="1.0" stroke-linejoin="round" stroke-linecap="butt" d="m311.79367 254.98311l123.79541 -0.8110962" fill-rule="evenodd"/><path fill="#000000" stroke="#000000" stroke-width="1.0" stroke-linecap="butt" d="m435.5999 255.82372l4.5271606 -1.681427l-4.548828 -1.6219635z" fill-rule="evenodd"/><path fill="#000000" fill-opacity="0.0" d="m311.79367 254.99576l129.79529 91.52756" fill-rule="evenodd"/><path stroke="#000000" stroke-width="1.0" stroke-linejoin="round" stroke-linecap="butt" d="m311.79367 254.99576l124.891815 88.069824" fill-rule="evenodd"/><path fill="#000000" stroke="#000000" stroke-width="1.0" stroke-linecap="butt" d="m435.7336 344.41544l4.660614 1.2654114l-2.756836 -3.965149z" fill-rule="evenodd"/><path fill="#000000" fill-opacity="0.0" d="m311.79367 346.49182l129.79529 -271.9685" fill-rule="evenodd"/><path stroke="#000000" stroke-width="1.0" stroke-linejoin="round" stroke-linecap="butt" d="m311.79367 346.49185l127.21106 -266.5536" fill-rule="evenodd"/><path fill="#000000" stroke="#000000" stroke-width="1.0" stroke-linecap="butt" d="m440.49536 80.64968l0.46392822 -4.807007l-3.4452515 3.3841782z" fill-rule="evenodd"/><path fill="#000000" fill-opacity="0.0" d="m311.79367 346.51968l129.79529 -183.93701" fill-rule="evenodd"/><path stroke="#000000" stroke-width="1.0" stroke-linejoin="round" stroke-linecap="butt" d="m311.79367 346.51968l126.33594 -179.03467" fill-rule="evenodd"/><path fill="#000000" stroke="#000000" stroke-width="1.0" stroke-linecap="butt" d="m439.47916 168.43733l1.2669373 -4.660202l-3.966034 2.7555695z" fill-rule="evenodd"/><path fill="#000000" fill-opacity="0.0" d="m311.79367 346.51065l129.79529 -92.377945" fill-rule="evenodd"/><path stroke="#000000" stroke-width="1.0" stroke-linejoin="round" stroke-linecap="butt" d="m311.79367 346.51065l124.90695 -88.8988" fill-rule="evenodd"/><path fill="#000000" stroke="#000000" stroke-width="1.0" stroke-linecap="butt" d="m437.6584 258.95752l2.7395325 -3.977127l-4.65506 1.2857513z" fill-rule="evenodd"/><path fill="#000000" fill-opacity="0.0" d="m311.79367 346.49182l129.79529 0.03149414" fill-rule="evenodd"/><path stroke="#000000" stroke-width="1.0" stroke-linejoin="round" stroke-linecap="butt" d="m311.79367 346.49185l123.79529 0.02999878" fill-rule="evenodd"/><path fill="#000000" stroke="#000000" stroke-width="1.0" stroke-linecap="butt" d="m435.58856 348.1736l4.5384827 -1.6506348l-4.537689 -1.652832z" fill-rule="evenodd"/><path fill="#000000" fill-opacity="0.0" d="m39.71391 393.18372l143.71654 0l0 41.700806l-143.71654 0z" fill-rule="evenodd"/><path fill="#000000" d="m50.448284 420.10373l0 -13.359375l1.765625 0l0 13.359375l-1.765625 0zm4.683304 0l0 -9.671875l1.46875 0l0 1.375q1.0625 -1.59375 3.078125 -1.59375q0.875 0 1.609375 0.3125q0.734375 0.3125 1.09375 0.828125q0.375 0.5 0.515625 1.203125q0.09375 0.453125 0.09375 1.59375l0 5.953125l-1.640625 0l0 -5.890625q0 -1.0 -0.203125 -1.484375q-0.1875 -0.5 -0.671875 -0.796875q-0.484375 -0.296875 -1.140625 -0.296875q-1.046875 0 -1.8125 0.671875q-0.75 0.65625 -0.75 2.515625l0 5.28125l-1.640625 0zm10.375721 3.703125l0 -13.375l1.484375 0l0 1.25q0.53125 -0.734375 1.1875 -1.09375q0.671875 -0.375 1.625 -0.375q1.234375 0 2.171875 0.640625q0.953125 0.625 1.4375 1.796875q0.484375 1.15625 0.484375 2.546875q0 1.484375 -0.53125 2.671875q-0.53125 1.1875 -1.546875 1.828125q-1.015625 0.625 -2.140625 0.625q-0.8125 0 -1.46875 -0.34375q-0.65625 -0.34375 -1.0625 -0.875l0 4.703125l-1.640625 0zm1.484375 -8.484375q0 1.859375 0.75 2.765625q0.765625 0.890625 1.828125 0.890625q1.09375 0 1.875 -0.921875q0.78125 -0.9375 0.78125 -2.875q0 -1.84375 -0.765625 -2.765625q-0.75 -0.921875 -1.8125 -0.921875q-1.046875 0 -1.859375 0.984375q-0.796875 0.96875 -0.796875 2.84375zm15.219467 4.78125l0 -1.421875q-1.125 1.640625 -3.0625 1.640625q-0.859375 0 -1.609375 -0.328125q-0.734375 -0.328125 -1.09375 -0.828125q-0.359375 -0.5 -0.5 -1.21875q-0.109375 -0.46875 -0.109375 -1.53125l0 -5.984375l1.640625 0l0 5.359375q0 1.28125 0.109375 1.734375q0.15625 0.640625 0.65625 1.015625q0.5 0.375 1.234375 0.375q0.734375 0 1.375 -0.375q0.65625 -0.390625 0.921875 -1.03125q0.265625 -0.65625 0.265625 -1.890625l0 -5.1875l1.640625 0l0 9.671875l-1.46875 0zm7.625717 -1.46875l0.234375 1.453125q-0.6875 0.140625 -1.234375 0.140625q-0.890625 0 -1.390625 -0.28125q-0.484375 -0.28125 -0.6875 -0.734375q-0.203125 -0.46875 -0.203125 -1.9375l0 -5.578125l-1.203125 0l0 -1.265625l1.203125 0l0 -2.390625l1.625 -0.984375l0 3.375l1.65625 0l0 1.265625l-1.65625 0l0 5.671875q0 0.6875 0.078125 0.890625q0.09375 0.203125 0.28125 0.328125q0.203125 0.109375 0.578125 0.109375q0.265625 0 0.71875 -0.0625zm6.9134827 1.46875l0 -13.359375l1.78125 0l0 11.78125l6.5625 0l0 1.578125l-8.34375 0zm16.563217 -1.1875q-0.921875 0.765625 -1.765625 1.09375q-0.828125 0.3125 -1.796875 0.3125q-1.59375 0 -2.453125 -0.78125q-0.859375 -0.78125 -0.859375 -1.984375q0 -0.71875 0.328125 -1.296875q0.328125 -0.59375 0.84375 -0.9375q0.53125 -0.359375 1.1875 -0.546875q0.46875 -0.125 1.453125 -0.25q1.984375 -0.234375 2.921875 -0.5625q0.015625 -0.34375 0.015625 -0.421875q0 -1.0 -0.46875 -1.421875q-0.625 -0.546875 -1.875 -0.546875q-1.15625 0 -1.703125 0.40625q-0.546875 0.40625 -0.8125 1.421875l-1.609375 -0.21875q0.21875 -1.015625 0.71875 -1.640625q0.5 -0.640625 1.453125 -0.984375q0.953125 -0.34375 2.1875 -0.34375q1.25 0 2.015625 0.296875q0.78125 0.28125 1.140625 0.734375q0.375 0.4375 0.515625 1.109375q0.078125 0.421875 0.078125 1.515625l0 2.1875q0 2.28125 0.109375 2.890625q0.109375 0.59375 0.40625 1.15625l-1.703125 0q-0.265625 -0.515625 -0.328125 -1.1875zm-0.140625 -3.671875q-0.890625 0.375 -2.671875 0.625q-1.015625 0.140625 -1.4375 0.328125q-0.421875 0.1875 -0.65625 0.53125q-0.21875 0.34375 -0.21875 0.78125q0 0.65625 0.5 1.09375q0.5 0.4375 1.453125 0.4375q0.9375 0 1.671875 -0.40625q0.75 -0.421875 1.09375 -1.140625q0.265625 -0.5625 0.265625 -1.640625l0 -0.609375zm4.125717 8.578125l-0.1875 -1.53125q0.546875 0.140625 0.9375 0.140625q0.546875 0 0.875 -0.1875q0.328125 -0.171875 0.546875 -0.5q0.15625 -0.25 0.5 -1.21875q0.046875 -0.140625 0.140625 -0.40625l-3.671875 -9.6875l1.765625 0l2.015625 5.59375q0.390625 1.078125 0.703125 2.25q0.28125 -1.125 0.671875 -2.203125l2.078125 -5.640625l1.640625 0l-3.6875 9.828125q-0.59375 1.609375 -0.921875 2.203125q-0.4375 0.8125 -1.0 1.1875q-0.5625 0.375 -1.34375 0.375q-0.484375 0 -1.0625 -0.203125zm16.03125 -6.828125l1.6875 0.203125q-0.40625 1.484375 -1.484375 2.3125q-1.078125 0.8125 -2.765625 0.8125q-2.125 0 -3.375 -1.296875q-1.234375 -1.3125 -1.234375 -3.671875q0 -2.453125 1.25 -3.796875q1.265625 -1.34375 3.265625 -1.34375q1.9375 0 3.15625 1.328125q1.234375 1.3125 1.234375 3.703125q0 0.15625 0 0.4375l-7.21875 0q0.09375 1.59375 0.90625 2.453125q0.8125 0.84375 2.015625 0.84375q0.90625 0 1.546875 -0.46875q0.640625 -0.484375 1.015625 -1.515625zm-5.390625 -2.65625l5.40625 0q-0.109375 -1.21875 -0.625 -1.828125q-0.78125 -0.953125 -2.03125 -0.953125q-1.125 0 -1.90625 0.765625q-0.765625 0.75 -0.84375 2.015625zm9.125717 5.765625l0 -9.671875l1.46875 0l0 1.46875q0.5625 -1.03125 1.03125 -1.359375q0.484375 -0.328125 1.0625 -0.328125q0.828125 0 1.6875 0.53125l-0.5625 1.515625q-0.609375 -0.359375 -1.203125 -0.359375q-0.546875 0 -0.96875 0.328125q-0.421875 0.328125 -0.609375 0.890625q-0.28125 0.875 -0.28125 1.921875l0 5.0625l-1.625 0zm14.536606 3.921875q-1.359375 -1.703125 -2.296875 -4.0q-0.9375 -2.296875 -0.9375 -4.765625q0 -2.15625 0.703125 -4.140625q0.828125 -2.3125 2.53125 -4.59375l1.171875 0q-1.09375 1.890625 -1.453125 2.703125q-0.546875 1.25 -0.875 2.625q-0.390625 1.703125 -0.390625 3.421875q0 4.375 2.71875 8.75l-1.171875 0zm1.993927 -3.921875l3.53125 -5.03125l-3.265625 -4.640625l2.046875 0l1.484375 2.265625q0.421875 0.640625 0.671875 1.078125q0.40625 -0.59375 0.734375 -1.0625l1.640625 -2.28125l1.953125 0l-3.34375 4.546875l3.59375 5.125l-2.015625 0l-1.984375 -3.0l-0.515625 -0.8125l-2.546875 3.8125l-1.984375 0zm11.5 3.921875l-1.1875 0q2.734375 -4.375 2.734375 -8.75q0 -1.71875 -0.390625 -3.390625q-0.3125 -1.375 -0.875 -2.625q-0.359375 -0.828125 -1.46875 -2.734375l1.1875 0q1.703125 2.28125 2.53125 4.59375q0.6875 1.984375 0.6875 4.140625q0 2.46875 -0.9375 4.765625q-0.9375 2.296875 -2.28125 4.0z" fill-rule="nonzero"/><path fill="#000000" fill-opacity="0.0" d="m194.98425 393.18372l180.47244 0l0 41.700806l-180.47244 0z" fill-rule="evenodd"/><path fill="#000000" d="m205.48425 420.10373l0 -13.359375l1.765625 0l0 5.484375l6.9375 0l0 -5.484375l1.765625 0l0 13.359375l-1.765625 0l0 -6.296875l-6.9375 0l0 6.296875l-1.765625 0zm13.207321 -11.46875l0 -1.890625l1.640625 0l0 1.890625l-1.640625 0zm0 11.46875l0 -9.671875l1.640625 0l0 9.671875l-1.640625 0zm10.410446 0l0 -1.21875q-0.90625 1.4375 -2.703125 1.4375q-1.15625 0 -2.125 -0.640625q-0.96875 -0.640625 -1.5 -1.78125q-0.53125 -1.140625 -0.53125 -2.625q0 -1.453125 0.484375 -2.625q0.484375 -1.1875 1.4375 -1.8125q0.96875 -0.625 2.171875 -0.625q0.875 0 1.546875 0.375q0.6875 0.359375 1.109375 0.953125l0 -4.796875l1.640625 0l0 13.359375l-1.53125 0zm-5.171875 -4.828125q0 1.859375 0.78125 2.78125q0.78125 0.921875 1.84375 0.921875q1.078125 0 1.828125 -0.875q0.75 -0.890625 0.75 -2.6875q0 -1.984375 -0.765625 -2.90625q-0.765625 -0.9375 -1.890625 -0.9375q-1.078125 0 -1.8125 0.890625q-0.734375 0.890625 -0.734375 2.8125zm15.547592 4.828125l0 -1.21875q-0.90625 1.4375 -2.703125 1.4375q-1.15625 0 -2.125 -0.640625q-0.96875 -0.640625 -1.5 -1.78125q-0.53125 -1.140625 -0.53125 -2.625q0 -1.453125 0.484375 -2.625q0.484375 -1.1875 1.4375 -1.8125q0.96875 -0.625 2.171875 -0.625q0.875 0 1.546875 0.375q0.6875 0.359375 1.109375 0.953125l0 -4.796875l1.640625 0l0 13.359375l-1.53125 0zm-5.171875 -4.828125q0 1.859375 0.78125 2.78125q0.78125 0.921875 1.84375 0.921875q1.078125 0 1.828125 -0.875q0.75 -0.890625 0.75 -2.6875q0 -1.984375 -0.765625 -2.90625q-0.765625 -0.9375 -1.890625 -0.9375q-1.078125 0 -1.8125 0.890625q-0.734375 0.890625 -0.734375 2.8125zm15.906967 1.71875l1.6875 0.203125q-0.40625 1.484375 -1.484375 2.3125q-1.078125 0.8125 -2.765625 0.8125q-2.125 0 -3.375 -1.296875q-1.234375 -1.3125 -1.234375 -3.671875q0 -2.453125 1.25 -3.796875q1.265625 -1.34375 3.265625 -1.34375q1.9375 0 3.15625 1.328125q1.234375 1.3125 1.234375 3.703125q0 0.15625 0 0.4375l-7.21875 0q0.09375 1.59375 0.90625 2.453125q0.8125 0.84375 2.015625 0.84375q0.90625 0 1.546875 -0.46875q0.640625 -0.484375 1.015625 -1.515625zm-5.390625 -2.65625l5.40625 0q-0.109375 -1.21875 -0.625 -1.828125q-0.78125 -0.953125 -2.03125 -0.953125q-1.125 0 -1.90625 0.765625q-0.765625 0.75 -0.84375 2.015625zm9.141342 5.765625l0 -9.671875l1.46875 0l0 1.375q1.0624847 -1.59375 3.0781097 -1.59375q0.875 0 1.609375 0.3125q0.734375 0.3125 1.09375 0.828125q0.375 0.5 0.515625 1.203125q0.09375 0.453125 0.09375 1.59375l0 5.953125l-1.640625 0l0 -5.890625q0 -1.0 -0.203125 -1.484375q-0.1875 -0.5 -0.671875 -0.796875q-0.484375 -0.296875 -1.140625 -0.296875q-1.046875 0 -1.8125 0.671875q-0.74998474 0.65625 -0.74998474 2.515625l0 5.28125l-1.640625 0zm15.684006 0l0 -13.359375l1.78125 0l0 11.78125l6.5625 0l0 1.578125l-8.34375 0zm16.563232 -1.1875q-0.921875 0.765625 -1.765625 1.09375q-0.828125 0.3125 -1.796875 0.3125q-1.59375 0 -2.453125 -0.78125q-0.859375 -0.78125 -0.859375 -1.984375q0 -0.71875 0.328125 -1.296875q0.328125 -0.59375 0.84375 -0.9375q0.53125 -0.359375 1.1875 -0.546875q0.46875 -0.125 1.453125 -0.25q1.984375 -0.234375 2.921875 -0.5625q0.015625 -0.34375 0.015625 -0.421875q0 -1.0 -0.46875 -1.421875q-0.625 -0.546875 -1.875 -0.546875q-1.15625 0 -1.703125 0.40625q-0.546875 0.40625 -0.8125 1.421875l-1.609375 -0.21875q0.21875 -1.015625 0.71875 -1.640625q0.5 -0.640625 1.453125 -0.984375q0.953125 -0.34375 2.1875 -0.34375q1.25 0 2.015625 0.296875q0.78125 0.28125 1.140625 0.734375q0.375 0.4375 0.515625 1.109375q0.078125 0.421875 0.078125 1.515625l0 2.1875q0 2.28125 0.109375 2.890625q0.109375 0.59375 0.40625 1.15625l-1.703125 0q-0.265625 -0.515625 -0.328125 -1.1875zm-0.140625 -3.671875q-0.890625 0.375 -2.671875 0.625q-1.015625 0.140625 -1.4375 0.328125q-0.421875 0.1875 -0.65625 0.53125q-0.21875 0.34375 -0.21875 0.78125q0 0.65625 0.5 1.09375q0.5 0.4375 1.453125 0.4375q0.9375 0 1.671875 -0.40625q0.75 -0.421875 1.09375 -1.140625q0.265625 -0.5625 0.265625 -1.640625l0 -0.609375zm4.125702 8.578125l-0.1875 -1.53125q0.546875 0.140625 0.9375 0.140625q0.546875 0 0.875 -0.1875q0.328125 -0.171875 0.546875 -0.5q0.15625 -0.25 0.5 -1.21875q0.046875 -0.140625 0.140625 -0.40625l-3.671875 -9.6875l1.765625 0l2.015625 5.59375q0.390625 1.078125 0.703125 2.25q0.28125 -1.125 0.671875 -2.203125l2.078125 -5.640625l1.640625 0l-3.6875 9.828125q-0.59375 1.609375 -0.921875 2.203125q-0.4375 0.8125 -1.0 1.1875q-0.5625 0.375 -1.34375 0.375q-0.484375 0 -1.0625 -0.203125zm16.03125 -6.828125l1.6875 0.203125q-0.40625 1.484375 -1.484375 2.3125q-1.078125 0.8125 -2.765625 0.8125q-2.125 0 -3.375 -1.296875q-1.234375 -1.3125 -1.234375 -3.671875q0 -2.453125 1.25 -3.796875q1.265625 -1.34375 3.265625 -1.34375q1.9375 0 3.15625 1.328125q1.234375 1.3125 1.234375 3.703125q0 0.15625 0 0.4375l-7.21875 0q0.09375 1.59375 0.90625 2.453125q0.8125 0.84375 2.015625 0.84375q0.90625 0 1.546875 -0.46875q0.640625 -0.484375 1.015625 -1.515625zm-5.390625 -2.65625l5.40625 0q-0.109375 -1.21875 -0.625 -1.828125q-0.78125 -0.953125 -2.03125 -0.953125q-1.125 0 -1.90625 0.765625q-0.765625 0.75 -0.84375 2.015625zm9.125732 5.765625l0 -9.671875l1.46875 0l0 1.46875q0.5625 -1.03125 1.03125 -1.359375q0.484375 -0.328125 1.0625 -0.328125q0.828125 0 1.6875 0.53125l-0.5625 1.515625q-0.609375 -0.359375 -1.203125 -0.359375q-0.546875 0 -0.96875 0.328125q-0.421875 0.328125 -0.609375 0.890625q-0.28125 0.875 -0.28125 1.921875l0 5.0625l-1.625 0zm17.13034 0l-1.640625 0l0 -10.453125q-0.59375 0.5625 -1.5625 1.140625q-0.953125 0.5625 -1.71875 0.84375l0 -1.59375q1.375 -0.640625 2.40625 -1.5625q1.03125 -0.921875 1.453125 -1.78125l1.0625 0l0 13.40625zm12.965271 3.921875q-1.359375 -1.703125 -2.296875 -4.0q-0.9375 -2.296875 -0.9375 -4.765625q0 -2.15625 0.703125 -4.140625q0.828125 -2.3125 2.53125 -4.59375l1.171875 0q-1.09375 1.890625 -1.453125 2.703125q-0.546875 1.25 -0.875 2.625q-0.390625 1.703125 -0.390625 3.421875q0 4.375 2.71875 8.75l-1.171875 0zm3.087677 -3.921875l0 -13.359375l1.640625 0l0 4.796875q1.140625 -1.328125 2.890625 -1.328125q1.078125 0 1.859375 0.421875q0.796875 0.421875 1.140625 1.171875q0.34375 0.75 0.34375 2.171875l0 6.125l-1.640625 0l0 -6.125q0 -1.234375 -0.53125 -1.796875q-0.53125 -0.5625 -1.515625 -0.5625q-0.71875 0 -1.359375 0.390625q-0.640625 0.375 -0.921875 1.015625q-0.265625 0.640625 -0.265625 1.78125l0 5.296875l-1.640625 0z" fill-rule="nonzero"/><path fill="#000000" d="m356.9275 413.10373l-1.09375 0l0 -6.96875q-0.40625 0.375 -1.046875 0.75q-0.640625 0.375 -1.140625 0.578125l0 -1.0625q0.90625 -0.4375 1.59375 -1.046875q0.6875 -0.609375 0.96875 -1.1875l0.71875 0l0 8.9375z" fill-rule="nonzero"/><path fill="#000000" d="m361.5164 424.0256l-1.1875 0q2.734375 -4.375 2.734375 -8.75q0 -1.71875 -0.390625 -3.390625q-0.3125 -1.375 -0.875 -2.625q-0.359375 -0.828125 -1.46875 -2.734375l1.1875 0q1.703125 2.28125 2.53125 4.59375q0.6875 1.984375 0.6875 4.140625q0 2.46875 -0.9375 4.765625q-0.9375 2.296875 -2.28125 4.0z" fill-rule="nonzero"/><path fill="#000000" fill-opacity="0.0" d="m594.98425 393.18372l162.07874 0l0 41.700806l-162.07874 0z" fill-rule="evenodd"/><path fill="#000000" d="m604.8905 413.60373q0 -3.328125 1.78125 -5.203125q1.78125 -1.890625 4.609375 -1.890625q1.84375 0 3.328125 0.890625q1.484375 0.875 2.265625 2.46875q0.78125 1.578125 0.78125 3.578125q0 2.03125 -0.828125 3.640625q-0.8125 1.59375 -2.3125 2.421875q-1.5 0.828125 -3.25 0.828125q-1.875 0 -3.359375 -0.90625q-1.484375 -0.921875 -2.25 -2.5q-0.765625 -1.578125 -0.765625 -3.328125zm1.8125 0.015625q0 2.421875 1.296875 3.8125q1.296875 1.390625 3.265625 1.390625q2.0 0 3.28125 -1.40625q1.28125 -1.40625 1.28125 -3.984375q0 -1.625 -0.546875 -2.84375q-0.546875 -1.21875 -1.609375 -1.875q-1.0625 -0.671875 -2.375 -0.671875q-1.890625 0 -3.25 1.296875q-1.34375 1.28125 -1.34375 4.28125zm19.355164 6.484375l0 -1.421875q-1.125 1.640625 -3.0625 1.640625q-0.859375 0 -1.609375 -0.328125q-0.734375 -0.328125 -1.09375 -0.828125q-0.359375 -0.5 -0.5 -1.21875q-0.109375 -0.46875 -0.109375 -1.53125l0 -5.984375l1.640625 0l0 5.359375q0 1.28125 0.109375 1.734375q0.15625 0.640625 0.65625 1.015625q0.5 0.375 1.234375 0.375q0.734375 0 1.375 -0.375q0.65625 -0.390625 0.921875 -1.03125q0.265625 -0.65625 0.265625 -1.890625l0 -5.1875l1.640625 0l0 9.671875l-1.46875 0zm7.6257324 -1.46875l0.234375 1.453125q-0.6875 0.140625 -1.234375 0.140625q-0.890625 0 -1.390625 -0.28125q-0.484375 -0.28125 -0.6875 -0.734375q-0.203125 -0.46875 -0.203125 -1.9375l0 -5.578125l-1.203125 0l0 -1.265625l1.203125 0l0 -2.390625l1.625 -0.984375l0 3.375l1.65625 0l0 1.265625l-1.65625 0l0 5.671875q0 0.6875 0.078125 0.890625q0.09375 0.203125 0.28125 0.328125q0.203125 0.109375 0.578125 0.109375q0.265625 0 0.71875 -0.0625zm1.6051636 5.171875l0 -13.375l1.484375 0l0 1.25q0.53125 -0.734375 1.1875 -1.09375q0.671875 -0.375 1.625 -0.375q1.234375 0 2.171875 0.640625q0.953125 0.625 1.4375 1.796875q0.484375 1.15625 0.484375 2.546875q0 1.484375 -0.53125 2.671875q-0.53125 1.1875 -1.546875 1.828125q-1.015625 0.625 -2.140625 0.625q-0.8125 0 -1.46875 -0.34375q-0.65625 -0.34375 -1.0625 -0.875l0 4.703125l-1.640625 0zm1.484375 -8.484375q0 1.859375 0.75 2.765625q0.765625 0.890625 1.828125 0.890625q1.09375 0 1.875 -0.921875q0.78125 -0.9375 0.78125 -2.875q0 -1.84375 -0.765625 -2.765625q-0.75 -0.921875 -1.8125 -0.921875q-1.046875 0 -1.859375 0.984375q-0.796875 0.96875 -0.796875 2.84375zm15.219482 4.78125l0 -1.421875q-1.125 1.640625 -3.0625 1.640625q-0.859375 0 -1.609375 -0.328125q-0.734375 -0.328125 -1.09375 -0.828125q-0.359375 -0.5 -0.5 -1.21875q-0.109375 -0.46875 -0.109375 -1.53125l0 -5.984375l1.640625 0l0 5.359375q0 1.28125 0.109375 1.734375q0.15625 0.640625 0.65625 1.015625q0.5 0.375 1.234375 0.375q0.734375 0 1.375 -0.375q0.65625 -0.390625 0.921875 -1.03125q0.265625 -0.65625 0.265625 -1.890625l0 -5.1875l1.640625 0l0 9.671875l-1.46875 0zm7.6257324 -1.46875l0.234375 1.453125q-0.6875 0.140625 -1.234375 0.140625q-0.890625 0 -1.390625 -0.28125q-0.484375 -0.28125 -0.6875 -0.734375q-0.203125 -0.46875 -0.203125 -1.9375l0 -5.578125l-1.203125 0l0 -1.265625l1.203125 0l0 -2.390625l1.625 -0.984375l0 3.375l1.65625 0l0 1.265625l-1.65625 0l0 5.671875q0 0.6875 0.078125 0.890625q0.09375 0.203125 0.28125 0.328125q0.203125 0.109375 0.578125 0.109375q0.265625 0 0.71875 -0.0625zm6.913452 1.46875l0 -13.359375l1.78125 0l0 11.78125l6.5625 0l0 1.578125l-8.34375 0zm16.563232 -1.1875q-0.921875 0.765625 -1.765625 1.09375q-0.828125 0.3125 -1.796875 0.3125q-1.59375 0 -2.453125 -0.78125q-0.859375 -0.78125 -0.859375 -1.984375q0 -0.71875 0.328125 -1.296875q0.328125 -0.59375 0.84375 -0.9375q0.53125 -0.359375 1.1875 -0.546875q0.46875 -0.125 1.453125 -0.25q1.984375 -0.234375 2.921875 -0.5625q0.015625 -0.34375 0.015625 -0.421875q0 -1.0 -0.46875 -1.421875q-0.625 -0.546875 -1.875 -0.546875q-1.15625 0 -1.703125 0.40625q-0.546875 0.40625 -0.8125 1.421875l-1.609375 -0.21875q0.21875 -1.015625 0.71875 -1.640625q0.5 -0.640625 1.453125 -0.984375q0.953125 -0.34375 2.1875 -0.34375q1.25 0 2.015625 0.296875q0.78125 0.28125 1.140625 0.734375q0.375 0.4375 0.515625 1.109375q0.078125 0.421875 0.078125 1.515625l0 2.1875q0 2.28125 0.109375 2.890625q0.109375 0.59375 0.40625 1.15625l-1.703125 0q-0.265625 -0.515625 -0.328125 -1.1875zm-0.140625 -3.671875q-0.890625 0.375 -2.671875 0.625q-1.015625 0.140625 -1.4375 0.328125q-0.421875 0.1875 -0.65625 0.53125q-0.21875 0.34375 -0.21875 0.78125q0 0.65625 0.5 1.09375q0.5 0.4375 1.453125 0.4375q0.9375 0 1.671875 -0.40625q0.75 -0.421875 1.09375 -1.140625q0.265625 -0.5625 0.265625 -1.640625l0 -0.609375zm4.1257324 8.578125l-0.1875 -1.53125q0.546875 0.140625 0.9375 0.140625q0.546875 0 0.875 -0.1875q0.328125 -0.171875 0.546875 -0.5q0.15625 -0.25 0.5 -1.21875q0.046875 -0.140625 0.140625 -0.40625l-3.671875 -9.6875l1.765625 0l2.015625 5.59375q0.390625 1.078125 0.703125 2.25q0.28125 -1.125 0.671875 -2.203125l2.078125 -5.640625l1.640625 0l-3.6875 9.828125q-0.59375 1.609375 -0.921875 2.203125q-0.4375 0.8125 -1.0 1.1875q-0.5625 0.375 -1.34375 0.375q-0.484375 0 -1.0625 -0.203125zm16.03125 -6.828125l1.6875 0.203125q-0.40625 1.484375 -1.484375 2.3125q-1.078125 0.8125 -2.765625 0.8125q-2.125 0 -3.375 -1.296875q-1.234375 -1.3125 -1.234375 -3.671875q0 -2.453125 1.25 -3.796875q1.265625 -1.34375 3.265625 -1.34375q1.9375 0 3.15625 1.328125q1.234375 1.3125 1.234375 3.703125q0 0.15625 0 0.4375l-7.21875 0q0.09375 1.59375 0.90625 2.453125q0.8125 0.84375 2.015625 0.84375q0.90625 0 1.546875 -0.46875q0.640625 -0.484375 1.015625 -1.515625zm-5.390625 -2.65625l5.40625 0q-0.109375 -1.21875 -0.625 -1.828125q-0.78125 -0.953125 -2.03125 -0.953125q-1.125 0 -1.90625 0.765625q-0.765625 0.75 -0.84375 2.015625zm9.125671 5.765625l0 -9.671875l1.46875 0l0 1.46875q0.5625 -1.03125 1.03125 -1.359375q0.484375 -0.328125 1.0625 -0.328125q0.828125 0 1.6875 0.53125l-0.5625 1.515625q-0.609375 -0.359375 -1.203125 -0.359375q-0.546875 0 -0.96875 0.328125q-0.421875 0.328125 -0.609375 0.890625q-0.28125 0.875 -0.28125 1.921875l0 5.0625l-1.625 0zm14.536621 3.921875q-1.359375 -1.703125 -2.296875 -4.0q-0.9375 -2.296875 -0.9375 -4.765625q0 -2.15625 0.703125 -4.140625q0.828125 -2.3125 2.53125 -4.59375l1.171875 0q-1.09375 1.890625 -1.453125 2.703125q-0.546875 1.25 -0.875 2.625q-0.390625 1.703125 -0.390625 3.421875q0 4.375 2.71875 8.75l-1.171875 0zm3.0095825 -0.203125l-0.1875 -1.53125q0.546875 0.140625 0.9375 0.140625q0.546875 0 0.875 -0.1875q0.328125 -0.171875 0.546875 -0.5q0.15625 -0.25 0.5 -1.21875q0.046875 -0.140625 0.140625 -0.40625l-3.671875 -9.6875l1.765625 0l2.015625 5.59375q0.390625 1.078125 0.703125 2.25q0.28125 -1.125 0.671875 -2.203125l2.078125 -5.640625l1.640625 0l-3.6875 9.828125q-0.59375 1.609375 -0.921875 2.203125q-0.4375 0.8125 -1.0 1.1875q-0.5625 0.375 -1.34375 0.375q-0.484375 0 -1.0625 -0.203125zm3.984375 -16.140625l-1.03125 1.546875l-1.875 0l1.96875 -2.546875l1.734375 0l2.0625 2.546875l-1.859375 0l-1.0 -1.546875zm6.5 16.34375l-1.1875 0q2.734375 -4.375 2.734375 -8.75q0 -1.71875 -0.390625 -3.390625q-0.3125 -1.375 -0.875 -2.625q-0.359375 -0.828125 -1.46875 -2.734375l1.1875 0q1.703125 2.28125 2.53125 4.59375q0.6875 1.984375 0.6875 4.140625q0 2.46875 -0.9375 4.765625q-0.9375 2.296875 -2.28125 4.0z" fill-rule="nonzero"/><path fill="#000000" fill-opacity="0.0" d="m391.29715 393.18372l180.47244 0l0 41.700806l-180.47244 0z" fill-rule="evenodd"/><path fill="#000000" d="m401.79715 420.10373l0 -13.359375l1.765625 0l0 5.484375l6.9375 0l0 -5.484375l1.765625 0l0 13.359375l-1.765625 0l0 -6.296875l-6.9375 0l0 6.296875l-1.765625 0zm13.207306 -11.46875l0 -1.890625l1.640625 0l0 1.890625l-1.640625 0zm0 11.46875l0 -9.671875l1.640625 0l0 9.671875l-1.640625 0zm10.410461 0l0 -1.21875q-0.90625 1.4375 -2.703125 1.4375q-1.15625 0 -2.125 -0.640625q-0.96875 -0.640625 -1.5 -1.78125q-0.53125 -1.140625 -0.53125 -2.625q0 -1.453125 0.484375 -2.625q0.484375 -1.1875 1.4375 -1.8125q0.96875 -0.625 2.171875 -0.625q0.875 0 1.546875 0.375q0.6875 0.359375 1.109375 0.953125l0 -4.796875l1.640625 0l0 13.359375l-1.53125 0zm-5.171875 -4.828125q0 1.859375 0.78125 2.78125q0.78125 0.921875 1.84375 0.921875q1.078125 0 1.828125 -0.875q0.75 -0.890625 0.75 -2.6875q0 -1.984375 -0.765625 -2.90625q-0.765625 -0.9375 -1.890625 -0.9375q-1.078125 0 -1.8125 0.890625q-0.734375 0.890625 -0.734375 2.8125zm15.547577 4.828125l0 -1.21875q-0.90625 1.4375 -2.703125 1.4375q-1.15625 0 -2.125 -0.640625q-0.96875 -0.640625 -1.5 -1.78125q-0.53125 -1.140625 -0.53125 -2.625q0 -1.453125 0.484375 -2.625q0.484375 -1.1875 1.4375 -1.8125q0.96875 -0.625 2.171875 -0.625q0.875 0 1.546875 0.375q0.6875 0.359375 1.109375 0.953125l0 -4.796875l1.640625 0l0 13.359375l-1.53125 0zm-5.171875 -4.828125q0 1.859375 0.78125 2.78125q0.78125 0.921875 1.84375 0.921875q1.078125 0 1.828125 -0.875q0.75 -0.890625 0.75 -2.6875q0 -1.984375 -0.765625 -2.90625q-0.765625 -0.9375 -1.890625 -0.9375q-1.078125 0 -1.8125 0.890625q-0.734375 0.890625 -0.734375 2.8125zm15.906982 1.71875l1.6875 0.203125q-0.40625 1.484375 -1.484375 2.3125q-1.078125 0.8125 -2.765625 0.8125q-2.125 0 -3.375 -1.296875q-1.234375 -1.3125 -1.234375 -3.671875q0 -2.453125 1.25 -3.796875q1.265625 -1.34375 3.265625 -1.34375q1.9375 0 3.15625 1.328125q1.234375 1.3125 1.234375 3.703125q0 0.15625 0 0.4375l-7.21875 0q0.09375 1.59375 0.90625 2.453125q0.8125 0.84375 2.015625 0.84375q0.90625 0 1.546875 -0.46875q0.640625 -0.484375 1.015625 -1.515625zm-5.390625 -2.65625l5.40625 0q-0.109375 -1.21875 -0.625 -1.828125q-0.78125 -0.953125 -2.03125 -0.953125q-1.125 0 -1.90625 0.765625q-0.765625 0.75 -0.84375 2.015625zm9.141327 5.765625l0 -9.671875l1.46875 0l0 1.375q1.0625 -1.59375 3.078125 -1.59375q0.875 0 1.609375 0.3125q0.734375 0.3125 1.09375 0.828125q0.375 0.5 0.515625 1.203125q0.09375 0.453125 0.09375 1.59375l0 5.953125l-1.640625 0l0 -5.890625q0 -1.0 -0.203125 -1.484375q-0.1875 -0.5 -0.671875 -0.796875q-0.484375 -0.296875 -1.140625 -0.296875q-1.046875 0 -1.8125 0.671875q-0.75 0.65625 -0.75 2.515625l0 5.28125l-1.640625 0zm15.684021 0l0 -13.359375l1.78125 0l0 11.78125l6.5625 0l0 1.578125l-8.34375 0zm16.563232 -1.1875q-0.921875 0.765625 -1.765625 1.09375q-0.828125 0.3125 -1.796875 0.3125q-1.59375 0 -2.453125 -0.78125q-0.859375 -0.78125 -0.859375 -1.984375q0 -0.71875 0.328125 -1.296875q0.328125 -0.59375 0.84375 -0.9375q0.53125 -0.359375 1.1875 -0.546875q0.46875 -0.125 1.453125 -0.25q1.984375 -0.234375 2.921875 -0.5625q0.015625 -0.34375 0.015625 -0.421875q0 -1.0 -0.46875 -1.421875q-0.625 -0.546875 -1.875 -0.546875q-1.15625 0 -1.703125 0.40625q-0.546875 0.40625 -0.8125 1.421875l-1.609375 -0.21875q0.21875 -1.015625 0.71875 -1.640625q0.5 -0.640625 1.453125 -0.984375q0.953125 -0.34375 2.1875 -0.34375q1.25 0 2.015625 0.296875q0.78125 0.28125 1.140625 0.734375q0.375 0.4375 0.515625 1.109375q0.078125 0.421875 0.078125 1.515625l0 2.1875q0 2.28125 0.109375 2.890625q0.109375 0.59375 0.40625 1.15625l-1.703125 0q-0.265625 -0.515625 -0.328125 -1.1875zm-0.140625 -3.671875q-0.890625 0.375 -2.671875 0.625q-1.015625 0.140625 -1.4375 0.328125q-0.421875 0.1875 -0.65625 0.53125q-0.21875 0.34375 -0.21875 0.78125q0 0.65625 0.5 1.09375q0.5 0.4375 1.453125 0.4375q0.9375 0 1.671875 -0.40625q0.75 -0.421875 1.09375 -1.140625q0.265625 -0.5625 0.265625 -1.640625l0 -0.609375zm4.125702 8.578125l-0.1875 -1.53125q0.546875 0.140625 0.9375 0.140625q0.546875 0 0.875 -0.1875q0.328125 -0.171875 0.546875 -0.5q0.15625 -0.25 0.5 -1.21875q0.046875 -0.140625 0.140625 -0.40625l-3.671875 -9.6875l1.765625 0l2.015625 5.59375q0.390625 1.078125 0.703125 2.25q0.28125 -1.125 0.671875 -2.203125l2.078125 -5.640625l1.640625 0l-3.6875 9.828125q-0.59375 1.609375 -0.921875 2.203125q-0.4375 0.8125 -1.0 1.1875q-0.5625 0.375 -1.34375 0.375q-0.484375 0 -1.0625 -0.203125zm16.03125 -6.828125l1.6875 0.203125q-0.40625 1.484375 -1.484375 2.3125q-1.078125 0.8125 -2.765625 0.8125q-2.125 0 -3.375 -1.296875q-1.234375 -1.3125 -1.234375 -3.671875q0 -2.453125 1.25 -3.796875q1.265625 -1.34375 3.265625 -1.34375q1.9375 0 3.15625 1.328125q1.234375 1.3125 1.234375 3.703125q0 0.15625 0 0.4375l-7.21875 0q0.09375 1.59375 0.90625 2.453125q0.8125 0.84375 2.015625 0.84375q0.90625 0 1.546875 -0.46875q0.640625 -0.484375 1.015625 -1.515625zm-5.390625 -2.65625l5.40625 0q-0.109375 -1.21875 -0.625 -1.828125q-0.78125 -0.953125 -2.03125 -0.953125q-1.125 0 -1.90625 0.765625q-0.765625 0.75 -0.84375 2.015625zm9.125732 5.765625l0 -9.671875l1.46875 0l0 1.46875q0.5625 -1.03125 1.03125 -1.359375q0.484375 -0.328125 1.0625 -0.328125q0.828125 0 1.6875 0.53125l-0.5625 1.515625q-0.609375 -0.359375 -1.203125 -0.359375q-0.546875 0 -0.96875 0.328125q-0.421875 0.328125 -0.609375 0.890625q-0.28125 0.875 -0.28125 1.921875l0 5.0625l-1.625 0zm17.13034 0l-1.640625 0l0 -10.453125q-0.59375 0.5625 -1.5625 1.140625q-0.953125 0.5625 -1.71875 0.84375l0 -1.59375q1.375 -0.640625 2.40625 -1.5625q1.03125 -0.921875 1.453125 -1.78125l1.0625 0l0 13.40625zm12.965271 3.921875q-1.359375 -1.703125 -2.296875 -4.0q-0.9375 -2.296875 -0.9375 -4.765625q0 -2.15625 0.703125 -4.140625q0.828125 -2.3125 2.53125 -4.59375l1.171875 0q-1.09375 1.890625 -1.453125 2.703125q-0.546875 1.25 -0.875 2.625q-0.390625 1.703125 -0.390625 3.421875q0 4.375 2.71875 8.75l-1.171875 0zm3.0877075 -3.921875l0 -13.359375l1.640625 0l0 4.796875q1.140625 -1.328125 2.890625 -1.328125q1.078125 0 1.859375 0.421875q0.796875 0.421875 1.140625 1.171875q0.34375 0.75 0.34375 2.171875l0 6.125l-1.640625 0l0 -6.125q0 -1.234375 -0.53125 -1.796875q-0.53125 -0.5625 -1.515625 -0.5625q-0.71875 0 -1.359375 0.390625q-0.640625 0.375 -0.921875 1.015625q-0.265625 0.640625 -0.265625 1.78125l0 5.296875l-1.640625 0z" fill-rule="nonzero"/><path fill="#000000" d="m554.86536 412.05685l0 1.046875l-5.890625 0q-0.015625 -0.390625 0.125 -0.765625q0.234375 -0.59375 0.71875 -1.171875q0.5 -0.59375 1.4375 -1.359375q1.453125 -1.1875 1.953125 -1.875q0.515625 -0.703125 0.515625 -1.3125q0 -0.65625 -0.46875 -1.09375q-0.453125 -0.453125 -1.203125 -0.453125q-0.796875 0 -1.265625 0.46875q-0.46875 0.46875 -0.484375 1.3125l-1.125 -0.109375q0.125 -1.265625 0.875 -1.921875q0.75 -0.65625 2.015625 -0.65625q1.28125 0 2.03125 0.71875q0.75 0.703125 0.75 1.75q0 0.53125 -0.21875 1.046875q-0.21875 0.515625 -0.734375 1.09375q-0.5 0.5625 -1.671875 1.5625q-0.984375 0.828125 -1.265625 1.125q-0.28125 0.296875 -0.46875 0.59375l4.375 0z" fill-rule="nonzero"/><path fill="#000000" d="m557.8293 424.0256l-1.1875 0q2.734375 -4.375 2.734375 -8.75q0 -1.71875 -0.390625 -3.390625q-0.3125 -1.375 -0.875 -2.625q-0.359375 -0.828125 -1.46875 -2.734375l1.1875 0q1.703125 2.28125 2.53125 4.59375q0.6875 1.984375 0.6875 4.140625q0 2.46875 -0.9375 4.765625q-0.9375 2.296875 -2.28125 4.0z" fill-rule="nonzero"/></g></svg>